ISO-10303-21;
HEADER;
/* Generated by software containing ST-Developer
 * from STEP Tools, Inc. (www.steptools.com) 
 */
/* OPTION: using custom schema-name function */

FILE_DESCRIPTION(
/* description */ (''),
/* implementation_level */ '2;1');

FILE_NAME(
/* name */ '874370443wbm000_01_214.stp',
/* time_stamp */ '2024-01-10T16:25:45+06:00',
/* author */ (''),
/* organization */ (''),
/* preprocessor_version */ 'ST-DEVELOPER v16.7',
/* originating_system */ 'SIEMENS PLM Software NX 1919',
/* authorisation */ '');

FILE_SCHEMA (('AUTOMOTIVE_DESIGN { 1 0 10303 214 3 1 1 1 }'));
ENDSEC;

DATA;
#10=SHAPE_REPRESENTATION_RELATIONSHIP('None',
'relationship between 874370443wbm000_01-None and 874370443wbm000_01-N
one',#22,#11);
#11=ADVANCED_BREP_SHAPE_REPRESENTATION('874370443wbm000_01-None',(#32),
#2453);
#12=SHAPE_DEFINITION_REPRESENTATION(#13,#22);
#13=PRODUCT_DEFINITION_SHAPE('','',#14);
#14=PRODUCT_DEFINITION(' ','',#16,#15);
#15=PRODUCT_DEFINITION_CONTEXT('part definition',#21,'design');
#16=PRODUCT_DEFINITION_FORMATION_WITH_SPECIFIED_SOURCE(' ',' ',#18,
 .NOT_KNOWN.);
#17=PRODUCT_RELATED_PRODUCT_CATEGORY('part','',(#18));
#18=PRODUCT('874370443wbm000_01','874370443wbm000_01',' ',(#19));
#19=PRODUCT_CONTEXT(' ',#21,'mechanical');
#20=APPLICATION_PROTOCOL_DEFINITION('international standard',
'automotive_design',2010,#21);
#21=APPLICATION_CONTEXT(
'core data for automotive mechanical design processes');
#22=SHAPE_REPRESENTATION('874370443wbm000_01-None',(#1566),#2453);
#23=PRESENTATION_LAYER_ASSIGNMENT('1','Layer 1',(#32));
#24=STYLED_ITEM('',(#25),#32);
#25=PRESENTATION_STYLE_ASSIGNMENT((#26));
#26=SURFACE_STYLE_USAGE(.BOTH.,#27);
#27=SURFACE_SIDE_STYLE('',(#28));
#28=SURFACE_STYLE_FILL_AREA(#29);
#29=FILL_AREA_STYLE('',(#30));
#30=FILL_AREA_STYLE_COLOUR('',#31);
#31=COLOUR_RGB('Medium Steel',0.596063172350652,0.666666666666667,0.686259250782025);
#32=MANIFOLD_SOLID_BREP('',#33);
#33=CLOSED_SHELL('',(#39,#40,#41,#42,#43,#44,#45,#46,#47,#48,#49,#50,#51,
#52,#53,#54,#55,#56,#57,#58,#59,#60,#61,#62,#63,#64,#65,#66,#67,#68,#69,
#70,#71,#72,#73,#74,#75,#76,#77,#78,#79,#80,#81,#82,#83,#84,#85,#86,#87,
#88,#89,#90,#91,#92,#93,#94,#95,#96,#97,#98,#99,#100,#101,#102,#103,#104,
#105,#106,#107,#108,#109,#110,#111,#112,#113,#114,#115,#116));
#34=FACE_BOUND('',#283,.T.);
#35=FACE_BOUND('',#284,.T.);
#36=FACE_BOUND('',#285,.T.);
#37=FACE_BOUND('',#286,.T.);
#38=FACE_BOUND('',#287,.T.);
#39=ADVANCED_FACE('',(#195),#117,.F.);
#40=ADVANCED_FACE('',(#196),#118,.F.);
#41=ADVANCED_FACE('',(#197),#119,.F.);
#42=ADVANCED_FACE('',(#198),#120,.F.);
#43=ADVANCED_FACE('',(#199),#121,.T.);
#44=ADVANCED_FACE('',(#200),#122,.T.);
#45=ADVANCED_FACE('',(#201),#123,.F.);
#46=ADVANCED_FACE('',(#202),#124,.T.);
#47=ADVANCED_FACE('',(#203),#125,.T.);
#48=ADVANCED_FACE('',(#204),#126,.T.);
#49=ADVANCED_FACE('',(#205),#127,.T.);
#50=ADVANCED_FACE('',(#34,#35,#36,#37,#38),#128,.F.);
#51=ADVANCED_FACE('',(#206),#129,.F.);
#52=ADVANCED_FACE('',(#207),#130,.F.);
#53=ADVANCED_FACE('',(#208),#131,.F.);
#54=ADVANCED_FACE('',(#209),#132,.F.);
#55=ADVANCED_FACE('',(#210),#133,.F.);
#56=ADVANCED_FACE('',(#211),#134,.T.);
#57=ADVANCED_FACE('',(#212),#135,.F.);
#58=ADVANCED_FACE('',(#213),#136,.F.);
#59=ADVANCED_FACE('',(#214),#137,.F.);
#60=ADVANCED_FACE('',(#215),#138,.T.);
#61=ADVANCED_FACE('',(#216),#139,.T.);
#62=ADVANCED_FACE('',(#217),#140,.F.);
#63=ADVANCED_FACE('',(#218),#141,.F.);
#64=ADVANCED_FACE('',(#219),#142,.F.);
#65=ADVANCED_FACE('',(#220),#143,.F.);
#66=ADVANCED_FACE('',(#221),#144,.F.);
#67=ADVANCED_FACE('',(#222),#145,.T.);
#68=ADVANCED_FACE('',(#223),#146,.F.);
#69=ADVANCED_FACE('',(#224),#147,.F.);
#70=ADVANCED_FACE('',(#225),#148,.F.);
#71=ADVANCED_FACE('',(#226),#149,.T.);
#72=ADVANCED_FACE('',(#227),#150,.F.);
#73=ADVANCED_FACE('',(#228),#151,.F.);
#74=ADVANCED_FACE('',(#229),#152,.F.);
#75=ADVANCED_FACE('',(#230),#153,.F.);
#76=ADVANCED_FACE('',(#231),#154,.F.);
#77=ADVANCED_FACE('',(#232),#155,.F.);
#78=ADVANCED_FACE('',(#233),#156,.F.);
#79=ADVANCED_FACE('',(#234),#157,.T.);
#80=ADVANCED_FACE('',(#235),#158,.F.);
#81=ADVANCED_FACE('',(#236),#159,.F.);
#82=ADVANCED_FACE('',(#237),#160,.F.);
#83=ADVANCED_FACE('',(#238),#161,.T.);
#84=ADVANCED_FACE('',(#239),#162,.F.);
#85=ADVANCED_FACE('',(#240),#163,.F.);
#86=ADVANCED_FACE('',(#241),#164,.F.);
#87=ADVANCED_FACE('',(#242),#165,.F.);
#88=ADVANCED_FACE('',(#243),#166,.F.);
#89=ADVANCED_FACE('',(#244),#167,.F.);
#90=ADVANCED_FACE('',(#245),#168,.F.);
#91=ADVANCED_FACE('',(#246),#169,.T.);
#92=ADVANCED_FACE('',(#247),#170,.F.);
#93=ADVANCED_FACE('',(#248),#171,.F.);
#94=ADVANCED_FACE('',(#249),#172,.F.);
#95=ADVANCED_FACE('',(#250),#173,.T.);
#96=ADVANCED_FACE('',(#251),#174,.F.);
#97=ADVANCED_FACE('',(#252),#175,.F.);
#98=ADVANCED_FACE('',(#253),#176,.F.);
#99=ADVANCED_FACE('',(#254),#177,.F.);
#100=ADVANCED_FACE('',(#255),#178,.F.);
#101=ADVANCED_FACE('',(#256),#179,.F.);
#102=ADVANCED_FACE('',(#257),#180,.F.);
#103=ADVANCED_FACE('',(#258),#181,.T.);
#104=ADVANCED_FACE('',(#259),#182,.F.);
#105=ADVANCED_FACE('',(#260),#183,.F.);
#106=ADVANCED_FACE('',(#261),#184,.F.);
#107=ADVANCED_FACE('',(#262),#185,.T.);
#108=ADVANCED_FACE('',(#263),#186,.F.);
#109=ADVANCED_FACE('',(#264),#187,.F.);
#110=ADVANCED_FACE('',(#265),#188,.F.);
#111=ADVANCED_FACE('',(#266),#189,.T.);
#112=ADVANCED_FACE('',(#267),#190,.T.);
#113=ADVANCED_FACE('',(#268),#191,.T.);
#114=ADVANCED_FACE('',(#269),#192,.T.);
#115=ADVANCED_FACE('',(#270),#193,.F.);
#116=ADVANCED_FACE('',(#271),#194,.T.);
#117=PLANE('',#1567);
#118=PLANE('',#1568);
#119=PLANE('',#1569);
#120=PLANE('',#1570);
#121=PLANE('',#1571);
#122=PLANE('',#1572);
#123=PLANE('',#1573);
#124=PLANE('',#1574);
#125=PLANE('',#1575);
#126=PLANE('',#1576);
#127=PLANE('',#1577);
#128=PLANE('',#1578);
#129=PLANE('',#1579);
#130=PLANE('',#1580);
#131=PLANE('',#1581);
#132=PLANE('',#1582);
#133=PLANE('',#1583);
#134=PLANE('',#1584);
#135=PLANE('',#1585);
#136=PLANE('',#1586);
#137=PLANE('',#1587);
#138=PLANE('',#1588);
#139=PLANE('',#1589);
#140=PLANE('',#1590);
#141=PLANE('',#1591);
#142=PLANE('',#1592);
#143=PLANE('',#1593);
#144=PLANE('',#1594);
#145=PLANE('',#1595);
#146=PLANE('',#1596);
#147=PLANE('',#1597);
#148=PLANE('',#1598);
#149=PLANE('',#1599);
#150=PLANE('',#1600);
#151=PLANE('',#1601);
#152=PLANE('',#1602);
#153=PLANE('',#1603);
#154=PLANE('',#1604);
#155=PLANE('',#1605);
#156=PLANE('',#1606);
#157=PLANE('',#1607);
#158=PLANE('',#1608);
#159=PLANE('',#1609);
#160=PLANE('',#1610);
#161=PLANE('',#1611);
#162=PLANE('',#1612);
#163=PLANE('',#1613);
#164=PLANE('',#1614);
#165=PLANE('',#1615);
#166=PLANE('',#1616);
#167=PLANE('',#1617);
#168=PLANE('',#1618);
#169=PLANE('',#1619);
#170=PLANE('',#1620);
#171=PLANE('',#1621);
#172=PLANE('',#1622);
#173=PLANE('',#1623);
#174=PLANE('',#1624);
#175=PLANE('',#1625);
#176=PLANE('',#1626);
#177=PLANE('',#1627);
#178=PLANE('',#1628);
#179=PLANE('',#1629);
#180=PLANE('',#1630);
#181=PLANE('',#1631);
#182=PLANE('',#1632);
#183=PLANE('',#1633);
#184=PLANE('',#1634);
#185=PLANE('',#1635);
#186=PLANE('',#1636);
#187=PLANE('',#1637);
#188=PLANE('',#1638);
#189=PLANE('',#1639);
#190=PLANE('',#1640);
#191=PLANE('',#1641);
#192=PLANE('',#1642);
#193=PLANE('',#1643);
#194=PLANE('',#1644);
#195=FACE_OUTER_BOUND('',#272,.T.);
#196=FACE_OUTER_BOUND('',#273,.T.);
#197=FACE_OUTER_BOUND('',#274,.T.);
#198=FACE_OUTER_BOUND('',#275,.T.);
#199=FACE_OUTER_BOUND('',#276,.T.);
#200=FACE_OUTER_BOUND('',#277,.T.);
#201=FACE_OUTER_BOUND('',#278,.T.);
#202=FACE_OUTER_BOUND('',#279,.T.);
#203=FACE_OUTER_BOUND('',#280,.T.);
#204=FACE_OUTER_BOUND('',#281,.T.);
#205=FACE_OUTER_BOUND('',#282,.T.);
#206=FACE_OUTER_BOUND('',#288,.T.);
#207=FACE_OUTER_BOUND('',#289,.T.);
#208=FACE_OUTER_BOUND('',#290,.T.);
#209=FACE_OUTER_BOUND('',#291,.T.);
#210=FACE_OUTER_BOUND('',#292,.T.);
#211=FACE_OUTER_BOUND('',#293,.T.);
#212=FACE_OUTER_BOUND('',#294,.T.);
#213=FACE_OUTER_BOUND('',#295,.T.);
#214=FACE_OUTER_BOUND('',#296,.T.);
#215=FACE_OUTER_BOUND('',#297,.T.);
#216=FACE_OUTER_BOUND('',#298,.T.);
#217=FACE_OUTER_BOUND('',#299,.T.);
#218=FACE_OUTER_BOUND('',#300,.T.);
#219=FACE_OUTER_BOUND('',#301,.T.);
#220=FACE_OUTER_BOUND('',#302,.T.);
#221=FACE_OUTER_BOUND('',#303,.T.);
#222=FACE_OUTER_BOUND('',#304,.T.);
#223=FACE_OUTER_BOUND('',#305,.T.);
#224=FACE_OUTER_BOUND('',#306,.T.);
#225=FACE_OUTER_BOUND('',#307,.T.);
#226=FACE_OUTER_BOUND('',#308,.T.);
#227=FACE_OUTER_BOUND('',#309,.T.);
#228=FACE_OUTER_BOUND('',#310,.T.);
#229=FACE_OUTER_BOUND('',#311,.T.);
#230=FACE_OUTER_BOUND('',#312,.T.);
#231=FACE_OUTER_BOUND('',#313,.T.);
#232=FACE_OUTER_BOUND('',#314,.T.);
#233=FACE_OUTER_BOUND('',#315,.T.);
#234=FACE_OUTER_BOUND('',#316,.T.);
#235=FACE_OUTER_BOUND('',#317,.T.);
#236=FACE_OUTER_BOUND('',#318,.T.);
#237=FACE_OUTER_BOUND('',#319,.T.);
#238=FACE_OUTER_BOUND('',#320,.T.);
#239=FACE_OUTER_BOUND('',#321,.T.);
#240=FACE_OUTER_BOUND('',#322,.T.);
#241=FACE_OUTER_BOUND('',#323,.T.);
#242=FACE_OUTER_BOUND('',#324,.T.);
#243=FACE_OUTER_BOUND('',#325,.T.);
#244=FACE_OUTER_BOUND('',#326,.T.);
#245=FACE_OUTER_BOUND('',#327,.T.);
#246=FACE_OUTER_BOUND('',#328,.T.);
#247=FACE_OUTER_BOUND('',#329,.T.);
#248=FACE_OUTER_BOUND('',#330,.T.);
#249=FACE_OUTER_BOUND('',#331,.T.);
#250=FACE_OUTER_BOUND('',#332,.T.);
#251=FACE_OUTER_BOUND('',#333,.T.);
#252=FACE_OUTER_BOUND('',#334,.T.);
#253=FACE_OUTER_BOUND('',#335,.T.);
#254=FACE_OUTER_BOUND('',#336,.T.);
#255=FACE_OUTER_BOUND('',#337,.T.);
#256=FACE_OUTER_BOUND('',#338,.T.);
#257=FACE_OUTER_BOUND('',#339,.T.);
#258=FACE_OUTER_BOUND('',#340,.T.);
#259=FACE_OUTER_BOUND('',#341,.T.);
#260=FACE_OUTER_BOUND('',#342,.T.);
#261=FACE_OUTER_BOUND('',#343,.T.);
#262=FACE_OUTER_BOUND('',#344,.T.);
#263=FACE_OUTER_BOUND('',#345,.T.);
#264=FACE_OUTER_BOUND('',#346,.T.);
#265=FACE_OUTER_BOUND('',#347,.T.);
#266=FACE_OUTER_BOUND('',#348,.T.);
#267=FACE_OUTER_BOUND('',#349,.T.);
#268=FACE_OUTER_BOUND('',#350,.T.);
#269=FACE_OUTER_BOUND('',#351,.T.);
#270=FACE_OUTER_BOUND('',#352,.T.);
#271=FACE_OUTER_BOUND('',#353,.T.);
#272=EDGE_LOOP('',(#354,#355,#356,#357));
#273=EDGE_LOOP('',(#358,#359,#360,#361,#362,#363,#364,#365,#366,#367,#368,
#369,#370,#371,#372,#373,#374,#375,#376,#377,#378,#379,#380,#381));
#274=EDGE_LOOP('',(#382,#383,#384,#385,#386));
#275=EDGE_LOOP('',(#387,#388,#389,#390));
#276=EDGE_LOOP('',(#391,#392,#393,#394,#395));
#277=EDGE_LOOP('',(#396,#397,#398,#399));
#278=EDGE_LOOP('',(#400,#401,#402,#403,#404,#405,#406,#407,#408,#409,#410,
#411,#412,#413,#414,#415,#416,#417,#418,#419,#420,#421,#422,#423));
#279=EDGE_LOOP('',(#424,#425,#426,#427));
#280=EDGE_LOOP('',(#428,#429,#430,#431));
#281=EDGE_LOOP('',(#432,#433,#434,#435));
#282=EDGE_LOOP('',(#436,#437,#438,#439));
#283=EDGE_LOOP('',(#440,#441,#442,#443));
#284=EDGE_LOOP('',(#444,#445,#446,#447));
#285=EDGE_LOOP('',(#448,#449,#450,#451));
#286=EDGE_LOOP('',(#452,#453,#454,#455));
#287=EDGE_LOOP('',(#456,#457,#458,#459,#460,#461,#462,#463));
#288=EDGE_LOOP('',(#464,#465,#466,#467,#468,#469));
#289=EDGE_LOOP('',(#470,#471,#472,#473));
#290=EDGE_LOOP('',(#474,#475,#476,#477,#478,#479,#480,#481));
#291=EDGE_LOOP('',(#482,#483,#484,#485));
#292=EDGE_LOOP('',(#486,#487,#488,#489,#490,#491,#492,#493,#494,#495,#496,
#497,#498,#499,#500,#501,#502,#503,#504,#505,#506,#507,#508,#509));
#293=EDGE_LOOP('',(#510,#511,#512,#513));
#294=EDGE_LOOP('',(#514,#515,#516,#517));
#295=EDGE_LOOP('',(#518,#519,#520,#521));
#296=EDGE_LOOP('',(#522,#523,#524,#525));
#297=EDGE_LOOP('',(#526,#527,#528,#529));
#298=EDGE_LOOP('',(#530,#531,#532,#533));
#299=EDGE_LOOP('',(#534,#535,#536,#537));
#300=EDGE_LOOP('',(#538,#539,#540,#541));
#301=EDGE_LOOP('',(#542,#543,#544,#545));
#302=EDGE_LOOP('',(#546,#547,#548,#549));
#303=EDGE_LOOP('',(#550,#551,#552,#553,#554,#555,#556));
#304=EDGE_LOOP('',(#557,#558,#559,#560,#561,#562,#563));
#305=EDGE_LOOP('',(#564,#565,#566,#567));
#306=EDGE_LOOP('',(#568,#569,#570,#571));
#307=EDGE_LOOP('',(#572,#573,#574,#575));
#308=EDGE_LOOP('',(#576,#577,#578,#579));
#309=EDGE_LOOP('',(#580,#581,#582,#583));
#310=EDGE_LOOP('',(#584,#585,#586,#587));
#311=EDGE_LOOP('',(#588,#589,#590,#591));
#312=EDGE_LOOP('',(#592,#593,#594,#595));
#313=EDGE_LOOP('',(#596,#597,#598,#599));
#314=EDGE_LOOP('',(#600,#601,#602,#603));
#315=EDGE_LOOP('',(#604,#605,#606,#607,#608,#609,#610));
#316=EDGE_LOOP('',(#611,#612,#613,#614,#615,#616,#617));
#317=EDGE_LOOP('',(#618,#619,#620,#621));
#318=EDGE_LOOP('',(#622,#623,#624,#625));
#319=EDGE_LOOP('',(#626,#627,#628,#629));
#320=EDGE_LOOP('',(#630,#631,#632,#633));
#321=EDGE_LOOP('',(#634,#635,#636,#637));
#322=EDGE_LOOP('',(#638,#639,#640,#641));
#323=EDGE_LOOP('',(#642,#643,#644,#645));
#324=EDGE_LOOP('',(#646,#647,#648,#649));
#325=EDGE_LOOP('',(#650,#651,#652,#653));
#326=EDGE_LOOP('',(#654,#655,#656,#657));
#327=EDGE_LOOP('',(#658,#659,#660,#661,#662,#663,#664));
#328=EDGE_LOOP('',(#665,#666,#667,#668,#669,#670,#671));
#329=EDGE_LOOP('',(#672,#673,#674,#675));
#330=EDGE_LOOP('',(#676,#677,#678,#679));
#331=EDGE_LOOP('',(#680,#681,#682,#683));
#332=EDGE_LOOP('',(#684,#685,#686,#687));
#333=EDGE_LOOP('',(#688,#689,#690,#691));
#334=EDGE_LOOP('',(#692,#693,#694,#695));
#335=EDGE_LOOP('',(#696,#697,#698,#699));
#336=EDGE_LOOP('',(#700,#701,#702,#703));
#337=EDGE_LOOP('',(#704,#705,#706,#707));
#338=EDGE_LOOP('',(#708,#709,#710,#711));
#339=EDGE_LOOP('',(#712,#713,#714,#715,#716,#717,#718));
#340=EDGE_LOOP('',(#719,#720,#721,#722,#723,#724,#725));
#341=EDGE_LOOP('',(#726,#727,#728,#729));
#342=EDGE_LOOP('',(#730,#731,#732,#733));
#343=EDGE_LOOP('',(#734,#735,#736,#737));
#344=EDGE_LOOP('',(#738,#739,#740,#741));
#345=EDGE_LOOP('',(#742,#743,#744,#745));
#346=EDGE_LOOP('',(#746,#747,#748,#749));
#347=EDGE_LOOP('',(#750,#751,#752,#753));
#348=EDGE_LOOP('',(#754,#755,#756,#757));
#349=EDGE_LOOP('',(#758,#759,#760,#761));
#350=EDGE_LOOP('',(#762,#763,#764,#765));
#351=EDGE_LOOP('',(#766,#767,#768,#769));
#352=EDGE_LOOP('',(#770,#771,#772,#773,#774,#775));
#353=EDGE_LOOP('',(#776,#777,#778,#779,#780,#781));
#354=ORIENTED_EDGE('',*,*,#924,.F.);
#355=ORIENTED_EDGE('',*,*,#925,.T.);
#356=ORIENTED_EDGE('',*,*,#926,.F.);
#357=ORIENTED_EDGE('',*,*,#927,.T.);
#358=ORIENTED_EDGE('',*,*,#928,.F.);
#359=ORIENTED_EDGE('',*,*,#929,.F.);
#360=ORIENTED_EDGE('',*,*,#930,.T.);
#361=ORIENTED_EDGE('',*,*,#931,.F.);
#362=ORIENTED_EDGE('',*,*,#932,.T.);
#363=ORIENTED_EDGE('',*,*,#933,.T.);
#364=ORIENTED_EDGE('',*,*,#934,.T.);
#365=ORIENTED_EDGE('',*,*,#935,.F.);
#366=ORIENTED_EDGE('',*,*,#936,.F.);
#367=ORIENTED_EDGE('',*,*,#937,.T.);
#368=ORIENTED_EDGE('',*,*,#938,.F.);
#369=ORIENTED_EDGE('',*,*,#939,.F.);
#370=ORIENTED_EDGE('',*,*,#940,.T.);
#371=ORIENTED_EDGE('',*,*,#941,.T.);
#372=ORIENTED_EDGE('',*,*,#942,.F.);
#373=ORIENTED_EDGE('',*,*,#943,.F.);
#374=ORIENTED_EDGE('',*,*,#944,.F.);
#375=ORIENTED_EDGE('',*,*,#945,.T.);
#376=ORIENTED_EDGE('',*,*,#946,.T.);
#377=ORIENTED_EDGE('',*,*,#947,.F.);
#378=ORIENTED_EDGE('',*,*,#948,.F.);
#379=ORIENTED_EDGE('',*,*,#949,.T.);
#380=ORIENTED_EDGE('',*,*,#950,.T.);
#381=ORIENTED_EDGE('',*,*,#925,.F.);
#382=ORIENTED_EDGE('',*,*,#934,.F.);
#383=ORIENTED_EDGE('',*,*,#951,.T.);
#384=ORIENTED_EDGE('',*,*,#952,.F.);
#385=ORIENTED_EDGE('',*,*,#953,.F.);
#386=ORIENTED_EDGE('',*,*,#954,.F.);
#387=ORIENTED_EDGE('',*,*,#931,.T.);
#388=ORIENTED_EDGE('',*,*,#955,.T.);
#389=ORIENTED_EDGE('',*,*,#956,.T.);
#390=ORIENTED_EDGE('',*,*,#957,.T.);
#391=ORIENTED_EDGE('',*,*,#958,.T.);
#392=ORIENTED_EDGE('',*,*,#959,.T.);
#393=ORIENTED_EDGE('',*,*,#948,.T.);
#394=ORIENTED_EDGE('',*,*,#960,.T.);
#395=ORIENTED_EDGE('',*,*,#961,.T.);
#396=ORIENTED_EDGE('',*,*,#962,.T.);
#397=ORIENTED_EDGE('',*,*,#963,.T.);
#398=ORIENTED_EDGE('',*,*,#943,.T.);
#399=ORIENTED_EDGE('',*,*,#964,.F.);
#400=ORIENTED_EDGE('',*,*,#965,.F.);
#401=ORIENTED_EDGE('',*,*,#966,.T.);
#402=ORIENTED_EDGE('',*,*,#967,.T.);
#403=ORIENTED_EDGE('',*,*,#968,.F.);
#404=ORIENTED_EDGE('',*,*,#969,.F.);
#405=ORIENTED_EDGE('',*,*,#970,.F.);
#406=ORIENTED_EDGE('',*,*,#962,.F.);
#407=ORIENTED_EDGE('',*,*,#971,.F.);
#408=ORIENTED_EDGE('',*,*,#972,.F.);
#409=ORIENTED_EDGE('',*,*,#973,.F.);
#410=ORIENTED_EDGE('',*,*,#974,.F.);
#411=ORIENTED_EDGE('',*,*,#975,.F.);
#412=ORIENTED_EDGE('',*,*,#976,.F.);
#413=ORIENTED_EDGE('',*,*,#977,.T.);
#414=ORIENTED_EDGE('',*,*,#978,.T.);
#415=ORIENTED_EDGE('',*,*,#979,.F.);
#416=ORIENTED_EDGE('',*,*,#980,.F.);
#417=ORIENTED_EDGE('',*,*,#981,.T.);
#418=ORIENTED_EDGE('',*,*,#982,.T.);
#419=ORIENTED_EDGE('',*,*,#983,.F.);
#420=ORIENTED_EDGE('',*,*,#984,.F.);
#421=ORIENTED_EDGE('',*,*,#985,.T.);
#422=ORIENTED_EDGE('',*,*,#986,.T.);
#423=ORIENTED_EDGE('',*,*,#987,.F.);
#424=ORIENTED_EDGE('',*,*,#964,.T.);
#425=ORIENTED_EDGE('',*,*,#942,.T.);
#426=ORIENTED_EDGE('',*,*,#988,.F.);
#427=ORIENTED_EDGE('',*,*,#971,.T.);
#428=ORIENTED_EDGE('',*,*,#989,.F.);
#429=ORIENTED_EDGE('',*,*,#974,.T.);
#430=ORIENTED_EDGE('',*,*,#990,.T.);
#431=ORIENTED_EDGE('',*,*,#939,.T.);
#432=ORIENTED_EDGE('',*,*,#940,.F.);
#433=ORIENTED_EDGE('',*,*,#990,.F.);
#434=ORIENTED_EDGE('',*,*,#973,.T.);
#435=ORIENTED_EDGE('',*,*,#991,.T.);
#436=ORIENTED_EDGE('',*,*,#972,.T.);
#437=ORIENTED_EDGE('',*,*,#988,.T.);
#438=ORIENTED_EDGE('',*,*,#941,.F.);
#439=ORIENTED_EDGE('',*,*,#991,.F.);
#440=ORIENTED_EDGE('',*,*,#992,.F.);
#441=ORIENTED_EDGE('',*,*,#993,.T.);
#442=ORIENTED_EDGE('',*,*,#994,.F.);
#443=ORIENTED_EDGE('',*,*,#995,.F.);
#444=ORIENTED_EDGE('',*,*,#996,.F.);
#445=ORIENTED_EDGE('',*,*,#997,.T.);
#446=ORIENTED_EDGE('',*,*,#998,.F.);
#447=ORIENTED_EDGE('',*,*,#999,.F.);
#448=ORIENTED_EDGE('',*,*,#1000,.F.);
#449=ORIENTED_EDGE('',*,*,#1001,.T.);
#450=ORIENTED_EDGE('',*,*,#1002,.F.);
#451=ORIENTED_EDGE('',*,*,#1003,.F.);
#452=ORIENTED_EDGE('',*,*,#1004,.F.);
#453=ORIENTED_EDGE('',*,*,#1005,.T.);
#454=ORIENTED_EDGE('',*,*,#1006,.F.);
#455=ORIENTED_EDGE('',*,*,#1007,.F.);
#456=ORIENTED_EDGE('',*,*,#1008,.T.);
#457=ORIENTED_EDGE('',*,*,#1009,.T.);
#458=ORIENTED_EDGE('',*,*,#956,.F.);
#459=ORIENTED_EDGE('',*,*,#1010,.T.);
#460=ORIENTED_EDGE('',*,*,#1011,.T.);
#461=ORIENTED_EDGE('',*,*,#1012,.F.);
#462=ORIENTED_EDGE('',*,*,#927,.F.);
#463=ORIENTED_EDGE('',*,*,#1013,.T.);
#464=ORIENTED_EDGE('',*,*,#952,.T.);
#465=ORIENTED_EDGE('',*,*,#1014,.T.);
#466=ORIENTED_EDGE('',*,*,#1008,.F.);
#467=ORIENTED_EDGE('',*,*,#1015,.T.);
#468=ORIENTED_EDGE('',*,*,#958,.F.);
#469=ORIENTED_EDGE('',*,*,#1016,.T.);
#470=ORIENTED_EDGE('',*,*,#961,.F.);
#471=ORIENTED_EDGE('',*,*,#1017,.T.);
#472=ORIENTED_EDGE('',*,*,#953,.T.);
#473=ORIENTED_EDGE('',*,*,#1016,.F.);
#474=ORIENTED_EDGE('',*,*,#960,.F.);
#475=ORIENTED_EDGE('',*,*,#947,.T.);
#476=ORIENTED_EDGE('',*,*,#1018,.T.);
#477=ORIENTED_EDGE('',*,*,#1019,.F.);
#478=ORIENTED_EDGE('',*,*,#1020,.F.);
#479=ORIENTED_EDGE('',*,*,#935,.T.);
#480=ORIENTED_EDGE('',*,*,#954,.T.);
#481=ORIENTED_EDGE('',*,*,#1017,.F.);
#482=ORIENTED_EDGE('',*,*,#1021,.T.);
#483=ORIENTED_EDGE('',*,*,#1022,.F.);
#484=ORIENTED_EDGE('',*,*,#1023,.F.);
#485=ORIENTED_EDGE('',*,*,#1019,.T.);
#486=ORIENTED_EDGE('',*,*,#1024,.F.);
#487=ORIENTED_EDGE('',*,*,#1025,.T.);
#488=ORIENTED_EDGE('',*,*,#965,.T.);
#489=ORIENTED_EDGE('',*,*,#1026,.F.);
#490=ORIENTED_EDGE('',*,*,#1027,.F.);
#491=ORIENTED_EDGE('',*,*,#1028,.T.);
#492=ORIENTED_EDGE('',*,*,#984,.T.);
#493=ORIENTED_EDGE('',*,*,#1029,.F.);
#494=ORIENTED_EDGE('',*,*,#1030,.F.);
#495=ORIENTED_EDGE('',*,*,#1031,.T.);
#496=ORIENTED_EDGE('',*,*,#980,.T.);
#497=ORIENTED_EDGE('',*,*,#1032,.F.);
#498=ORIENTED_EDGE('',*,*,#1033,.F.);
#499=ORIENTED_EDGE('',*,*,#1034,.T.);
#500=ORIENTED_EDGE('',*,*,#976,.T.);
#501=ORIENTED_EDGE('',*,*,#1035,.T.);
#502=ORIENTED_EDGE('',*,*,#937,.F.);
#503=ORIENTED_EDGE('',*,*,#1036,.F.);
#504=ORIENTED_EDGE('',*,*,#1022,.T.);
#505=ORIENTED_EDGE('',*,*,#1037,.T.);
#506=ORIENTED_EDGE('',*,*,#945,.F.);
#507=ORIENTED_EDGE('',*,*,#1038,.F.);
#508=ORIENTED_EDGE('',*,*,#969,.T.);
#509=ORIENTED_EDGE('',*,*,#1039,.F.);
#510=ORIENTED_EDGE('',*,*,#1023,.T.);
#511=ORIENTED_EDGE('',*,*,#1036,.T.);
#512=ORIENTED_EDGE('',*,*,#936,.T.);
#513=ORIENTED_EDGE('',*,*,#1020,.T.);
#514=ORIENTED_EDGE('',*,*,#1021,.F.);
#515=ORIENTED_EDGE('',*,*,#1018,.F.);
#516=ORIENTED_EDGE('',*,*,#946,.F.);
#517=ORIENTED_EDGE('',*,*,#1037,.F.);
#518=ORIENTED_EDGE('',*,*,#970,.T.);
#519=ORIENTED_EDGE('',*,*,#1038,.T.);
#520=ORIENTED_EDGE('',*,*,#944,.T.);
#521=ORIENTED_EDGE('',*,*,#963,.F.);
#522=ORIENTED_EDGE('',*,*,#975,.T.);
#523=ORIENTED_EDGE('',*,*,#989,.T.);
#524=ORIENTED_EDGE('',*,*,#938,.T.);
#525=ORIENTED_EDGE('',*,*,#1035,.F.);
#526=ORIENTED_EDGE('',*,*,#1013,.F.);
#527=ORIENTED_EDGE('',*,*,#926,.T.);
#528=ORIENTED_EDGE('',*,*,#950,.F.);
#529=ORIENTED_EDGE('',*,*,#1040,.F.);
#530=ORIENTED_EDGE('',*,*,#1009,.F.);
#531=ORIENTED_EDGE('',*,*,#1041,.T.);
#532=ORIENTED_EDGE('',*,*,#932,.F.);
#533=ORIENTED_EDGE('',*,*,#957,.F.);
#534=ORIENTED_EDGE('',*,*,#1042,.T.);
#535=ORIENTED_EDGE('',*,*,#1043,.F.);
#536=ORIENTED_EDGE('',*,*,#1044,.F.);
#537=ORIENTED_EDGE('',*,*,#1045,.T.);
#538=ORIENTED_EDGE('',*,*,#1046,.T.);
#539=ORIENTED_EDGE('',*,*,#1047,.F.);
#540=ORIENTED_EDGE('',*,*,#1048,.F.);
#541=ORIENTED_EDGE('',*,*,#1043,.T.);
#542=ORIENTED_EDGE('',*,*,#1049,.T.);
#543=ORIENTED_EDGE('',*,*,#1050,.F.);
#544=ORIENTED_EDGE('',*,*,#1051,.F.);
#545=ORIENTED_EDGE('',*,*,#1047,.T.);
#546=ORIENTED_EDGE('',*,*,#1052,.T.);
#547=ORIENTED_EDGE('',*,*,#978,.F.);
#548=ORIENTED_EDGE('',*,*,#1053,.F.);
#549=ORIENTED_EDGE('',*,*,#1050,.T.);
#550=ORIENTED_EDGE('',*,*,#1054,.F.);
#551=ORIENTED_EDGE('',*,*,#1032,.T.);
#552=ORIENTED_EDGE('',*,*,#979,.T.);
#553=ORIENTED_EDGE('',*,*,#1052,.F.);
#554=ORIENTED_EDGE('',*,*,#1049,.F.);
#555=ORIENTED_EDGE('',*,*,#1046,.F.);
#556=ORIENTED_EDGE('',*,*,#1042,.F.);
#557=ORIENTED_EDGE('',*,*,#1034,.F.);
#558=ORIENTED_EDGE('',*,*,#1055,.T.);
#559=ORIENTED_EDGE('',*,*,#1044,.T.);
#560=ORIENTED_EDGE('',*,*,#1048,.T.);
#561=ORIENTED_EDGE('',*,*,#1051,.T.);
#562=ORIENTED_EDGE('',*,*,#1053,.T.);
#563=ORIENTED_EDGE('',*,*,#977,.F.);
#564=ORIENTED_EDGE('',*,*,#1055,.F.);
#565=ORIENTED_EDGE('',*,*,#1033,.T.);
#566=ORIENTED_EDGE('',*,*,#1054,.T.);
#567=ORIENTED_EDGE('',*,*,#1045,.F.);
#568=ORIENTED_EDGE('',*,*,#1056,.T.);
#569=ORIENTED_EDGE('',*,*,#1006,.T.);
#570=ORIENTED_EDGE('',*,*,#1057,.F.);
#571=ORIENTED_EDGE('',*,*,#1058,.T.);
#572=ORIENTED_EDGE('',*,*,#1059,.F.);
#573=ORIENTED_EDGE('',*,*,#1004,.T.);
#574=ORIENTED_EDGE('',*,*,#1060,.T.);
#575=ORIENTED_EDGE('',*,*,#1061,.F.);
#576=ORIENTED_EDGE('',*,*,#1005,.F.);
#577=ORIENTED_EDGE('',*,*,#1059,.T.);
#578=ORIENTED_EDGE('',*,*,#1062,.T.);
#579=ORIENTED_EDGE('',*,*,#1057,.T.);
#580=ORIENTED_EDGE('',*,*,#1060,.F.);
#581=ORIENTED_EDGE('',*,*,#1007,.T.);
#582=ORIENTED_EDGE('',*,*,#1056,.F.);
#583=ORIENTED_EDGE('',*,*,#1063,.F.);
#584=ORIENTED_EDGE('',*,*,#1063,.T.);
#585=ORIENTED_EDGE('',*,*,#1058,.F.);
#586=ORIENTED_EDGE('',*,*,#1062,.F.);
#587=ORIENTED_EDGE('',*,*,#1061,.T.);
#588=ORIENTED_EDGE('',*,*,#1064,.T.);
#589=ORIENTED_EDGE('',*,*,#1065,.F.);
#590=ORIENTED_EDGE('',*,*,#1066,.F.);
#591=ORIENTED_EDGE('',*,*,#1067,.T.);
#592=ORIENTED_EDGE('',*,*,#1068,.T.);
#593=ORIENTED_EDGE('',*,*,#1069,.F.);
#594=ORIENTED_EDGE('',*,*,#1070,.F.);
#595=ORIENTED_EDGE('',*,*,#1065,.T.);
#596=ORIENTED_EDGE('',*,*,#1071,.T.);
#597=ORIENTED_EDGE('',*,*,#1072,.F.);
#598=ORIENTED_EDGE('',*,*,#1073,.F.);
#599=ORIENTED_EDGE('',*,*,#1069,.T.);
#600=ORIENTED_EDGE('',*,*,#1074,.T.);
#601=ORIENTED_EDGE('',*,*,#982,.F.);
#602=ORIENTED_EDGE('',*,*,#1075,.F.);
#603=ORIENTED_EDGE('',*,*,#1072,.T.);
#604=ORIENTED_EDGE('',*,*,#1076,.F.);
#605=ORIENTED_EDGE('',*,*,#1029,.T.);
#606=ORIENTED_EDGE('',*,*,#983,.T.);
#607=ORIENTED_EDGE('',*,*,#1074,.F.);
#608=ORIENTED_EDGE('',*,*,#1071,.F.);
#609=ORIENTED_EDGE('',*,*,#1068,.F.);
#610=ORIENTED_EDGE('',*,*,#1064,.F.);
#611=ORIENTED_EDGE('',*,*,#1031,.F.);
#612=ORIENTED_EDGE('',*,*,#1077,.T.);
#613=ORIENTED_EDGE('',*,*,#1066,.T.);
#614=ORIENTED_EDGE('',*,*,#1070,.T.);
#615=ORIENTED_EDGE('',*,*,#1073,.T.);
#616=ORIENTED_EDGE('',*,*,#1075,.T.);
#617=ORIENTED_EDGE('',*,*,#981,.F.);
#618=ORIENTED_EDGE('',*,*,#1077,.F.);
#619=ORIENTED_EDGE('',*,*,#1030,.T.);
#620=ORIENTED_EDGE('',*,*,#1076,.T.);
#621=ORIENTED_EDGE('',*,*,#1067,.F.);
#622=ORIENTED_EDGE('',*,*,#1078,.T.);
#623=ORIENTED_EDGE('',*,*,#1002,.T.);
#624=ORIENTED_EDGE('',*,*,#1079,.F.);
#625=ORIENTED_EDGE('',*,*,#1080,.T.);
#626=ORIENTED_EDGE('',*,*,#1081,.F.);
#627=ORIENTED_EDGE('',*,*,#1000,.T.);
#628=ORIENTED_EDGE('',*,*,#1082,.T.);
#629=ORIENTED_EDGE('',*,*,#1083,.F.);
#630=ORIENTED_EDGE('',*,*,#1001,.F.);
#631=ORIENTED_EDGE('',*,*,#1081,.T.);
#632=ORIENTED_EDGE('',*,*,#1084,.T.);
#633=ORIENTED_EDGE('',*,*,#1079,.T.);
#634=ORIENTED_EDGE('',*,*,#1082,.F.);
#635=ORIENTED_EDGE('',*,*,#1003,.T.);
#636=ORIENTED_EDGE('',*,*,#1078,.F.);
#637=ORIENTED_EDGE('',*,*,#1085,.F.);
#638=ORIENTED_EDGE('',*,*,#1085,.T.);
#639=ORIENTED_EDGE('',*,*,#1080,.F.);
#640=ORIENTED_EDGE('',*,*,#1084,.F.);
#641=ORIENTED_EDGE('',*,*,#1083,.T.);
#642=ORIENTED_EDGE('',*,*,#1086,.T.);
#643=ORIENTED_EDGE('',*,*,#1087,.F.);
#644=ORIENTED_EDGE('',*,*,#1088,.F.);
#645=ORIENTED_EDGE('',*,*,#1089,.T.);
#646=ORIENTED_EDGE('',*,*,#1090,.T.);
#647=ORIENTED_EDGE('',*,*,#1091,.F.);
#648=ORIENTED_EDGE('',*,*,#1092,.F.);
#649=ORIENTED_EDGE('',*,*,#1087,.T.);
#650=ORIENTED_EDGE('',*,*,#1093,.T.);
#651=ORIENTED_EDGE('',*,*,#1094,.F.);
#652=ORIENTED_EDGE('',*,*,#1095,.F.);
#653=ORIENTED_EDGE('',*,*,#1091,.T.);
#654=ORIENTED_EDGE('',*,*,#1096,.T.);
#655=ORIENTED_EDGE('',*,*,#986,.F.);
#656=ORIENTED_EDGE('',*,*,#1097,.F.);
#657=ORIENTED_EDGE('',*,*,#1094,.T.);
#658=ORIENTED_EDGE('',*,*,#1098,.F.);
#659=ORIENTED_EDGE('',*,*,#1026,.T.);
#660=ORIENTED_EDGE('',*,*,#987,.T.);
#661=ORIENTED_EDGE('',*,*,#1096,.F.);
#662=ORIENTED_EDGE('',*,*,#1093,.F.);
#663=ORIENTED_EDGE('',*,*,#1090,.F.);
#664=ORIENTED_EDGE('',*,*,#1086,.F.);
#665=ORIENTED_EDGE('',*,*,#1028,.F.);
#666=ORIENTED_EDGE('',*,*,#1099,.T.);
#667=ORIENTED_EDGE('',*,*,#1088,.T.);
#668=ORIENTED_EDGE('',*,*,#1092,.T.);
#669=ORIENTED_EDGE('',*,*,#1095,.T.);
#670=ORIENTED_EDGE('',*,*,#1097,.T.);
#671=ORIENTED_EDGE('',*,*,#985,.F.);
#672=ORIENTED_EDGE('',*,*,#1099,.F.);
#673=ORIENTED_EDGE('',*,*,#1027,.T.);
#674=ORIENTED_EDGE('',*,*,#1098,.T.);
#675=ORIENTED_EDGE('',*,*,#1089,.F.);
#676=ORIENTED_EDGE('',*,*,#1100,.T.);
#677=ORIENTED_EDGE('',*,*,#998,.T.);
#678=ORIENTED_EDGE('',*,*,#1101,.F.);
#679=ORIENTED_EDGE('',*,*,#1102,.T.);
#680=ORIENTED_EDGE('',*,*,#1103,.F.);
#681=ORIENTED_EDGE('',*,*,#996,.T.);
#682=ORIENTED_EDGE('',*,*,#1104,.T.);
#683=ORIENTED_EDGE('',*,*,#1105,.F.);
#684=ORIENTED_EDGE('',*,*,#997,.F.);
#685=ORIENTED_EDGE('',*,*,#1103,.T.);
#686=ORIENTED_EDGE('',*,*,#1106,.T.);
#687=ORIENTED_EDGE('',*,*,#1101,.T.);
#688=ORIENTED_EDGE('',*,*,#1104,.F.);
#689=ORIENTED_EDGE('',*,*,#999,.T.);
#690=ORIENTED_EDGE('',*,*,#1100,.F.);
#691=ORIENTED_EDGE('',*,*,#1107,.F.);
#692=ORIENTED_EDGE('',*,*,#1107,.T.);
#693=ORIENTED_EDGE('',*,*,#1102,.F.);
#694=ORIENTED_EDGE('',*,*,#1106,.F.);
#695=ORIENTED_EDGE('',*,*,#1105,.T.);
#696=ORIENTED_EDGE('',*,*,#1108,.T.);
#697=ORIENTED_EDGE('',*,*,#1109,.F.);
#698=ORIENTED_EDGE('',*,*,#1110,.F.);
#699=ORIENTED_EDGE('',*,*,#1111,.T.);
#700=ORIENTED_EDGE('',*,*,#1112,.T.);
#701=ORIENTED_EDGE('',*,*,#1113,.F.);
#702=ORIENTED_EDGE('',*,*,#1114,.F.);
#703=ORIENTED_EDGE('',*,*,#1109,.T.);
#704=ORIENTED_EDGE('',*,*,#1115,.T.);
#705=ORIENTED_EDGE('',*,*,#1116,.F.);
#706=ORIENTED_EDGE('',*,*,#1117,.F.);
#707=ORIENTED_EDGE('',*,*,#1113,.T.);
#708=ORIENTED_EDGE('',*,*,#1118,.T.);
#709=ORIENTED_EDGE('',*,*,#967,.F.);
#710=ORIENTED_EDGE('',*,*,#1119,.F.);
#711=ORIENTED_EDGE('',*,*,#1116,.T.);
#712=ORIENTED_EDGE('',*,*,#1120,.F.);
#713=ORIENTED_EDGE('',*,*,#1039,.T.);
#714=ORIENTED_EDGE('',*,*,#968,.T.);
#715=ORIENTED_EDGE('',*,*,#1118,.F.);
#716=ORIENTED_EDGE('',*,*,#1115,.F.);
#717=ORIENTED_EDGE('',*,*,#1112,.F.);
#718=ORIENTED_EDGE('',*,*,#1108,.F.);
#719=ORIENTED_EDGE('',*,*,#1025,.F.);
#720=ORIENTED_EDGE('',*,*,#1121,.T.);
#721=ORIENTED_EDGE('',*,*,#1110,.T.);
#722=ORIENTED_EDGE('',*,*,#1114,.T.);
#723=ORIENTED_EDGE('',*,*,#1117,.T.);
#724=ORIENTED_EDGE('',*,*,#1119,.T.);
#725=ORIENTED_EDGE('',*,*,#966,.F.);
#726=ORIENTED_EDGE('',*,*,#1121,.F.);
#727=ORIENTED_EDGE('',*,*,#1024,.T.);
#728=ORIENTED_EDGE('',*,*,#1120,.T.);
#729=ORIENTED_EDGE('',*,*,#1111,.F.);
#730=ORIENTED_EDGE('',*,*,#1122,.T.);
#731=ORIENTED_EDGE('',*,*,#994,.T.);
#732=ORIENTED_EDGE('',*,*,#1123,.F.);
#733=ORIENTED_EDGE('',*,*,#1124,.T.);
#734=ORIENTED_EDGE('',*,*,#1125,.F.);
#735=ORIENTED_EDGE('',*,*,#992,.T.);
#736=ORIENTED_EDGE('',*,*,#1126,.T.);
#737=ORIENTED_EDGE('',*,*,#1127,.F.);
#738=ORIENTED_EDGE('',*,*,#993,.F.);
#739=ORIENTED_EDGE('',*,*,#1125,.T.);
#740=ORIENTED_EDGE('',*,*,#1128,.T.);
#741=ORIENTED_EDGE('',*,*,#1123,.T.);
#742=ORIENTED_EDGE('',*,*,#1126,.F.);
#743=ORIENTED_EDGE('',*,*,#995,.T.);
#744=ORIENTED_EDGE('',*,*,#1122,.F.);
#745=ORIENTED_EDGE('',*,*,#1129,.F.);
#746=ORIENTED_EDGE('',*,*,#1129,.T.);
#747=ORIENTED_EDGE('',*,*,#1124,.F.);
#748=ORIENTED_EDGE('',*,*,#1128,.F.);
#749=ORIENTED_EDGE('',*,*,#1127,.T.);
#750=ORIENTED_EDGE('',*,*,#1014,.F.);
#751=ORIENTED_EDGE('',*,*,#951,.F.);
#752=ORIENTED_EDGE('',*,*,#933,.F.);
#753=ORIENTED_EDGE('',*,*,#1041,.F.);
#754=ORIENTED_EDGE('',*,*,#1015,.F.);
#755=ORIENTED_EDGE('',*,*,#1040,.T.);
#756=ORIENTED_EDGE('',*,*,#949,.F.);
#757=ORIENTED_EDGE('',*,*,#959,.F.);
#758=ORIENTED_EDGE('',*,*,#1130,.T.);
#759=ORIENTED_EDGE('',*,*,#1011,.F.);
#760=ORIENTED_EDGE('',*,*,#1131,.F.);
#761=ORIENTED_EDGE('',*,*,#1132,.F.);
#762=ORIENTED_EDGE('',*,*,#1133,.T.);
#763=ORIENTED_EDGE('',*,*,#1132,.T.);
#764=ORIENTED_EDGE('',*,*,#1134,.F.);
#765=ORIENTED_EDGE('',*,*,#1135,.F.);
#766=ORIENTED_EDGE('',*,*,#1136,.T.);
#767=ORIENTED_EDGE('',*,*,#1135,.T.);
#768=ORIENTED_EDGE('',*,*,#1137,.F.);
#769=ORIENTED_EDGE('',*,*,#929,.T.);
#770=ORIENTED_EDGE('',*,*,#930,.F.);
#771=ORIENTED_EDGE('',*,*,#1137,.T.);
#772=ORIENTED_EDGE('',*,*,#1134,.T.);
#773=ORIENTED_EDGE('',*,*,#1131,.T.);
#774=ORIENTED_EDGE('',*,*,#1010,.F.);
#775=ORIENTED_EDGE('',*,*,#955,.F.);
#776=ORIENTED_EDGE('',*,*,#928,.T.);
#777=ORIENTED_EDGE('',*,*,#924,.T.);
#778=ORIENTED_EDGE('',*,*,#1012,.T.);
#779=ORIENTED_EDGE('',*,*,#1130,.F.);
#780=ORIENTED_EDGE('',*,*,#1133,.F.);
#781=ORIENTED_EDGE('',*,*,#1136,.F.);
#782=VERTEX_POINT('',#2019);
#783=VERTEX_POINT('',#2020);
#784=VERTEX_POINT('',#2022);
#785=VERTEX_POINT('',#2024);
#786=VERTEX_POINT('',#2028);
#787=VERTEX_POINT('',#2030);
#788=VERTEX_POINT('',#2032);
#789=VERTEX_POINT('',#2034);
#790=VERTEX_POINT('',#2036);
#791=VERTEX_POINT('',#2038);
#792=VERTEX_POINT('',#2040);
#793=VERTEX_POINT('',#2042);
#794=VERTEX_POINT('',#2044);
#795=VERTEX_POINT('',#2046);
#796=VERTEX_POINT('',#2048);
#797=VERTEX_POINT('',#2050);
#798=VERTEX_POINT('',#2052);
#799=VERTEX_POINT('',#2054);
#800=VERTEX_POINT('',#2056);
#801=VERTEX_POINT('',#2058);
#802=VERTEX_POINT('',#2060);
#803=VERTEX_POINT('',#2062);
#804=VERTEX_POINT('',#2064);
#805=VERTEX_POINT('',#2066);
#806=VERTEX_POINT('',#2068);
#807=VERTEX_POINT('',#2070);
#808=VERTEX_POINT('',#2074);
#809=VERTEX_POINT('',#2076);
#810=VERTEX_POINT('',#2078);
#811=VERTEX_POINT('',#2082);
#812=VERTEX_POINT('',#2084);
#813=VERTEX_POINT('',#2088);
#814=VERTEX_POINT('',#2089);
#815=VERTEX_POINT('',#2092);
#816=VERTEX_POINT('',#2096);
#817=VERTEX_POINT('',#2097);
#818=VERTEX_POINT('',#2102);
#819=VERTEX_POINT('',#2103);
#820=VERTEX_POINT('',#2105);
#821=VERTEX_POINT('',#2107);
#822=VERTEX_POINT('',#2109);
#823=VERTEX_POINT('',#2111);
#824=VERTEX_POINT('',#2114);
#825=VERTEX_POINT('',#2116);
#826=VERTEX_POINT('',#2118);
#827=VERTEX_POINT('',#2120);
#828=VERTEX_POINT('',#2122);
#829=VERTEX_POINT('',#2124);
#830=VERTEX_POINT('',#2126);
#831=VERTEX_POINT('',#2128);
#832=VERTEX_POINT('',#2130);
#833=VERTEX_POINT('',#2132);
#834=VERTEX_POINT('',#2134);
#835=VERTEX_POINT('',#2136);
#836=VERTEX_POINT('',#2138);
#837=VERTEX_POINT('',#2140);
#838=VERTEX_POINT('',#2142);
#839=VERTEX_POINT('',#2144);
#840=VERTEX_POINT('',#2156);
#841=VERTEX_POINT('',#2157);
#842=VERTEX_POINT('',#2159);
#843=VERTEX_POINT('',#2161);
#844=VERTEX_POINT('',#2164);
#845=VERTEX_POINT('',#2165);
#846=VERTEX_POINT('',#2167);
#847=VERTEX_POINT('',#2169);
#848=VERTEX_POINT('',#2172);
#849=VERTEX_POINT('',#2173);
#850=VERTEX_POINT('',#2175);
#851=VERTEX_POINT('',#2177);
#852=VERTEX_POINT('',#2180);
#853=VERTEX_POINT('',#2181);
#854=VERTEX_POINT('',#2183);
#855=VERTEX_POINT('',#2185);
#856=VERTEX_POINT('',#2188);
#857=VERTEX_POINT('',#2189);
#858=VERTEX_POINT('',#2192);
#859=VERTEX_POINT('',#2194);
#860=VERTEX_POINT('',#2205);
#861=VERTEX_POINT('',#2207);
#862=VERTEX_POINT('',#2211);
#863=VERTEX_POINT('',#2213);
#864=VERTEX_POINT('',#2217);
#865=VERTEX_POINT('',#2218);
#866=VERTEX_POINT('',#2221);
#867=VERTEX_POINT('',#2223);
#868=VERTEX_POINT('',#2226);
#869=VERTEX_POINT('',#2228);
#870=VERTEX_POINT('',#2231);
#871=VERTEX_POINT('',#2233);
#872=VERTEX_POINT('',#2250);
#873=VERTEX_POINT('',#2251);
#874=VERTEX_POINT('',#2253);
#875=VERTEX_POINT('',#2255);
#876=VERTEX_POINT('',#2259);
#877=VERTEX_POINT('',#2261);
#878=VERTEX_POINT('',#2265);
#879=VERTEX_POINT('',#2267);
#880=VERTEX_POINT('',#2279);
#881=VERTEX_POINT('',#2281);
#882=VERTEX_POINT('',#2285);
#883=VERTEX_POINT('',#2287);
#884=VERTEX_POINT('',#2296);
#885=VERTEX_POINT('',#2297);
#886=VERTEX_POINT('',#2299);
#887=VERTEX_POINT('',#2301);
#888=VERTEX_POINT('',#2305);
#889=VERTEX_POINT('',#2307);
#890=VERTEX_POINT('',#2311);
#891=VERTEX_POINT('',#2313);
#892=VERTEX_POINT('',#2325);
#893=VERTEX_POINT('',#2327);
#894=VERTEX_POINT('',#2331);
#895=VERTEX_POINT('',#2333);
#896=VERTEX_POINT('',#2342);
#897=VERTEX_POINT('',#2343);
#898=VERTEX_POINT('',#2345);
#899=VERTEX_POINT('',#2347);
#900=VERTEX_POINT('',#2351);
#901=VERTEX_POINT('',#2353);
#902=VERTEX_POINT('',#2357);
#903=VERTEX_POINT('',#2359);
#904=VERTEX_POINT('',#2371);
#905=VERTEX_POINT('',#2373);
#906=VERTEX_POINT('',#2377);
#907=VERTEX_POINT('',#2379);
#908=VERTEX_POINT('',#2388);
#909=VERTEX_POINT('',#2389);
#910=VERTEX_POINT('',#2391);
#911=VERTEX_POINT('',#2393);
#912=VERTEX_POINT('',#2397);
#913=VERTEX_POINT('',#2399);
#914=VERTEX_POINT('',#2403);
#915=VERTEX_POINT('',#2405);
#916=VERTEX_POINT('',#2417);
#917=VERTEX_POINT('',#2419);
#918=VERTEX_POINT('',#2423);
#919=VERTEX_POINT('',#2425);
#920=VERTEX_POINT('',#2436);
#921=VERTEX_POINT('',#2438);
#922=VERTEX_POINT('',#2442);
#923=VERTEX_POINT('',#2444);
#924=EDGE_CURVE('',#782,#783,#1138,.T.);
#925=EDGE_CURVE('',#782,#784,#1139,.T.);
#926=EDGE_CURVE('',#785,#784,#1140,.T.);
#927=EDGE_CURVE('',#785,#783,#1141,.T.);
#928=EDGE_CURVE('',#786,#782,#1142,.T.);
#929=EDGE_CURVE('',#787,#786,#1143,.T.);
#930=EDGE_CURVE('',#787,#788,#1144,.T.);
#931=EDGE_CURVE('',#789,#788,#1145,.T.);
#932=EDGE_CURVE('',#789,#790,#1146,.T.);
#933=EDGE_CURVE('',#790,#791,#1147,.T.);
#934=EDGE_CURVE('',#791,#792,#1148,.T.);
#935=EDGE_CURVE('',#793,#792,#1149,.T.);
#936=EDGE_CURVE('',#794,#793,#1150,.T.);
#937=EDGE_CURVE('',#794,#795,#1151,.T.);
#938=EDGE_CURVE('',#796,#795,#1152,.T.);
#939=EDGE_CURVE('',#797,#796,#1153,.T.);
#940=EDGE_CURVE('',#797,#798,#1154,.T.);
#941=EDGE_CURVE('',#798,#799,#1155,.T.);
#942=EDGE_CURVE('',#800,#799,#1156,.T.);
#943=EDGE_CURVE('',#801,#800,#1157,.T.);
#944=EDGE_CURVE('',#802,#801,#1158,.T.);
#945=EDGE_CURVE('',#802,#803,#1159,.T.);
#946=EDGE_CURVE('',#803,#804,#1160,.T.);
#947=EDGE_CURVE('',#805,#804,#1161,.T.);
#948=EDGE_CURVE('',#806,#805,#1162,.T.);
#949=EDGE_CURVE('',#806,#807,#1163,.T.);
#950=EDGE_CURVE('',#807,#784,#1164,.T.);
#951=EDGE_CURVE('',#791,#808,#1165,.T.);
#952=EDGE_CURVE('',#809,#808,#1166,.T.);
#953=EDGE_CURVE('',#810,#809,#1167,.T.);
#954=EDGE_CURVE('',#792,#810,#1168,.T.);
#955=EDGE_CURVE('',#788,#811,#1169,.T.);
#956=EDGE_CURVE('',#811,#812,#1170,.T.);
#957=EDGE_CURVE('',#812,#789,#1171,.T.);
#958=EDGE_CURVE('',#813,#814,#1172,.T.);
#959=EDGE_CURVE('',#814,#806,#1173,.T.);
#960=EDGE_CURVE('',#805,#815,#1174,.T.);
#961=EDGE_CURVE('',#815,#813,#1175,.T.);
#962=EDGE_CURVE('',#816,#817,#1176,.T.);
#963=EDGE_CURVE('',#817,#801,#1177,.T.);
#964=EDGE_CURVE('',#816,#800,#1178,.T.);
#965=EDGE_CURVE('',#818,#819,#1179,.T.);
#966=EDGE_CURVE('',#818,#820,#1180,.T.);
#967=EDGE_CURVE('',#820,#821,#1181,.T.);
#968=EDGE_CURVE('',#822,#821,#1182,.T.);
#969=EDGE_CURVE('',#823,#822,#1183,.T.);
#970=EDGE_CURVE('',#817,#823,#1184,.T.);
#971=EDGE_CURVE('',#824,#816,#1185,.T.);
#972=EDGE_CURVE('',#825,#824,#1186,.T.);
#973=EDGE_CURVE('',#826,#825,#1187,.T.);
#974=EDGE_CURVE('',#827,#826,#1188,.T.);
#975=EDGE_CURVE('',#828,#827,#1189,.T.);
#976=EDGE_CURVE('',#829,#828,#1190,.T.);
#977=EDGE_CURVE('',#829,#830,#1191,.T.);
#978=EDGE_CURVE('',#830,#831,#1192,.T.);
#979=EDGE_CURVE('',#832,#831,#1193,.T.);
#980=EDGE_CURVE('',#833,#832,#1194,.T.);
#981=EDGE_CURVE('',#833,#834,#1195,.T.);
#982=EDGE_CURVE('',#834,#835,#1196,.T.);
#983=EDGE_CURVE('',#836,#835,#1197,.T.);
#984=EDGE_CURVE('',#837,#836,#1198,.T.);
#985=EDGE_CURVE('',#837,#838,#1199,.T.);
#986=EDGE_CURVE('',#838,#839,#1200,.T.);
#987=EDGE_CURVE('',#819,#839,#1201,.T.);
#988=EDGE_CURVE('',#824,#799,#1202,.T.);
#989=EDGE_CURVE('',#827,#796,#1203,.T.);
#990=EDGE_CURVE('',#826,#797,#1204,.T.);
#991=EDGE_CURVE('',#825,#798,#1205,.T.);
#992=EDGE_CURVE('',#840,#841,#1206,.T.);
#993=EDGE_CURVE('',#840,#842,#1207,.T.);
#994=EDGE_CURVE('',#843,#842,#1208,.T.);
#995=EDGE_CURVE('',#841,#843,#1209,.T.);
#996=EDGE_CURVE('',#844,#845,#1210,.T.);
#997=EDGE_CURVE('',#844,#846,#1211,.T.);
#998=EDGE_CURVE('',#847,#846,#1212,.T.);
#999=EDGE_CURVE('',#845,#847,#1213,.T.);
#1000=EDGE_CURVE('',#848,#849,#1214,.T.);
#1001=EDGE_CURVE('',#848,#850,#1215,.T.);
#1002=EDGE_CURVE('',#851,#850,#1216,.T.);
#1003=EDGE_CURVE('',#849,#851,#1217,.T.);
#1004=EDGE_CURVE('',#852,#853,#1218,.T.);
#1005=EDGE_CURVE('',#852,#854,#1219,.T.);
#1006=EDGE_CURVE('',#855,#854,#1220,.T.);
#1007=EDGE_CURVE('',#853,#855,#1221,.T.);
#1008=EDGE_CURVE('',#856,#857,#1222,.T.);
#1009=EDGE_CURVE('',#857,#812,#1223,.T.);
#1010=EDGE_CURVE('',#811,#858,#1224,.T.);
#1011=EDGE_CURVE('',#858,#859,#1225,.T.);
#1012=EDGE_CURVE('',#783,#859,#1226,.T.);
#1013=EDGE_CURVE('',#785,#856,#1227,.T.);
#1014=EDGE_CURVE('',#808,#857,#1228,.T.);
#1015=EDGE_CURVE('',#856,#814,#1229,.T.);
#1016=EDGE_CURVE('',#813,#809,#1230,.T.);
#1017=EDGE_CURVE('',#815,#810,#1231,.T.);
#1018=EDGE_CURVE('',#804,#860,#1232,.T.);
#1019=EDGE_CURVE('',#861,#860,#1233,.T.);
#1020=EDGE_CURVE('',#793,#861,#1234,.T.);
#1021=EDGE_CURVE('',#860,#862,#1235,.T.);
#1022=EDGE_CURVE('',#863,#862,#1236,.T.);
#1023=EDGE_CURVE('',#861,#863,#1237,.T.);
#1024=EDGE_CURVE('',#864,#865,#1238,.T.);
#1025=EDGE_CURVE('',#864,#818,#1239,.T.);
#1026=EDGE_CURVE('',#866,#819,#1240,.T.);
#1027=EDGE_CURVE('',#867,#866,#1241,.T.);
#1028=EDGE_CURVE('',#867,#837,#1242,.T.);
#1029=EDGE_CURVE('',#868,#836,#1243,.T.);
#1030=EDGE_CURVE('',#869,#868,#1244,.T.);
#1031=EDGE_CURVE('',#869,#833,#1245,.T.);
#1032=EDGE_CURVE('',#870,#832,#1246,.T.);
#1033=EDGE_CURVE('',#871,#870,#1247,.T.);
#1034=EDGE_CURVE('',#871,#829,#1248,.T.);
#1035=EDGE_CURVE('',#828,#795,#1249,.T.);
#1036=EDGE_CURVE('',#863,#794,#1250,.T.);
#1037=EDGE_CURVE('',#862,#803,#1251,.T.);
#1038=EDGE_CURVE('',#823,#802,#1252,.T.);
#1039=EDGE_CURVE('',#865,#822,#1253,.T.);
#1040=EDGE_CURVE('',#856,#807,#1254,.T.);
#1041=EDGE_CURVE('',#857,#790,#1255,.T.);
#1042=EDGE_CURVE('',#872,#873,#1256,.T.);
#1043=EDGE_CURVE('',#874,#873,#1257,.T.);
#1044=EDGE_CURVE('',#875,#874,#1258,.T.);
#1045=EDGE_CURVE('',#875,#872,#1259,.T.);
#1046=EDGE_CURVE('',#873,#876,#1260,.T.);
#1047=EDGE_CURVE('',#877,#876,#1261,.T.);
#1048=EDGE_CURVE('',#874,#877,#1262,.T.);
#1049=EDGE_CURVE('',#876,#878,#1263,.T.);
#1050=EDGE_CURVE('',#879,#878,#1264,.T.);
#1051=EDGE_CURVE('',#877,#879,#1265,.T.);
#1052=EDGE_CURVE('',#878,#831,#1266,.T.);
#1053=EDGE_CURVE('',#879,#830,#1267,.T.);
#1054=EDGE_CURVE('',#870,#872,#1268,.T.);
#1055=EDGE_CURVE('',#871,#875,#1269,.T.);
#1056=EDGE_CURVE('',#880,#855,#1270,.T.);
#1057=EDGE_CURVE('',#881,#854,#1271,.T.);
#1058=EDGE_CURVE('',#881,#880,#1272,.T.);
#1059=EDGE_CURVE('',#852,#882,#1273,.T.);
#1060=EDGE_CURVE('',#853,#883,#1274,.T.);
#1061=EDGE_CURVE('',#882,#883,#1275,.T.);
#1062=EDGE_CURVE('',#882,#881,#1276,.T.);
#1063=EDGE_CURVE('',#883,#880,#1277,.T.);
#1064=EDGE_CURVE('',#884,#885,#1278,.T.);
#1065=EDGE_CURVE('',#886,#885,#1279,.T.);
#1066=EDGE_CURVE('',#887,#886,#1280,.T.);
#1067=EDGE_CURVE('',#887,#884,#1281,.T.);
#1068=EDGE_CURVE('',#885,#888,#1282,.T.);
#1069=EDGE_CURVE('',#889,#888,#1283,.T.);
#1070=EDGE_CURVE('',#886,#889,#1284,.T.);
#1071=EDGE_CURVE('',#888,#890,#1285,.T.);
#1072=EDGE_CURVE('',#891,#890,#1286,.T.);
#1073=EDGE_CURVE('',#889,#891,#1287,.T.);
#1074=EDGE_CURVE('',#890,#835,#1288,.T.);
#1075=EDGE_CURVE('',#891,#834,#1289,.T.);
#1076=EDGE_CURVE('',#868,#884,#1290,.T.);
#1077=EDGE_CURVE('',#869,#887,#1291,.T.);
#1078=EDGE_CURVE('',#892,#851,#1292,.T.);
#1079=EDGE_CURVE('',#893,#850,#1293,.T.);
#1080=EDGE_CURVE('',#893,#892,#1294,.T.);
#1081=EDGE_CURVE('',#848,#894,#1295,.T.);
#1082=EDGE_CURVE('',#849,#895,#1296,.T.);
#1083=EDGE_CURVE('',#894,#895,#1297,.T.);
#1084=EDGE_CURVE('',#894,#893,#1298,.T.);
#1085=EDGE_CURVE('',#895,#892,#1299,.T.);
#1086=EDGE_CURVE('',#896,#897,#1300,.T.);
#1087=EDGE_CURVE('',#898,#897,#1301,.T.);
#1088=EDGE_CURVE('',#899,#898,#1302,.T.);
#1089=EDGE_CURVE('',#899,#896,#1303,.T.);
#1090=EDGE_CURVE('',#897,#900,#1304,.T.);
#1091=EDGE_CURVE('',#901,#900,#1305,.T.);
#1092=EDGE_CURVE('',#898,#901,#1306,.T.);
#1093=EDGE_CURVE('',#900,#902,#1307,.T.);
#1094=EDGE_CURVE('',#903,#902,#1308,.T.);
#1095=EDGE_CURVE('',#901,#903,#1309,.T.);
#1096=EDGE_CURVE('',#902,#839,#1310,.T.);
#1097=EDGE_CURVE('',#903,#838,#1311,.T.);
#1098=EDGE_CURVE('',#866,#896,#1312,.T.);
#1099=EDGE_CURVE('',#867,#899,#1313,.T.);
#1100=EDGE_CURVE('',#904,#847,#1314,.T.);
#1101=EDGE_CURVE('',#905,#846,#1315,.T.);
#1102=EDGE_CURVE('',#905,#904,#1316,.T.);
#1103=EDGE_CURVE('',#844,#906,#1317,.T.);
#1104=EDGE_CURVE('',#845,#907,#1318,.T.);
#1105=EDGE_CURVE('',#906,#907,#1319,.T.);
#1106=EDGE_CURVE('',#906,#905,#1320,.T.);
#1107=EDGE_CURVE('',#907,#904,#1321,.T.);
#1108=EDGE_CURVE('',#908,#909,#1322,.T.);
#1109=EDGE_CURVE('',#910,#909,#1323,.T.);
#1110=EDGE_CURVE('',#911,#910,#1324,.T.);
#1111=EDGE_CURVE('',#911,#908,#1325,.T.);
#1112=EDGE_CURVE('',#909,#912,#1326,.T.);
#1113=EDGE_CURVE('',#913,#912,#1327,.T.);
#1114=EDGE_CURVE('',#910,#913,#1328,.T.);
#1115=EDGE_CURVE('',#912,#914,#1329,.T.);
#1116=EDGE_CURVE('',#915,#914,#1330,.T.);
#1117=EDGE_CURVE('',#913,#915,#1331,.T.);
#1118=EDGE_CURVE('',#914,#821,#1332,.T.);
#1119=EDGE_CURVE('',#915,#820,#1333,.T.);
#1120=EDGE_CURVE('',#865,#908,#1334,.T.);
#1121=EDGE_CURVE('',#864,#911,#1335,.T.);
#1122=EDGE_CURVE('',#916,#843,#1336,.T.);
#1123=EDGE_CURVE('',#917,#842,#1337,.T.);
#1124=EDGE_CURVE('',#917,#916,#1338,.T.);
#1125=EDGE_CURVE('',#840,#918,#1339,.T.);
#1126=EDGE_CURVE('',#841,#919,#1340,.T.);
#1127=EDGE_CURVE('',#918,#919,#1341,.T.);
#1128=EDGE_CURVE('',#918,#917,#1342,.T.);
#1129=EDGE_CURVE('',#919,#916,#1343,.T.);
#1130=EDGE_CURVE('',#920,#859,#1344,.T.);
#1131=EDGE_CURVE('',#921,#858,#1345,.T.);
#1132=EDGE_CURVE('',#920,#921,#1346,.T.);
#1133=EDGE_CURVE('',#922,#920,#1347,.T.);
#1134=EDGE_CURVE('',#923,#921,#1348,.T.);
#1135=EDGE_CURVE('',#922,#923,#1349,.T.);
#1136=EDGE_CURVE('',#786,#922,#1350,.T.);
#1137=EDGE_CURVE('',#787,#923,#1351,.T.);
#1138=LINE('',#2018,#1352);
#1139=LINE('',#2021,#1353);
#1140=LINE('',#2023,#1354);
#1141=LINE('',#2025,#1355);
#1142=LINE('',#2027,#1356);
#1143=LINE('',#2029,#1357);
#1144=LINE('',#2031,#1358);
#1145=LINE('',#2033,#1359);
#1146=LINE('',#2035,#1360);
#1147=LINE('',#2037,#1361);
#1148=LINE('',#2039,#1362);
#1149=LINE('',#2041,#1363);
#1150=LINE('',#2043,#1364);
#1151=LINE('',#2045,#1365);
#1152=LINE('',#2047,#1366);
#1153=LINE('',#2049,#1367);
#1154=LINE('',#2051,#1368);
#1155=LINE('',#2053,#1369);
#1156=LINE('',#2055,#1370);
#1157=LINE('',#2057,#1371);
#1158=LINE('',#2059,#1372);
#1159=LINE('',#2061,#1373);
#1160=LINE('',#2063,#1374);
#1161=LINE('',#2065,#1375);
#1162=LINE('',#2067,#1376);
#1163=LINE('',#2069,#1377);
#1164=LINE('',#2071,#1378);
#1165=LINE('',#2073,#1379);
#1166=LINE('',#2075,#1380);
#1167=LINE('',#2077,#1381);
#1168=LINE('',#2079,#1382);
#1169=LINE('',#2081,#1383);
#1170=LINE('',#2083,#1384);
#1171=LINE('',#2085,#1385);
#1172=LINE('',#2087,#1386);
#1173=LINE('',#2090,#1387);
#1174=LINE('',#2091,#1388);
#1175=LINE('',#2093,#1389);
#1176=LINE('',#2095,#1390);
#1177=LINE('',#2098,#1391);
#1178=LINE('',#2099,#1392);
#1179=LINE('',#2101,#1393);
#1180=LINE('',#2104,#1394);
#1181=LINE('',#2106,#1395);
#1182=LINE('',#2108,#1396);
#1183=LINE('',#2110,#1397);
#1184=LINE('',#2112,#1398);
#1185=LINE('',#2113,#1399);
#1186=LINE('',#2115,#1400);
#1187=LINE('',#2117,#1401);
#1188=LINE('',#2119,#1402);
#1189=LINE('',#2121,#1403);
#1190=LINE('',#2123,#1404);
#1191=LINE('',#2125,#1405);
#1192=LINE('',#2127,#1406);
#1193=LINE('',#2129,#1407);
#1194=LINE('',#2131,#1408);
#1195=LINE('',#2133,#1409);
#1196=LINE('',#2135,#1410);
#1197=LINE('',#2137,#1411);
#1198=LINE('',#2139,#1412);
#1199=LINE('',#2141,#1413);
#1200=LINE('',#2143,#1414);
#1201=LINE('',#2145,#1415);
#1202=LINE('',#2147,#1416);
#1203=LINE('',#2149,#1417);
#1204=LINE('',#2150,#1418);
#1205=LINE('',#2152,#1419);
#1206=LINE('',#2155,#1420);
#1207=LINE('',#2158,#1421);
#1208=LINE('',#2160,#1422);
#1209=LINE('',#2162,#1423);
#1210=LINE('',#2163,#1424);
#1211=LINE('',#2166,#1425);
#1212=LINE('',#2168,#1426);
#1213=LINE('',#2170,#1427);
#1214=LINE('',#2171,#1428);
#1215=LINE('',#2174,#1429);
#1216=LINE('',#2176,#1430);
#1217=LINE('',#2178,#1431);
#1218=LINE('',#2179,#1432);
#1219=LINE('',#2182,#1433);
#1220=LINE('',#2184,#1434);
#1221=LINE('',#2186,#1435);
#1222=LINE('',#2187,#1436);
#1223=LINE('',#2190,#1437);
#1224=LINE('',#2191,#1438);
#1225=LINE('',#2193,#1439);
#1226=LINE('',#2195,#1440);
#1227=LINE('',#2196,#1441);
#1228=LINE('',#2198,#1442);
#1229=LINE('',#2199,#1443);
#1230=LINE('',#2200,#1444);
#1231=LINE('',#2202,#1445);
#1232=LINE('',#2204,#1446);
#1233=LINE('',#2206,#1447);
#1234=LINE('',#2208,#1448);
#1235=LINE('',#2210,#1449);
#1236=LINE('',#2212,#1450);
#1237=LINE('',#2214,#1451);
#1238=LINE('',#2216,#1452);
#1239=LINE('',#2219,#1453);
#1240=LINE('',#2220,#1454);
#1241=LINE('',#2222,#1455);
#1242=LINE('',#2224,#1456);
#1243=LINE('',#2225,#1457);
#1244=LINE('',#2227,#1458);
#1245=LINE('',#2229,#1459);
#1246=LINE('',#2230,#1460);
#1247=LINE('',#2232,#1461);
#1248=LINE('',#2234,#1462);
#1249=LINE('',#2235,#1463);
#1250=LINE('',#2236,#1464);
#1251=LINE('',#2237,#1465);
#1252=LINE('',#2238,#1466);
#1253=LINE('',#2239,#1467);
#1254=LINE('',#2245,#1468);
#1255=LINE('',#2247,#1469);
#1256=LINE('',#2249,#1470);
#1257=LINE('',#2252,#1471);
#1258=LINE('',#2254,#1472);
#1259=LINE('',#2256,#1473);
#1260=LINE('',#2258,#1474);
#1261=LINE('',#2260,#1475);
#1262=LINE('',#2262,#1476);
#1263=LINE('',#2264,#1477);
#1264=LINE('',#2266,#1478);
#1265=LINE('',#2268,#1479);
#1266=LINE('',#2270,#1480);
#1267=LINE('',#2271,#1481);
#1268=LINE('',#2273,#1482);
#1269=LINE('',#2275,#1483);
#1270=LINE('',#2278,#1484);
#1271=LINE('',#2280,#1485);
#1272=LINE('',#2282,#1486);
#1273=LINE('',#2284,#1487);
#1274=LINE('',#2286,#1488);
#1275=LINE('',#2288,#1489);
#1276=LINE('',#2290,#1490);
#1277=LINE('',#2292,#1491);
#1278=LINE('',#2295,#1492);
#1279=LINE('',#2298,#1493);
#1280=LINE('',#2300,#1494);
#1281=LINE('',#2302,#1495);
#1282=LINE('',#2304,#1496);
#1283=LINE('',#2306,#1497);
#1284=LINE('',#2308,#1498);
#1285=LINE('',#2310,#1499);
#1286=LINE('',#2312,#1500);
#1287=LINE('',#2314,#1501);
#1288=LINE('',#2316,#1502);
#1289=LINE('',#2317,#1503);
#1290=LINE('',#2319,#1504);
#1291=LINE('',#2321,#1505);
#1292=LINE('',#2324,#1506);
#1293=LINE('',#2326,#1507);
#1294=LINE('',#2328,#1508);
#1295=LINE('',#2330,#1509);
#1296=LINE('',#2332,#1510);
#1297=LINE('',#2334,#1511);
#1298=LINE('',#2336,#1512);
#1299=LINE('',#2338,#1513);
#1300=LINE('',#2341,#1514);
#1301=LINE('',#2344,#1515);
#1302=LINE('',#2346,#1516);
#1303=LINE('',#2348,#1517);
#1304=LINE('',#2350,#1518);
#1305=LINE('',#2352,#1519);
#1306=LINE('',#2354,#1520);
#1307=LINE('',#2356,#1521);
#1308=LINE('',#2358,#1522);
#1309=LINE('',#2360,#1523);
#1310=LINE('',#2362,#1524);
#1311=LINE('',#2363,#1525);
#1312=LINE('',#2365,#1526);
#1313=LINE('',#2367,#1527);
#1314=LINE('',#2370,#1528);
#1315=LINE('',#2372,#1529);
#1316=LINE('',#2374,#1530);
#1317=LINE('',#2376,#1531);
#1318=LINE('',#2378,#1532);
#1319=LINE('',#2380,#1533);
#1320=LINE('',#2382,#1534);
#1321=LINE('',#2384,#1535);
#1322=LINE('',#2387,#1536);
#1323=LINE('',#2390,#1537);
#1324=LINE('',#2392,#1538);
#1325=LINE('',#2394,#1539);
#1326=LINE('',#2396,#1540);
#1327=LINE('',#2398,#1541);
#1328=LINE('',#2400,#1542);
#1329=LINE('',#2402,#1543);
#1330=LINE('',#2404,#1544);
#1331=LINE('',#2406,#1545);
#1332=LINE('',#2408,#1546);
#1333=LINE('',#2409,#1547);
#1334=LINE('',#2411,#1548);
#1335=LINE('',#2413,#1549);
#1336=LINE('',#2416,#1550);
#1337=LINE('',#2418,#1551);
#1338=LINE('',#2420,#1552);
#1339=LINE('',#2422,#1553);
#1340=LINE('',#2424,#1554);
#1341=LINE('',#2426,#1555);
#1342=LINE('',#2428,#1556);
#1343=LINE('',#2430,#1557);
#1344=LINE('',#2435,#1558);
#1345=LINE('',#2437,#1559);
#1346=LINE('',#2439,#1560);
#1347=LINE('',#2441,#1561);
#1348=LINE('',#2443,#1562);
#1349=LINE('',#2445,#1563);
#1350=LINE('',#2447,#1564);
#1351=LINE('',#2448,#1565);
#1352=VECTOR('',#1647,1.);
#1353=VECTOR('',#1648,1.);
#1354=VECTOR('',#1649,1.);
#1355=VECTOR('',#1650,1.);
#1356=VECTOR('',#1653,1.);
#1357=VECTOR('',#1654,1.);
#1358=VECTOR('',#1655,1.);
#1359=VECTOR('',#1656,1.);
#1360=VECTOR('',#1657,1.);
#1361=VECTOR('',#1658,1.);
#1362=VECTOR('',#1659,1.);
#1363=VECTOR('',#1660,1.);
#1364=VECTOR('',#1661,1.);
#1365=VECTOR('',#1662,1.);
#1366=VECTOR('',#1663,1.);
#1367=VECTOR('',#1664,1.);
#1368=VECTOR('',#1665,1.);
#1369=VECTOR('',#1666,1.);
#1370=VECTOR('',#1667,1.);
#1371=VECTOR('',#1668,1.);
#1372=VECTOR('',#1669,1.);
#1373=VECTOR('',#1670,1.);
#1374=VECTOR('',#1671,1.);
#1375=VECTOR('',#1672,1.);
#1376=VECTOR('',#1673,1.);
#1377=VECTOR('',#1674,1.);
#1378=VECTOR('',#1675,1.);
#1379=VECTOR('',#1678,1.);
#1380=VECTOR('',#1679,1.);
#1381=VECTOR('',#1680,1.);
#1382=VECTOR('',#1681,1.);
#1383=VECTOR('',#1684,1.);
#1384=VECTOR('',#1685,1.);
#1385=VECTOR('',#1686,1.);
#1386=VECTOR('',#1689,1.);
#1387=VECTOR('',#1690,1.);
#1388=VECTOR('',#1691,1.);
#1389=VECTOR('',#1692,1.);
#1390=VECTOR('',#1695,1.);
#1391=VECTOR('',#1696,1.);
#1392=VECTOR('',#1697,1.);
#1393=VECTOR('',#1700,1.);
#1394=VECTOR('',#1701,1.);
#1395=VECTOR('',#1702,1.);
#1396=VECTOR('',#1703,1.);
#1397=VECTOR('',#1704,1.);
#1398=VECTOR('',#1705,1.);
#1399=VECTOR('',#1706,1.);
#1400=VECTOR('',#1707,1.);
#1401=VECTOR('',#1708,1.);
#1402=VECTOR('',#1709,1.);
#1403=VECTOR('',#1710,1.);
#1404=VECTOR('',#1711,1.);
#1405=VECTOR('',#1712,1.);
#1406=VECTOR('',#1713,1.);
#1407=VECTOR('',#1714,1.);
#1408=VECTOR('',#1715,1.);
#1409=VECTOR('',#1716,1.);
#1410=VECTOR('',#1717,1.);
#1411=VECTOR('',#1718,1.);
#1412=VECTOR('',#1719,1.);
#1413=VECTOR('',#1720,1.);
#1414=VECTOR('',#1721,1.);
#1415=VECTOR('',#1722,1.);
#1416=VECTOR('',#1725,1.);
#1417=VECTOR('',#1728,1.);
#1418=VECTOR('',#1729,1.);
#1419=VECTOR('',#1732,1.);
#1420=VECTOR('',#1737,1.);
#1421=VECTOR('',#1738,1.);
#1422=VECTOR('',#1739,1.);
#1423=VECTOR('',#1740,1.);
#1424=VECTOR('',#1741,1.);
#1425=VECTOR('',#1742,1.);
#1426=VECTOR('',#1743,1.);
#1427=VECTOR('',#1744,1.);
#1428=VECTOR('',#1745,1.);
#1429=VECTOR('',#1746,1.);
#1430=VECTOR('',#1747,1.);
#1431=VECTOR('',#1748,1.);
#1432=VECTOR('',#1749,1.);
#1433=VECTOR('',#1750,1.);
#1434=VECTOR('',#1751,1.);
#1435=VECTOR('',#1752,1.);
#1436=VECTOR('',#1753,1.);
#1437=VECTOR('',#1754,1.);
#1438=VECTOR('',#1755,1.);
#1439=VECTOR('',#1756,1.);
#1440=VECTOR('',#1757,1.);
#1441=VECTOR('',#1758,1.);
#1442=VECTOR('',#1761,1.);
#1443=VECTOR('',#1762,1.);
#1444=VECTOR('',#1763,1.);
#1445=VECTOR('',#1766,1.);
#1446=VECTOR('',#1769,1.);
#1447=VECTOR('',#1770,1.);
#1448=VECTOR('',#1771,1.);
#1449=VECTOR('',#1774,1.);
#1450=VECTOR('',#1775,1.);
#1451=VECTOR('',#1776,1.);
#1452=VECTOR('',#1779,1.);
#1453=VECTOR('',#1780,1.);
#1454=VECTOR('',#1781,1.);
#1455=VECTOR('',#1782,1.);
#1456=VECTOR('',#1783,1.);
#1457=VECTOR('',#1784,1.);
#1458=VECTOR('',#1785,1.);
#1459=VECTOR('',#1786,1.);
#1460=VECTOR('',#1787,1.);
#1461=VECTOR('',#1788,1.);
#1462=VECTOR('',#1789,1.);
#1463=VECTOR('',#1790,1.);
#1464=VECTOR('',#1791,1.);
#1465=VECTOR('',#1792,1.);
#1466=VECTOR('',#1793,1.);
#1467=VECTOR('',#1794,1.);
#1468=VECTOR('',#1805,1.);
#1469=VECTOR('',#1808,1.);
#1470=VECTOR('',#1811,1.);
#1471=VECTOR('',#1812,1.);
#1472=VECTOR('',#1813,1.);
#1473=VECTOR('',#1814,1.);
#1474=VECTOR('',#1817,1.);
#1475=VECTOR('',#1818,1.);
#1476=VECTOR('',#1819,1.);
#1477=VECTOR('',#1822,1.);
#1478=VECTOR('',#1823,1.);
#1479=VECTOR('',#1824,1.);
#1480=VECTOR('',#1827,1.);
#1481=VECTOR('',#1828,1.);
#1482=VECTOR('',#1831,1.);
#1483=VECTOR('',#1834,1.);
#1484=VECTOR('',#1839,1.);
#1485=VECTOR('',#1840,1.);
#1486=VECTOR('',#1841,1.);
#1487=VECTOR('',#1844,1.);
#1488=VECTOR('',#1845,1.);
#1489=VECTOR('',#1846,1.);
#1490=VECTOR('',#1849,1.);
#1491=VECTOR('',#1852,1.);
#1492=VECTOR('',#1857,1.);
#1493=VECTOR('',#1858,1.);
#1494=VECTOR('',#1859,1.);
#1495=VECTOR('',#1860,1.);
#1496=VECTOR('',#1863,1.);
#1497=VECTOR('',#1864,1.);
#1498=VECTOR('',#1865,1.);
#1499=VECTOR('',#1868,1.);
#1500=VECTOR('',#1869,1.);
#1501=VECTOR('',#1870,1.);
#1502=VECTOR('',#1873,1.);
#1503=VECTOR('',#1874,1.);
#1504=VECTOR('',#1877,1.);
#1505=VECTOR('',#1880,1.);
#1506=VECTOR('',#1885,1.);
#1507=VECTOR('',#1886,1.);
#1508=VECTOR('',#1887,1.);
#1509=VECTOR('',#1890,1.);
#1510=VECTOR('',#1891,1.);
#1511=VECTOR('',#1892,1.);
#1512=VECTOR('',#1895,1.);
#1513=VECTOR('',#1898,1.);
#1514=VECTOR('',#1903,1.);
#1515=VECTOR('',#1904,1.);
#1516=VECTOR('',#1905,1.);
#1517=VECTOR('',#1906,1.);
#1518=VECTOR('',#1909,1.);
#1519=VECTOR('',#1910,1.);
#1520=VECTOR('',#1911,1.);
#1521=VECTOR('',#1914,1.);
#1522=VECTOR('',#1915,1.);
#1523=VECTOR('',#1916,1.);
#1524=VECTOR('',#1919,1.);
#1525=VECTOR('',#1920,1.);
#1526=VECTOR('',#1923,1.);
#1527=VECTOR('',#1926,1.);
#1528=VECTOR('',#1931,1.);
#1529=VECTOR('',#1932,1.);
#1530=VECTOR('',#1933,1.);
#1531=VECTOR('',#1936,1.);
#1532=VECTOR('',#1937,1.);
#1533=VECTOR('',#1938,1.);
#1534=VECTOR('',#1941,1.);
#1535=VECTOR('',#1944,1.);
#1536=VECTOR('',#1949,1.);
#1537=VECTOR('',#1950,1.);
#1538=VECTOR('',#1951,1.);
#1539=VECTOR('',#1952,1.);
#1540=VECTOR('',#1955,1.);
#1541=VECTOR('',#1956,1.);
#1542=VECTOR('',#1957,1.);
#1543=VECTOR('',#1960,1.);
#1544=VECTOR('',#1961,1.);
#1545=VECTOR('',#1962,1.);
#1546=VECTOR('',#1965,1.);
#1547=VECTOR('',#1966,1.);
#1548=VECTOR('',#1969,1.);
#1549=VECTOR('',#1972,1.);
#1550=VECTOR('',#1977,1.);
#1551=VECTOR('',#1978,1.);
#1552=VECTOR('',#1979,1.);
#1553=VECTOR('',#1982,1.);
#1554=VECTOR('',#1983,1.);
#1555=VECTOR('',#1984,1.);
#1556=VECTOR('',#1987,1.);
#1557=VECTOR('',#1990,1.);
#1558=VECTOR('',#1999,1.);
#1559=VECTOR('',#2000,1.);
#1560=VECTOR('',#2001,1.);
#1561=VECTOR('',#2004,1.);
#1562=VECTOR('',#2005,1.);
#1563=VECTOR('',#2006,1.);
#1564=VECTOR('',#2009,1.);
#1565=VECTOR('',#2010,1.);
#1566=AXIS2_PLACEMENT_3D('',#2017,#1645,#1646);
#1567=AXIS2_PLACEMENT_3D('',#2026,#1651,#1652);
#1568=AXIS2_PLACEMENT_3D('',#2072,#1676,#1677);
#1569=AXIS2_PLACEMENT_3D('',#2080,#1682,#1683);
#1570=AXIS2_PLACEMENT_3D('',#2086,#1687,#1688);
#1571=AXIS2_PLACEMENT_3D('',#2094,#1693,#1694);
#1572=AXIS2_PLACEMENT_3D('',#2100,#1698,#1699);
#1573=AXIS2_PLACEMENT_3D('',#2146,#1723,#1724);
#1574=AXIS2_PLACEMENT_3D('',#2148,#1726,#1727);
#1575=AXIS2_PLACEMENT_3D('',#2151,#1730,#1731);
#1576=AXIS2_PLACEMENT_3D('',#2153,#1733,#1734);
#1577=AXIS2_PLACEMENT_3D('',#2154,#1735,#1736);
#1578=AXIS2_PLACEMENT_3D('',#2197,#1759,#1760);
#1579=AXIS2_PLACEMENT_3D('',#2201,#1764,#1765);
#1580=AXIS2_PLACEMENT_3D('',#2203,#1767,#1768);
#1581=AXIS2_PLACEMENT_3D('',#2209,#1772,#1773);
#1582=AXIS2_PLACEMENT_3D('',#2215,#1777,#1778);
#1583=AXIS2_PLACEMENT_3D('',#2240,#1795,#1796);
#1584=AXIS2_PLACEMENT_3D('',#2241,#1797,#1798);
#1585=AXIS2_PLACEMENT_3D('',#2242,#1799,#1800);
#1586=AXIS2_PLACEMENT_3D('',#2243,#1801,#1802);
#1587=AXIS2_PLACEMENT_3D('',#2244,#1803,#1804);
#1588=AXIS2_PLACEMENT_3D('',#2246,#1806,#1807);
#1589=AXIS2_PLACEMENT_3D('',#2248,#1809,#1810);
#1590=AXIS2_PLACEMENT_3D('',#2257,#1815,#1816);
#1591=AXIS2_PLACEMENT_3D('',#2263,#1820,#1821);
#1592=AXIS2_PLACEMENT_3D('',#2269,#1825,#1826);
#1593=AXIS2_PLACEMENT_3D('',#2272,#1829,#1830);
#1594=AXIS2_PLACEMENT_3D('',#2274,#1832,#1833);
#1595=AXIS2_PLACEMENT_3D('',#2276,#1835,#1836);
#1596=AXIS2_PLACEMENT_3D('',#2277,#1837,#1838);
#1597=AXIS2_PLACEMENT_3D('',#2283,#1842,#1843);
#1598=AXIS2_PLACEMENT_3D('',#2289,#1847,#1848);
#1599=AXIS2_PLACEMENT_3D('',#2291,#1850,#1851);
#1600=AXIS2_PLACEMENT_3D('',#2293,#1853,#1854);
#1601=AXIS2_PLACEMENT_3D('',#2294,#1855,#1856);
#1602=AXIS2_PLACEMENT_3D('',#2303,#1861,#1862);
#1603=AXIS2_PLACEMENT_3D('',#2309,#1866,#1867);
#1604=AXIS2_PLACEMENT_3D('',#2315,#1871,#1872);
#1605=AXIS2_PLACEMENT_3D('',#2318,#1875,#1876);
#1606=AXIS2_PLACEMENT_3D('',#2320,#1878,#1879);
#1607=AXIS2_PLACEMENT_3D('',#2322,#1881,#1882);
#1608=AXIS2_PLACEMENT_3D('',#2323,#1883,#1884);
#1609=AXIS2_PLACEMENT_3D('',#2329,#1888,#1889);
#1610=AXIS2_PLACEMENT_3D('',#2335,#1893,#1894);
#1611=AXIS2_PLACEMENT_3D('',#2337,#1896,#1897);
#1612=AXIS2_PLACEMENT_3D('',#2339,#1899,#1900);
#1613=AXIS2_PLACEMENT_3D('',#2340,#1901,#1902);
#1614=AXIS2_PLACEMENT_3D('',#2349,#1907,#1908);
#1615=AXIS2_PLACEMENT_3D('',#2355,#1912,#1913);
#1616=AXIS2_PLACEMENT_3D('',#2361,#1917,#1918);
#1617=AXIS2_PLACEMENT_3D('',#2364,#1921,#1922);
#1618=AXIS2_PLACEMENT_3D('',#2366,#1924,#1925);
#1619=AXIS2_PLACEMENT_3D('',#2368,#1927,#1928);
#1620=AXIS2_PLACEMENT_3D('',#2369,#1929,#1930);
#1621=AXIS2_PLACEMENT_3D('',#2375,#1934,#1935);
#1622=AXIS2_PLACEMENT_3D('',#2381,#1939,#1940);
#1623=AXIS2_PLACEMENT_3D('',#2383,#1942,#1943);
#1624=AXIS2_PLACEMENT_3D('',#2385,#1945,#1946);
#1625=AXIS2_PLACEMENT_3D('',#2386,#1947,#1948);
#1626=AXIS2_PLACEMENT_3D('',#2395,#1953,#1954);
#1627=AXIS2_PLACEMENT_3D('',#2401,#1958,#1959);
#1628=AXIS2_PLACEMENT_3D('',#2407,#1963,#1964);
#1629=AXIS2_PLACEMENT_3D('',#2410,#1967,#1968);
#1630=AXIS2_PLACEMENT_3D('',#2412,#1970,#1971);
#1631=AXIS2_PLACEMENT_3D('',#2414,#1973,#1974);
#1632=AXIS2_PLACEMENT_3D('',#2415,#1975,#1976);
#1633=AXIS2_PLACEMENT_3D('',#2421,#1980,#1981);
#1634=AXIS2_PLACEMENT_3D('',#2427,#1985,#1986);
#1635=AXIS2_PLACEMENT_3D('',#2429,#1988,#1989);
#1636=AXIS2_PLACEMENT_3D('',#2431,#1991,#1992);
#1637=AXIS2_PLACEMENT_3D('',#2432,#1993,#1994);
#1638=AXIS2_PLACEMENT_3D('',#2433,#1995,#1996);
#1639=AXIS2_PLACEMENT_3D('',#2434,#1997,#1998);
#1640=AXIS2_PLACEMENT_3D('',#2440,#2002,#2003);
#1641=AXIS2_PLACEMENT_3D('',#2446,#2007,#2008);
#1642=AXIS2_PLACEMENT_3D('',#2449,#2011,#2012);
#1643=AXIS2_PLACEMENT_3D('',#2450,#2013,#2014);
#1644=AXIS2_PLACEMENT_3D('',#2451,#2015,#2016);
#1645=DIRECTION('',(0.,0.,1.));
#1646=DIRECTION('',(1.,0.,0.));
#1647=DIRECTION('',(0.,1.,0.));
#1648=DIRECTION('',(-1.,1.18816676436768E-16,6.36154561581485E-32));
#1649=DIRECTION('',(0.,-1.,0.));
#1650=DIRECTION('',(1.,0.,0.));
#1651=DIRECTION('',(0.,-5.35408480239756E-16,1.));
#1652=DIRECTION('',(0.,-1.,-5.35595873207839E-16));
#1653=DIRECTION('',(0.,0.,-1.));
#1654=DIRECTION('',(-1.,0.,0.));
#1655=DIRECTION('',(0.,0.,-1.));
#1656=DIRECTION('',(-1.,1.18816676436768E-16,6.36154561581485E-32));
#1657=DIRECTION('',(1.82602471155453E-15,0.,-1.));
#1658=DIRECTION('',(0.707106781186558,-8.40160776264875E-17,-0.707106781186537));
#1659=DIRECTION('',(0.,0.,-1.));
#1660=DIRECTION('',(1.,-1.18816676436768E-16,-3.11132417028452E-18));
#1661=DIRECTION('',(0.,0.,1.));
#1662=DIRECTION('',(1.,0.,0.));
#1663=DIRECTION('',(-6.19548402752665E-16,0.,1.));
#1664=DIRECTION('',(-1.,1.18816676436768E-16,-9.05977157830353E-16));
#1665=DIRECTION('',(0.,0.,1.));
#1666=DIRECTION('',(-1.,1.18816676436768E-16,0.));
#1667=DIRECTION('',(0.,0.,1.));
#1668=DIRECTION('',(-1.,1.18816676436768E-16,-9.05977157830353E-16));
#1669=DIRECTION('',(-2.47819361101065E-15,0.,-1.));
#1670=DIRECTION('',(1.,0.,0.));
#1671=DIRECTION('',(0.,0.,1.));
#1672=DIRECTION('',(1.,-1.18816676436768E-16,-3.11132417028452E-18));
#1673=DIRECTION('',(0.,0.,-1.));
#1674=DIRECTION('',(0.707106781186546,-8.40160776264861E-17,0.707106781186549));
#1675=DIRECTION('',(0.,0.,1.));
#1676=DIRECTION('',(1.18816676436768E-16,1.,0.));
#1677=DIRECTION('',(-1.,1.18828558104411E-16,0.));
#1678=DIRECTION('',(0.,1.,0.));
#1679=DIRECTION('',(0.,-0.766044443118977,0.64278760968654));
#1680=DIRECTION('',(0.,0.,1.));
#1681=DIRECTION('',(0.,0.999657324975557,0.026176948307872));
#1682=DIRECTION('',(1.,0.,0.));
#1683=DIRECTION('',(0.,0.,-1.));
#1684=DIRECTION('',(0.,1.,0.));
#1685=DIRECTION('',(1.,0.,0.));
#1686=DIRECTION('',(0.,-1.,0.));
#1687=DIRECTION('',(0.,-5.35408480239756E-16,1.));
#1688=DIRECTION('',(0.,-1.,-5.35595873207839E-16));
#1689=DIRECTION('',(0.,-0.766044443118977,0.64278760968654));
#1690=DIRECTION('',(0.,-1.,0.));
#1691=DIRECTION('',(0.,0.999657324975557,0.026176948307872));
#1692=DIRECTION('',(0.,0.,1.));
#1693=DIRECTION('',(1.,0.,0.));
#1694=DIRECTION('',(0.,0.,-1.));
#1695=DIRECTION('',(1.,0.,9.05977157830353E-16));
#1696=DIRECTION('',(0.,-1.,0.));
#1697=DIRECTION('',(0.,-1.,0.));
#1698=DIRECTION('',(9.05977157830353E-16,0.,-1.));
#1699=DIRECTION('',(-1.,0.,-9.05959335328888E-16));
#1700=DIRECTION('',(1.,0.,0.));
#1701=DIRECTION('',(0.,0.,-1.));
#1702=DIRECTION('',(-1.,0.,0.));
#1703=DIRECTION('',(0.,0.,-1.));
#1704=DIRECTION('',(1.,0.,0.));
#1705=DIRECTION('',(2.47819361101065E-15,0.,1.));
#1706=DIRECTION('',(9.74563750548769E-16,0.,-1.));
#1707=DIRECTION('',(-1.,0.,-2.13870017586182E-15));
#1708=DIRECTION('',(-7.30922812911575E-16,0.,1.));
#1709=DIRECTION('',(1.,0.,9.05977157830353E-16));
#1710=DIRECTION('',(6.19548402752665E-16,0.,-1.));
#1711=DIRECTION('',(1.,0.,0.));
#1712=DIRECTION('',(0.,0.,-1.));
#1713=DIRECTION('',(-1.,0.,0.));
#1714=DIRECTION('',(0.,0.,-1.));
#1715=DIRECTION('',(1.,0.,0.));
#1716=DIRECTION('',(0.,0.,-1.));
#1717=DIRECTION('',(-1.,0.,0.));
#1718=DIRECTION('',(0.,0.,-1.));
#1719=DIRECTION('',(1.,0.,0.));
#1720=DIRECTION('',(0.,0.,-1.));
#1721=DIRECTION('',(-1.,0.,0.));
#1722=DIRECTION('',(0.,0.,-1.));
#1723=DIRECTION('',(0.,-1.,0.));
#1724=DIRECTION('',(0.,0.,-1.));
#1725=DIRECTION('',(0.,-1.,0.));
#1726=DIRECTION('',(-1.,0.,-9.74563750548769E-16));
#1727=DIRECTION('',(-9.74914593498966E-16,0.,1.));
#1728=DIRECTION('',(0.,-1.,0.));
#1729=DIRECTION('',(0.,-1.,0.));
#1730=DIRECTION('',(9.05977157830353E-16,0.,-1.));
#1731=DIRECTION('',(-1.,0.,-9.05959335328888E-16));
#1732=DIRECTION('',(0.,-1.,0.));
#1733=DIRECTION('',(1.,0.,7.30922812911575E-16));
#1734=DIRECTION('',(7.30969104689727E-16,0.,-1.));
#1735=DIRECTION('',(-2.13870017586182E-15,0.,1.));
#1736=DIRECTION('',(1.,0.,2.1389140458794E-15));
#1737=DIRECTION('',(-1.,0.,0.));
#1738=DIRECTION('',(0.,-1.82602471155453E-15,-1.));
#1739=DIRECTION('',(1.,0.,0.));
#1740=DIRECTION('',(0.,-1.82602471155453E-15,-1.));
#1741=DIRECTION('',(-1.,0.,0.));
#1742=DIRECTION('',(0.,-1.82602471155453E-15,-1.));
#1743=DIRECTION('',(1.,0.,0.));
#1744=DIRECTION('',(0.,-1.82602471155453E-15,-1.));
#1745=DIRECTION('',(-1.,0.,0.));
#1746=DIRECTION('',(0.,-1.82602471155453E-15,-1.));
#1747=DIRECTION('',(1.,0.,0.));
#1748=DIRECTION('',(0.,-1.82602471155453E-15,-1.));
#1749=DIRECTION('',(-1.,0.,0.));
#1750=DIRECTION('',(0.,-1.82602471155453E-15,-1.));
#1751=DIRECTION('',(1.,0.,0.));
#1752=DIRECTION('',(0.,-1.82602471155453E-15,-1.));
#1753=DIRECTION('',(1.,0.,0.));
#1754=DIRECTION('',(-1.82602471155453E-15,1.82602471155453E-15,1.));
#1755=DIRECTION('',(0.,0.,1.));
#1756=DIRECTION('',(-1.,0.,0.));
#1757=DIRECTION('',(0.,0.,1.));
#1758=DIRECTION('',(0.,-1.82602471155453E-15,-1.));
#1759=DIRECTION('',(0.,1.,-1.82602471155453E-15));
#1760=DIRECTION('',(0.,1.82579645846559E-15,1.));
#1761=DIRECTION('',(-0.540716203060949,-0.644400477571765,0.540716203060932));
#1762=DIRECTION('',(-0.540716203060936,0.644400477571771,-0.540716203060938));
#1763=DIRECTION('',(1.,0.,0.));
#1764=DIRECTION('',(0.,0.64278760968654,0.766044443118977));
#1765=DIRECTION('',(0.,-0.766044443118977,0.64278760968654));
#1766=DIRECTION('',(1.,0.,0.));
#1767=DIRECTION('',(0.,1.,0.));
#1768=DIRECTION('',(0.,0.,1.));
#1769=DIRECTION('',(0.,-0.999657324975557,-0.0261769483078721));
#1770=DIRECTION('',(-1.,0.,0.));
#1771=DIRECTION('',(0.,-0.999657324975557,-0.0261769483078721));
#1772=DIRECTION('',(0.,0.026176948307872,-0.999657324975557));
#1773=DIRECTION('',(0.,0.999657324975557,0.026176948307872));
#1774=DIRECTION('',(0.,0.,-1.));
#1775=DIRECTION('',(-1.,0.,0.));
#1776=DIRECTION('',(0.,0.,-1.));
#1777=DIRECTION('',(0.,1.,0.));
#1778=DIRECTION('',(0.,0.,1.));
#1779=DIRECTION('',(-1.,0.,0.));
#1780=DIRECTION('',(0.,1.,0.));
#1781=DIRECTION('',(0.,1.,0.));
#1782=DIRECTION('',(-1.,0.,0.));
#1783=DIRECTION('',(0.,1.,0.));
#1784=DIRECTION('',(0.,1.,0.));
#1785=DIRECTION('',(-1.,0.,0.));
#1786=DIRECTION('',(0.,1.,0.));
#1787=DIRECTION('',(0.,1.,0.));
#1788=DIRECTION('',(-1.,0.,0.));
#1789=DIRECTION('',(0.,1.,0.));
#1790=DIRECTION('',(0.,-1.,0.));
#1791=DIRECTION('',(0.,1.,0.));
#1792=DIRECTION('',(0.,1.,0.));
#1793=DIRECTION('',(0.,-1.,0.));
#1794=DIRECTION('',(0.,1.,0.));
#1795=DIRECTION('',(0.,0.,1.));
#1796=DIRECTION('',(1.,0.,0.));
#1797=DIRECTION('',(1.,0.,0.));
#1798=DIRECTION('',(0.,0.,-1.));
#1799=DIRECTION('',(1.,0.,0.));
#1800=DIRECTION('',(0.,0.,-1.));
#1801=DIRECTION('',(-1.,0.,2.47819361101065E-15));
#1802=DIRECTION('',(2.47805248543287E-15,0.,1.));
#1803=DIRECTION('',(1.,0.,6.19548402752665E-16));
#1804=DIRECTION('',(6.19513121358217E-16,0.,-1.));
#1805=DIRECTION('',(0.,-1.,0.));
#1806=DIRECTION('',(1.,0.,0.));
#1807=DIRECTION('',(0.,0.,-1.));
#1808=DIRECTION('',(0.,-1.,0.));
#1809=DIRECTION('',(-1.,0.,-1.82602471155453E-15));
#1810=DIRECTION('',(-1.82601329890009E-15,0.,1.));
#1811=DIRECTION('',(0.,1.,9.85638338623181E-17));
#1812=DIRECTION('',(-1.,0.,0.));
#1813=DIRECTION('',(0.,1.,9.85638338623181E-17));
#1814=DIRECTION('',(-1.,0.,0.));
#1815=DIRECTION('',(0.,-9.85638338623181E-17,1.));
#1816=DIRECTION('',(0.,-1.,-9.85539774789324E-17));
#1817=DIRECTION('',(0.,0.,-1.));
#1818=DIRECTION('',(-1.,0.,0.));
#1819=DIRECTION('',(0.,0.,-1.));
#1820=DIRECTION('',(0.,1.,0.));
#1821=DIRECTION('',(0.,0.,1.));
#1822=DIRECTION('',(0.,1.,8.67361737988403E-16));
#1823=DIRECTION('',(-1.,0.,0.));
#1824=DIRECTION('',(0.,1.,8.67361737988403E-16));
#1825=DIRECTION('',(0.,-8.67361737988403E-16,1.));
#1826=DIRECTION('',(0.,-1.,-8.67361737988404E-16));
#1827=DIRECTION('',(0.,0.371390676354102,0.92847669088526));
#1828=DIRECTION('',(0.,0.371390676354102,0.92847669088526));
#1829=DIRECTION('',(0.,-0.92847669088526,0.371390676354102));
#1830=DIRECTION('',(0.,-0.371390676354102,-0.92847669088526));
#1831=DIRECTION('',(0.,0.,-1.));
#1832=DIRECTION('',(1.,0.,0.));
#1833=DIRECTION('',(0.,0.,-1.));
#1834=DIRECTION('',(0.,0.,-1.));
#1835=DIRECTION('',(1.,0.,0.));
#1836=DIRECTION('',(0.,0.,-1.));
#1837=DIRECTION('',(0.,1.,0.));
#1838=DIRECTION('',(0.,0.,1.));
#1839=DIRECTION('',(0.,1.,1.17211045674108E-16));
#1840=DIRECTION('',(0.,1.,1.17211045674108E-16));
#1841=DIRECTION('',(-1.,0.,0.));
#1842=DIRECTION('',(0.,-1.17211045674108E-16,1.));
#1843=DIRECTION('',(0.,-1.,-1.17310675062932E-16));
#1844=DIRECTION('',(0.,-1.,0.));
#1845=DIRECTION('',(0.,-1.,0.));
#1846=DIRECTION('',(-1.,0.,0.));
#1847=DIRECTION('',(0.,0.,-1.));
#1848=DIRECTION('',(-1.,0.,0.));
#1849=DIRECTION('',(0.,0.,-1.));
#1850=DIRECTION('',(1.,0.,0.));
#1851=DIRECTION('',(0.,0.,-1.));
#1852=DIRECTION('',(0.,0.,-1.));
#1853=DIRECTION('',(1.,0.,0.));
#1854=DIRECTION('',(0.,0.,-1.));
#1855=DIRECTION('',(0.,1.,0.));
#1856=DIRECTION('',(0.,0.,1.));
#1857=DIRECTION('',(0.,1.,9.85638338623181E-17));
#1858=DIRECTION('',(-1.,0.,0.));
#1859=DIRECTION('',(0.,1.,9.85638338623181E-17));
#1860=DIRECTION('',(-1.,0.,0.));
#1861=DIRECTION('',(0.,-9.85638338623181E-17,1.));
#1862=DIRECTION('',(0.,-1.,-9.85539774789324E-17));
#1863=DIRECTION('',(0.,0.,-1.));
#1864=DIRECTION('',(-1.,0.,0.));
#1865=DIRECTION('',(0.,0.,-1.));
#1866=DIRECTION('',(0.,1.,0.));
#1867=DIRECTION('',(0.,0.,1.));
#1868=DIRECTION('',(0.,1.,8.67361737988403E-16));
#1869=DIRECTION('',(-1.,0.,0.));
#1870=DIRECTION('',(0.,1.,8.67361737988403E-16));
#1871=DIRECTION('',(0.,-8.67361737988403E-16,1.));
#1872=DIRECTION('',(0.,-1.,-8.67361737988404E-16));
#1873=DIRECTION('',(0.,0.371390676354102,0.92847669088526));
#1874=DIRECTION('',(0.,0.371390676354102,0.92847669088526));
#1875=DIRECTION('',(0.,-0.92847669088526,0.371390676354102));
#1876=DIRECTION('',(0.,-0.371390676354102,-0.92847669088526));
#1877=DIRECTION('',(0.,0.,-1.));
#1878=DIRECTION('',(1.,0.,0.));
#1879=DIRECTION('',(0.,0.,-1.));
#1880=DIRECTION('',(0.,0.,-1.));
#1881=DIRECTION('',(1.,0.,0.));
#1882=DIRECTION('',(0.,0.,-1.));
#1883=DIRECTION('',(0.,1.,0.));
#1884=DIRECTION('',(0.,0.,1.));
#1885=DIRECTION('',(0.,1.,1.17211045674108E-16));
#1886=DIRECTION('',(0.,1.,1.17211045674108E-16));
#1887=DIRECTION('',(-1.,0.,0.));
#1888=DIRECTION('',(0.,-1.17211045674108E-16,1.));
#1889=DIRECTION('',(0.,-1.,-1.17310675062932E-16));
#1890=DIRECTION('',(0.,-1.,0.));
#1891=DIRECTION('',(0.,-1.,0.));
#1892=DIRECTION('',(-1.,0.,0.));
#1893=DIRECTION('',(0.,0.,-1.));
#1894=DIRECTION('',(-1.,0.,0.));
#1895=DIRECTION('',(0.,0.,-1.));
#1896=DIRECTION('',(1.,0.,0.));
#1897=DIRECTION('',(0.,0.,-1.));
#1898=DIRECTION('',(0.,0.,-1.));
#1899=DIRECTION('',(1.,0.,0.));
#1900=DIRECTION('',(0.,0.,-1.));
#1901=DIRECTION('',(0.,1.,0.));
#1902=DIRECTION('',(0.,0.,1.));
#1903=DIRECTION('',(0.,1.,9.85638338623181E-17));
#1904=DIRECTION('',(-1.,0.,0.));
#1905=DIRECTION('',(0.,1.,9.85638338623181E-17));
#1906=DIRECTION('',(-1.,0.,0.));
#1907=DIRECTION('',(0.,-9.85638338623181E-17,1.));
#1908=DIRECTION('',(0.,-1.,-9.85539774789324E-17));
#1909=DIRECTION('',(0.,0.,-1.));
#1910=DIRECTION('',(-1.,0.,0.));
#1911=DIRECTION('',(0.,0.,-1.));
#1912=DIRECTION('',(0.,1.,0.));
#1913=DIRECTION('',(0.,0.,1.));
#1914=DIRECTION('',(0.,1.,8.67361737988403E-16));
#1915=DIRECTION('',(-1.,0.,0.));
#1916=DIRECTION('',(0.,1.,8.67361737988403E-16));
#1917=DIRECTION('',(0.,-8.67361737988403E-16,1.));
#1918=DIRECTION('',(0.,-1.,-8.67361737988404E-16));
#1919=DIRECTION('',(0.,0.371390676354102,0.92847669088526));
#1920=DIRECTION('',(0.,0.371390676354102,0.92847669088526));
#1921=DIRECTION('',(0.,-0.92847669088526,0.371390676354102));
#1922=DIRECTION('',(0.,-0.371390676354102,-0.92847669088526));
#1923=DIRECTION('',(0.,0.,-1.));
#1924=DIRECTION('',(1.,0.,0.));
#1925=DIRECTION('',(0.,0.,-1.));
#1926=DIRECTION('',(0.,0.,-1.));
#1927=DIRECTION('',(1.,0.,0.));
#1928=DIRECTION('',(0.,0.,-1.));
#1929=DIRECTION('',(0.,1.,0.));
#1930=DIRECTION('',(0.,0.,1.));
#1931=DIRECTION('',(0.,1.,1.17211045674108E-16));
#1932=DIRECTION('',(0.,1.,1.17211045674108E-16));
#1933=DIRECTION('',(-1.,0.,0.));
#1934=DIRECTION('',(0.,-1.17211045674108E-16,1.));
#1935=DIRECTION('',(0.,-1.,-1.17310675062932E-16));
#1936=DIRECTION('',(0.,-1.,0.));
#1937=DIRECTION('',(0.,-1.,0.));
#1938=DIRECTION('',(-1.,0.,0.));
#1939=DIRECTION('',(0.,0.,-1.));
#1940=DIRECTION('',(-1.,0.,0.));
#1941=DIRECTION('',(0.,0.,-1.));
#1942=DIRECTION('',(1.,0.,0.));
#1943=DIRECTION('',(0.,0.,-1.));
#1944=DIRECTION('',(0.,0.,-1.));
#1945=DIRECTION('',(1.,0.,0.));
#1946=DIRECTION('',(0.,0.,-1.));
#1947=DIRECTION('',(0.,1.,0.));
#1948=DIRECTION('',(0.,0.,1.));
#1949=DIRECTION('',(0.,1.,9.85638338623181E-17));
#1950=DIRECTION('',(-1.,0.,0.));
#1951=DIRECTION('',(0.,1.,9.85638338623181E-17));
#1952=DIRECTION('',(-1.,0.,0.));
#1953=DIRECTION('',(0.,-9.85638338623181E-17,1.));
#1954=DIRECTION('',(0.,-1.,-9.85539774789324E-17));
#1955=DIRECTION('',(0.,0.,-1.));
#1956=DIRECTION('',(-1.,0.,0.));
#1957=DIRECTION('',(0.,0.,-1.));
#1958=DIRECTION('',(0.,1.,0.));
#1959=DIRECTION('',(0.,0.,1.));
#1960=DIRECTION('',(0.,1.,8.67361737988403E-16));
#1961=DIRECTION('',(-1.,0.,0.));
#1962=DIRECTION('',(0.,1.,8.67361737988403E-16));
#1963=DIRECTION('',(0.,-8.67361737988403E-16,1.));
#1964=DIRECTION('',(0.,-1.,-8.67361737988404E-16));
#1965=DIRECTION('',(0.,0.371390676354102,0.92847669088526));
#1966=DIRECTION('',(0.,0.371390676354102,0.92847669088526));
#1967=DIRECTION('',(0.,-0.92847669088526,0.371390676354102));
#1968=DIRECTION('',(0.,-0.371390676354102,-0.92847669088526));
#1969=DIRECTION('',(0.,0.,-1.));
#1970=DIRECTION('',(1.,0.,0.));
#1971=DIRECTION('',(0.,0.,-1.));
#1972=DIRECTION('',(0.,0.,-1.));
#1973=DIRECTION('',(1.,0.,0.));
#1974=DIRECTION('',(0.,0.,-1.));
#1975=DIRECTION('',(0.,1.,0.));
#1976=DIRECTION('',(0.,0.,1.));
#1977=DIRECTION('',(0.,1.,1.17211045674108E-16));
#1978=DIRECTION('',(0.,1.,1.17211045674108E-16));
#1979=DIRECTION('',(-1.,0.,0.));
#1980=DIRECTION('',(0.,-1.17211045674108E-16,1.));
#1981=DIRECTION('',(0.,-1.,-1.17310675062932E-16));
#1982=DIRECTION('',(0.,-1.,0.));
#1983=DIRECTION('',(0.,-1.,0.));
#1984=DIRECTION('',(-1.,0.,0.));
#1985=DIRECTION('',(0.,0.,-1.));
#1986=DIRECTION('',(-1.,0.,0.));
#1987=DIRECTION('',(0.,0.,-1.));
#1988=DIRECTION('',(1.,0.,0.));
#1989=DIRECTION('',(0.,0.,-1.));
#1990=DIRECTION('',(0.,0.,-1.));
#1991=DIRECTION('',(1.,0.,0.));
#1992=DIRECTION('',(0.,0.,-1.));
#1993=DIRECTION('',(0.,1.,0.));
#1994=DIRECTION('',(0.,0.,1.));
#1995=DIRECTION('',(0.707106781186537,0.,0.707106781186558));
#1996=DIRECTION('',(0.,-1.,0.));
#1997=DIRECTION('',(0.707106781186549,0.,-0.707106781186546));
#1998=DIRECTION('',(0.,1.,0.));
#1999=DIRECTION('',(0.,1.,1.23908819712629E-15));
#2000=DIRECTION('',(0.,1.,1.23908819712629E-15));
#2001=DIRECTION('',(1.,0.,0.));
#2002=DIRECTION('',(0.,1.23908819712629E-15,-1.));
#2003=DIRECTION('',(0.,1.,1.23902624271643E-15));
#2004=DIRECTION('',(0.,0.734099439586408,0.679041981617426));
#2005=DIRECTION('',(0.,0.734099439586408,0.679041981617426));
#2006=DIRECTION('',(1.,0.,0.));
#2007=DIRECTION('',(0.,0.679041981617426,-0.734099439586408));
#2008=DIRECTION('',(0.,0.734099439586408,0.679041981617426));
#2009=DIRECTION('',(0.,1.,7.65319180578003E-16));
#2010=DIRECTION('',(0.,1.,7.65319180578003E-16));
#2011=DIRECTION('',(0.,7.65319180578003E-16,-1.));
#2012=DIRECTION('',(0.,1.,7.65446733774766E-16));
#2013=DIRECTION('',(1.,0.,0.));
#2014=DIRECTION('',(0.,0.,-1.));
#2015=DIRECTION('',(1.,0.,0.));
#2016=DIRECTION('',(0.,0.,-1.));
#2017=CARTESIAN_POINT('',(0.,0.,0.));
#2018=CARTESIAN_POINT('',(-2.75,2.40000000000001,3.1));
#2019=CARTESIAN_POINT('',(-2.75,2.4,3.1));
#2020=CARTESIAN_POINT('',(-2.75,5.70000000000001,3.1));
#2021=CARTESIAN_POINT('',(1.1,2.4,3.1));
#2022=CARTESIAN_POINT('',(-5.4,2.4,3.1));
#2023=CARTESIAN_POINT('',(-5.4,40.02,3.1));
#2024=CARTESIAN_POINT('',(-5.4,5.7,3.1));
#2025=CARTESIAN_POINT('',(1.1,5.7,3.1));
#2026=CARTESIAN_POINT('',(1.1,1.65,3.1));
#2027=CARTESIAN_POINT('',(-2.75,2.4,3.14));
#2028=CARTESIAN_POINT('',(-2.75,2.4,3.14));
#2029=CARTESIAN_POINT('',(-1.75,2.4,3.14));
#2030=CARTESIAN_POINT('',(-1.75,2.4,3.14));
#2031=CARTESIAN_POINT('',(-1.75,2.4,3.14));
#2032=CARTESIAN_POINT('',(-1.75,2.4,3.1));
#2033=CARTESIAN_POINT('',(1.1,2.4,3.1));
#2034=CARTESIAN_POINT('',(0.899999999999992,2.4,3.1));
#2035=CARTESIAN_POINT('',(0.899999999999991,2.4,3.1));
#2036=CARTESIAN_POINT('',(0.899999999999993,2.4,1.675));
#2037=CARTESIAN_POINT('',(22.2025,2.4,-19.6274999999994));
#2038=CARTESIAN_POINT('',(1.1,2.4,1.475));
#2039=CARTESIAN_POINT('',(1.1,2.4,0.));
#2040=CARTESIAN_POINT('',(1.1,2.4,0.250493498037091));
#2041=CARTESIAN_POINT('',(1.1,2.4,0.250493498037091));
#2042=CARTESIAN_POINT('',(0.0999999999999985,2.4,0.250493498037091));
#2043=CARTESIAN_POINT('',(0.0999999999999985,2.4,-0.475002431555503));
#2044=CARTESIAN_POINT('',(0.0999999999999985,2.4,-0.475002431555503));
#2045=CARTESIAN_POINT('',(0.5,2.4,-0.475002431555503));
#2046=CARTESIAN_POINT('',(0.5,2.4,-0.475002431555503));
#2047=CARTESIAN_POINT('',(0.500000000000001,2.4,-0.824999999999994));
#2048=CARTESIAN_POINT('',(0.5,2.4,-0.824999999999994));
#2049=CARTESIAN_POINT('',(1.39999999999997,2.4,-0.824999999999992));
#2050=CARTESIAN_POINT('',(1.4,2.4,-0.824999999999992));
#2051=CARTESIAN_POINT('',(1.4,2.4,-40.43));
#2052=CARTESIAN_POINT('',(1.4,2.4,3.62500000000001));
#2053=CARTESIAN_POINT('',(1.4,2.4,3.62500000000001));
#2054=CARTESIAN_POINT('',(-5.9,2.4,3.62500000000001));
#2055=CARTESIAN_POINT('',(-5.9,2.4,-40.43));
#2056=CARTESIAN_POINT('',(-5.9,2.4,-0.824999999999992));
#2057=CARTESIAN_POINT('',(1.39999999999997,2.4,-0.824999999999992));
#2058=CARTESIAN_POINT('',(-5.,2.4,-0.824999999999996));
#2059=CARTESIAN_POINT('',(-5.,2.4,-0.475002431555503));
#2060=CARTESIAN_POINT('',(-5.,2.4,-0.475002431555503));
#2061=CARTESIAN_POINT('',(0.5,2.4,-0.475002431555503));
#2062=CARTESIAN_POINT('',(-4.6,2.4,-0.475002431555503));
#2063=CARTESIAN_POINT('',(-4.6,2.4,-0.475002431555503));
#2064=CARTESIAN_POINT('',(-4.6,2.4,0.250493498037091));
#2065=CARTESIAN_POINT('',(1.1,2.4,0.250493498037091));
#2066=CARTESIAN_POINT('',(-5.6,2.4,0.250493498037091));
#2067=CARTESIAN_POINT('',(-5.6,2.4,0.));
#2068=CARTESIAN_POINT('',(-5.6,2.4,1.475));
#2069=CARTESIAN_POINT('',(-23.0525,2.4,-15.9775000000001));
#2070=CARTESIAN_POINT('',(-5.4,2.4,1.675));
#2071=CARTESIAN_POINT('',(-5.4,2.4,1.675));
#2072=CARTESIAN_POINT('',(1.4,2.4,-40.43));
#2073=CARTESIAN_POINT('',(1.1,0.,1.475));
#2074=CARTESIAN_POINT('',(1.1,5.93835071851884,1.475));
#2075=CARTESIAN_POINT('',(1.1,5.7,1.675));
#2076=CARTESIAN_POINT('',(1.1,6.2,1.25545018441136));
#2077=CARTESIAN_POINT('',(1.1,6.2,1.25545018441136));
#2078=CARTESIAN_POINT('',(1.1,6.2,0.35));
#2079=CARTESIAN_POINT('',(1.1,6.2,0.349999999999997));
#2080=CARTESIAN_POINT('',(1.1,0.,0.));
#2081=CARTESIAN_POINT('',(-1.75,2.40000000000001,3.1));
#2082=CARTESIAN_POINT('',(-1.75,5.70000000000001,3.1));
#2083=CARTESIAN_POINT('',(1.1,5.7,3.1));
#2084=CARTESIAN_POINT('',(0.899999999999992,5.7,3.1));
#2085=CARTESIAN_POINT('',(0.899999999999991,40.02,3.1));
#2086=CARTESIAN_POINT('',(1.1,1.65,3.1));
#2087=CARTESIAN_POINT('',(-5.6,5.7,1.675));
#2088=CARTESIAN_POINT('',(-5.6,6.2,1.25545018441136));
#2089=CARTESIAN_POINT('',(-5.6,5.93835071851884,1.475));
#2090=CARTESIAN_POINT('',(-5.6,2.4,1.475));
#2091=CARTESIAN_POINT('',(-5.6,6.2,0.349999999999997));
#2092=CARTESIAN_POINT('',(-5.6,6.2,0.35));
#2093=CARTESIAN_POINT('',(-5.6,6.2,1.25545018441136));
#2094=CARTESIAN_POINT('',(-5.6,0.,0.));
#2095=CARTESIAN_POINT('',(-5.9,7.4,-0.825000000000002));
#2096=CARTESIAN_POINT('',(-5.9,7.4,-0.825000000000002));
#2097=CARTESIAN_POINT('',(-5.,7.4,-0.824999999999996));
#2098=CARTESIAN_POINT('',(-5.,51.9,-0.824999999999996));
#2099=CARTESIAN_POINT('',(-5.9,7.4,-0.825000000000002));
#2100=CARTESIAN_POINT('',(-5.9,7.4,-0.825000000000002));
#2101=CARTESIAN_POINT('',(0.5,7.4,-0.475002431555503));
#2102=CARTESIAN_POINT('',(-4.3,7.4,-0.475002431555503));
#2103=CARTESIAN_POINT('',(-3.2,7.4,-0.475002431555503));
#2104=CARTESIAN_POINT('',(-4.3,7.4,-1.87500000000001));
#2105=CARTESIAN_POINT('',(-4.3,7.40000000000001,-1.875));
#2106=CARTESIAN_POINT('',(-4.3,7.40000000000001,-1.875));
#2107=CARTESIAN_POINT('',(-4.7,7.40000000000001,-1.875));
#2108=CARTESIAN_POINT('',(-4.7,7.4,-1.87500000000001));
#2109=CARTESIAN_POINT('',(-4.7,7.4,-0.475002431555503));
#2110=CARTESIAN_POINT('',(0.5,7.4,-0.475002431555503));
#2111=CARTESIAN_POINT('',(-5.,7.4,-0.475002431555503));
#2112=CARTESIAN_POINT('',(-5.,7.4,-0.475002431555503));
#2113=CARTESIAN_POINT('',(-5.9,7.4,3.62499999999999));
#2114=CARTESIAN_POINT('',(-5.9,7.4,3.62499999999999));
#2115=CARTESIAN_POINT('',(1.4,7.4,3.62500000000001));
#2116=CARTESIAN_POINT('',(1.4,7.4,3.62500000000001));
#2117=CARTESIAN_POINT('',(1.4,7.4,-0.824999999999995));
#2118=CARTESIAN_POINT('',(1.4,7.4,-0.824999999999995));
#2119=CARTESIAN_POINT('',(-5.9,7.4,-0.825000000000002));
#2120=CARTESIAN_POINT('',(0.5,7.4,-0.824999999999994));
#2121=CARTESIAN_POINT('',(0.500000000000001,7.4,-0.824999999999994));
#2122=CARTESIAN_POINT('',(0.5,7.4,-0.475002431555503));
#2123=CARTESIAN_POINT('',(0.5,7.4,-0.475002431555503));
#2124=CARTESIAN_POINT('',(0.2,7.4,-0.475002431555503));
#2125=CARTESIAN_POINT('',(0.2,7.4,-1.87500000000001));
#2126=CARTESIAN_POINT('',(0.2,7.40000000000001,-1.875));
#2127=CARTESIAN_POINT('',(0.2,7.40000000000001,-1.875));
#2128=CARTESIAN_POINT('',(-0.2,7.40000000000001,-1.875));
#2129=CARTESIAN_POINT('',(-0.2,7.4,-1.87500000000001));
#2130=CARTESIAN_POINT('',(-0.2,7.4,-0.475002431555503));
#2131=CARTESIAN_POINT('',(0.5,7.4,-0.475002431555503));
#2132=CARTESIAN_POINT('',(-1.3,7.4,-0.475002431555503));
#2133=CARTESIAN_POINT('',(-1.3,7.4,-1.87500000000001));
#2134=CARTESIAN_POINT('',(-1.3,7.40000000000001,-1.875));
#2135=CARTESIAN_POINT('',(-1.3,7.40000000000001,-1.875));
#2136=CARTESIAN_POINT('',(-1.7,7.40000000000001,-1.875));
#2137=CARTESIAN_POINT('',(-1.7,7.4,-1.87500000000001));
#2138=CARTESIAN_POINT('',(-1.7,7.4,-0.475002431555503));
#2139=CARTESIAN_POINT('',(0.5,7.4,-0.475002431555503));
#2140=CARTESIAN_POINT('',(-2.8,7.4,-0.475002431555503));
#2141=CARTESIAN_POINT('',(-2.8,7.4,-1.87500000000001));
#2142=CARTESIAN_POINT('',(-2.8,7.40000000000001,-1.875));
#2143=CARTESIAN_POINT('',(-2.8,7.40000000000001,-1.875));
#2144=CARTESIAN_POINT('',(-3.2,7.40000000000001,-1.875));
#2145=CARTESIAN_POINT('',(-3.2,7.4,-1.87500000000001));
#2146=CARTESIAN_POINT('',(0.,7.4,0.));
#2147=CARTESIAN_POINT('',(-5.9,7.4,3.62499999999999));
#2148=CARTESIAN_POINT('',(-5.9,7.4,3.62499999999999));
#2149=CARTESIAN_POINT('',(0.5,51.9,-0.824999999999994));
#2150=CARTESIAN_POINT('',(1.4,7.4,-0.824999999999995));
#2151=CARTESIAN_POINT('',(-5.9,7.4,-0.825000000000002));
#2152=CARTESIAN_POINT('',(1.4,7.4,3.62500000000001));
#2153=CARTESIAN_POINT('',(1.4,7.4,-0.824999999999995));
#2154=CARTESIAN_POINT('',(1.4,7.4,3.62500000000001));
#2155=CARTESIAN_POINT('',(1.1,5.69999999999999,2.325));
#2156=CARTESIAN_POINT('',(-4.3,5.69999999999999,2.325));
#2157=CARTESIAN_POINT('',(-4.7,5.69999999999999,2.325));
#2158=CARTESIAN_POINT('',(-4.3,5.7,3.1));
#2159=CARTESIAN_POINT('',(-4.3,5.69999999999999,1.925));
#2160=CARTESIAN_POINT('',(1.1,5.69999999999999,1.925));
#2161=CARTESIAN_POINT('',(-4.7,5.69999999999999,1.925));
#2162=CARTESIAN_POINT('',(-4.7,5.7,3.1));
#2163=CARTESIAN_POINT('',(1.1,5.69999999999999,2.325));
#2164=CARTESIAN_POINT('',(-2.8,5.69999999999999,2.325));
#2165=CARTESIAN_POINT('',(-3.2,5.69999999999999,2.325));
#2166=CARTESIAN_POINT('',(-2.8,5.7,3.1));
#2167=CARTESIAN_POINT('',(-2.8,5.69999999999999,1.925));
#2168=CARTESIAN_POINT('',(1.1,5.69999999999999,1.925));
#2169=CARTESIAN_POINT('',(-3.2,5.69999999999999,1.925));
#2170=CARTESIAN_POINT('',(-3.2,5.7,3.1));
#2171=CARTESIAN_POINT('',(1.1,5.69999999999999,2.325));
#2172=CARTESIAN_POINT('',(-1.3,5.69999999999999,2.325));
#2173=CARTESIAN_POINT('',(-1.7,5.69999999999999,2.325));
#2174=CARTESIAN_POINT('',(-1.3,5.7,3.1));
#2175=CARTESIAN_POINT('',(-1.3,5.69999999999999,1.925));
#2176=CARTESIAN_POINT('',(1.1,5.69999999999999,1.925));
#2177=CARTESIAN_POINT('',(-1.7,5.69999999999999,1.925));
#2178=CARTESIAN_POINT('',(-1.7,5.7,3.1));
#2179=CARTESIAN_POINT('',(1.1,5.69999999999999,2.325));
#2180=CARTESIAN_POINT('',(0.2,5.69999999999999,2.325));
#2181=CARTESIAN_POINT('',(-0.2,5.69999999999999,2.325));
#2182=CARTESIAN_POINT('',(0.2,5.7,3.1));
#2183=CARTESIAN_POINT('',(0.2,5.69999999999999,1.925));
#2184=CARTESIAN_POINT('',(1.1,5.69999999999999,1.925));
#2185=CARTESIAN_POINT('',(-0.2,5.69999999999999,1.925));
#2186=CARTESIAN_POINT('',(-0.2,5.7,3.1));
#2187=CARTESIAN_POINT('',(1.1,5.69999999999999,1.675));
#2188=CARTESIAN_POINT('',(-5.4,5.70000000000002,1.675));
#2189=CARTESIAN_POINT('',(0.899999999999993,5.69999999999999,1.675));
#2190=CARTESIAN_POINT('',(0.899999999999991,5.7,3.1));
#2191=CARTESIAN_POINT('',(-1.75,5.7,3.1));
#2192=CARTESIAN_POINT('',(-1.75,5.7,3.32500000000001));
#2193=CARTESIAN_POINT('',(-1.75,5.7,3.32500000000001));
#2194=CARTESIAN_POINT('',(-2.75,5.7,3.32500000000001));
#2195=CARTESIAN_POINT('',(-2.75,5.7,3.1));
#2196=CARTESIAN_POINT('',(-5.4,5.7,3.1));
#2197=CARTESIAN_POINT('',(1.1,5.7,3.1));
#2198=CARTESIAN_POINT('',(12.8583845918657,19.9514477989787,-10.2833845918654));
#2199=CARTESIAN_POINT('',(-3.53085426184646,3.47243885147336,3.54414573815354));
#2200=CARTESIAN_POINT('',(1.1,6.2,1.25545018441136));
#2201=CARTESIAN_POINT('',(1.1,5.7,1.675));
#2202=CARTESIAN_POINT('',(1.1,6.2,0.35));
#2203=CARTESIAN_POINT('',(1.1,6.2,1.25545018441136));
#2204=CARTESIAN_POINT('',(-4.6,2.4,0.250493498037091));
#2205=CARTESIAN_POINT('',(-4.6,1.65,0.230854056860201));
#2206=CARTESIAN_POINT('',(0.0999999999999985,1.65,0.230854056860201));
#2207=CARTESIAN_POINT('',(0.0999999999999985,1.65,0.230854056860201));
#2208=CARTESIAN_POINT('',(0.0999999999999985,2.4,0.250493498037091));
#2209=CARTESIAN_POINT('',(1.1,6.2,0.349999999999997));
#2210=CARTESIAN_POINT('',(-4.6,1.65,0.230854056860201));
#2211=CARTESIAN_POINT('',(-4.6,1.65,-0.475002431555503));
#2212=CARTESIAN_POINT('',(0.0999999999999985,1.65,-0.475002431555503));
#2213=CARTESIAN_POINT('',(0.0999999999999985,1.65,-0.475002431555503));
#2214=CARTESIAN_POINT('',(0.0999999999999985,1.65,0.230854056860201));
#2215=CARTESIAN_POINT('',(0.0999999999999985,1.65,0.230854056860201));
#2216=CARTESIAN_POINT('',(0.0999999999999985,3.4,-0.475002431555503));
#2217=CARTESIAN_POINT('',(-4.3,3.4,-0.475002431555503));
#2218=CARTESIAN_POINT('',(-4.7,3.4,-0.475002431555503));
#2219=CARTESIAN_POINT('',(-4.3,1.65,-0.475002431555503));
#2220=CARTESIAN_POINT('',(-3.2,1.65,-0.475002431555503));
#2221=CARTESIAN_POINT('',(-3.2,3.4,-0.475002431555503));
#2222=CARTESIAN_POINT('',(0.0999999999999985,3.4,-0.475002431555503));
#2223=CARTESIAN_POINT('',(-2.8,3.4,-0.475002431555503));
#2224=CARTESIAN_POINT('',(-2.8,1.65,-0.475002431555503));
#2225=CARTESIAN_POINT('',(-1.7,1.65,-0.475002431555503));
#2226=CARTESIAN_POINT('',(-1.7,3.4,-0.475002431555503));
#2227=CARTESIAN_POINT('',(0.0999999999999985,3.4,-0.475002431555503));
#2228=CARTESIAN_POINT('',(-1.3,3.4,-0.475002431555503));
#2229=CARTESIAN_POINT('',(-1.3,1.65,-0.475002431555503));
#2230=CARTESIAN_POINT('',(-0.2,1.65,-0.475002431555503));
#2231=CARTESIAN_POINT('',(-0.2,3.4,-0.475002431555503));
#2232=CARTESIAN_POINT('',(0.0999999999999985,3.4,-0.475002431555503));
#2233=CARTESIAN_POINT('',(0.2,3.4,-0.475002431555503));
#2234=CARTESIAN_POINT('',(0.2,1.65,-0.475002431555503));
#2235=CARTESIAN_POINT('',(0.5,51.9,-0.475002431555503));
#2236=CARTESIAN_POINT('',(0.0999999999999985,1.65,-0.475002431555503));
#2237=CARTESIAN_POINT('',(-4.6,1.65,-0.475002431555503));
#2238=CARTESIAN_POINT('',(-5.,51.9,-0.475002431555503));
#2239=CARTESIAN_POINT('',(-4.7,1.65,-0.475002431555503));
#2240=CARTESIAN_POINT('',(0.0999999999999985,1.65,-0.475002431555503));
#2241=CARTESIAN_POINT('',(0.0999999999999985,0.,0.));
#2242=CARTESIAN_POINT('',(-4.6,0.,0.));
#2243=CARTESIAN_POINT('',(-5.,51.9,-0.475002431555503));
#2244=CARTESIAN_POINT('',(0.500000000000001,51.9,-0.824999999999994));
#2245=CARTESIAN_POINT('',(-5.4,40.02,1.675));
#2246=CARTESIAN_POINT('',(-5.4,40.02,1.675));
#2247=CARTESIAN_POINT('',(0.899999999999993,40.02,1.675));
#2248=CARTESIAN_POINT('',(0.899999999999991,40.02,3.1));
#2249=CARTESIAN_POINT('',(-0.2,3.4,-0.824999999999996));
#2250=CARTESIAN_POINT('',(-0.2,3.4,-0.824999999999996));
#2251=CARTESIAN_POINT('',(-0.2,6.70000000000001,-0.824999999999996));
#2252=CARTESIAN_POINT('',(0.2,6.70000000000001,-0.824999999999996));
#2253=CARTESIAN_POINT('',(0.2,6.70000000000001,-0.824999999999996));
#2254=CARTESIAN_POINT('',(0.2,3.4,-0.824999999999996));
#2255=CARTESIAN_POINT('',(0.2,3.4,-0.824999999999996));
#2256=CARTESIAN_POINT('',(0.2,3.4,-0.824999999999996));
#2257=CARTESIAN_POINT('',(0.2,3.4,-0.824999999999996));
#2258=CARTESIAN_POINT('',(-0.2,6.70000000000001,-0.824999999999996));
#2259=CARTESIAN_POINT('',(-0.2,6.70000000000001,-2.375));
#2260=CARTESIAN_POINT('',(0.2,6.70000000000001,-2.375));
#2261=CARTESIAN_POINT('',(0.2,6.70000000000001,-2.375));
#2262=CARTESIAN_POINT('',(0.2,6.70000000000001,-0.824999999999996));
#2263=CARTESIAN_POINT('',(0.2,6.70000000000001,-0.824999999999996));
#2264=CARTESIAN_POINT('',(-0.2,6.70000000000001,-2.375));
#2265=CARTESIAN_POINT('',(-0.2,7.20000000000001,-2.37499999999999));
#2266=CARTESIAN_POINT('',(0.2,7.20000000000001,-2.37499999999999));
#2267=CARTESIAN_POINT('',(0.2,7.20000000000001,-2.37499999999999));
#2268=CARTESIAN_POINT('',(0.2,6.70000000000001,-2.375));
#2269=CARTESIAN_POINT('',(0.2,6.70000000000001,-2.375));
#2270=CARTESIAN_POINT('',(-0.2,7.20000000000001,-2.375));
#2271=CARTESIAN_POINT('',(0.2,7.20000000000001,-2.375));
#2272=CARTESIAN_POINT('',(0.2,7.20000000000001,-2.375));
#2273=CARTESIAN_POINT('',(-0.2,3.4,-0.374999999999995));
#2274=CARTESIAN_POINT('',(-0.2,0.,0.));
#2275=CARTESIAN_POINT('',(0.2,3.4,-0.374999999999995));
#2276=CARTESIAN_POINT('',(0.2,0.,0.));
#2277=CARTESIAN_POINT('',(0.2,3.4,-0.374999999999995));
#2278=CARTESIAN_POINT('',(-0.2,3.,1.925));
#2279=CARTESIAN_POINT('',(-0.2,3.,1.925));
#2280=CARTESIAN_POINT('',(0.2,3.,1.925));
#2281=CARTESIAN_POINT('',(0.2,3.,1.925));
#2282=CARTESIAN_POINT('',(0.2,3.,1.925));
#2283=CARTESIAN_POINT('',(0.2,3.,1.925));
#2284=CARTESIAN_POINT('',(0.2,6.7,2.325));
#2285=CARTESIAN_POINT('',(0.2,3.,2.325));
#2286=CARTESIAN_POINT('',(-0.2,6.7,2.325));
#2287=CARTESIAN_POINT('',(-0.2,3.,2.325));
#2288=CARTESIAN_POINT('',(0.2,3.,2.325));
#2289=CARTESIAN_POINT('',(0.2,6.7,2.325));
#2290=CARTESIAN_POINT('',(0.2,3.,2.325));
#2291=CARTESIAN_POINT('',(0.2,0.,0.));
#2292=CARTESIAN_POINT('',(-0.2,3.,2.325));
#2293=CARTESIAN_POINT('',(-0.2,0.,0.));
#2294=CARTESIAN_POINT('',(0.2,3.,2.325));
#2295=CARTESIAN_POINT('',(-1.7,3.4,-0.824999999999996));
#2296=CARTESIAN_POINT('',(-1.7,3.4,-0.824999999999996));
#2297=CARTESIAN_POINT('',(-1.7,6.70000000000001,-0.824999999999996));
#2298=CARTESIAN_POINT('',(-1.3,6.70000000000001,-0.824999999999996));
#2299=CARTESIAN_POINT('',(-1.3,6.70000000000001,-0.824999999999996));
#2300=CARTESIAN_POINT('',(-1.3,3.4,-0.824999999999996));
#2301=CARTESIAN_POINT('',(-1.3,3.4,-0.824999999999996));
#2302=CARTESIAN_POINT('',(-1.3,3.4,-0.824999999999996));
#2303=CARTESIAN_POINT('',(-1.3,3.4,-0.824999999999996));
#2304=CARTESIAN_POINT('',(-1.7,6.70000000000001,-0.824999999999996));
#2305=CARTESIAN_POINT('',(-1.7,6.70000000000001,-2.375));
#2306=CARTESIAN_POINT('',(-1.3,6.70000000000001,-2.375));
#2307=CARTESIAN_POINT('',(-1.3,6.70000000000001,-2.375));
#2308=CARTESIAN_POINT('',(-1.3,6.70000000000001,-0.824999999999996));
#2309=CARTESIAN_POINT('',(-1.3,6.70000000000001,-0.824999999999996));
#2310=CARTESIAN_POINT('',(-1.7,6.70000000000001,-2.375));
#2311=CARTESIAN_POINT('',(-1.7,7.20000000000001,-2.37499999999999));
#2312=CARTESIAN_POINT('',(-1.3,7.20000000000001,-2.37499999999999));
#2313=CARTESIAN_POINT('',(-1.3,7.20000000000001,-2.37499999999999));
#2314=CARTESIAN_POINT('',(-1.3,6.70000000000001,-2.375));
#2315=CARTESIAN_POINT('',(-1.3,6.70000000000001,-2.375));
#2316=CARTESIAN_POINT('',(-1.7,7.20000000000001,-2.375));
#2317=CARTESIAN_POINT('',(-1.3,7.20000000000001,-2.375));
#2318=CARTESIAN_POINT('',(-1.3,7.20000000000001,-2.375));
#2319=CARTESIAN_POINT('',(-1.7,3.4,-0.374999999999995));
#2320=CARTESIAN_POINT('',(-1.7,0.,0.));
#2321=CARTESIAN_POINT('',(-1.3,3.4,-0.374999999999995));
#2322=CARTESIAN_POINT('',(-1.3,0.,0.));
#2323=CARTESIAN_POINT('',(-1.3,3.4,-0.374999999999995));
#2324=CARTESIAN_POINT('',(-1.7,3.,1.925));
#2325=CARTESIAN_POINT('',(-1.7,3.,1.925));
#2326=CARTESIAN_POINT('',(-1.3,3.,1.925));
#2327=CARTESIAN_POINT('',(-1.3,3.,1.925));
#2328=CARTESIAN_POINT('',(-1.3,3.,1.925));
#2329=CARTESIAN_POINT('',(-1.3,3.,1.925));
#2330=CARTESIAN_POINT('',(-1.3,6.7,2.325));
#2331=CARTESIAN_POINT('',(-1.3,3.,2.325));
#2332=CARTESIAN_POINT('',(-1.7,6.7,2.325));
#2333=CARTESIAN_POINT('',(-1.7,3.,2.325));
#2334=CARTESIAN_POINT('',(-1.3,3.,2.325));
#2335=CARTESIAN_POINT('',(-1.3,6.7,2.325));
#2336=CARTESIAN_POINT('',(-1.3,3.,2.325));
#2337=CARTESIAN_POINT('',(-1.3,0.,0.));
#2338=CARTESIAN_POINT('',(-1.7,3.,2.325));
#2339=CARTESIAN_POINT('',(-1.7,0.,0.));
#2340=CARTESIAN_POINT('',(-1.3,3.,2.325));
#2341=CARTESIAN_POINT('',(-3.2,3.4,-0.824999999999996));
#2342=CARTESIAN_POINT('',(-3.2,3.4,-0.824999999999996));
#2343=CARTESIAN_POINT('',(-3.2,6.70000000000001,-0.824999999999996));
#2344=CARTESIAN_POINT('',(-2.8,6.70000000000001,-0.824999999999996));
#2345=CARTESIAN_POINT('',(-2.8,6.70000000000001,-0.824999999999996));
#2346=CARTESIAN_POINT('',(-2.8,3.4,-0.824999999999996));
#2347=CARTESIAN_POINT('',(-2.8,3.4,-0.824999999999996));
#2348=CARTESIAN_POINT('',(-2.8,3.4,-0.824999999999996));
#2349=CARTESIAN_POINT('',(-2.8,3.4,-0.824999999999996));
#2350=CARTESIAN_POINT('',(-3.2,6.70000000000001,-0.824999999999996));
#2351=CARTESIAN_POINT('',(-3.2,6.70000000000001,-2.375));
#2352=CARTESIAN_POINT('',(-2.8,6.70000000000001,-2.375));
#2353=CARTESIAN_POINT('',(-2.8,6.70000000000001,-2.375));
#2354=CARTESIAN_POINT('',(-2.8,6.70000000000001,-0.824999999999996));
#2355=CARTESIAN_POINT('',(-2.8,6.70000000000001,-0.824999999999996));
#2356=CARTESIAN_POINT('',(-3.2,6.70000000000001,-2.375));
#2357=CARTESIAN_POINT('',(-3.2,7.20000000000001,-2.37499999999999));
#2358=CARTESIAN_POINT('',(-2.8,7.20000000000001,-2.37499999999999));
#2359=CARTESIAN_POINT('',(-2.8,7.20000000000001,-2.37499999999999));
#2360=CARTESIAN_POINT('',(-2.8,6.70000000000001,-2.375));
#2361=CARTESIAN_POINT('',(-2.8,6.70000000000001,-2.375));
#2362=CARTESIAN_POINT('',(-3.2,7.20000000000001,-2.375));
#2363=CARTESIAN_POINT('',(-2.8,7.20000000000001,-2.375));
#2364=CARTESIAN_POINT('',(-2.8,7.20000000000001,-2.375));
#2365=CARTESIAN_POINT('',(-3.2,3.4,-0.374999999999995));
#2366=CARTESIAN_POINT('',(-3.2,0.,0.));
#2367=CARTESIAN_POINT('',(-2.8,3.4,-0.374999999999995));
#2368=CARTESIAN_POINT('',(-2.8,0.,0.));
#2369=CARTESIAN_POINT('',(-2.8,3.4,-0.374999999999995));
#2370=CARTESIAN_POINT('',(-3.2,3.,1.925));
#2371=CARTESIAN_POINT('',(-3.2,3.,1.925));
#2372=CARTESIAN_POINT('',(-2.8,3.,1.925));
#2373=CARTESIAN_POINT('',(-2.8,3.,1.925));
#2374=CARTESIAN_POINT('',(-2.8,3.,1.925));
#2375=CARTESIAN_POINT('',(-2.8,3.,1.925));
#2376=CARTESIAN_POINT('',(-2.8,6.7,2.325));
#2377=CARTESIAN_POINT('',(-2.8,3.,2.325));
#2378=CARTESIAN_POINT('',(-3.2,6.7,2.325));
#2379=CARTESIAN_POINT('',(-3.2,3.,2.325));
#2380=CARTESIAN_POINT('',(-2.8,3.,2.325));
#2381=CARTESIAN_POINT('',(-2.8,6.7,2.325));
#2382=CARTESIAN_POINT('',(-2.8,3.,2.325));
#2383=CARTESIAN_POINT('',(-2.8,0.,0.));
#2384=CARTESIAN_POINT('',(-3.2,3.,2.325));
#2385=CARTESIAN_POINT('',(-3.2,0.,0.));
#2386=CARTESIAN_POINT('',(-2.8,3.,2.325));
#2387=CARTESIAN_POINT('',(-4.7,3.4,-0.824999999999996));
#2388=CARTESIAN_POINT('',(-4.7,3.4,-0.824999999999996));
#2389=CARTESIAN_POINT('',(-4.7,6.70000000000001,-0.824999999999996));
#2390=CARTESIAN_POINT('',(-4.3,6.70000000000001,-0.824999999999996));
#2391=CARTESIAN_POINT('',(-4.3,6.70000000000001,-0.824999999999996));
#2392=CARTESIAN_POINT('',(-4.3,3.4,-0.824999999999996));
#2393=CARTESIAN_POINT('',(-4.3,3.4,-0.824999999999996));
#2394=CARTESIAN_POINT('',(-4.3,3.4,-0.824999999999996));
#2395=CARTESIAN_POINT('',(-4.3,3.4,-0.824999999999996));
#2396=CARTESIAN_POINT('',(-4.7,6.70000000000001,-0.824999999999996));
#2397=CARTESIAN_POINT('',(-4.7,6.70000000000001,-2.375));
#2398=CARTESIAN_POINT('',(-4.3,6.70000000000001,-2.375));
#2399=CARTESIAN_POINT('',(-4.3,6.70000000000001,-2.375));
#2400=CARTESIAN_POINT('',(-4.3,6.70000000000001,-0.824999999999996));
#2401=CARTESIAN_POINT('',(-4.3,6.70000000000001,-0.824999999999996));
#2402=CARTESIAN_POINT('',(-4.7,6.70000000000001,-2.375));
#2403=CARTESIAN_POINT('',(-4.7,7.20000000000001,-2.37499999999999));
#2404=CARTESIAN_POINT('',(-4.3,7.20000000000001,-2.37499999999999));
#2405=CARTESIAN_POINT('',(-4.3,7.20000000000001,-2.37499999999999));
#2406=CARTESIAN_POINT('',(-4.3,6.70000000000001,-2.375));
#2407=CARTESIAN_POINT('',(-4.3,6.70000000000001,-2.375));
#2408=CARTESIAN_POINT('',(-4.7,7.20000000000001,-2.375));
#2409=CARTESIAN_POINT('',(-4.3,7.20000000000001,-2.375));
#2410=CARTESIAN_POINT('',(-4.3,7.20000000000001,-2.375));
#2411=CARTESIAN_POINT('',(-4.7,3.4,-0.374999999999995));
#2412=CARTESIAN_POINT('',(-4.7,0.,0.));
#2413=CARTESIAN_POINT('',(-4.3,3.4,-0.374999999999995));
#2414=CARTESIAN_POINT('',(-4.3,0.,0.));
#2415=CARTESIAN_POINT('',(-4.3,3.4,-0.374999999999995));
#2416=CARTESIAN_POINT('',(-4.7,3.,1.925));
#2417=CARTESIAN_POINT('',(-4.7,3.,1.925));
#2418=CARTESIAN_POINT('',(-4.3,3.,1.925));
#2419=CARTESIAN_POINT('',(-4.3,3.,1.925));
#2420=CARTESIAN_POINT('',(-4.3,3.,1.925));
#2421=CARTESIAN_POINT('',(-4.3,3.,1.925));
#2422=CARTESIAN_POINT('',(-4.3,6.7,2.325));
#2423=CARTESIAN_POINT('',(-4.3,3.,2.325));
#2424=CARTESIAN_POINT('',(-4.7,6.7,2.325));
#2425=CARTESIAN_POINT('',(-4.7,3.,2.325));
#2426=CARTESIAN_POINT('',(-4.3,3.,2.325));
#2427=CARTESIAN_POINT('',(-4.3,6.7,2.325));
#2428=CARTESIAN_POINT('',(-4.3,3.,2.325));
#2429=CARTESIAN_POINT('',(-4.3,0.,0.));
#2430=CARTESIAN_POINT('',(-4.7,3.,2.325));
#2431=CARTESIAN_POINT('',(-4.7,0.,0.));
#2432=CARTESIAN_POINT('',(-4.3,3.,2.325));
#2433=CARTESIAN_POINT('',(0.899999999999993,40.02,1.675));
#2434=CARTESIAN_POINT('',(-5.6,0.,1.475));
#2435=CARTESIAN_POINT('',(-2.75,5.7,3.32500000000001));
#2436=CARTESIAN_POINT('',(-2.75,4.3,3.325));
#2437=CARTESIAN_POINT('',(-1.75,5.7,3.32500000000001));
#2438=CARTESIAN_POINT('',(-1.75,4.3,3.325));
#2439=CARTESIAN_POINT('',(-1.75,4.3,3.325));
#2440=CARTESIAN_POINT('',(-1.75,5.7,3.32500000000001));
#2441=CARTESIAN_POINT('',(-2.75,4.3,3.325));
#2442=CARTESIAN_POINT('',(-2.75,4.1,3.14000000000001));
#2443=CARTESIAN_POINT('',(-1.75,4.3,3.325));
#2444=CARTESIAN_POINT('',(-1.75,4.1,3.14000000000001));
#2445=CARTESIAN_POINT('',(-1.75,4.1,3.14000000000001));
#2446=CARTESIAN_POINT('',(-1.75,4.3,3.325));
#2447=CARTESIAN_POINT('',(-2.75,4.1,3.14000000000001));
#2448=CARTESIAN_POINT('',(-1.75,4.1,3.14000000000001));
#2449=CARTESIAN_POINT('',(-1.75,4.1,3.14000000000001));
#2450=CARTESIAN_POINT('',(-1.75,0.,0.));
#2451=CARTESIAN_POINT('',(-2.75,0.,0.));
#2452=MECHANICAL_DESIGN_GEOMETRIC_PRESENTATION_REPRESENTATION('',(#24),
#2453);
#2453=(
GEOMETRIC_REPRESENTATION_CONTEXT(3)
GLOBAL_UNCERTAINTY_ASSIGNED_CONTEXT((#2454))
GLOBAL_UNIT_ASSIGNED_CONTEXT((#2460,#2456,#2455))
REPRESENTATION_CONTEXT('874370443wbm000_01_214',
'TOP_LEVEL_ASSEMBLY_PART')
);
#2454=UNCERTAINTY_MEASURE_WITH_UNIT(LENGTH_MEASURE(2.E-5),#2460,
'DISTANCE_ACCURACY_VALUE','Maximum Tolerance applied to model');
#2455=(
NAMED_UNIT(*)
SI_UNIT($,.STERADIAN.)
SOLID_ANGLE_UNIT()
);
#2456=(
CONVERSION_BASED_UNIT('DEGREE',#2458)
NAMED_UNIT(#2457)
PLANE_ANGLE_UNIT()
);
#2457=DIMENSIONAL_EXPONENTS(0.,0.,0.,0.,0.,0.,0.);
#2458=PLANE_ANGLE_MEASURE_WITH_UNIT(PLANE_ANGLE_MEASURE(0.0174532925),#2459);
#2459=(
NAMED_UNIT(*)
PLANE_ANGLE_UNIT()
SI_UNIT($,.RADIAN.)
);
#2460=(
LENGTH_UNIT()
NAMED_UNIT(*)
SI_UNIT(.MILLI.,.METRE.)
);
ENDSEC;
END-ISO-10303-21;
