%TF.GenerationSoftware,KiCad,Pcbnew,9.0.6*%
%TF.CreationDate,2026-05-16T16:18:30-04:00*%
%TF.ProjectId,EMG_PCB,454d475f-5043-4422-9e6b-696361645f70,rev?*%
%TF.SameCoordinates,Original*%
%TF.FileFunction,Legend,Bot*%
%TF.FilePolarity,Positive*%
%FSLAX46Y46*%
G04 Gerber Fmt 4.6, Leading zero omitted, Abs format (unit mm)*
G04 Created by KiCad (PCBNEW 9.0.6) date 2026-05-16 16:18:30*
%MOMM*%
%LPD*%
G01*
G04 APERTURE LIST*
%ADD10C,0.150000*%
%ADD11C,0.120000*%
%ADD12C,0.100000*%
G04 APERTURE END LIST*
D10*
X192593220Y-105438866D02*
X191831316Y-105438866D01*
X192212268Y-105819819D02*
X192212268Y-105057914D01*
X191450363Y-104819819D02*
X190831316Y-104819819D01*
X190831316Y-104819819D02*
X191164649Y-105200771D01*
X191164649Y-105200771D02*
X191021792Y-105200771D01*
X191021792Y-105200771D02*
X190926554Y-105248390D01*
X190926554Y-105248390D02*
X190878935Y-105296009D01*
X190878935Y-105296009D02*
X190831316Y-105391247D01*
X190831316Y-105391247D02*
X190831316Y-105629342D01*
X190831316Y-105629342D02*
X190878935Y-105724580D01*
X190878935Y-105724580D02*
X190926554Y-105772200D01*
X190926554Y-105772200D02*
X191021792Y-105819819D01*
X191021792Y-105819819D02*
X191307506Y-105819819D01*
X191307506Y-105819819D02*
X191402744Y-105772200D01*
X191402744Y-105772200D02*
X191450363Y-105724580D01*
X190402744Y-105724580D02*
X190355125Y-105772200D01*
X190355125Y-105772200D02*
X190402744Y-105819819D01*
X190402744Y-105819819D02*
X190450363Y-105772200D01*
X190450363Y-105772200D02*
X190402744Y-105724580D01*
X190402744Y-105724580D02*
X190402744Y-105819819D01*
X190021792Y-104819819D02*
X189402745Y-104819819D01*
X189402745Y-104819819D02*
X189736078Y-105200771D01*
X189736078Y-105200771D02*
X189593221Y-105200771D01*
X189593221Y-105200771D02*
X189497983Y-105248390D01*
X189497983Y-105248390D02*
X189450364Y-105296009D01*
X189450364Y-105296009D02*
X189402745Y-105391247D01*
X189402745Y-105391247D02*
X189402745Y-105629342D01*
X189402745Y-105629342D02*
X189450364Y-105724580D01*
X189450364Y-105724580D02*
X189497983Y-105772200D01*
X189497983Y-105772200D02*
X189593221Y-105819819D01*
X189593221Y-105819819D02*
X189878935Y-105819819D01*
X189878935Y-105819819D02*
X189974173Y-105772200D01*
X189974173Y-105772200D02*
X190021792Y-105724580D01*
X189117030Y-104819819D02*
X188783697Y-105819819D01*
X188783697Y-105819819D02*
X188450364Y-104819819D01*
X215238220Y-93663866D02*
X214476316Y-93663866D01*
X214095363Y-93044819D02*
X213476316Y-93044819D01*
X213476316Y-93044819D02*
X213809649Y-93425771D01*
X213809649Y-93425771D02*
X213666792Y-93425771D01*
X213666792Y-93425771D02*
X213571554Y-93473390D01*
X213571554Y-93473390D02*
X213523935Y-93521009D01*
X213523935Y-93521009D02*
X213476316Y-93616247D01*
X213476316Y-93616247D02*
X213476316Y-93854342D01*
X213476316Y-93854342D02*
X213523935Y-93949580D01*
X213523935Y-93949580D02*
X213571554Y-93997200D01*
X213571554Y-93997200D02*
X213666792Y-94044819D01*
X213666792Y-94044819D02*
X213952506Y-94044819D01*
X213952506Y-94044819D02*
X214047744Y-93997200D01*
X214047744Y-93997200D02*
X214095363Y-93949580D01*
X213047744Y-93949580D02*
X213000125Y-93997200D01*
X213000125Y-93997200D02*
X213047744Y-94044819D01*
X213047744Y-94044819D02*
X213095363Y-93997200D01*
X213095363Y-93997200D02*
X213047744Y-93949580D01*
X213047744Y-93949580D02*
X213047744Y-94044819D01*
X212666792Y-93044819D02*
X212047745Y-93044819D01*
X212047745Y-93044819D02*
X212381078Y-93425771D01*
X212381078Y-93425771D02*
X212238221Y-93425771D01*
X212238221Y-93425771D02*
X212142983Y-93473390D01*
X212142983Y-93473390D02*
X212095364Y-93521009D01*
X212095364Y-93521009D02*
X212047745Y-93616247D01*
X212047745Y-93616247D02*
X212047745Y-93854342D01*
X212047745Y-93854342D02*
X212095364Y-93949580D01*
X212095364Y-93949580D02*
X212142983Y-93997200D01*
X212142983Y-93997200D02*
X212238221Y-94044819D01*
X212238221Y-94044819D02*
X212523935Y-94044819D01*
X212523935Y-94044819D02*
X212619173Y-93997200D01*
X212619173Y-93997200D02*
X212666792Y-93949580D01*
X211714411Y-93378152D02*
X211476316Y-94044819D01*
X211476316Y-94044819D02*
X211238221Y-93378152D01*
X193238220Y-100538866D02*
X192476316Y-100538866D01*
X192857268Y-100919819D02*
X192857268Y-100157914D01*
X192047744Y-100015057D02*
X192000125Y-99967438D01*
X192000125Y-99967438D02*
X191904887Y-99919819D01*
X191904887Y-99919819D02*
X191666792Y-99919819D01*
X191666792Y-99919819D02*
X191571554Y-99967438D01*
X191571554Y-99967438D02*
X191523935Y-100015057D01*
X191523935Y-100015057D02*
X191476316Y-100110295D01*
X191476316Y-100110295D02*
X191476316Y-100205533D01*
X191476316Y-100205533D02*
X191523935Y-100348390D01*
X191523935Y-100348390D02*
X192095363Y-100919819D01*
X192095363Y-100919819D02*
X191476316Y-100919819D01*
X191047744Y-100824580D02*
X191000125Y-100872200D01*
X191000125Y-100872200D02*
X191047744Y-100919819D01*
X191047744Y-100919819D02*
X191095363Y-100872200D01*
X191095363Y-100872200D02*
X191047744Y-100824580D01*
X191047744Y-100824580D02*
X191047744Y-100919819D01*
X190095364Y-99919819D02*
X190571554Y-99919819D01*
X190571554Y-99919819D02*
X190619173Y-100396009D01*
X190619173Y-100396009D02*
X190571554Y-100348390D01*
X190571554Y-100348390D02*
X190476316Y-100300771D01*
X190476316Y-100300771D02*
X190238221Y-100300771D01*
X190238221Y-100300771D02*
X190142983Y-100348390D01*
X190142983Y-100348390D02*
X190095364Y-100396009D01*
X190095364Y-100396009D02*
X190047745Y-100491247D01*
X190047745Y-100491247D02*
X190047745Y-100729342D01*
X190047745Y-100729342D02*
X190095364Y-100824580D01*
X190095364Y-100824580D02*
X190142983Y-100872200D01*
X190142983Y-100872200D02*
X190238221Y-100919819D01*
X190238221Y-100919819D02*
X190476316Y-100919819D01*
X190476316Y-100919819D02*
X190571554Y-100872200D01*
X190571554Y-100872200D02*
X190619173Y-100824580D01*
X189762030Y-99919819D02*
X189428697Y-100919819D01*
X189428697Y-100919819D02*
X189095364Y-99919819D01*
X193588220Y-120413866D02*
X192826316Y-120413866D01*
X192397744Y-119890057D02*
X192350125Y-119842438D01*
X192350125Y-119842438D02*
X192254887Y-119794819D01*
X192254887Y-119794819D02*
X192016792Y-119794819D01*
X192016792Y-119794819D02*
X191921554Y-119842438D01*
X191921554Y-119842438D02*
X191873935Y-119890057D01*
X191873935Y-119890057D02*
X191826316Y-119985295D01*
X191826316Y-119985295D02*
X191826316Y-120080533D01*
X191826316Y-120080533D02*
X191873935Y-120223390D01*
X191873935Y-120223390D02*
X192445363Y-120794819D01*
X192445363Y-120794819D02*
X191826316Y-120794819D01*
X191397744Y-120699580D02*
X191350125Y-120747200D01*
X191350125Y-120747200D02*
X191397744Y-120794819D01*
X191397744Y-120794819D02*
X191445363Y-120747200D01*
X191445363Y-120747200D02*
X191397744Y-120699580D01*
X191397744Y-120699580D02*
X191397744Y-120794819D01*
X190445364Y-119794819D02*
X190921554Y-119794819D01*
X190921554Y-119794819D02*
X190969173Y-120271009D01*
X190969173Y-120271009D02*
X190921554Y-120223390D01*
X190921554Y-120223390D02*
X190826316Y-120175771D01*
X190826316Y-120175771D02*
X190588221Y-120175771D01*
X190588221Y-120175771D02*
X190492983Y-120223390D01*
X190492983Y-120223390D02*
X190445364Y-120271009D01*
X190445364Y-120271009D02*
X190397745Y-120366247D01*
X190397745Y-120366247D02*
X190397745Y-120604342D01*
X190397745Y-120604342D02*
X190445364Y-120699580D01*
X190445364Y-120699580D02*
X190492983Y-120747200D01*
X190492983Y-120747200D02*
X190588221Y-120794819D01*
X190588221Y-120794819D02*
X190826316Y-120794819D01*
X190826316Y-120794819D02*
X190921554Y-120747200D01*
X190921554Y-120747200D02*
X190969173Y-120699580D01*
X190112030Y-119794819D02*
X189778697Y-120794819D01*
X189778697Y-120794819D02*
X189445364Y-119794819D01*
X173949580Y-109737142D02*
X173997200Y-109689523D01*
X173997200Y-109689523D02*
X174044819Y-109546666D01*
X174044819Y-109546666D02*
X174044819Y-109451428D01*
X174044819Y-109451428D02*
X173997200Y-109308571D01*
X173997200Y-109308571D02*
X173901961Y-109213333D01*
X173901961Y-109213333D02*
X173806723Y-109165714D01*
X173806723Y-109165714D02*
X173616247Y-109118095D01*
X173616247Y-109118095D02*
X173473390Y-109118095D01*
X173473390Y-109118095D02*
X173282914Y-109165714D01*
X173282914Y-109165714D02*
X173187676Y-109213333D01*
X173187676Y-109213333D02*
X173092438Y-109308571D01*
X173092438Y-109308571D02*
X173044819Y-109451428D01*
X173044819Y-109451428D02*
X173044819Y-109546666D01*
X173044819Y-109546666D02*
X173092438Y-109689523D01*
X173092438Y-109689523D02*
X173140057Y-109737142D01*
X173044819Y-110070476D02*
X173044819Y-110689523D01*
X173044819Y-110689523D02*
X173425771Y-110356190D01*
X173425771Y-110356190D02*
X173425771Y-110499047D01*
X173425771Y-110499047D02*
X173473390Y-110594285D01*
X173473390Y-110594285D02*
X173521009Y-110641904D01*
X173521009Y-110641904D02*
X173616247Y-110689523D01*
X173616247Y-110689523D02*
X173854342Y-110689523D01*
X173854342Y-110689523D02*
X173949580Y-110641904D01*
X173949580Y-110641904D02*
X173997200Y-110594285D01*
X173997200Y-110594285D02*
X174044819Y-110499047D01*
X174044819Y-110499047D02*
X174044819Y-110213333D01*
X174044819Y-110213333D02*
X173997200Y-110118095D01*
X173997200Y-110118095D02*
X173949580Y-110070476D01*
X174044819Y-111165714D02*
X174044819Y-111356190D01*
X174044819Y-111356190D02*
X173997200Y-111451428D01*
X173997200Y-111451428D02*
X173949580Y-111499047D01*
X173949580Y-111499047D02*
X173806723Y-111594285D01*
X173806723Y-111594285D02*
X173616247Y-111641904D01*
X173616247Y-111641904D02*
X173235295Y-111641904D01*
X173235295Y-111641904D02*
X173140057Y-111594285D01*
X173140057Y-111594285D02*
X173092438Y-111546666D01*
X173092438Y-111546666D02*
X173044819Y-111451428D01*
X173044819Y-111451428D02*
X173044819Y-111260952D01*
X173044819Y-111260952D02*
X173092438Y-111165714D01*
X173092438Y-111165714D02*
X173140057Y-111118095D01*
X173140057Y-111118095D02*
X173235295Y-111070476D01*
X173235295Y-111070476D02*
X173473390Y-111070476D01*
X173473390Y-111070476D02*
X173568628Y-111118095D01*
X173568628Y-111118095D02*
X173616247Y-111165714D01*
X173616247Y-111165714D02*
X173663866Y-111260952D01*
X173663866Y-111260952D02*
X173663866Y-111451428D01*
X173663866Y-111451428D02*
X173616247Y-111546666D01*
X173616247Y-111546666D02*
X173568628Y-111594285D01*
X173568628Y-111594285D02*
X173473390Y-111641904D01*
X216174819Y-88727142D02*
X215698628Y-88393809D01*
X216174819Y-88155714D02*
X215174819Y-88155714D01*
X215174819Y-88155714D02*
X215174819Y-88536666D01*
X215174819Y-88536666D02*
X215222438Y-88631904D01*
X215222438Y-88631904D02*
X215270057Y-88679523D01*
X215270057Y-88679523D02*
X215365295Y-88727142D01*
X215365295Y-88727142D02*
X215508152Y-88727142D01*
X215508152Y-88727142D02*
X215603390Y-88679523D01*
X215603390Y-88679523D02*
X215651009Y-88631904D01*
X215651009Y-88631904D02*
X215698628Y-88536666D01*
X215698628Y-88536666D02*
X215698628Y-88155714D01*
X216174819Y-89679523D02*
X216174819Y-89108095D01*
X216174819Y-89393809D02*
X215174819Y-89393809D01*
X215174819Y-89393809D02*
X215317676Y-89298571D01*
X215317676Y-89298571D02*
X215412914Y-89203333D01*
X215412914Y-89203333D02*
X215460533Y-89108095D01*
X215174819Y-90012857D02*
X215174819Y-90631904D01*
X215174819Y-90631904D02*
X215555771Y-90298571D01*
X215555771Y-90298571D02*
X215555771Y-90441428D01*
X215555771Y-90441428D02*
X215603390Y-90536666D01*
X215603390Y-90536666D02*
X215651009Y-90584285D01*
X215651009Y-90584285D02*
X215746247Y-90631904D01*
X215746247Y-90631904D02*
X215984342Y-90631904D01*
X215984342Y-90631904D02*
X216079580Y-90584285D01*
X216079580Y-90584285D02*
X216127200Y-90536666D01*
X216127200Y-90536666D02*
X216174819Y-90441428D01*
X216174819Y-90441428D02*
X216174819Y-90155714D01*
X216174819Y-90155714D02*
X216127200Y-90060476D01*
X216127200Y-90060476D02*
X216079580Y-90012857D01*
X190059580Y-116477142D02*
X190107200Y-116429523D01*
X190107200Y-116429523D02*
X190154819Y-116286666D01*
X190154819Y-116286666D02*
X190154819Y-116191428D01*
X190154819Y-116191428D02*
X190107200Y-116048571D01*
X190107200Y-116048571D02*
X190011961Y-115953333D01*
X190011961Y-115953333D02*
X189916723Y-115905714D01*
X189916723Y-115905714D02*
X189726247Y-115858095D01*
X189726247Y-115858095D02*
X189583390Y-115858095D01*
X189583390Y-115858095D02*
X189392914Y-115905714D01*
X189392914Y-115905714D02*
X189297676Y-115953333D01*
X189297676Y-115953333D02*
X189202438Y-116048571D01*
X189202438Y-116048571D02*
X189154819Y-116191428D01*
X189154819Y-116191428D02*
X189154819Y-116286666D01*
X189154819Y-116286666D02*
X189202438Y-116429523D01*
X189202438Y-116429523D02*
X189250057Y-116477142D01*
X190154819Y-117429523D02*
X190154819Y-116858095D01*
X190154819Y-117143809D02*
X189154819Y-117143809D01*
X189154819Y-117143809D02*
X189297676Y-117048571D01*
X189297676Y-117048571D02*
X189392914Y-116953333D01*
X189392914Y-116953333D02*
X189440533Y-116858095D01*
X189154819Y-118334285D02*
X189154819Y-117858095D01*
X189154819Y-117858095D02*
X189631009Y-117810476D01*
X189631009Y-117810476D02*
X189583390Y-117858095D01*
X189583390Y-117858095D02*
X189535771Y-117953333D01*
X189535771Y-117953333D02*
X189535771Y-118191428D01*
X189535771Y-118191428D02*
X189583390Y-118286666D01*
X189583390Y-118286666D02*
X189631009Y-118334285D01*
X189631009Y-118334285D02*
X189726247Y-118381904D01*
X189726247Y-118381904D02*
X189964342Y-118381904D01*
X189964342Y-118381904D02*
X190059580Y-118334285D01*
X190059580Y-118334285D02*
X190107200Y-118286666D01*
X190107200Y-118286666D02*
X190154819Y-118191428D01*
X190154819Y-118191428D02*
X190154819Y-117953333D01*
X190154819Y-117953333D02*
X190107200Y-117858095D01*
X190107200Y-117858095D02*
X190059580Y-117810476D01*
X215947080Y-109997142D02*
X215994700Y-109949523D01*
X215994700Y-109949523D02*
X216042319Y-109806666D01*
X216042319Y-109806666D02*
X216042319Y-109711428D01*
X216042319Y-109711428D02*
X215994700Y-109568571D01*
X215994700Y-109568571D02*
X215899461Y-109473333D01*
X215899461Y-109473333D02*
X215804223Y-109425714D01*
X215804223Y-109425714D02*
X215613747Y-109378095D01*
X215613747Y-109378095D02*
X215470890Y-109378095D01*
X215470890Y-109378095D02*
X215280414Y-109425714D01*
X215280414Y-109425714D02*
X215185176Y-109473333D01*
X215185176Y-109473333D02*
X215089938Y-109568571D01*
X215089938Y-109568571D02*
X215042319Y-109711428D01*
X215042319Y-109711428D02*
X215042319Y-109806666D01*
X215042319Y-109806666D02*
X215089938Y-109949523D01*
X215089938Y-109949523D02*
X215137557Y-109997142D01*
X215042319Y-110330476D02*
X215042319Y-110949523D01*
X215042319Y-110949523D02*
X215423271Y-110616190D01*
X215423271Y-110616190D02*
X215423271Y-110759047D01*
X215423271Y-110759047D02*
X215470890Y-110854285D01*
X215470890Y-110854285D02*
X215518509Y-110901904D01*
X215518509Y-110901904D02*
X215613747Y-110949523D01*
X215613747Y-110949523D02*
X215851842Y-110949523D01*
X215851842Y-110949523D02*
X215947080Y-110901904D01*
X215947080Y-110901904D02*
X215994700Y-110854285D01*
X215994700Y-110854285D02*
X216042319Y-110759047D01*
X216042319Y-110759047D02*
X216042319Y-110473333D01*
X216042319Y-110473333D02*
X215994700Y-110378095D01*
X215994700Y-110378095D02*
X215947080Y-110330476D01*
X215042319Y-111282857D02*
X215042319Y-111901904D01*
X215042319Y-111901904D02*
X215423271Y-111568571D01*
X215423271Y-111568571D02*
X215423271Y-111711428D01*
X215423271Y-111711428D02*
X215470890Y-111806666D01*
X215470890Y-111806666D02*
X215518509Y-111854285D01*
X215518509Y-111854285D02*
X215613747Y-111901904D01*
X215613747Y-111901904D02*
X215851842Y-111901904D01*
X215851842Y-111901904D02*
X215947080Y-111854285D01*
X215947080Y-111854285D02*
X215994700Y-111806666D01*
X215994700Y-111806666D02*
X216042319Y-111711428D01*
X216042319Y-111711428D02*
X216042319Y-111425714D01*
X216042319Y-111425714D02*
X215994700Y-111330476D01*
X215994700Y-111330476D02*
X215947080Y-111282857D01*
X209491666Y-110729819D02*
X209967856Y-110729819D01*
X209967856Y-110729819D02*
X209967856Y-109729819D01*
X208729761Y-110063152D02*
X208729761Y-110729819D01*
X208967856Y-109682200D02*
X209205951Y-110396485D01*
X209205951Y-110396485D02*
X208586904Y-110396485D01*
X199234580Y-101383333D02*
X199282200Y-101335714D01*
X199282200Y-101335714D02*
X199329819Y-101192857D01*
X199329819Y-101192857D02*
X199329819Y-101097619D01*
X199329819Y-101097619D02*
X199282200Y-100954762D01*
X199282200Y-100954762D02*
X199186961Y-100859524D01*
X199186961Y-100859524D02*
X199091723Y-100811905D01*
X199091723Y-100811905D02*
X198901247Y-100764286D01*
X198901247Y-100764286D02*
X198758390Y-100764286D01*
X198758390Y-100764286D02*
X198567914Y-100811905D01*
X198567914Y-100811905D02*
X198472676Y-100859524D01*
X198472676Y-100859524D02*
X198377438Y-100954762D01*
X198377438Y-100954762D02*
X198329819Y-101097619D01*
X198329819Y-101097619D02*
X198329819Y-101192857D01*
X198329819Y-101192857D02*
X198377438Y-101335714D01*
X198377438Y-101335714D02*
X198425057Y-101383333D01*
X198425057Y-101764286D02*
X198377438Y-101811905D01*
X198377438Y-101811905D02*
X198329819Y-101907143D01*
X198329819Y-101907143D02*
X198329819Y-102145238D01*
X198329819Y-102145238D02*
X198377438Y-102240476D01*
X198377438Y-102240476D02*
X198425057Y-102288095D01*
X198425057Y-102288095D02*
X198520295Y-102335714D01*
X198520295Y-102335714D02*
X198615533Y-102335714D01*
X198615533Y-102335714D02*
X198758390Y-102288095D01*
X198758390Y-102288095D02*
X199329819Y-101716667D01*
X199329819Y-101716667D02*
X199329819Y-102335714D01*
X204882857Y-111462080D02*
X204930476Y-111509700D01*
X204930476Y-111509700D02*
X205073333Y-111557319D01*
X205073333Y-111557319D02*
X205168571Y-111557319D01*
X205168571Y-111557319D02*
X205311428Y-111509700D01*
X205311428Y-111509700D02*
X205406666Y-111414461D01*
X205406666Y-111414461D02*
X205454285Y-111319223D01*
X205454285Y-111319223D02*
X205501904Y-111128747D01*
X205501904Y-111128747D02*
X205501904Y-110985890D01*
X205501904Y-110985890D02*
X205454285Y-110795414D01*
X205454285Y-110795414D02*
X205406666Y-110700176D01*
X205406666Y-110700176D02*
X205311428Y-110604938D01*
X205311428Y-110604938D02*
X205168571Y-110557319D01*
X205168571Y-110557319D02*
X205073333Y-110557319D01*
X205073333Y-110557319D02*
X204930476Y-110604938D01*
X204930476Y-110604938D02*
X204882857Y-110652557D01*
X204501904Y-110652557D02*
X204454285Y-110604938D01*
X204454285Y-110604938D02*
X204359047Y-110557319D01*
X204359047Y-110557319D02*
X204120952Y-110557319D01*
X204120952Y-110557319D02*
X204025714Y-110604938D01*
X204025714Y-110604938D02*
X203978095Y-110652557D01*
X203978095Y-110652557D02*
X203930476Y-110747795D01*
X203930476Y-110747795D02*
X203930476Y-110843033D01*
X203930476Y-110843033D02*
X203978095Y-110985890D01*
X203978095Y-110985890D02*
X204549523Y-111557319D01*
X204549523Y-111557319D02*
X203930476Y-111557319D01*
X203073333Y-110890652D02*
X203073333Y-111557319D01*
X203311428Y-110509700D02*
X203549523Y-111223985D01*
X203549523Y-111223985D02*
X202930476Y-111223985D01*
X181289580Y-104657142D02*
X181337200Y-104609523D01*
X181337200Y-104609523D02*
X181384819Y-104466666D01*
X181384819Y-104466666D02*
X181384819Y-104371428D01*
X181384819Y-104371428D02*
X181337200Y-104228571D01*
X181337200Y-104228571D02*
X181241961Y-104133333D01*
X181241961Y-104133333D02*
X181146723Y-104085714D01*
X181146723Y-104085714D02*
X180956247Y-104038095D01*
X180956247Y-104038095D02*
X180813390Y-104038095D01*
X180813390Y-104038095D02*
X180622914Y-104085714D01*
X180622914Y-104085714D02*
X180527676Y-104133333D01*
X180527676Y-104133333D02*
X180432438Y-104228571D01*
X180432438Y-104228571D02*
X180384819Y-104371428D01*
X180384819Y-104371428D02*
X180384819Y-104466666D01*
X180384819Y-104466666D02*
X180432438Y-104609523D01*
X180432438Y-104609523D02*
X180480057Y-104657142D01*
X180384819Y-104990476D02*
X180384819Y-105609523D01*
X180384819Y-105609523D02*
X180765771Y-105276190D01*
X180765771Y-105276190D02*
X180765771Y-105419047D01*
X180765771Y-105419047D02*
X180813390Y-105514285D01*
X180813390Y-105514285D02*
X180861009Y-105561904D01*
X180861009Y-105561904D02*
X180956247Y-105609523D01*
X180956247Y-105609523D02*
X181194342Y-105609523D01*
X181194342Y-105609523D02*
X181289580Y-105561904D01*
X181289580Y-105561904D02*
X181337200Y-105514285D01*
X181337200Y-105514285D02*
X181384819Y-105419047D01*
X181384819Y-105419047D02*
X181384819Y-105133333D01*
X181384819Y-105133333D02*
X181337200Y-105038095D01*
X181337200Y-105038095D02*
X181289580Y-104990476D01*
X180813390Y-106180952D02*
X180765771Y-106085714D01*
X180765771Y-106085714D02*
X180718152Y-106038095D01*
X180718152Y-106038095D02*
X180622914Y-105990476D01*
X180622914Y-105990476D02*
X180575295Y-105990476D01*
X180575295Y-105990476D02*
X180480057Y-106038095D01*
X180480057Y-106038095D02*
X180432438Y-106085714D01*
X180432438Y-106085714D02*
X180384819Y-106180952D01*
X180384819Y-106180952D02*
X180384819Y-106371428D01*
X180384819Y-106371428D02*
X180432438Y-106466666D01*
X180432438Y-106466666D02*
X180480057Y-106514285D01*
X180480057Y-106514285D02*
X180575295Y-106561904D01*
X180575295Y-106561904D02*
X180622914Y-106561904D01*
X180622914Y-106561904D02*
X180718152Y-106514285D01*
X180718152Y-106514285D02*
X180765771Y-106466666D01*
X180765771Y-106466666D02*
X180813390Y-106371428D01*
X180813390Y-106371428D02*
X180813390Y-106180952D01*
X180813390Y-106180952D02*
X180861009Y-106085714D01*
X180861009Y-106085714D02*
X180908628Y-106038095D01*
X180908628Y-106038095D02*
X181003866Y-105990476D01*
X181003866Y-105990476D02*
X181194342Y-105990476D01*
X181194342Y-105990476D02*
X181289580Y-106038095D01*
X181289580Y-106038095D02*
X181337200Y-106085714D01*
X181337200Y-106085714D02*
X181384819Y-106180952D01*
X181384819Y-106180952D02*
X181384819Y-106371428D01*
X181384819Y-106371428D02*
X181337200Y-106466666D01*
X181337200Y-106466666D02*
X181289580Y-106514285D01*
X181289580Y-106514285D02*
X181194342Y-106561904D01*
X181194342Y-106561904D02*
X181003866Y-106561904D01*
X181003866Y-106561904D02*
X180908628Y-106514285D01*
X180908628Y-106514285D02*
X180861009Y-106466666D01*
X180861009Y-106466666D02*
X180813390Y-106371428D01*
X201774819Y-116393333D02*
X201774819Y-115917143D01*
X201774819Y-115917143D02*
X200774819Y-115917143D01*
X200774819Y-116631429D02*
X200774819Y-117250476D01*
X200774819Y-117250476D02*
X201155771Y-116917143D01*
X201155771Y-116917143D02*
X201155771Y-117060000D01*
X201155771Y-117060000D02*
X201203390Y-117155238D01*
X201203390Y-117155238D02*
X201251009Y-117202857D01*
X201251009Y-117202857D02*
X201346247Y-117250476D01*
X201346247Y-117250476D02*
X201584342Y-117250476D01*
X201584342Y-117250476D02*
X201679580Y-117202857D01*
X201679580Y-117202857D02*
X201727200Y-117155238D01*
X201727200Y-117155238D02*
X201774819Y-117060000D01*
X201774819Y-117060000D02*
X201774819Y-116774286D01*
X201774819Y-116774286D02*
X201727200Y-116679048D01*
X201727200Y-116679048D02*
X201679580Y-116631429D01*
X206929580Y-115747142D02*
X206977200Y-115699523D01*
X206977200Y-115699523D02*
X207024819Y-115556666D01*
X207024819Y-115556666D02*
X207024819Y-115461428D01*
X207024819Y-115461428D02*
X206977200Y-115318571D01*
X206977200Y-115318571D02*
X206881961Y-115223333D01*
X206881961Y-115223333D02*
X206786723Y-115175714D01*
X206786723Y-115175714D02*
X206596247Y-115128095D01*
X206596247Y-115128095D02*
X206453390Y-115128095D01*
X206453390Y-115128095D02*
X206262914Y-115175714D01*
X206262914Y-115175714D02*
X206167676Y-115223333D01*
X206167676Y-115223333D02*
X206072438Y-115318571D01*
X206072438Y-115318571D02*
X206024819Y-115461428D01*
X206024819Y-115461428D02*
X206024819Y-115556666D01*
X206024819Y-115556666D02*
X206072438Y-115699523D01*
X206072438Y-115699523D02*
X206120057Y-115747142D01*
X206120057Y-116128095D02*
X206072438Y-116175714D01*
X206072438Y-116175714D02*
X206024819Y-116270952D01*
X206024819Y-116270952D02*
X206024819Y-116509047D01*
X206024819Y-116509047D02*
X206072438Y-116604285D01*
X206072438Y-116604285D02*
X206120057Y-116651904D01*
X206120057Y-116651904D02*
X206215295Y-116699523D01*
X206215295Y-116699523D02*
X206310533Y-116699523D01*
X206310533Y-116699523D02*
X206453390Y-116651904D01*
X206453390Y-116651904D02*
X207024819Y-116080476D01*
X207024819Y-116080476D02*
X207024819Y-116699523D01*
X206120057Y-117080476D02*
X206072438Y-117128095D01*
X206072438Y-117128095D02*
X206024819Y-117223333D01*
X206024819Y-117223333D02*
X206024819Y-117461428D01*
X206024819Y-117461428D02*
X206072438Y-117556666D01*
X206072438Y-117556666D02*
X206120057Y-117604285D01*
X206120057Y-117604285D02*
X206215295Y-117651904D01*
X206215295Y-117651904D02*
X206310533Y-117651904D01*
X206310533Y-117651904D02*
X206453390Y-117604285D01*
X206453390Y-117604285D02*
X207024819Y-117032857D01*
X207024819Y-117032857D02*
X207024819Y-117651904D01*
X196492857Y-119269580D02*
X196540476Y-119317200D01*
X196540476Y-119317200D02*
X196683333Y-119364819D01*
X196683333Y-119364819D02*
X196778571Y-119364819D01*
X196778571Y-119364819D02*
X196921428Y-119317200D01*
X196921428Y-119317200D02*
X197016666Y-119221961D01*
X197016666Y-119221961D02*
X197064285Y-119126723D01*
X197064285Y-119126723D02*
X197111904Y-118936247D01*
X197111904Y-118936247D02*
X197111904Y-118793390D01*
X197111904Y-118793390D02*
X197064285Y-118602914D01*
X197064285Y-118602914D02*
X197016666Y-118507676D01*
X197016666Y-118507676D02*
X196921428Y-118412438D01*
X196921428Y-118412438D02*
X196778571Y-118364819D01*
X196778571Y-118364819D02*
X196683333Y-118364819D01*
X196683333Y-118364819D02*
X196540476Y-118412438D01*
X196540476Y-118412438D02*
X196492857Y-118460057D01*
X195635714Y-118698152D02*
X195635714Y-119364819D01*
X195873809Y-118317200D02*
X196111904Y-119031485D01*
X196111904Y-119031485D02*
X195492857Y-119031485D01*
X195207142Y-118364819D02*
X194540476Y-118364819D01*
X194540476Y-118364819D02*
X194969047Y-119364819D01*
X207355832Y-98928604D02*
X207393928Y-98966700D01*
X207393928Y-98966700D02*
X207508213Y-99004795D01*
X207508213Y-99004795D02*
X207584404Y-99004795D01*
X207584404Y-99004795D02*
X207698690Y-98966700D01*
X207698690Y-98966700D02*
X207774880Y-98890509D01*
X207774880Y-98890509D02*
X207812975Y-98814319D01*
X207812975Y-98814319D02*
X207851071Y-98661938D01*
X207851071Y-98661938D02*
X207851071Y-98547652D01*
X207851071Y-98547652D02*
X207812975Y-98395271D01*
X207812975Y-98395271D02*
X207774880Y-98319080D01*
X207774880Y-98319080D02*
X207698690Y-98242890D01*
X207698690Y-98242890D02*
X207584404Y-98204795D01*
X207584404Y-98204795D02*
X207508213Y-98204795D01*
X207508213Y-98204795D02*
X207393928Y-98242890D01*
X207393928Y-98242890D02*
X207355832Y-98280985D01*
X206670118Y-98471461D02*
X206670118Y-99004795D01*
X206860594Y-98166700D02*
X207051071Y-98738128D01*
X207051071Y-98738128D02*
X206555832Y-98738128D01*
X213640357Y-110659580D02*
X213687976Y-110707200D01*
X213687976Y-110707200D02*
X213830833Y-110754819D01*
X213830833Y-110754819D02*
X213926071Y-110754819D01*
X213926071Y-110754819D02*
X214068928Y-110707200D01*
X214068928Y-110707200D02*
X214164166Y-110611961D01*
X214164166Y-110611961D02*
X214211785Y-110516723D01*
X214211785Y-110516723D02*
X214259404Y-110326247D01*
X214259404Y-110326247D02*
X214259404Y-110183390D01*
X214259404Y-110183390D02*
X214211785Y-109992914D01*
X214211785Y-109992914D02*
X214164166Y-109897676D01*
X214164166Y-109897676D02*
X214068928Y-109802438D01*
X214068928Y-109802438D02*
X213926071Y-109754819D01*
X213926071Y-109754819D02*
X213830833Y-109754819D01*
X213830833Y-109754819D02*
X213687976Y-109802438D01*
X213687976Y-109802438D02*
X213640357Y-109850057D01*
X213259404Y-109850057D02*
X213211785Y-109802438D01*
X213211785Y-109802438D02*
X213116547Y-109754819D01*
X213116547Y-109754819D02*
X212878452Y-109754819D01*
X212878452Y-109754819D02*
X212783214Y-109802438D01*
X212783214Y-109802438D02*
X212735595Y-109850057D01*
X212735595Y-109850057D02*
X212687976Y-109945295D01*
X212687976Y-109945295D02*
X212687976Y-110040533D01*
X212687976Y-110040533D02*
X212735595Y-110183390D01*
X212735595Y-110183390D02*
X213307023Y-110754819D01*
X213307023Y-110754819D02*
X212687976Y-110754819D01*
X212116547Y-110183390D02*
X212211785Y-110135771D01*
X212211785Y-110135771D02*
X212259404Y-110088152D01*
X212259404Y-110088152D02*
X212307023Y-109992914D01*
X212307023Y-109992914D02*
X212307023Y-109945295D01*
X212307023Y-109945295D02*
X212259404Y-109850057D01*
X212259404Y-109850057D02*
X212211785Y-109802438D01*
X212211785Y-109802438D02*
X212116547Y-109754819D01*
X212116547Y-109754819D02*
X211926071Y-109754819D01*
X211926071Y-109754819D02*
X211830833Y-109802438D01*
X211830833Y-109802438D02*
X211783214Y-109850057D01*
X211783214Y-109850057D02*
X211735595Y-109945295D01*
X211735595Y-109945295D02*
X211735595Y-109992914D01*
X211735595Y-109992914D02*
X211783214Y-110088152D01*
X211783214Y-110088152D02*
X211830833Y-110135771D01*
X211830833Y-110135771D02*
X211926071Y-110183390D01*
X211926071Y-110183390D02*
X212116547Y-110183390D01*
X212116547Y-110183390D02*
X212211785Y-110231009D01*
X212211785Y-110231009D02*
X212259404Y-110278628D01*
X212259404Y-110278628D02*
X212307023Y-110373866D01*
X212307023Y-110373866D02*
X212307023Y-110564342D01*
X212307023Y-110564342D02*
X212259404Y-110659580D01*
X212259404Y-110659580D02*
X212211785Y-110707200D01*
X212211785Y-110707200D02*
X212116547Y-110754819D01*
X212116547Y-110754819D02*
X211926071Y-110754819D01*
X211926071Y-110754819D02*
X211830833Y-110707200D01*
X211830833Y-110707200D02*
X211783214Y-110659580D01*
X211783214Y-110659580D02*
X211735595Y-110564342D01*
X211735595Y-110564342D02*
X211735595Y-110373866D01*
X211735595Y-110373866D02*
X211783214Y-110278628D01*
X211783214Y-110278628D02*
X211830833Y-110231009D01*
X211830833Y-110231009D02*
X211926071Y-110183390D01*
X192511904Y-121104819D02*
X191940476Y-121104819D01*
X192226190Y-122104819D02*
X192226190Y-121104819D01*
X191607142Y-122104819D02*
X191607142Y-121104819D01*
X191607142Y-121104819D02*
X191226190Y-121104819D01*
X191226190Y-121104819D02*
X191130952Y-121152438D01*
X191130952Y-121152438D02*
X191083333Y-121200057D01*
X191083333Y-121200057D02*
X191035714Y-121295295D01*
X191035714Y-121295295D02*
X191035714Y-121438152D01*
X191035714Y-121438152D02*
X191083333Y-121533390D01*
X191083333Y-121533390D02*
X191130952Y-121581009D01*
X191130952Y-121581009D02*
X191226190Y-121628628D01*
X191226190Y-121628628D02*
X191607142Y-121628628D01*
X190178571Y-121438152D02*
X190178571Y-122104819D01*
X190416666Y-121057200D02*
X190654761Y-121771485D01*
X190654761Y-121771485D02*
X190035714Y-121771485D01*
X192161904Y-103114819D02*
X191590476Y-103114819D01*
X191876190Y-104114819D02*
X191876190Y-103114819D01*
X191257142Y-104114819D02*
X191257142Y-103114819D01*
X191257142Y-103114819D02*
X190876190Y-103114819D01*
X190876190Y-103114819D02*
X190780952Y-103162438D01*
X190780952Y-103162438D02*
X190733333Y-103210057D01*
X190733333Y-103210057D02*
X190685714Y-103305295D01*
X190685714Y-103305295D02*
X190685714Y-103448152D01*
X190685714Y-103448152D02*
X190733333Y-103543390D01*
X190733333Y-103543390D02*
X190780952Y-103591009D01*
X190780952Y-103591009D02*
X190876190Y-103638628D01*
X190876190Y-103638628D02*
X191257142Y-103638628D01*
X190352380Y-103114819D02*
X189685714Y-103114819D01*
X189685714Y-103114819D02*
X190114285Y-104114819D01*
X178139580Y-119537142D02*
X178187200Y-119489523D01*
X178187200Y-119489523D02*
X178234819Y-119346666D01*
X178234819Y-119346666D02*
X178234819Y-119251428D01*
X178234819Y-119251428D02*
X178187200Y-119108571D01*
X178187200Y-119108571D02*
X178091961Y-119013333D01*
X178091961Y-119013333D02*
X177996723Y-118965714D01*
X177996723Y-118965714D02*
X177806247Y-118918095D01*
X177806247Y-118918095D02*
X177663390Y-118918095D01*
X177663390Y-118918095D02*
X177472914Y-118965714D01*
X177472914Y-118965714D02*
X177377676Y-119013333D01*
X177377676Y-119013333D02*
X177282438Y-119108571D01*
X177282438Y-119108571D02*
X177234819Y-119251428D01*
X177234819Y-119251428D02*
X177234819Y-119346666D01*
X177234819Y-119346666D02*
X177282438Y-119489523D01*
X177282438Y-119489523D02*
X177330057Y-119537142D01*
X177234819Y-119870476D02*
X177234819Y-120489523D01*
X177234819Y-120489523D02*
X177615771Y-120156190D01*
X177615771Y-120156190D02*
X177615771Y-120299047D01*
X177615771Y-120299047D02*
X177663390Y-120394285D01*
X177663390Y-120394285D02*
X177711009Y-120441904D01*
X177711009Y-120441904D02*
X177806247Y-120489523D01*
X177806247Y-120489523D02*
X178044342Y-120489523D01*
X178044342Y-120489523D02*
X178139580Y-120441904D01*
X178139580Y-120441904D02*
X178187200Y-120394285D01*
X178187200Y-120394285D02*
X178234819Y-120299047D01*
X178234819Y-120299047D02*
X178234819Y-120013333D01*
X178234819Y-120013333D02*
X178187200Y-119918095D01*
X178187200Y-119918095D02*
X178139580Y-119870476D01*
X177234819Y-120822857D02*
X177234819Y-121489523D01*
X177234819Y-121489523D02*
X178234819Y-121060952D01*
X176719580Y-115387142D02*
X176767200Y-115339523D01*
X176767200Y-115339523D02*
X176814819Y-115196666D01*
X176814819Y-115196666D02*
X176814819Y-115101428D01*
X176814819Y-115101428D02*
X176767200Y-114958571D01*
X176767200Y-114958571D02*
X176671961Y-114863333D01*
X176671961Y-114863333D02*
X176576723Y-114815714D01*
X176576723Y-114815714D02*
X176386247Y-114768095D01*
X176386247Y-114768095D02*
X176243390Y-114768095D01*
X176243390Y-114768095D02*
X176052914Y-114815714D01*
X176052914Y-114815714D02*
X175957676Y-114863333D01*
X175957676Y-114863333D02*
X175862438Y-114958571D01*
X175862438Y-114958571D02*
X175814819Y-115101428D01*
X175814819Y-115101428D02*
X175814819Y-115196666D01*
X175814819Y-115196666D02*
X175862438Y-115339523D01*
X175862438Y-115339523D02*
X175910057Y-115387142D01*
X176814819Y-116339523D02*
X176814819Y-115768095D01*
X176814819Y-116053809D02*
X175814819Y-116053809D01*
X175814819Y-116053809D02*
X175957676Y-115958571D01*
X175957676Y-115958571D02*
X176052914Y-115863333D01*
X176052914Y-115863333D02*
X176100533Y-115768095D01*
X175814819Y-117196666D02*
X175814819Y-117006190D01*
X175814819Y-117006190D02*
X175862438Y-116910952D01*
X175862438Y-116910952D02*
X175910057Y-116863333D01*
X175910057Y-116863333D02*
X176052914Y-116768095D01*
X176052914Y-116768095D02*
X176243390Y-116720476D01*
X176243390Y-116720476D02*
X176624342Y-116720476D01*
X176624342Y-116720476D02*
X176719580Y-116768095D01*
X176719580Y-116768095D02*
X176767200Y-116815714D01*
X176767200Y-116815714D02*
X176814819Y-116910952D01*
X176814819Y-116910952D02*
X176814819Y-117101428D01*
X176814819Y-117101428D02*
X176767200Y-117196666D01*
X176767200Y-117196666D02*
X176719580Y-117244285D01*
X176719580Y-117244285D02*
X176624342Y-117291904D01*
X176624342Y-117291904D02*
X176386247Y-117291904D01*
X176386247Y-117291904D02*
X176291009Y-117244285D01*
X176291009Y-117244285D02*
X176243390Y-117196666D01*
X176243390Y-117196666D02*
X176195771Y-117101428D01*
X176195771Y-117101428D02*
X176195771Y-116910952D01*
X176195771Y-116910952D02*
X176243390Y-116815714D01*
X176243390Y-116815714D02*
X176291009Y-116768095D01*
X176291009Y-116768095D02*
X176386247Y-116720476D01*
X210534580Y-112007142D02*
X210582200Y-111959523D01*
X210582200Y-111959523D02*
X210629819Y-111816666D01*
X210629819Y-111816666D02*
X210629819Y-111721428D01*
X210629819Y-111721428D02*
X210582200Y-111578571D01*
X210582200Y-111578571D02*
X210486961Y-111483333D01*
X210486961Y-111483333D02*
X210391723Y-111435714D01*
X210391723Y-111435714D02*
X210201247Y-111388095D01*
X210201247Y-111388095D02*
X210058390Y-111388095D01*
X210058390Y-111388095D02*
X209867914Y-111435714D01*
X209867914Y-111435714D02*
X209772676Y-111483333D01*
X209772676Y-111483333D02*
X209677438Y-111578571D01*
X209677438Y-111578571D02*
X209629819Y-111721428D01*
X209629819Y-111721428D02*
X209629819Y-111816666D01*
X209629819Y-111816666D02*
X209677438Y-111959523D01*
X209677438Y-111959523D02*
X209725057Y-112007142D01*
X209725057Y-112388095D02*
X209677438Y-112435714D01*
X209677438Y-112435714D02*
X209629819Y-112530952D01*
X209629819Y-112530952D02*
X209629819Y-112769047D01*
X209629819Y-112769047D02*
X209677438Y-112864285D01*
X209677438Y-112864285D02*
X209725057Y-112911904D01*
X209725057Y-112911904D02*
X209820295Y-112959523D01*
X209820295Y-112959523D02*
X209915533Y-112959523D01*
X209915533Y-112959523D02*
X210058390Y-112911904D01*
X210058390Y-112911904D02*
X210629819Y-112340476D01*
X210629819Y-112340476D02*
X210629819Y-112959523D01*
X209629819Y-113292857D02*
X209629819Y-113959523D01*
X209629819Y-113959523D02*
X210629819Y-113530952D01*
X198916666Y-94604819D02*
X199392856Y-94604819D01*
X199392856Y-94604819D02*
X199392856Y-93604819D01*
X198059523Y-94604819D02*
X198630951Y-94604819D01*
X198345237Y-94604819D02*
X198345237Y-93604819D01*
X198345237Y-93604819D02*
X198440475Y-93747676D01*
X198440475Y-93747676D02*
X198535713Y-93842914D01*
X198535713Y-93842914D02*
X198630951Y-93890533D01*
X175309580Y-116487142D02*
X175357200Y-116439523D01*
X175357200Y-116439523D02*
X175404819Y-116296666D01*
X175404819Y-116296666D02*
X175404819Y-116201428D01*
X175404819Y-116201428D02*
X175357200Y-116058571D01*
X175357200Y-116058571D02*
X175261961Y-115963333D01*
X175261961Y-115963333D02*
X175166723Y-115915714D01*
X175166723Y-115915714D02*
X174976247Y-115868095D01*
X174976247Y-115868095D02*
X174833390Y-115868095D01*
X174833390Y-115868095D02*
X174642914Y-115915714D01*
X174642914Y-115915714D02*
X174547676Y-115963333D01*
X174547676Y-115963333D02*
X174452438Y-116058571D01*
X174452438Y-116058571D02*
X174404819Y-116201428D01*
X174404819Y-116201428D02*
X174404819Y-116296666D01*
X174404819Y-116296666D02*
X174452438Y-116439523D01*
X174452438Y-116439523D02*
X174500057Y-116487142D01*
X175404819Y-117439523D02*
X175404819Y-116868095D01*
X175404819Y-117153809D02*
X174404819Y-117153809D01*
X174404819Y-117153809D02*
X174547676Y-117058571D01*
X174547676Y-117058571D02*
X174642914Y-116963333D01*
X174642914Y-116963333D02*
X174690533Y-116868095D01*
X174404819Y-117772857D02*
X174404819Y-118439523D01*
X174404819Y-118439523D02*
X175404819Y-118010952D01*
X212342857Y-102809580D02*
X212390476Y-102857200D01*
X212390476Y-102857200D02*
X212533333Y-102904819D01*
X212533333Y-102904819D02*
X212628571Y-102904819D01*
X212628571Y-102904819D02*
X212771428Y-102857200D01*
X212771428Y-102857200D02*
X212866666Y-102761961D01*
X212866666Y-102761961D02*
X212914285Y-102666723D01*
X212914285Y-102666723D02*
X212961904Y-102476247D01*
X212961904Y-102476247D02*
X212961904Y-102333390D01*
X212961904Y-102333390D02*
X212914285Y-102142914D01*
X212914285Y-102142914D02*
X212866666Y-102047676D01*
X212866666Y-102047676D02*
X212771428Y-101952438D01*
X212771428Y-101952438D02*
X212628571Y-101904819D01*
X212628571Y-101904819D02*
X212533333Y-101904819D01*
X212533333Y-101904819D02*
X212390476Y-101952438D01*
X212390476Y-101952438D02*
X212342857Y-102000057D01*
X212009523Y-101904819D02*
X211390476Y-101904819D01*
X211390476Y-101904819D02*
X211723809Y-102285771D01*
X211723809Y-102285771D02*
X211580952Y-102285771D01*
X211580952Y-102285771D02*
X211485714Y-102333390D01*
X211485714Y-102333390D02*
X211438095Y-102381009D01*
X211438095Y-102381009D02*
X211390476Y-102476247D01*
X211390476Y-102476247D02*
X211390476Y-102714342D01*
X211390476Y-102714342D02*
X211438095Y-102809580D01*
X211438095Y-102809580D02*
X211485714Y-102857200D01*
X211485714Y-102857200D02*
X211580952Y-102904819D01*
X211580952Y-102904819D02*
X211866666Y-102904819D01*
X211866666Y-102904819D02*
X211961904Y-102857200D01*
X211961904Y-102857200D02*
X212009523Y-102809580D01*
X210485714Y-101904819D02*
X210961904Y-101904819D01*
X210961904Y-101904819D02*
X211009523Y-102381009D01*
X211009523Y-102381009D02*
X210961904Y-102333390D01*
X210961904Y-102333390D02*
X210866666Y-102285771D01*
X210866666Y-102285771D02*
X210628571Y-102285771D01*
X210628571Y-102285771D02*
X210533333Y-102333390D01*
X210533333Y-102333390D02*
X210485714Y-102381009D01*
X210485714Y-102381009D02*
X210438095Y-102476247D01*
X210438095Y-102476247D02*
X210438095Y-102714342D01*
X210438095Y-102714342D02*
X210485714Y-102809580D01*
X210485714Y-102809580D02*
X210533333Y-102857200D01*
X210533333Y-102857200D02*
X210628571Y-102904819D01*
X210628571Y-102904819D02*
X210866666Y-102904819D01*
X210866666Y-102904819D02*
X210961904Y-102857200D01*
X210961904Y-102857200D02*
X211009523Y-102809580D01*
X214361904Y-91479819D02*
X213790476Y-91479819D01*
X214076190Y-92479819D02*
X214076190Y-91479819D01*
X213457142Y-92479819D02*
X213457142Y-91479819D01*
X213457142Y-91479819D02*
X213076190Y-91479819D01*
X213076190Y-91479819D02*
X212980952Y-91527438D01*
X212980952Y-91527438D02*
X212933333Y-91575057D01*
X212933333Y-91575057D02*
X212885714Y-91670295D01*
X212885714Y-91670295D02*
X212885714Y-91813152D01*
X212885714Y-91813152D02*
X212933333Y-91908390D01*
X212933333Y-91908390D02*
X212980952Y-91956009D01*
X212980952Y-91956009D02*
X213076190Y-92003628D01*
X213076190Y-92003628D02*
X213457142Y-92003628D01*
X212552380Y-91479819D02*
X211933333Y-91479819D01*
X211933333Y-91479819D02*
X212266666Y-91860771D01*
X212266666Y-91860771D02*
X212123809Y-91860771D01*
X212123809Y-91860771D02*
X212028571Y-91908390D01*
X212028571Y-91908390D02*
X211980952Y-91956009D01*
X211980952Y-91956009D02*
X211933333Y-92051247D01*
X211933333Y-92051247D02*
X211933333Y-92289342D01*
X211933333Y-92289342D02*
X211980952Y-92384580D01*
X211980952Y-92384580D02*
X212028571Y-92432200D01*
X212028571Y-92432200D02*
X212123809Y-92479819D01*
X212123809Y-92479819D02*
X212409523Y-92479819D01*
X212409523Y-92479819D02*
X212504761Y-92432200D01*
X212504761Y-92432200D02*
X212552380Y-92384580D01*
X197442857Y-111984580D02*
X197490476Y-112032200D01*
X197490476Y-112032200D02*
X197633333Y-112079819D01*
X197633333Y-112079819D02*
X197728571Y-112079819D01*
X197728571Y-112079819D02*
X197871428Y-112032200D01*
X197871428Y-112032200D02*
X197966666Y-111936961D01*
X197966666Y-111936961D02*
X198014285Y-111841723D01*
X198014285Y-111841723D02*
X198061904Y-111651247D01*
X198061904Y-111651247D02*
X198061904Y-111508390D01*
X198061904Y-111508390D02*
X198014285Y-111317914D01*
X198014285Y-111317914D02*
X197966666Y-111222676D01*
X197966666Y-111222676D02*
X197871428Y-111127438D01*
X197871428Y-111127438D02*
X197728571Y-111079819D01*
X197728571Y-111079819D02*
X197633333Y-111079819D01*
X197633333Y-111079819D02*
X197490476Y-111127438D01*
X197490476Y-111127438D02*
X197442857Y-111175057D01*
X197061904Y-111175057D02*
X197014285Y-111127438D01*
X197014285Y-111127438D02*
X196919047Y-111079819D01*
X196919047Y-111079819D02*
X196680952Y-111079819D01*
X196680952Y-111079819D02*
X196585714Y-111127438D01*
X196585714Y-111127438D02*
X196538095Y-111175057D01*
X196538095Y-111175057D02*
X196490476Y-111270295D01*
X196490476Y-111270295D02*
X196490476Y-111365533D01*
X196490476Y-111365533D02*
X196538095Y-111508390D01*
X196538095Y-111508390D02*
X197109523Y-112079819D01*
X197109523Y-112079819D02*
X196490476Y-112079819D01*
X196157142Y-111079819D02*
X195538095Y-111079819D01*
X195538095Y-111079819D02*
X195871428Y-111460771D01*
X195871428Y-111460771D02*
X195728571Y-111460771D01*
X195728571Y-111460771D02*
X195633333Y-111508390D01*
X195633333Y-111508390D02*
X195585714Y-111556009D01*
X195585714Y-111556009D02*
X195538095Y-111651247D01*
X195538095Y-111651247D02*
X195538095Y-111889342D01*
X195538095Y-111889342D02*
X195585714Y-111984580D01*
X195585714Y-111984580D02*
X195633333Y-112032200D01*
X195633333Y-112032200D02*
X195728571Y-112079819D01*
X195728571Y-112079819D02*
X196014285Y-112079819D01*
X196014285Y-112079819D02*
X196109523Y-112032200D01*
X196109523Y-112032200D02*
X196157142Y-111984580D01*
X178182857Y-108799580D02*
X178230476Y-108847200D01*
X178230476Y-108847200D02*
X178373333Y-108894819D01*
X178373333Y-108894819D02*
X178468571Y-108894819D01*
X178468571Y-108894819D02*
X178611428Y-108847200D01*
X178611428Y-108847200D02*
X178706666Y-108751961D01*
X178706666Y-108751961D02*
X178754285Y-108656723D01*
X178754285Y-108656723D02*
X178801904Y-108466247D01*
X178801904Y-108466247D02*
X178801904Y-108323390D01*
X178801904Y-108323390D02*
X178754285Y-108132914D01*
X178754285Y-108132914D02*
X178706666Y-108037676D01*
X178706666Y-108037676D02*
X178611428Y-107942438D01*
X178611428Y-107942438D02*
X178468571Y-107894819D01*
X178468571Y-107894819D02*
X178373333Y-107894819D01*
X178373333Y-107894819D02*
X178230476Y-107942438D01*
X178230476Y-107942438D02*
X178182857Y-107990057D01*
X177325714Y-108228152D02*
X177325714Y-108894819D01*
X177563809Y-107847200D02*
X177801904Y-108561485D01*
X177801904Y-108561485D02*
X177182857Y-108561485D01*
X176325714Y-107894819D02*
X176801904Y-107894819D01*
X176801904Y-107894819D02*
X176849523Y-108371009D01*
X176849523Y-108371009D02*
X176801904Y-108323390D01*
X176801904Y-108323390D02*
X176706666Y-108275771D01*
X176706666Y-108275771D02*
X176468571Y-108275771D01*
X176468571Y-108275771D02*
X176373333Y-108323390D01*
X176373333Y-108323390D02*
X176325714Y-108371009D01*
X176325714Y-108371009D02*
X176278095Y-108466247D01*
X176278095Y-108466247D02*
X176278095Y-108704342D01*
X176278095Y-108704342D02*
X176325714Y-108799580D01*
X176325714Y-108799580D02*
X176373333Y-108847200D01*
X176373333Y-108847200D02*
X176468571Y-108894819D01*
X176468571Y-108894819D02*
X176706666Y-108894819D01*
X176706666Y-108894819D02*
X176801904Y-108847200D01*
X176801904Y-108847200D02*
X176849523Y-108799580D01*
X173441904Y-93524819D02*
X173441904Y-92524819D01*
X173441904Y-93001009D02*
X172870476Y-93001009D01*
X172870476Y-93524819D02*
X172870476Y-92524819D01*
X171965714Y-92858152D02*
X171965714Y-93524819D01*
X172203809Y-92477200D02*
X172441904Y-93191485D01*
X172441904Y-93191485D02*
X171822857Y-93191485D01*
X212329819Y-111713095D02*
X213139342Y-111713095D01*
X213139342Y-111713095D02*
X213234580Y-111760714D01*
X213234580Y-111760714D02*
X213282200Y-111808333D01*
X213282200Y-111808333D02*
X213329819Y-111903571D01*
X213329819Y-111903571D02*
X213329819Y-112094047D01*
X213329819Y-112094047D02*
X213282200Y-112189285D01*
X213282200Y-112189285D02*
X213234580Y-112236904D01*
X213234580Y-112236904D02*
X213139342Y-112284523D01*
X213139342Y-112284523D02*
X212329819Y-112284523D01*
X212663152Y-113189285D02*
X213329819Y-113189285D01*
X212282200Y-112951190D02*
X212996485Y-112713095D01*
X212996485Y-112713095D02*
X212996485Y-113332142D01*
X208441666Y-102454819D02*
X208917856Y-102454819D01*
X208917856Y-102454819D02*
X208917856Y-101454819D01*
X208155951Y-101550057D02*
X208108332Y-101502438D01*
X208108332Y-101502438D02*
X208013094Y-101454819D01*
X208013094Y-101454819D02*
X207774999Y-101454819D01*
X207774999Y-101454819D02*
X207679761Y-101502438D01*
X207679761Y-101502438D02*
X207632142Y-101550057D01*
X207632142Y-101550057D02*
X207584523Y-101645295D01*
X207584523Y-101645295D02*
X207584523Y-101740533D01*
X207584523Y-101740533D02*
X207632142Y-101883390D01*
X207632142Y-101883390D02*
X208203570Y-102454819D01*
X208203570Y-102454819D02*
X207584523Y-102454819D01*
X205394580Y-92170833D02*
X205442200Y-92123214D01*
X205442200Y-92123214D02*
X205489819Y-91980357D01*
X205489819Y-91980357D02*
X205489819Y-91885119D01*
X205489819Y-91885119D02*
X205442200Y-91742262D01*
X205442200Y-91742262D02*
X205346961Y-91647024D01*
X205346961Y-91647024D02*
X205251723Y-91599405D01*
X205251723Y-91599405D02*
X205061247Y-91551786D01*
X205061247Y-91551786D02*
X204918390Y-91551786D01*
X204918390Y-91551786D02*
X204727914Y-91599405D01*
X204727914Y-91599405D02*
X204632676Y-91647024D01*
X204632676Y-91647024D02*
X204537438Y-91742262D01*
X204537438Y-91742262D02*
X204489819Y-91885119D01*
X204489819Y-91885119D02*
X204489819Y-91980357D01*
X204489819Y-91980357D02*
X204537438Y-92123214D01*
X204537438Y-92123214D02*
X204585057Y-92170833D01*
X204489819Y-92504167D02*
X204489819Y-93123214D01*
X204489819Y-93123214D02*
X204870771Y-92789881D01*
X204870771Y-92789881D02*
X204870771Y-92932738D01*
X204870771Y-92932738D02*
X204918390Y-93027976D01*
X204918390Y-93027976D02*
X204966009Y-93075595D01*
X204966009Y-93075595D02*
X205061247Y-93123214D01*
X205061247Y-93123214D02*
X205299342Y-93123214D01*
X205299342Y-93123214D02*
X205394580Y-93075595D01*
X205394580Y-93075595D02*
X205442200Y-93027976D01*
X205442200Y-93027976D02*
X205489819Y-92932738D01*
X205489819Y-92932738D02*
X205489819Y-92647024D01*
X205489819Y-92647024D02*
X205442200Y-92551786D01*
X205442200Y-92551786D02*
X205394580Y-92504167D01*
X173561904Y-121424819D02*
X173561904Y-120424819D01*
X173561904Y-120901009D02*
X172990476Y-120901009D01*
X172990476Y-121424819D02*
X172990476Y-120424819D01*
X172038095Y-120424819D02*
X172514285Y-120424819D01*
X172514285Y-120424819D02*
X172561904Y-120901009D01*
X172561904Y-120901009D02*
X172514285Y-120853390D01*
X172514285Y-120853390D02*
X172419047Y-120805771D01*
X172419047Y-120805771D02*
X172180952Y-120805771D01*
X172180952Y-120805771D02*
X172085714Y-120853390D01*
X172085714Y-120853390D02*
X172038095Y-120901009D01*
X172038095Y-120901009D02*
X171990476Y-120996247D01*
X171990476Y-120996247D02*
X171990476Y-121234342D01*
X171990476Y-121234342D02*
X172038095Y-121329580D01*
X172038095Y-121329580D02*
X172085714Y-121377200D01*
X172085714Y-121377200D02*
X172180952Y-121424819D01*
X172180952Y-121424819D02*
X172419047Y-121424819D01*
X172419047Y-121424819D02*
X172514285Y-121377200D01*
X172514285Y-121377200D02*
X172561904Y-121329580D01*
X193906666Y-108584819D02*
X194239999Y-108108628D01*
X194478094Y-108584819D02*
X194478094Y-107584819D01*
X194478094Y-107584819D02*
X194097142Y-107584819D01*
X194097142Y-107584819D02*
X194001904Y-107632438D01*
X194001904Y-107632438D02*
X193954285Y-107680057D01*
X193954285Y-107680057D02*
X193906666Y-107775295D01*
X193906666Y-107775295D02*
X193906666Y-107918152D01*
X193906666Y-107918152D02*
X193954285Y-108013390D01*
X193954285Y-108013390D02*
X194001904Y-108061009D01*
X194001904Y-108061009D02*
X194097142Y-108108628D01*
X194097142Y-108108628D02*
X194478094Y-108108628D01*
X193430475Y-108584819D02*
X193239999Y-108584819D01*
X193239999Y-108584819D02*
X193144761Y-108537200D01*
X193144761Y-108537200D02*
X193097142Y-108489580D01*
X193097142Y-108489580D02*
X193001904Y-108346723D01*
X193001904Y-108346723D02*
X192954285Y-108156247D01*
X192954285Y-108156247D02*
X192954285Y-107775295D01*
X192954285Y-107775295D02*
X193001904Y-107680057D01*
X193001904Y-107680057D02*
X193049523Y-107632438D01*
X193049523Y-107632438D02*
X193144761Y-107584819D01*
X193144761Y-107584819D02*
X193335237Y-107584819D01*
X193335237Y-107584819D02*
X193430475Y-107632438D01*
X193430475Y-107632438D02*
X193478094Y-107680057D01*
X193478094Y-107680057D02*
X193525713Y-107775295D01*
X193525713Y-107775295D02*
X193525713Y-108013390D01*
X193525713Y-108013390D02*
X193478094Y-108108628D01*
X193478094Y-108108628D02*
X193430475Y-108156247D01*
X193430475Y-108156247D02*
X193335237Y-108203866D01*
X193335237Y-108203866D02*
X193144761Y-108203866D01*
X193144761Y-108203866D02*
X193049523Y-108156247D01*
X193049523Y-108156247D02*
X193001904Y-108108628D01*
X193001904Y-108108628D02*
X192954285Y-108013390D01*
X201961904Y-119704819D02*
X201961904Y-118704819D01*
X201961904Y-119181009D02*
X201390476Y-119181009D01*
X201390476Y-119704819D02*
X201390476Y-118704819D01*
X200390476Y-119704819D02*
X200961904Y-119704819D01*
X200676190Y-119704819D02*
X200676190Y-118704819D01*
X200676190Y-118704819D02*
X200771428Y-118847676D01*
X200771428Y-118847676D02*
X200866666Y-118942914D01*
X200866666Y-118942914D02*
X200961904Y-118990533D01*
X198259580Y-121027142D02*
X198307200Y-120979523D01*
X198307200Y-120979523D02*
X198354819Y-120836666D01*
X198354819Y-120836666D02*
X198354819Y-120741428D01*
X198354819Y-120741428D02*
X198307200Y-120598571D01*
X198307200Y-120598571D02*
X198211961Y-120503333D01*
X198211961Y-120503333D02*
X198116723Y-120455714D01*
X198116723Y-120455714D02*
X197926247Y-120408095D01*
X197926247Y-120408095D02*
X197783390Y-120408095D01*
X197783390Y-120408095D02*
X197592914Y-120455714D01*
X197592914Y-120455714D02*
X197497676Y-120503333D01*
X197497676Y-120503333D02*
X197402438Y-120598571D01*
X197402438Y-120598571D02*
X197354819Y-120741428D01*
X197354819Y-120741428D02*
X197354819Y-120836666D01*
X197354819Y-120836666D02*
X197402438Y-120979523D01*
X197402438Y-120979523D02*
X197450057Y-121027142D01*
X197450057Y-121408095D02*
X197402438Y-121455714D01*
X197402438Y-121455714D02*
X197354819Y-121550952D01*
X197354819Y-121550952D02*
X197354819Y-121789047D01*
X197354819Y-121789047D02*
X197402438Y-121884285D01*
X197402438Y-121884285D02*
X197450057Y-121931904D01*
X197450057Y-121931904D02*
X197545295Y-121979523D01*
X197545295Y-121979523D02*
X197640533Y-121979523D01*
X197640533Y-121979523D02*
X197783390Y-121931904D01*
X197783390Y-121931904D02*
X198354819Y-121360476D01*
X198354819Y-121360476D02*
X198354819Y-121979523D01*
X197354819Y-122836666D02*
X197354819Y-122646190D01*
X197354819Y-122646190D02*
X197402438Y-122550952D01*
X197402438Y-122550952D02*
X197450057Y-122503333D01*
X197450057Y-122503333D02*
X197592914Y-122408095D01*
X197592914Y-122408095D02*
X197783390Y-122360476D01*
X197783390Y-122360476D02*
X198164342Y-122360476D01*
X198164342Y-122360476D02*
X198259580Y-122408095D01*
X198259580Y-122408095D02*
X198307200Y-122455714D01*
X198307200Y-122455714D02*
X198354819Y-122550952D01*
X198354819Y-122550952D02*
X198354819Y-122741428D01*
X198354819Y-122741428D02*
X198307200Y-122836666D01*
X198307200Y-122836666D02*
X198259580Y-122884285D01*
X198259580Y-122884285D02*
X198164342Y-122931904D01*
X198164342Y-122931904D02*
X197926247Y-122931904D01*
X197926247Y-122931904D02*
X197831009Y-122884285D01*
X197831009Y-122884285D02*
X197783390Y-122836666D01*
X197783390Y-122836666D02*
X197735771Y-122741428D01*
X197735771Y-122741428D02*
X197735771Y-122550952D01*
X197735771Y-122550952D02*
X197783390Y-122455714D01*
X197783390Y-122455714D02*
X197831009Y-122408095D01*
X197831009Y-122408095D02*
X197926247Y-122360476D01*
X211161904Y-94404819D02*
X211161904Y-95214342D01*
X211161904Y-95214342D02*
X211114285Y-95309580D01*
X211114285Y-95309580D02*
X211066666Y-95357200D01*
X211066666Y-95357200D02*
X210971428Y-95404819D01*
X210971428Y-95404819D02*
X210780952Y-95404819D01*
X210780952Y-95404819D02*
X210685714Y-95357200D01*
X210685714Y-95357200D02*
X210638095Y-95309580D01*
X210638095Y-95309580D02*
X210590476Y-95214342D01*
X210590476Y-95214342D02*
X210590476Y-94404819D01*
X210161904Y-94500057D02*
X210114285Y-94452438D01*
X210114285Y-94452438D02*
X210019047Y-94404819D01*
X210019047Y-94404819D02*
X209780952Y-94404819D01*
X209780952Y-94404819D02*
X209685714Y-94452438D01*
X209685714Y-94452438D02*
X209638095Y-94500057D01*
X209638095Y-94500057D02*
X209590476Y-94595295D01*
X209590476Y-94595295D02*
X209590476Y-94690533D01*
X209590476Y-94690533D02*
X209638095Y-94833390D01*
X209638095Y-94833390D02*
X210209523Y-95404819D01*
X210209523Y-95404819D02*
X209590476Y-95404819D01*
X188254819Y-112983333D02*
X187778628Y-112650000D01*
X188254819Y-112411905D02*
X187254819Y-112411905D01*
X187254819Y-112411905D02*
X187254819Y-112792857D01*
X187254819Y-112792857D02*
X187302438Y-112888095D01*
X187302438Y-112888095D02*
X187350057Y-112935714D01*
X187350057Y-112935714D02*
X187445295Y-112983333D01*
X187445295Y-112983333D02*
X187588152Y-112983333D01*
X187588152Y-112983333D02*
X187683390Y-112935714D01*
X187683390Y-112935714D02*
X187731009Y-112888095D01*
X187731009Y-112888095D02*
X187778628Y-112792857D01*
X187778628Y-112792857D02*
X187778628Y-112411905D01*
X187254819Y-113316667D02*
X187254819Y-113935714D01*
X187254819Y-113935714D02*
X187635771Y-113602381D01*
X187635771Y-113602381D02*
X187635771Y-113745238D01*
X187635771Y-113745238D02*
X187683390Y-113840476D01*
X187683390Y-113840476D02*
X187731009Y-113888095D01*
X187731009Y-113888095D02*
X187826247Y-113935714D01*
X187826247Y-113935714D02*
X188064342Y-113935714D01*
X188064342Y-113935714D02*
X188159580Y-113888095D01*
X188159580Y-113888095D02*
X188207200Y-113840476D01*
X188207200Y-113840476D02*
X188254819Y-113745238D01*
X188254819Y-113745238D02*
X188254819Y-113459524D01*
X188254819Y-113459524D02*
X188207200Y-113364286D01*
X188207200Y-113364286D02*
X188159580Y-113316667D01*
X179789580Y-104757142D02*
X179837200Y-104709523D01*
X179837200Y-104709523D02*
X179884819Y-104566666D01*
X179884819Y-104566666D02*
X179884819Y-104471428D01*
X179884819Y-104471428D02*
X179837200Y-104328571D01*
X179837200Y-104328571D02*
X179741961Y-104233333D01*
X179741961Y-104233333D02*
X179646723Y-104185714D01*
X179646723Y-104185714D02*
X179456247Y-104138095D01*
X179456247Y-104138095D02*
X179313390Y-104138095D01*
X179313390Y-104138095D02*
X179122914Y-104185714D01*
X179122914Y-104185714D02*
X179027676Y-104233333D01*
X179027676Y-104233333D02*
X178932438Y-104328571D01*
X178932438Y-104328571D02*
X178884819Y-104471428D01*
X178884819Y-104471428D02*
X178884819Y-104566666D01*
X178884819Y-104566666D02*
X178932438Y-104709523D01*
X178932438Y-104709523D02*
X178980057Y-104757142D01*
X179218152Y-105614285D02*
X179884819Y-105614285D01*
X178837200Y-105376190D02*
X179551485Y-105138095D01*
X179551485Y-105138095D02*
X179551485Y-105757142D01*
X178884819Y-106042857D02*
X178884819Y-106661904D01*
X178884819Y-106661904D02*
X179265771Y-106328571D01*
X179265771Y-106328571D02*
X179265771Y-106471428D01*
X179265771Y-106471428D02*
X179313390Y-106566666D01*
X179313390Y-106566666D02*
X179361009Y-106614285D01*
X179361009Y-106614285D02*
X179456247Y-106661904D01*
X179456247Y-106661904D02*
X179694342Y-106661904D01*
X179694342Y-106661904D02*
X179789580Y-106614285D01*
X179789580Y-106614285D02*
X179837200Y-106566666D01*
X179837200Y-106566666D02*
X179884819Y-106471428D01*
X179884819Y-106471428D02*
X179884819Y-106185714D01*
X179884819Y-106185714D02*
X179837200Y-106090476D01*
X179837200Y-106090476D02*
X179789580Y-106042857D01*
X199791904Y-116704819D02*
X199791904Y-115704819D01*
X199791904Y-116181009D02*
X199220476Y-116181009D01*
X199220476Y-116704819D02*
X199220476Y-115704819D01*
X198839523Y-115704819D02*
X198220476Y-115704819D01*
X198220476Y-115704819D02*
X198553809Y-116085771D01*
X198553809Y-116085771D02*
X198410952Y-116085771D01*
X198410952Y-116085771D02*
X198315714Y-116133390D01*
X198315714Y-116133390D02*
X198268095Y-116181009D01*
X198268095Y-116181009D02*
X198220476Y-116276247D01*
X198220476Y-116276247D02*
X198220476Y-116514342D01*
X198220476Y-116514342D02*
X198268095Y-116609580D01*
X198268095Y-116609580D02*
X198315714Y-116657200D01*
X198315714Y-116657200D02*
X198410952Y-116704819D01*
X198410952Y-116704819D02*
X198696666Y-116704819D01*
X198696666Y-116704819D02*
X198791904Y-116657200D01*
X198791904Y-116657200D02*
X198839523Y-116609580D01*
X194662857Y-110014819D02*
X194996190Y-109538628D01*
X195234285Y-110014819D02*
X195234285Y-109014819D01*
X195234285Y-109014819D02*
X194853333Y-109014819D01*
X194853333Y-109014819D02*
X194758095Y-109062438D01*
X194758095Y-109062438D02*
X194710476Y-109110057D01*
X194710476Y-109110057D02*
X194662857Y-109205295D01*
X194662857Y-109205295D02*
X194662857Y-109348152D01*
X194662857Y-109348152D02*
X194710476Y-109443390D01*
X194710476Y-109443390D02*
X194758095Y-109491009D01*
X194758095Y-109491009D02*
X194853333Y-109538628D01*
X194853333Y-109538628D02*
X195234285Y-109538628D01*
X193710476Y-110014819D02*
X194281904Y-110014819D01*
X193996190Y-110014819D02*
X193996190Y-109014819D01*
X193996190Y-109014819D02*
X194091428Y-109157676D01*
X194091428Y-109157676D02*
X194186666Y-109252914D01*
X194186666Y-109252914D02*
X194281904Y-109300533D01*
X193091428Y-109014819D02*
X192996190Y-109014819D01*
X192996190Y-109014819D02*
X192900952Y-109062438D01*
X192900952Y-109062438D02*
X192853333Y-109110057D01*
X192853333Y-109110057D02*
X192805714Y-109205295D01*
X192805714Y-109205295D02*
X192758095Y-109395771D01*
X192758095Y-109395771D02*
X192758095Y-109633866D01*
X192758095Y-109633866D02*
X192805714Y-109824342D01*
X192805714Y-109824342D02*
X192853333Y-109919580D01*
X192853333Y-109919580D02*
X192900952Y-109967200D01*
X192900952Y-109967200D02*
X192996190Y-110014819D01*
X192996190Y-110014819D02*
X193091428Y-110014819D01*
X193091428Y-110014819D02*
X193186666Y-109967200D01*
X193186666Y-109967200D02*
X193234285Y-109919580D01*
X193234285Y-109919580D02*
X193281904Y-109824342D01*
X193281904Y-109824342D02*
X193329523Y-109633866D01*
X193329523Y-109633866D02*
X193329523Y-109395771D01*
X193329523Y-109395771D02*
X193281904Y-109205295D01*
X193281904Y-109205295D02*
X193234285Y-109110057D01*
X193234285Y-109110057D02*
X193186666Y-109062438D01*
X193186666Y-109062438D02*
X193091428Y-109014819D01*
X208384580Y-112157142D02*
X208432200Y-112109523D01*
X208432200Y-112109523D02*
X208479819Y-111966666D01*
X208479819Y-111966666D02*
X208479819Y-111871428D01*
X208479819Y-111871428D02*
X208432200Y-111728571D01*
X208432200Y-111728571D02*
X208336961Y-111633333D01*
X208336961Y-111633333D02*
X208241723Y-111585714D01*
X208241723Y-111585714D02*
X208051247Y-111538095D01*
X208051247Y-111538095D02*
X207908390Y-111538095D01*
X207908390Y-111538095D02*
X207717914Y-111585714D01*
X207717914Y-111585714D02*
X207622676Y-111633333D01*
X207622676Y-111633333D02*
X207527438Y-111728571D01*
X207527438Y-111728571D02*
X207479819Y-111871428D01*
X207479819Y-111871428D02*
X207479819Y-111966666D01*
X207479819Y-111966666D02*
X207527438Y-112109523D01*
X207527438Y-112109523D02*
X207575057Y-112157142D01*
X207575057Y-112538095D02*
X207527438Y-112585714D01*
X207527438Y-112585714D02*
X207479819Y-112680952D01*
X207479819Y-112680952D02*
X207479819Y-112919047D01*
X207479819Y-112919047D02*
X207527438Y-113014285D01*
X207527438Y-113014285D02*
X207575057Y-113061904D01*
X207575057Y-113061904D02*
X207670295Y-113109523D01*
X207670295Y-113109523D02*
X207765533Y-113109523D01*
X207765533Y-113109523D02*
X207908390Y-113061904D01*
X207908390Y-113061904D02*
X208479819Y-112490476D01*
X208479819Y-112490476D02*
X208479819Y-113109523D01*
X207479819Y-114014285D02*
X207479819Y-113538095D01*
X207479819Y-113538095D02*
X207956009Y-113490476D01*
X207956009Y-113490476D02*
X207908390Y-113538095D01*
X207908390Y-113538095D02*
X207860771Y-113633333D01*
X207860771Y-113633333D02*
X207860771Y-113871428D01*
X207860771Y-113871428D02*
X207908390Y-113966666D01*
X207908390Y-113966666D02*
X207956009Y-114014285D01*
X207956009Y-114014285D02*
X208051247Y-114061904D01*
X208051247Y-114061904D02*
X208289342Y-114061904D01*
X208289342Y-114061904D02*
X208384580Y-114014285D01*
X208384580Y-114014285D02*
X208432200Y-113966666D01*
X208432200Y-113966666D02*
X208479819Y-113871428D01*
X208479819Y-113871428D02*
X208479819Y-113633333D01*
X208479819Y-113633333D02*
X208432200Y-113538095D01*
X208432200Y-113538095D02*
X208384580Y-113490476D01*
X209151904Y-120954819D02*
X209151904Y-119954819D01*
X209151904Y-120431009D02*
X208580476Y-120431009D01*
X208580476Y-120954819D02*
X208580476Y-119954819D01*
X208151904Y-120050057D02*
X208104285Y-120002438D01*
X208104285Y-120002438D02*
X208009047Y-119954819D01*
X208009047Y-119954819D02*
X207770952Y-119954819D01*
X207770952Y-119954819D02*
X207675714Y-120002438D01*
X207675714Y-120002438D02*
X207628095Y-120050057D01*
X207628095Y-120050057D02*
X207580476Y-120145295D01*
X207580476Y-120145295D02*
X207580476Y-120240533D01*
X207580476Y-120240533D02*
X207628095Y-120383390D01*
X207628095Y-120383390D02*
X208199523Y-120954819D01*
X208199523Y-120954819D02*
X207580476Y-120954819D01*
X182909580Y-122353333D02*
X182957200Y-122305714D01*
X182957200Y-122305714D02*
X183004819Y-122162857D01*
X183004819Y-122162857D02*
X183004819Y-122067619D01*
X183004819Y-122067619D02*
X182957200Y-121924762D01*
X182957200Y-121924762D02*
X182861961Y-121829524D01*
X182861961Y-121829524D02*
X182766723Y-121781905D01*
X182766723Y-121781905D02*
X182576247Y-121734286D01*
X182576247Y-121734286D02*
X182433390Y-121734286D01*
X182433390Y-121734286D02*
X182242914Y-121781905D01*
X182242914Y-121781905D02*
X182147676Y-121829524D01*
X182147676Y-121829524D02*
X182052438Y-121924762D01*
X182052438Y-121924762D02*
X182004819Y-122067619D01*
X182004819Y-122067619D02*
X182004819Y-122162857D01*
X182004819Y-122162857D02*
X182052438Y-122305714D01*
X182052438Y-122305714D02*
X182100057Y-122353333D01*
X182433390Y-122924762D02*
X182385771Y-122829524D01*
X182385771Y-122829524D02*
X182338152Y-122781905D01*
X182338152Y-122781905D02*
X182242914Y-122734286D01*
X182242914Y-122734286D02*
X182195295Y-122734286D01*
X182195295Y-122734286D02*
X182100057Y-122781905D01*
X182100057Y-122781905D02*
X182052438Y-122829524D01*
X182052438Y-122829524D02*
X182004819Y-122924762D01*
X182004819Y-122924762D02*
X182004819Y-123115238D01*
X182004819Y-123115238D02*
X182052438Y-123210476D01*
X182052438Y-123210476D02*
X182100057Y-123258095D01*
X182100057Y-123258095D02*
X182195295Y-123305714D01*
X182195295Y-123305714D02*
X182242914Y-123305714D01*
X182242914Y-123305714D02*
X182338152Y-123258095D01*
X182338152Y-123258095D02*
X182385771Y-123210476D01*
X182385771Y-123210476D02*
X182433390Y-123115238D01*
X182433390Y-123115238D02*
X182433390Y-122924762D01*
X182433390Y-122924762D02*
X182481009Y-122829524D01*
X182481009Y-122829524D02*
X182528628Y-122781905D01*
X182528628Y-122781905D02*
X182623866Y-122734286D01*
X182623866Y-122734286D02*
X182814342Y-122734286D01*
X182814342Y-122734286D02*
X182909580Y-122781905D01*
X182909580Y-122781905D02*
X182957200Y-122829524D01*
X182957200Y-122829524D02*
X183004819Y-122924762D01*
X183004819Y-122924762D02*
X183004819Y-123115238D01*
X183004819Y-123115238D02*
X182957200Y-123210476D01*
X182957200Y-123210476D02*
X182909580Y-123258095D01*
X182909580Y-123258095D02*
X182814342Y-123305714D01*
X182814342Y-123305714D02*
X182623866Y-123305714D01*
X182623866Y-123305714D02*
X182528628Y-123258095D01*
X182528628Y-123258095D02*
X182481009Y-123210476D01*
X182481009Y-123210476D02*
X182433390Y-123115238D01*
X188664285Y-115262295D02*
X188930952Y-114881342D01*
X189121428Y-115262295D02*
X189121428Y-114462295D01*
X189121428Y-114462295D02*
X188816666Y-114462295D01*
X188816666Y-114462295D02*
X188740476Y-114500390D01*
X188740476Y-114500390D02*
X188702381Y-114538485D01*
X188702381Y-114538485D02*
X188664285Y-114614676D01*
X188664285Y-114614676D02*
X188664285Y-114728961D01*
X188664285Y-114728961D02*
X188702381Y-114805152D01*
X188702381Y-114805152D02*
X188740476Y-114843247D01*
X188740476Y-114843247D02*
X188816666Y-114881342D01*
X188816666Y-114881342D02*
X189121428Y-114881342D01*
X187902381Y-115262295D02*
X188359524Y-115262295D01*
X188130952Y-115262295D02*
X188130952Y-114462295D01*
X188130952Y-114462295D02*
X188207143Y-114576580D01*
X188207143Y-114576580D02*
X188283333Y-114652771D01*
X188283333Y-114652771D02*
X188359524Y-114690866D01*
X187140476Y-115262295D02*
X187597619Y-115262295D01*
X187369047Y-115262295D02*
X187369047Y-114462295D01*
X187369047Y-114462295D02*
X187445238Y-114576580D01*
X187445238Y-114576580D02*
X187521428Y-114652771D01*
X187521428Y-114652771D02*
X187597619Y-114690866D01*
X184269580Y-122333333D02*
X184317200Y-122285714D01*
X184317200Y-122285714D02*
X184364819Y-122142857D01*
X184364819Y-122142857D02*
X184364819Y-122047619D01*
X184364819Y-122047619D02*
X184317200Y-121904762D01*
X184317200Y-121904762D02*
X184221961Y-121809524D01*
X184221961Y-121809524D02*
X184126723Y-121761905D01*
X184126723Y-121761905D02*
X183936247Y-121714286D01*
X183936247Y-121714286D02*
X183793390Y-121714286D01*
X183793390Y-121714286D02*
X183602914Y-121761905D01*
X183602914Y-121761905D02*
X183507676Y-121809524D01*
X183507676Y-121809524D02*
X183412438Y-121904762D01*
X183412438Y-121904762D02*
X183364819Y-122047619D01*
X183364819Y-122047619D02*
X183364819Y-122142857D01*
X183364819Y-122142857D02*
X183412438Y-122285714D01*
X183412438Y-122285714D02*
X183460057Y-122333333D01*
X184364819Y-122809524D02*
X184364819Y-123000000D01*
X184364819Y-123000000D02*
X184317200Y-123095238D01*
X184317200Y-123095238D02*
X184269580Y-123142857D01*
X184269580Y-123142857D02*
X184126723Y-123238095D01*
X184126723Y-123238095D02*
X183936247Y-123285714D01*
X183936247Y-123285714D02*
X183555295Y-123285714D01*
X183555295Y-123285714D02*
X183460057Y-123238095D01*
X183460057Y-123238095D02*
X183412438Y-123190476D01*
X183412438Y-123190476D02*
X183364819Y-123095238D01*
X183364819Y-123095238D02*
X183364819Y-122904762D01*
X183364819Y-122904762D02*
X183412438Y-122809524D01*
X183412438Y-122809524D02*
X183460057Y-122761905D01*
X183460057Y-122761905D02*
X183555295Y-122714286D01*
X183555295Y-122714286D02*
X183793390Y-122714286D01*
X183793390Y-122714286D02*
X183888628Y-122761905D01*
X183888628Y-122761905D02*
X183936247Y-122809524D01*
X183936247Y-122809524D02*
X183983866Y-122904762D01*
X183983866Y-122904762D02*
X183983866Y-123095238D01*
X183983866Y-123095238D02*
X183936247Y-123190476D01*
X183936247Y-123190476D02*
X183888628Y-123238095D01*
X183888628Y-123238095D02*
X183793390Y-123285714D01*
X176809580Y-112457142D02*
X176857200Y-112409523D01*
X176857200Y-112409523D02*
X176904819Y-112266666D01*
X176904819Y-112266666D02*
X176904819Y-112171428D01*
X176904819Y-112171428D02*
X176857200Y-112028571D01*
X176857200Y-112028571D02*
X176761961Y-111933333D01*
X176761961Y-111933333D02*
X176666723Y-111885714D01*
X176666723Y-111885714D02*
X176476247Y-111838095D01*
X176476247Y-111838095D02*
X176333390Y-111838095D01*
X176333390Y-111838095D02*
X176142914Y-111885714D01*
X176142914Y-111885714D02*
X176047676Y-111933333D01*
X176047676Y-111933333D02*
X175952438Y-112028571D01*
X175952438Y-112028571D02*
X175904819Y-112171428D01*
X175904819Y-112171428D02*
X175904819Y-112266666D01*
X175904819Y-112266666D02*
X175952438Y-112409523D01*
X175952438Y-112409523D02*
X176000057Y-112457142D01*
X176904819Y-113409523D02*
X176904819Y-112838095D01*
X176904819Y-113123809D02*
X175904819Y-113123809D01*
X175904819Y-113123809D02*
X176047676Y-113028571D01*
X176047676Y-113028571D02*
X176142914Y-112933333D01*
X176142914Y-112933333D02*
X176190533Y-112838095D01*
X176000057Y-113790476D02*
X175952438Y-113838095D01*
X175952438Y-113838095D02*
X175904819Y-113933333D01*
X175904819Y-113933333D02*
X175904819Y-114171428D01*
X175904819Y-114171428D02*
X175952438Y-114266666D01*
X175952438Y-114266666D02*
X176000057Y-114314285D01*
X176000057Y-114314285D02*
X176095295Y-114361904D01*
X176095295Y-114361904D02*
X176190533Y-114361904D01*
X176190533Y-114361904D02*
X176333390Y-114314285D01*
X176333390Y-114314285D02*
X176904819Y-113742857D01*
X176904819Y-113742857D02*
X176904819Y-114361904D01*
X185686104Y-110585714D02*
X185724200Y-110547618D01*
X185724200Y-110547618D02*
X185762295Y-110433333D01*
X185762295Y-110433333D02*
X185762295Y-110357142D01*
X185762295Y-110357142D02*
X185724200Y-110242856D01*
X185724200Y-110242856D02*
X185648009Y-110166666D01*
X185648009Y-110166666D02*
X185571819Y-110128571D01*
X185571819Y-110128571D02*
X185419438Y-110090475D01*
X185419438Y-110090475D02*
X185305152Y-110090475D01*
X185305152Y-110090475D02*
X185152771Y-110128571D01*
X185152771Y-110128571D02*
X185076580Y-110166666D01*
X185076580Y-110166666D02*
X185000390Y-110242856D01*
X185000390Y-110242856D02*
X184962295Y-110357142D01*
X184962295Y-110357142D02*
X184962295Y-110433333D01*
X184962295Y-110433333D02*
X185000390Y-110547618D01*
X185000390Y-110547618D02*
X185038485Y-110585714D01*
X185762295Y-111347618D02*
X185762295Y-110890475D01*
X185762295Y-111119047D02*
X184962295Y-111119047D01*
X184962295Y-111119047D02*
X185076580Y-111042856D01*
X185076580Y-111042856D02*
X185152771Y-110966666D01*
X185152771Y-110966666D02*
X185190866Y-110890475D01*
X184962295Y-111842857D02*
X184962295Y-111919047D01*
X184962295Y-111919047D02*
X185000390Y-111995238D01*
X185000390Y-111995238D02*
X185038485Y-112033333D01*
X185038485Y-112033333D02*
X185114676Y-112071428D01*
X185114676Y-112071428D02*
X185267057Y-112109523D01*
X185267057Y-112109523D02*
X185457533Y-112109523D01*
X185457533Y-112109523D02*
X185609914Y-112071428D01*
X185609914Y-112071428D02*
X185686104Y-112033333D01*
X185686104Y-112033333D02*
X185724200Y-111995238D01*
X185724200Y-111995238D02*
X185762295Y-111919047D01*
X185762295Y-111919047D02*
X185762295Y-111842857D01*
X185762295Y-111842857D02*
X185724200Y-111766666D01*
X185724200Y-111766666D02*
X185686104Y-111728571D01*
X185686104Y-111728571D02*
X185609914Y-111690476D01*
X185609914Y-111690476D02*
X185457533Y-111652380D01*
X185457533Y-111652380D02*
X185267057Y-111652380D01*
X185267057Y-111652380D02*
X185114676Y-111690476D01*
X185114676Y-111690476D02*
X185038485Y-111728571D01*
X185038485Y-111728571D02*
X185000390Y-111766666D01*
X185000390Y-111766666D02*
X184962295Y-111842857D01*
X205309580Y-108958333D02*
X205357200Y-108910714D01*
X205357200Y-108910714D02*
X205404819Y-108767857D01*
X205404819Y-108767857D02*
X205404819Y-108672619D01*
X205404819Y-108672619D02*
X205357200Y-108529762D01*
X205357200Y-108529762D02*
X205261961Y-108434524D01*
X205261961Y-108434524D02*
X205166723Y-108386905D01*
X205166723Y-108386905D02*
X204976247Y-108339286D01*
X204976247Y-108339286D02*
X204833390Y-108339286D01*
X204833390Y-108339286D02*
X204642914Y-108386905D01*
X204642914Y-108386905D02*
X204547676Y-108434524D01*
X204547676Y-108434524D02*
X204452438Y-108529762D01*
X204452438Y-108529762D02*
X204404819Y-108672619D01*
X204404819Y-108672619D02*
X204404819Y-108767857D01*
X204404819Y-108767857D02*
X204452438Y-108910714D01*
X204452438Y-108910714D02*
X204500057Y-108958333D01*
X204404819Y-109815476D02*
X204404819Y-109625000D01*
X204404819Y-109625000D02*
X204452438Y-109529762D01*
X204452438Y-109529762D02*
X204500057Y-109482143D01*
X204500057Y-109482143D02*
X204642914Y-109386905D01*
X204642914Y-109386905D02*
X204833390Y-109339286D01*
X204833390Y-109339286D02*
X205214342Y-109339286D01*
X205214342Y-109339286D02*
X205309580Y-109386905D01*
X205309580Y-109386905D02*
X205357200Y-109434524D01*
X205357200Y-109434524D02*
X205404819Y-109529762D01*
X205404819Y-109529762D02*
X205404819Y-109720238D01*
X205404819Y-109720238D02*
X205357200Y-109815476D01*
X205357200Y-109815476D02*
X205309580Y-109863095D01*
X205309580Y-109863095D02*
X205214342Y-109910714D01*
X205214342Y-109910714D02*
X204976247Y-109910714D01*
X204976247Y-109910714D02*
X204881009Y-109863095D01*
X204881009Y-109863095D02*
X204833390Y-109815476D01*
X204833390Y-109815476D02*
X204785771Y-109720238D01*
X204785771Y-109720238D02*
X204785771Y-109529762D01*
X204785771Y-109529762D02*
X204833390Y-109434524D01*
X204833390Y-109434524D02*
X204881009Y-109386905D01*
X204881009Y-109386905D02*
X204976247Y-109339286D01*
X188254819Y-116483333D02*
X187778628Y-116150000D01*
X188254819Y-115911905D02*
X187254819Y-115911905D01*
X187254819Y-115911905D02*
X187254819Y-116292857D01*
X187254819Y-116292857D02*
X187302438Y-116388095D01*
X187302438Y-116388095D02*
X187350057Y-116435714D01*
X187350057Y-116435714D02*
X187445295Y-116483333D01*
X187445295Y-116483333D02*
X187588152Y-116483333D01*
X187588152Y-116483333D02*
X187683390Y-116435714D01*
X187683390Y-116435714D02*
X187731009Y-116388095D01*
X187731009Y-116388095D02*
X187778628Y-116292857D01*
X187778628Y-116292857D02*
X187778628Y-115911905D01*
X187588152Y-117340476D02*
X188254819Y-117340476D01*
X187207200Y-117102381D02*
X187921485Y-116864286D01*
X187921485Y-116864286D02*
X187921485Y-117483333D01*
X197114819Y-108000595D02*
X197924342Y-108000595D01*
X197924342Y-108000595D02*
X198019580Y-108048214D01*
X198019580Y-108048214D02*
X198067200Y-108095833D01*
X198067200Y-108095833D02*
X198114819Y-108191071D01*
X198114819Y-108191071D02*
X198114819Y-108381547D01*
X198114819Y-108381547D02*
X198067200Y-108476785D01*
X198067200Y-108476785D02*
X198019580Y-108524404D01*
X198019580Y-108524404D02*
X197924342Y-108572023D01*
X197924342Y-108572023D02*
X197114819Y-108572023D01*
X197114819Y-109524404D02*
X197114819Y-109048214D01*
X197114819Y-109048214D02*
X197591009Y-109000595D01*
X197591009Y-109000595D02*
X197543390Y-109048214D01*
X197543390Y-109048214D02*
X197495771Y-109143452D01*
X197495771Y-109143452D02*
X197495771Y-109381547D01*
X197495771Y-109381547D02*
X197543390Y-109476785D01*
X197543390Y-109476785D02*
X197591009Y-109524404D01*
X197591009Y-109524404D02*
X197686247Y-109572023D01*
X197686247Y-109572023D02*
X197924342Y-109572023D01*
X197924342Y-109572023D02*
X198019580Y-109524404D01*
X198019580Y-109524404D02*
X198067200Y-109476785D01*
X198067200Y-109476785D02*
X198114819Y-109381547D01*
X198114819Y-109381547D02*
X198114819Y-109143452D01*
X198114819Y-109143452D02*
X198067200Y-109048214D01*
X198067200Y-109048214D02*
X198019580Y-109000595D01*
X184374285Y-105448604D02*
X184412381Y-105486700D01*
X184412381Y-105486700D02*
X184526666Y-105524795D01*
X184526666Y-105524795D02*
X184602857Y-105524795D01*
X184602857Y-105524795D02*
X184717143Y-105486700D01*
X184717143Y-105486700D02*
X184793333Y-105410509D01*
X184793333Y-105410509D02*
X184831428Y-105334319D01*
X184831428Y-105334319D02*
X184869524Y-105181938D01*
X184869524Y-105181938D02*
X184869524Y-105067652D01*
X184869524Y-105067652D02*
X184831428Y-104915271D01*
X184831428Y-104915271D02*
X184793333Y-104839080D01*
X184793333Y-104839080D02*
X184717143Y-104762890D01*
X184717143Y-104762890D02*
X184602857Y-104724795D01*
X184602857Y-104724795D02*
X184526666Y-104724795D01*
X184526666Y-104724795D02*
X184412381Y-104762890D01*
X184412381Y-104762890D02*
X184374285Y-104800985D01*
X183688571Y-104991461D02*
X183688571Y-105524795D01*
X183879047Y-104686700D02*
X184069524Y-105258128D01*
X184069524Y-105258128D02*
X183574285Y-105258128D01*
X182926666Y-104991461D02*
X182926666Y-105524795D01*
X183117142Y-104686700D02*
X183307619Y-105258128D01*
X183307619Y-105258128D02*
X182812380Y-105258128D01*
X176809580Y-119417142D02*
X176857200Y-119369523D01*
X176857200Y-119369523D02*
X176904819Y-119226666D01*
X176904819Y-119226666D02*
X176904819Y-119131428D01*
X176904819Y-119131428D02*
X176857200Y-118988571D01*
X176857200Y-118988571D02*
X176761961Y-118893333D01*
X176761961Y-118893333D02*
X176666723Y-118845714D01*
X176666723Y-118845714D02*
X176476247Y-118798095D01*
X176476247Y-118798095D02*
X176333390Y-118798095D01*
X176333390Y-118798095D02*
X176142914Y-118845714D01*
X176142914Y-118845714D02*
X176047676Y-118893333D01*
X176047676Y-118893333D02*
X175952438Y-118988571D01*
X175952438Y-118988571D02*
X175904819Y-119131428D01*
X175904819Y-119131428D02*
X175904819Y-119226666D01*
X175904819Y-119226666D02*
X175952438Y-119369523D01*
X175952438Y-119369523D02*
X176000057Y-119417142D01*
X176238152Y-120274285D02*
X176904819Y-120274285D01*
X175857200Y-120036190D02*
X176571485Y-119798095D01*
X176571485Y-119798095D02*
X176571485Y-120417142D01*
X175904819Y-121226666D02*
X175904819Y-121036190D01*
X175904819Y-121036190D02*
X175952438Y-120940952D01*
X175952438Y-120940952D02*
X176000057Y-120893333D01*
X176000057Y-120893333D02*
X176142914Y-120798095D01*
X176142914Y-120798095D02*
X176333390Y-120750476D01*
X176333390Y-120750476D02*
X176714342Y-120750476D01*
X176714342Y-120750476D02*
X176809580Y-120798095D01*
X176809580Y-120798095D02*
X176857200Y-120845714D01*
X176857200Y-120845714D02*
X176904819Y-120940952D01*
X176904819Y-120940952D02*
X176904819Y-121131428D01*
X176904819Y-121131428D02*
X176857200Y-121226666D01*
X176857200Y-121226666D02*
X176809580Y-121274285D01*
X176809580Y-121274285D02*
X176714342Y-121321904D01*
X176714342Y-121321904D02*
X176476247Y-121321904D01*
X176476247Y-121321904D02*
X176381009Y-121274285D01*
X176381009Y-121274285D02*
X176333390Y-121226666D01*
X176333390Y-121226666D02*
X176285771Y-121131428D01*
X176285771Y-121131428D02*
X176285771Y-120940952D01*
X176285771Y-120940952D02*
X176333390Y-120845714D01*
X176333390Y-120845714D02*
X176381009Y-120798095D01*
X176381009Y-120798095D02*
X176476247Y-120750476D01*
X191781904Y-98464819D02*
X191210476Y-98464819D01*
X191496190Y-99464819D02*
X191496190Y-98464819D01*
X190877142Y-99464819D02*
X190877142Y-98464819D01*
X190877142Y-98464819D02*
X190496190Y-98464819D01*
X190496190Y-98464819D02*
X190400952Y-98512438D01*
X190400952Y-98512438D02*
X190353333Y-98560057D01*
X190353333Y-98560057D02*
X190305714Y-98655295D01*
X190305714Y-98655295D02*
X190305714Y-98798152D01*
X190305714Y-98798152D02*
X190353333Y-98893390D01*
X190353333Y-98893390D02*
X190400952Y-98941009D01*
X190400952Y-98941009D02*
X190496190Y-98988628D01*
X190496190Y-98988628D02*
X190877142Y-98988628D01*
X189924761Y-98560057D02*
X189877142Y-98512438D01*
X189877142Y-98512438D02*
X189781904Y-98464819D01*
X189781904Y-98464819D02*
X189543809Y-98464819D01*
X189543809Y-98464819D02*
X189448571Y-98512438D01*
X189448571Y-98512438D02*
X189400952Y-98560057D01*
X189400952Y-98560057D02*
X189353333Y-98655295D01*
X189353333Y-98655295D02*
X189353333Y-98750533D01*
X189353333Y-98750533D02*
X189400952Y-98893390D01*
X189400952Y-98893390D02*
X189972380Y-99464819D01*
X189972380Y-99464819D02*
X189353333Y-99464819D01*
X195204819Y-113622381D02*
X195204819Y-113812857D01*
X195204819Y-113812857D02*
X195252438Y-113908095D01*
X195252438Y-113908095D02*
X195347676Y-114003333D01*
X195347676Y-114003333D02*
X195538152Y-114050952D01*
X195538152Y-114050952D02*
X195871485Y-114050952D01*
X195871485Y-114050952D02*
X196061961Y-114003333D01*
X196061961Y-114003333D02*
X196157200Y-113908095D01*
X196157200Y-113908095D02*
X196204819Y-113812857D01*
X196204819Y-113812857D02*
X196204819Y-113622381D01*
X196204819Y-113622381D02*
X196157200Y-113527143D01*
X196157200Y-113527143D02*
X196061961Y-113431905D01*
X196061961Y-113431905D02*
X195871485Y-113384286D01*
X195871485Y-113384286D02*
X195538152Y-113384286D01*
X195538152Y-113384286D02*
X195347676Y-113431905D01*
X195347676Y-113431905D02*
X195252438Y-113527143D01*
X195252438Y-113527143D02*
X195204819Y-113622381D01*
X196157200Y-114431905D02*
X196204819Y-114574762D01*
X196204819Y-114574762D02*
X196204819Y-114812857D01*
X196204819Y-114812857D02*
X196157200Y-114908095D01*
X196157200Y-114908095D02*
X196109580Y-114955714D01*
X196109580Y-114955714D02*
X196014342Y-115003333D01*
X196014342Y-115003333D02*
X195919104Y-115003333D01*
X195919104Y-115003333D02*
X195823866Y-114955714D01*
X195823866Y-114955714D02*
X195776247Y-114908095D01*
X195776247Y-114908095D02*
X195728628Y-114812857D01*
X195728628Y-114812857D02*
X195681009Y-114622381D01*
X195681009Y-114622381D02*
X195633390Y-114527143D01*
X195633390Y-114527143D02*
X195585771Y-114479524D01*
X195585771Y-114479524D02*
X195490533Y-114431905D01*
X195490533Y-114431905D02*
X195395295Y-114431905D01*
X195395295Y-114431905D02*
X195300057Y-114479524D01*
X195300057Y-114479524D02*
X195252438Y-114527143D01*
X195252438Y-114527143D02*
X195204819Y-114622381D01*
X195204819Y-114622381D02*
X195204819Y-114860476D01*
X195204819Y-114860476D02*
X195252438Y-115003333D01*
X196109580Y-116003333D02*
X196157200Y-115955714D01*
X196157200Y-115955714D02*
X196204819Y-115812857D01*
X196204819Y-115812857D02*
X196204819Y-115717619D01*
X196204819Y-115717619D02*
X196157200Y-115574762D01*
X196157200Y-115574762D02*
X196061961Y-115479524D01*
X196061961Y-115479524D02*
X195966723Y-115431905D01*
X195966723Y-115431905D02*
X195776247Y-115384286D01*
X195776247Y-115384286D02*
X195633390Y-115384286D01*
X195633390Y-115384286D02*
X195442914Y-115431905D01*
X195442914Y-115431905D02*
X195347676Y-115479524D01*
X195347676Y-115479524D02*
X195252438Y-115574762D01*
X195252438Y-115574762D02*
X195204819Y-115717619D01*
X195204819Y-115717619D02*
X195204819Y-115812857D01*
X195204819Y-115812857D02*
X195252438Y-115955714D01*
X195252438Y-115955714D02*
X195300057Y-116003333D01*
X195300057Y-116384286D02*
X195252438Y-116431905D01*
X195252438Y-116431905D02*
X195204819Y-116527143D01*
X195204819Y-116527143D02*
X195204819Y-116765238D01*
X195204819Y-116765238D02*
X195252438Y-116860476D01*
X195252438Y-116860476D02*
X195300057Y-116908095D01*
X195300057Y-116908095D02*
X195395295Y-116955714D01*
X195395295Y-116955714D02*
X195490533Y-116955714D01*
X195490533Y-116955714D02*
X195633390Y-116908095D01*
X195633390Y-116908095D02*
X196204819Y-116336667D01*
X196204819Y-116336667D02*
X196204819Y-116955714D01*
X209866666Y-93809580D02*
X209914285Y-93857200D01*
X209914285Y-93857200D02*
X210057142Y-93904819D01*
X210057142Y-93904819D02*
X210152380Y-93904819D01*
X210152380Y-93904819D02*
X210295237Y-93857200D01*
X210295237Y-93857200D02*
X210390475Y-93761961D01*
X210390475Y-93761961D02*
X210438094Y-93666723D01*
X210438094Y-93666723D02*
X210485713Y-93476247D01*
X210485713Y-93476247D02*
X210485713Y-93333390D01*
X210485713Y-93333390D02*
X210438094Y-93142914D01*
X210438094Y-93142914D02*
X210390475Y-93047676D01*
X210390475Y-93047676D02*
X210295237Y-92952438D01*
X210295237Y-92952438D02*
X210152380Y-92904819D01*
X210152380Y-92904819D02*
X210057142Y-92904819D01*
X210057142Y-92904819D02*
X209914285Y-92952438D01*
X209914285Y-92952438D02*
X209866666Y-93000057D01*
X208961904Y-92904819D02*
X209438094Y-92904819D01*
X209438094Y-92904819D02*
X209485713Y-93381009D01*
X209485713Y-93381009D02*
X209438094Y-93333390D01*
X209438094Y-93333390D02*
X209342856Y-93285771D01*
X209342856Y-93285771D02*
X209104761Y-93285771D01*
X209104761Y-93285771D02*
X209009523Y-93333390D01*
X209009523Y-93333390D02*
X208961904Y-93381009D01*
X208961904Y-93381009D02*
X208914285Y-93476247D01*
X208914285Y-93476247D02*
X208914285Y-93714342D01*
X208914285Y-93714342D02*
X208961904Y-93809580D01*
X208961904Y-93809580D02*
X209009523Y-93857200D01*
X209009523Y-93857200D02*
X209104761Y-93904819D01*
X209104761Y-93904819D02*
X209342856Y-93904819D01*
X209342856Y-93904819D02*
X209438094Y-93857200D01*
X209438094Y-93857200D02*
X209485713Y-93809580D01*
X205762857Y-106337080D02*
X205810476Y-106384700D01*
X205810476Y-106384700D02*
X205953333Y-106432319D01*
X205953333Y-106432319D02*
X206048571Y-106432319D01*
X206048571Y-106432319D02*
X206191428Y-106384700D01*
X206191428Y-106384700D02*
X206286666Y-106289461D01*
X206286666Y-106289461D02*
X206334285Y-106194223D01*
X206334285Y-106194223D02*
X206381904Y-106003747D01*
X206381904Y-106003747D02*
X206381904Y-105860890D01*
X206381904Y-105860890D02*
X206334285Y-105670414D01*
X206334285Y-105670414D02*
X206286666Y-105575176D01*
X206286666Y-105575176D02*
X206191428Y-105479938D01*
X206191428Y-105479938D02*
X206048571Y-105432319D01*
X206048571Y-105432319D02*
X205953333Y-105432319D01*
X205953333Y-105432319D02*
X205810476Y-105479938D01*
X205810476Y-105479938D02*
X205762857Y-105527557D01*
X205381904Y-105527557D02*
X205334285Y-105479938D01*
X205334285Y-105479938D02*
X205239047Y-105432319D01*
X205239047Y-105432319D02*
X205000952Y-105432319D01*
X205000952Y-105432319D02*
X204905714Y-105479938D01*
X204905714Y-105479938D02*
X204858095Y-105527557D01*
X204858095Y-105527557D02*
X204810476Y-105622795D01*
X204810476Y-105622795D02*
X204810476Y-105718033D01*
X204810476Y-105718033D02*
X204858095Y-105860890D01*
X204858095Y-105860890D02*
X205429523Y-106432319D01*
X205429523Y-106432319D02*
X204810476Y-106432319D01*
X203858095Y-106432319D02*
X204429523Y-106432319D01*
X204143809Y-106432319D02*
X204143809Y-105432319D01*
X204143809Y-105432319D02*
X204239047Y-105575176D01*
X204239047Y-105575176D02*
X204334285Y-105670414D01*
X204334285Y-105670414D02*
X204429523Y-105718033D01*
X216467857Y-99734580D02*
X216515476Y-99782200D01*
X216515476Y-99782200D02*
X216658333Y-99829819D01*
X216658333Y-99829819D02*
X216753571Y-99829819D01*
X216753571Y-99829819D02*
X216896428Y-99782200D01*
X216896428Y-99782200D02*
X216991666Y-99686961D01*
X216991666Y-99686961D02*
X217039285Y-99591723D01*
X217039285Y-99591723D02*
X217086904Y-99401247D01*
X217086904Y-99401247D02*
X217086904Y-99258390D01*
X217086904Y-99258390D02*
X217039285Y-99067914D01*
X217039285Y-99067914D02*
X216991666Y-98972676D01*
X216991666Y-98972676D02*
X216896428Y-98877438D01*
X216896428Y-98877438D02*
X216753571Y-98829819D01*
X216753571Y-98829819D02*
X216658333Y-98829819D01*
X216658333Y-98829819D02*
X216515476Y-98877438D01*
X216515476Y-98877438D02*
X216467857Y-98925057D01*
X216086904Y-98925057D02*
X216039285Y-98877438D01*
X216039285Y-98877438D02*
X215944047Y-98829819D01*
X215944047Y-98829819D02*
X215705952Y-98829819D01*
X215705952Y-98829819D02*
X215610714Y-98877438D01*
X215610714Y-98877438D02*
X215563095Y-98925057D01*
X215563095Y-98925057D02*
X215515476Y-99020295D01*
X215515476Y-99020295D02*
X215515476Y-99115533D01*
X215515476Y-99115533D02*
X215563095Y-99258390D01*
X215563095Y-99258390D02*
X216134523Y-99829819D01*
X216134523Y-99829819D02*
X215515476Y-99829819D01*
X214896428Y-98829819D02*
X214801190Y-98829819D01*
X214801190Y-98829819D02*
X214705952Y-98877438D01*
X214705952Y-98877438D02*
X214658333Y-98925057D01*
X214658333Y-98925057D02*
X214610714Y-99020295D01*
X214610714Y-99020295D02*
X214563095Y-99210771D01*
X214563095Y-99210771D02*
X214563095Y-99448866D01*
X214563095Y-99448866D02*
X214610714Y-99639342D01*
X214610714Y-99639342D02*
X214658333Y-99734580D01*
X214658333Y-99734580D02*
X214705952Y-99782200D01*
X214705952Y-99782200D02*
X214801190Y-99829819D01*
X214801190Y-99829819D02*
X214896428Y-99829819D01*
X214896428Y-99829819D02*
X214991666Y-99782200D01*
X214991666Y-99782200D02*
X215039285Y-99734580D01*
X215039285Y-99734580D02*
X215086904Y-99639342D01*
X215086904Y-99639342D02*
X215134523Y-99448866D01*
X215134523Y-99448866D02*
X215134523Y-99210771D01*
X215134523Y-99210771D02*
X215086904Y-99020295D01*
X215086904Y-99020295D02*
X215039285Y-98925057D01*
X215039285Y-98925057D02*
X214991666Y-98877438D01*
X214991666Y-98877438D02*
X214896428Y-98829819D01*
X202671844Y-98114393D02*
X202709940Y-98076297D01*
X202709940Y-98076297D02*
X202748035Y-97962012D01*
X202748035Y-97962012D02*
X202748035Y-97885821D01*
X202748035Y-97885821D02*
X202709940Y-97771535D01*
X202709940Y-97771535D02*
X202633749Y-97695345D01*
X202633749Y-97695345D02*
X202557559Y-97657250D01*
X202557559Y-97657250D02*
X202405178Y-97619154D01*
X202405178Y-97619154D02*
X202290892Y-97619154D01*
X202290892Y-97619154D02*
X202138511Y-97657250D01*
X202138511Y-97657250D02*
X202062320Y-97695345D01*
X202062320Y-97695345D02*
X201986130Y-97771535D01*
X201986130Y-97771535D02*
X201948035Y-97885821D01*
X201948035Y-97885821D02*
X201948035Y-97962012D01*
X201948035Y-97962012D02*
X201986130Y-98076297D01*
X201986130Y-98076297D02*
X202024225Y-98114393D01*
X202748035Y-98876297D02*
X202748035Y-98419154D01*
X202748035Y-98647726D02*
X201948035Y-98647726D01*
X201948035Y-98647726D02*
X202062320Y-98571535D01*
X202062320Y-98571535D02*
X202138511Y-98495345D01*
X202138511Y-98495345D02*
X202176606Y-98419154D01*
X193066666Y-111784819D02*
X193399999Y-111308628D01*
X193638094Y-111784819D02*
X193638094Y-110784819D01*
X193638094Y-110784819D02*
X193257142Y-110784819D01*
X193257142Y-110784819D02*
X193161904Y-110832438D01*
X193161904Y-110832438D02*
X193114285Y-110880057D01*
X193114285Y-110880057D02*
X193066666Y-110975295D01*
X193066666Y-110975295D02*
X193066666Y-111118152D01*
X193066666Y-111118152D02*
X193114285Y-111213390D01*
X193114285Y-111213390D02*
X193161904Y-111261009D01*
X193161904Y-111261009D02*
X193257142Y-111308628D01*
X193257142Y-111308628D02*
X193638094Y-111308628D01*
X192495237Y-111213390D02*
X192590475Y-111165771D01*
X192590475Y-111165771D02*
X192638094Y-111118152D01*
X192638094Y-111118152D02*
X192685713Y-111022914D01*
X192685713Y-111022914D02*
X192685713Y-110975295D01*
X192685713Y-110975295D02*
X192638094Y-110880057D01*
X192638094Y-110880057D02*
X192590475Y-110832438D01*
X192590475Y-110832438D02*
X192495237Y-110784819D01*
X192495237Y-110784819D02*
X192304761Y-110784819D01*
X192304761Y-110784819D02*
X192209523Y-110832438D01*
X192209523Y-110832438D02*
X192161904Y-110880057D01*
X192161904Y-110880057D02*
X192114285Y-110975295D01*
X192114285Y-110975295D02*
X192114285Y-111022914D01*
X192114285Y-111022914D02*
X192161904Y-111118152D01*
X192161904Y-111118152D02*
X192209523Y-111165771D01*
X192209523Y-111165771D02*
X192304761Y-111213390D01*
X192304761Y-111213390D02*
X192495237Y-111213390D01*
X192495237Y-111213390D02*
X192590475Y-111261009D01*
X192590475Y-111261009D02*
X192638094Y-111308628D01*
X192638094Y-111308628D02*
X192685713Y-111403866D01*
X192685713Y-111403866D02*
X192685713Y-111594342D01*
X192685713Y-111594342D02*
X192638094Y-111689580D01*
X192638094Y-111689580D02*
X192590475Y-111737200D01*
X192590475Y-111737200D02*
X192495237Y-111784819D01*
X192495237Y-111784819D02*
X192304761Y-111784819D01*
X192304761Y-111784819D02*
X192209523Y-111737200D01*
X192209523Y-111737200D02*
X192161904Y-111689580D01*
X192161904Y-111689580D02*
X192114285Y-111594342D01*
X192114285Y-111594342D02*
X192114285Y-111403866D01*
X192114285Y-111403866D02*
X192161904Y-111308628D01*
X192161904Y-111308628D02*
X192209523Y-111261009D01*
X192209523Y-111261009D02*
X192304761Y-111213390D01*
X204616666Y-102712080D02*
X204664285Y-102759700D01*
X204664285Y-102759700D02*
X204807142Y-102807319D01*
X204807142Y-102807319D02*
X204902380Y-102807319D01*
X204902380Y-102807319D02*
X205045237Y-102759700D01*
X205045237Y-102759700D02*
X205140475Y-102664461D01*
X205140475Y-102664461D02*
X205188094Y-102569223D01*
X205188094Y-102569223D02*
X205235713Y-102378747D01*
X205235713Y-102378747D02*
X205235713Y-102235890D01*
X205235713Y-102235890D02*
X205188094Y-102045414D01*
X205188094Y-102045414D02*
X205140475Y-101950176D01*
X205140475Y-101950176D02*
X205045237Y-101854938D01*
X205045237Y-101854938D02*
X204902380Y-101807319D01*
X204902380Y-101807319D02*
X204807142Y-101807319D01*
X204807142Y-101807319D02*
X204664285Y-101854938D01*
X204664285Y-101854938D02*
X204616666Y-101902557D01*
X204283332Y-101807319D02*
X203616666Y-101807319D01*
X203616666Y-101807319D02*
X204045237Y-102807319D01*
D11*
%TO.C,C15*%
X189330000Y-114093733D02*
X189330000Y-114386267D01*
X190350000Y-114093733D02*
X190350000Y-114386267D01*
%TO.C,C33*%
X215077500Y-106108767D02*
X215077500Y-105816233D01*
X216097500Y-106108767D02*
X216097500Y-105816233D01*
%TO.C,L4*%
X209497742Y-107902500D02*
X208677258Y-107902500D01*
X209497742Y-109022500D02*
X208677258Y-109022500D01*
%TO.C,C2*%
X198115000Y-98213748D02*
X198115000Y-98736252D01*
X199585000Y-98213748D02*
X199585000Y-98736252D01*
%TO.C,C24*%
X203578748Y-111905000D02*
X204101252Y-111905000D01*
X203578748Y-113375000D02*
X204101252Y-113375000D01*
%TO.C,C38*%
X180440000Y-111553733D02*
X180440000Y-111846267D01*
X181460000Y-111553733D02*
X181460000Y-111846267D01*
%TO.C,L3*%
X202260000Y-115309758D02*
X202260000Y-116130242D01*
X203380000Y-115309758D02*
X203380000Y-116130242D01*
%TO.C,C22*%
X203995000Y-115931252D02*
X203995000Y-115408748D01*
X205465000Y-115931252D02*
X205465000Y-115408748D01*
%TO.C,C47*%
X192086267Y-118070000D02*
X191793733Y-118070000D01*
X192086267Y-119090000D02*
X191793733Y-119090000D01*
%TO.C,C4*%
X204606267Y-98120000D02*
X204313733Y-98120000D01*
X204606267Y-99140000D02*
X204313733Y-99140000D01*
%TO.C,C28*%
X212941233Y-108202500D02*
X213233767Y-108202500D01*
X212941233Y-109222500D02*
X213233767Y-109222500D01*
%TO.C,TP4*%
X192700000Y-123950000D02*
G75*
G02*
X189800000Y-123950000I-1450000J0D01*
G01*
X189800000Y-123950000D02*
G75*
G02*
X192700000Y-123950000I1450000J0D01*
G01*
%TO.C,TP7*%
X196000000Y-104500000D02*
G75*
G02*
X193100000Y-104500000I-1450000J0D01*
G01*
X193100000Y-104500000D02*
G75*
G02*
X196000000Y-104500000I1450000J0D01*
G01*
%TO.C,C37*%
X180520000Y-120113733D02*
X180520000Y-120406267D01*
X181540000Y-120113733D02*
X181540000Y-120406267D01*
%TO.C,C16*%
X179990000Y-116333767D02*
X179990000Y-116041233D01*
X181010000Y-116333767D02*
X181010000Y-116041233D01*
%TO.C,C27*%
X209352500Y-105723752D02*
X209352500Y-105201248D01*
X210822500Y-105723752D02*
X210822500Y-105201248D01*
%TO.C,L1*%
X199064758Y-95090000D02*
X199885242Y-95090000D01*
X199064758Y-96210000D02*
X199885242Y-96210000D01*
%TO.C,C17*%
X178440000Y-116333767D02*
X178440000Y-116041233D01*
X179460000Y-116333767D02*
X179460000Y-116041233D01*
%TO.C,C35*%
X214641233Y-102140000D02*
X214933767Y-102140000D01*
X214641233Y-103160000D02*
X214933767Y-103160000D01*
%TO.C,TP3*%
X213650000Y-97225000D02*
G75*
G02*
X210750000Y-97225000I-1450000J0D01*
G01*
X210750000Y-97225000D02*
G75*
G02*
X213650000Y-97225000I1450000J0D01*
G01*
%TO.C,C23*%
X199903733Y-111115000D02*
X200196267Y-111115000D01*
X199903733Y-112135000D02*
X200196267Y-112135000D01*
%TO.C,C45*%
X180463733Y-107850000D02*
X180756267Y-107850000D01*
X180463733Y-108870000D02*
X180756267Y-108870000D01*
D12*
%TO.C,H4*%
X178776152Y-93370000D02*
G75*
G02*
X166776152Y-93370000I-6000000J0D01*
G01*
X166776152Y-93370000D02*
G75*
G02*
X178776152Y-93370000I6000000J0D01*
G01*
D11*
%TO.C,U4*%
X211327500Y-104690000D02*
X211327500Y-106510000D01*
X211327500Y-106510000D02*
X211377500Y-106510000D01*
X211377500Y-104690000D02*
X211327500Y-104690000D01*
X212497500Y-106510000D02*
X213277500Y-106510000D01*
X214397500Y-106510000D02*
X214447500Y-106510000D01*
X214447500Y-104690000D02*
X214397500Y-104690000D01*
X214447500Y-106510000D02*
X214447500Y-104690000D01*
X211377500Y-104150000D02*
X211047500Y-104390000D01*
X211047500Y-103910000D01*
X211377500Y-104150000D01*
G36*
X211377500Y-104150000D02*
G01*
X211047500Y-104390000D01*
X211047500Y-103910000D01*
X211377500Y-104150000D01*
G37*
%TO.C,L2*%
X208027258Y-99552500D02*
X208847742Y-99552500D01*
X208027258Y-100672500D02*
X208847742Y-100672500D01*
%TO.C,C3*%
X203425000Y-96261252D02*
X203425000Y-95738748D01*
X204895000Y-96261252D02*
X204895000Y-95738748D01*
D12*
%TO.C,H5*%
X178700000Y-121025000D02*
G75*
G02*
X166700000Y-121025000I-6000000J0D01*
G01*
X166700000Y-121025000D02*
G75*
G02*
X178700000Y-121025000I6000000J0D01*
G01*
D11*
%TO.C,R9*%
X189995276Y-107477500D02*
X190504724Y-107477500D01*
X189995276Y-108522500D02*
X190504724Y-108522500D01*
%TO.C,H1*%
X204950000Y-119250000D02*
G75*
G02*
X202550000Y-119250000I-1200000J0D01*
G01*
X202550000Y-119250000D02*
G75*
G02*
X204950000Y-119250000I1200000J0D01*
G01*
%TO.C,C26*%
X195890000Y-121653733D02*
X195890000Y-121946267D01*
X196910000Y-121653733D02*
X196910000Y-121946267D01*
%TO.C,U2*%
X206315000Y-94302500D02*
X206315000Y-94352500D01*
X206315000Y-97372500D02*
X206315000Y-97422500D01*
X206315000Y-97422500D02*
X208135000Y-97422500D01*
X208135000Y-94302500D02*
X206315000Y-94302500D01*
X208135000Y-94352500D02*
X208135000Y-94302500D01*
X208135000Y-96252500D02*
X208135000Y-95472500D01*
X208135000Y-97422500D02*
X208135000Y-97372500D01*
X206015000Y-97702500D02*
X205535000Y-97702500D01*
X205775000Y-97372500D01*
X206015000Y-97702500D01*
G36*
X206015000Y-97702500D02*
G01*
X205535000Y-97702500D01*
X205775000Y-97372500D01*
X206015000Y-97702500D01*
G37*
%TO.C,R3*%
X185654724Y-112864670D02*
X185145276Y-112864670D01*
X185654724Y-113909670D02*
X185145276Y-113909670D01*
%TO.C,C43*%
X178940000Y-111553733D02*
X178940000Y-111846267D01*
X179960000Y-111553733D02*
X179960000Y-111846267D01*
%TO.C,H3*%
X201360000Y-114010000D02*
G75*
G02*
X198960000Y-114010000I-1200000J0D01*
G01*
X198960000Y-114010000D02*
G75*
G02*
X201360000Y-114010000I1200000J0D01*
G01*
%TO.C,R10*%
X189995276Y-108977500D02*
X190504724Y-108977500D01*
X189995276Y-110022500D02*
X190504724Y-110022500D01*
%TO.C,C25*%
X207352500Y-105723752D02*
X207352500Y-105201248D01*
X208822500Y-105723752D02*
X208822500Y-105201248D01*
%TO.C,H2*%
X206990000Y-120380000D02*
G75*
G02*
X204590000Y-120380000I-1200000J0D01*
G01*
X204590000Y-120380000D02*
G75*
G02*
X206990000Y-120380000I1200000J0D01*
G01*
%TO.C,C8*%
X182040000Y-118683733D02*
X182040000Y-118976267D01*
X183060000Y-118683733D02*
X183060000Y-118976267D01*
%TO.C,R11*%
X185654724Y-114364670D02*
X185145276Y-114364670D01*
X185654724Y-115409670D02*
X185145276Y-115409670D01*
%TO.C,C9*%
X183500000Y-118986267D02*
X183500000Y-118693733D01*
X184520000Y-118986267D02*
X184520000Y-118693733D01*
%TO.C,C12*%
X181930000Y-113206267D02*
X181930000Y-112913733D01*
X182950000Y-113206267D02*
X182950000Y-112913733D01*
%TO.C,C10*%
X183490000Y-111008767D02*
X183490000Y-110716233D01*
X184510000Y-111008767D02*
X184510000Y-110716233D01*
%TO.C,C6*%
X202090000Y-109146267D02*
X202090000Y-108853733D01*
X203110000Y-109146267D02*
X203110000Y-108853733D01*
%TO.C,R4*%
X185654724Y-115864670D02*
X185145276Y-115864670D01*
X185654724Y-116909670D02*
X185145276Y-116909670D01*
%TO.C,U5*%
X198490000Y-107915000D02*
X198490000Y-109735000D01*
X198490000Y-109735000D02*
X198540000Y-109735000D01*
X198540000Y-107915000D02*
X198490000Y-107915000D01*
X199660000Y-109735000D02*
X200440000Y-109735000D01*
X201560000Y-109735000D02*
X201610000Y-109735000D01*
X201610000Y-107915000D02*
X201560000Y-107915000D01*
X201610000Y-109735000D02*
X201610000Y-107915000D01*
X198540000Y-107375000D02*
X198210000Y-107615000D01*
X198210000Y-107135000D01*
X198540000Y-107375000D01*
G36*
X198540000Y-107375000D02*
G01*
X198210000Y-107615000D01*
X198210000Y-107135000D01*
X198540000Y-107375000D01*
G37*
%TO.C,C44*%
X183500000Y-107353733D02*
X183500000Y-107646267D01*
X184520000Y-107353733D02*
X184520000Y-107646267D01*
%TO.C,C46*%
X179020000Y-120113733D02*
X179020000Y-120406267D01*
X180040000Y-120113733D02*
X180040000Y-120406267D01*
%TO.C,TP2*%
X191970000Y-96410000D02*
G75*
G02*
X189070000Y-96410000I-1450000J0D01*
G01*
X189070000Y-96410000D02*
G75*
G02*
X191970000Y-96410000I1450000J0D01*
G01*
%TO.C,OSC2*%
X190615000Y-112500000D02*
X194985000Y-112500000D01*
X194985000Y-112500000D02*
X194985000Y-117720000D01*
%TO.C,C5*%
X207121267Y-92852500D02*
X206828733Y-92852500D01*
X207121267Y-93872500D02*
X206828733Y-93872500D01*
%TO.C,C21*%
X201903733Y-105440000D02*
X202196267Y-105440000D01*
X201903733Y-106460000D02*
X202196267Y-106460000D01*
%TO.C,C20*%
X212176248Y-99377500D02*
X212698752Y-99377500D01*
X212176248Y-100847500D02*
X212698752Y-100847500D01*
%TO.C,C1*%
X201790000Y-95946267D02*
X201790000Y-95653733D01*
X202810000Y-95946267D02*
X202810000Y-95653733D01*
%TO.C,R8*%
X190464724Y-110767500D02*
X189955276Y-110767500D01*
X190464724Y-111812500D02*
X189955276Y-111812500D01*
%TO.C,C7*%
X204761252Y-99705000D02*
X204238748Y-99705000D01*
X204761252Y-101175000D02*
X204238748Y-101175000D01*
%TD*%
M02*
