%TF.GenerationSoftware,KiCad,Pcbnew,9.0.6*%
%TF.CreationDate,2026-05-16T16:18:29-04:00*%
%TF.ProjectId,EMG_PCB,454d475f-5043-4422-9e6b-696361645f70,rev?*%
%TF.SameCoordinates,Original*%
%TF.FileFunction,Legend,Top*%
%TF.FilePolarity,Positive*%
%FSLAX46Y46*%
G04 Gerber Fmt 4.6, Leading zero omitted, Abs format (unit mm)*
G04 Created by KiCad (PCBNEW 9.0.6) date 2026-05-16 16:18:29*
%MOMM*%
%LPD*%
G01*
G04 APERTURE LIST*
%ADD10C,0.100000*%
%ADD11C,0.150000*%
%ADD12C,0.120000*%
%ADD13C,0.127000*%
%ADD14C,0.200000*%
G04 APERTURE END LIST*
D10*
X183700000Y-101865000D02*
X183700000Y-99700000D01*
D11*
X214410180Y-89547255D02*
X214410180Y-89737731D01*
X214410180Y-89737731D02*
X214362561Y-89832969D01*
X214362561Y-89832969D02*
X214267323Y-89928207D01*
X214267323Y-89928207D02*
X214076847Y-89975826D01*
X214076847Y-89975826D02*
X213743514Y-89975826D01*
X213743514Y-89975826D02*
X213553038Y-89928207D01*
X213553038Y-89928207D02*
X213457800Y-89832969D01*
X213457800Y-89832969D02*
X213410180Y-89737731D01*
X213410180Y-89737731D02*
X213410180Y-89547255D01*
X213410180Y-89547255D02*
X213457800Y-89452017D01*
X213457800Y-89452017D02*
X213553038Y-89356779D01*
X213553038Y-89356779D02*
X213743514Y-89309160D01*
X213743514Y-89309160D02*
X214076847Y-89309160D01*
X214076847Y-89309160D02*
X214267323Y-89356779D01*
X214267323Y-89356779D02*
X214362561Y-89452017D01*
X214362561Y-89452017D02*
X214410180Y-89547255D01*
X213933990Y-90737731D02*
X213933990Y-90404398D01*
X213410180Y-90404398D02*
X214410180Y-90404398D01*
X214410180Y-90404398D02*
X214410180Y-90880588D01*
X213933990Y-91594874D02*
X213933990Y-91261541D01*
X213410180Y-91261541D02*
X214410180Y-91261541D01*
X214410180Y-91261541D02*
X214410180Y-91737731D01*
X204950180Y-95553922D02*
X203950180Y-95887255D01*
X203950180Y-95887255D02*
X204950180Y-96220588D01*
X204473990Y-96887255D02*
X204426371Y-97030112D01*
X204426371Y-97030112D02*
X204378752Y-97077731D01*
X204378752Y-97077731D02*
X204283514Y-97125350D01*
X204283514Y-97125350D02*
X204140657Y-97125350D01*
X204140657Y-97125350D02*
X204045419Y-97077731D01*
X204045419Y-97077731D02*
X203997800Y-97030112D01*
X203997800Y-97030112D02*
X203950180Y-96934874D01*
X203950180Y-96934874D02*
X203950180Y-96553922D01*
X203950180Y-96553922D02*
X204950180Y-96553922D01*
X204950180Y-96553922D02*
X204950180Y-96887255D01*
X204950180Y-96887255D02*
X204902561Y-96982493D01*
X204902561Y-96982493D02*
X204854942Y-97030112D01*
X204854942Y-97030112D02*
X204759704Y-97077731D01*
X204759704Y-97077731D02*
X204664466Y-97077731D01*
X204664466Y-97077731D02*
X204569228Y-97030112D01*
X204569228Y-97030112D02*
X204521609Y-96982493D01*
X204521609Y-96982493D02*
X204473990Y-96887255D01*
X204473990Y-96887255D02*
X204473990Y-96553922D01*
X204950180Y-97553922D02*
X204140657Y-97553922D01*
X204140657Y-97553922D02*
X204045419Y-97601541D01*
X204045419Y-97601541D02*
X203997800Y-97649160D01*
X203997800Y-97649160D02*
X203950180Y-97744398D01*
X203950180Y-97744398D02*
X203950180Y-97934874D01*
X203950180Y-97934874D02*
X203997800Y-98030112D01*
X203997800Y-98030112D02*
X204045419Y-98077731D01*
X204045419Y-98077731D02*
X204140657Y-98125350D01*
X204140657Y-98125350D02*
X204950180Y-98125350D01*
X203997800Y-98553922D02*
X203950180Y-98696779D01*
X203950180Y-98696779D02*
X203950180Y-98934874D01*
X203950180Y-98934874D02*
X203997800Y-99030112D01*
X203997800Y-99030112D02*
X204045419Y-99077731D01*
X204045419Y-99077731D02*
X204140657Y-99125350D01*
X204140657Y-99125350D02*
X204235895Y-99125350D01*
X204235895Y-99125350D02*
X204331133Y-99077731D01*
X204331133Y-99077731D02*
X204378752Y-99030112D01*
X204378752Y-99030112D02*
X204426371Y-98934874D01*
X204426371Y-98934874D02*
X204473990Y-98744398D01*
X204473990Y-98744398D02*
X204521609Y-98649160D01*
X204521609Y-98649160D02*
X204569228Y-98601541D01*
X204569228Y-98601541D02*
X204664466Y-98553922D01*
X204664466Y-98553922D02*
X204759704Y-98553922D01*
X204759704Y-98553922D02*
X204854942Y-98601541D01*
X204854942Y-98601541D02*
X204902561Y-98649160D01*
X204902561Y-98649160D02*
X204950180Y-98744398D01*
X204950180Y-98744398D02*
X204950180Y-98982493D01*
X204950180Y-98982493D02*
X204902561Y-99125350D01*
X206380180Y-89807255D02*
X206380180Y-89997731D01*
X206380180Y-89997731D02*
X206332561Y-90092969D01*
X206332561Y-90092969D02*
X206237323Y-90188207D01*
X206237323Y-90188207D02*
X206046847Y-90235826D01*
X206046847Y-90235826D02*
X205713514Y-90235826D01*
X205713514Y-90235826D02*
X205523038Y-90188207D01*
X205523038Y-90188207D02*
X205427800Y-90092969D01*
X205427800Y-90092969D02*
X205380180Y-89997731D01*
X205380180Y-89997731D02*
X205380180Y-89807255D01*
X205380180Y-89807255D02*
X205427800Y-89712017D01*
X205427800Y-89712017D02*
X205523038Y-89616779D01*
X205523038Y-89616779D02*
X205713514Y-89569160D01*
X205713514Y-89569160D02*
X206046847Y-89569160D01*
X206046847Y-89569160D02*
X206237323Y-89616779D01*
X206237323Y-89616779D02*
X206332561Y-89712017D01*
X206332561Y-89712017D02*
X206380180Y-89807255D01*
X205380180Y-90664398D02*
X206380180Y-90664398D01*
X206380180Y-90664398D02*
X205380180Y-91235826D01*
X205380180Y-91235826D02*
X206380180Y-91235826D01*
X169903333Y-114004819D02*
X169570000Y-113528628D01*
X169331905Y-114004819D02*
X169331905Y-113004819D01*
X169331905Y-113004819D02*
X169712857Y-113004819D01*
X169712857Y-113004819D02*
X169808095Y-113052438D01*
X169808095Y-113052438D02*
X169855714Y-113100057D01*
X169855714Y-113100057D02*
X169903333Y-113195295D01*
X169903333Y-113195295D02*
X169903333Y-113338152D01*
X169903333Y-113338152D02*
X169855714Y-113433390D01*
X169855714Y-113433390D02*
X169808095Y-113481009D01*
X169808095Y-113481009D02*
X169712857Y-113528628D01*
X169712857Y-113528628D02*
X169331905Y-113528628D01*
X170760476Y-113004819D02*
X170570000Y-113004819D01*
X170570000Y-113004819D02*
X170474762Y-113052438D01*
X170474762Y-113052438D02*
X170427143Y-113100057D01*
X170427143Y-113100057D02*
X170331905Y-113242914D01*
X170331905Y-113242914D02*
X170284286Y-113433390D01*
X170284286Y-113433390D02*
X170284286Y-113814342D01*
X170284286Y-113814342D02*
X170331905Y-113909580D01*
X170331905Y-113909580D02*
X170379524Y-113957200D01*
X170379524Y-113957200D02*
X170474762Y-114004819D01*
X170474762Y-114004819D02*
X170665238Y-114004819D01*
X170665238Y-114004819D02*
X170760476Y-113957200D01*
X170760476Y-113957200D02*
X170808095Y-113909580D01*
X170808095Y-113909580D02*
X170855714Y-113814342D01*
X170855714Y-113814342D02*
X170855714Y-113576247D01*
X170855714Y-113576247D02*
X170808095Y-113481009D01*
X170808095Y-113481009D02*
X170760476Y-113433390D01*
X170760476Y-113433390D02*
X170665238Y-113385771D01*
X170665238Y-113385771D02*
X170474762Y-113385771D01*
X170474762Y-113385771D02*
X170379524Y-113433390D01*
X170379524Y-113433390D02*
X170331905Y-113481009D01*
X170331905Y-113481009D02*
X170284286Y-113576247D01*
X171047319Y-111678094D02*
X171856842Y-111678094D01*
X171856842Y-111678094D02*
X171952080Y-111630475D01*
X171952080Y-111630475D02*
X171999700Y-111582856D01*
X171999700Y-111582856D02*
X172047319Y-111487618D01*
X172047319Y-111487618D02*
X172047319Y-111297142D01*
X172047319Y-111297142D02*
X171999700Y-111201904D01*
X171999700Y-111201904D02*
X171952080Y-111154285D01*
X171952080Y-111154285D02*
X171856842Y-111106666D01*
X171856842Y-111106666D02*
X171047319Y-111106666D01*
X172047319Y-110106666D02*
X172047319Y-110678094D01*
X172047319Y-110392380D02*
X171047319Y-110392380D01*
X171047319Y-110392380D02*
X171190176Y-110487618D01*
X171190176Y-110487618D02*
X171285414Y-110582856D01*
X171285414Y-110582856D02*
X171333033Y-110678094D01*
X172047319Y-109154285D02*
X172047319Y-109725713D01*
X172047319Y-109439999D02*
X171047319Y-109439999D01*
X171047319Y-109439999D02*
X171190176Y-109535237D01*
X171190176Y-109535237D02*
X171285414Y-109630475D01*
X171285414Y-109630475D02*
X171333033Y-109725713D01*
X171643333Y-106954819D02*
X171310000Y-106478628D01*
X171071905Y-106954819D02*
X171071905Y-105954819D01*
X171071905Y-105954819D02*
X171452857Y-105954819D01*
X171452857Y-105954819D02*
X171548095Y-106002438D01*
X171548095Y-106002438D02*
X171595714Y-106050057D01*
X171595714Y-106050057D02*
X171643333Y-106145295D01*
X171643333Y-106145295D02*
X171643333Y-106288152D01*
X171643333Y-106288152D02*
X171595714Y-106383390D01*
X171595714Y-106383390D02*
X171548095Y-106431009D01*
X171548095Y-106431009D02*
X171452857Y-106478628D01*
X171452857Y-106478628D02*
X171071905Y-106478628D01*
X172595714Y-106954819D02*
X172024286Y-106954819D01*
X172310000Y-106954819D02*
X172310000Y-105954819D01*
X172310000Y-105954819D02*
X172214762Y-106097676D01*
X172214762Y-106097676D02*
X172119524Y-106192914D01*
X172119524Y-106192914D02*
X172024286Y-106240533D01*
X209566666Y-100934819D02*
X209566666Y-101649104D01*
X209566666Y-101649104D02*
X209519047Y-101791961D01*
X209519047Y-101791961D02*
X209423809Y-101887200D01*
X209423809Y-101887200D02*
X209280952Y-101934819D01*
X209280952Y-101934819D02*
X209185714Y-101934819D01*
X210566666Y-101934819D02*
X209995238Y-101934819D01*
X210280952Y-101934819D02*
X210280952Y-100934819D01*
X210280952Y-100934819D02*
X210185714Y-101077676D01*
X210185714Y-101077676D02*
X210090476Y-101172914D01*
X210090476Y-101172914D02*
X209995238Y-101220533D01*
X191997142Y-97684819D02*
X191663809Y-97208628D01*
X191425714Y-97684819D02*
X191425714Y-96684819D01*
X191425714Y-96684819D02*
X191806666Y-96684819D01*
X191806666Y-96684819D02*
X191901904Y-96732438D01*
X191901904Y-96732438D02*
X191949523Y-96780057D01*
X191949523Y-96780057D02*
X191997142Y-96875295D01*
X191997142Y-96875295D02*
X191997142Y-97018152D01*
X191997142Y-97018152D02*
X191949523Y-97113390D01*
X191949523Y-97113390D02*
X191901904Y-97161009D01*
X191901904Y-97161009D02*
X191806666Y-97208628D01*
X191806666Y-97208628D02*
X191425714Y-97208628D01*
X192949523Y-97684819D02*
X192378095Y-97684819D01*
X192663809Y-97684819D02*
X192663809Y-96684819D01*
X192663809Y-96684819D02*
X192568571Y-96827676D01*
X192568571Y-96827676D02*
X192473333Y-96922914D01*
X192473333Y-96922914D02*
X192378095Y-96970533D01*
X193282857Y-96684819D02*
X193949523Y-96684819D01*
X193949523Y-96684819D02*
X193520952Y-97684819D01*
X200562295Y-92154285D02*
X200181342Y-92420952D01*
X200562295Y-92611428D02*
X199762295Y-92611428D01*
X199762295Y-92611428D02*
X199762295Y-92306666D01*
X199762295Y-92306666D02*
X199800390Y-92230476D01*
X199800390Y-92230476D02*
X199838485Y-92192381D01*
X199838485Y-92192381D02*
X199914676Y-92154285D01*
X199914676Y-92154285D02*
X200028961Y-92154285D01*
X200028961Y-92154285D02*
X200105152Y-92192381D01*
X200105152Y-92192381D02*
X200143247Y-92230476D01*
X200143247Y-92230476D02*
X200181342Y-92306666D01*
X200181342Y-92306666D02*
X200181342Y-92611428D01*
X200562295Y-91392381D02*
X200562295Y-91849524D01*
X200562295Y-91620952D02*
X199762295Y-91620952D01*
X199762295Y-91620952D02*
X199876580Y-91697143D01*
X199876580Y-91697143D02*
X199952771Y-91773333D01*
X199952771Y-91773333D02*
X199990866Y-91849524D01*
X200105152Y-90935238D02*
X200067057Y-91011428D01*
X200067057Y-91011428D02*
X200028961Y-91049523D01*
X200028961Y-91049523D02*
X199952771Y-91087619D01*
X199952771Y-91087619D02*
X199914676Y-91087619D01*
X199914676Y-91087619D02*
X199838485Y-91049523D01*
X199838485Y-91049523D02*
X199800390Y-91011428D01*
X199800390Y-91011428D02*
X199762295Y-90935238D01*
X199762295Y-90935238D02*
X199762295Y-90782857D01*
X199762295Y-90782857D02*
X199800390Y-90706666D01*
X199800390Y-90706666D02*
X199838485Y-90668571D01*
X199838485Y-90668571D02*
X199914676Y-90630476D01*
X199914676Y-90630476D02*
X199952771Y-90630476D01*
X199952771Y-90630476D02*
X200028961Y-90668571D01*
X200028961Y-90668571D02*
X200067057Y-90706666D01*
X200067057Y-90706666D02*
X200105152Y-90782857D01*
X200105152Y-90782857D02*
X200105152Y-90935238D01*
X200105152Y-90935238D02*
X200143247Y-91011428D01*
X200143247Y-91011428D02*
X200181342Y-91049523D01*
X200181342Y-91049523D02*
X200257533Y-91087619D01*
X200257533Y-91087619D02*
X200409914Y-91087619D01*
X200409914Y-91087619D02*
X200486104Y-91049523D01*
X200486104Y-91049523D02*
X200524200Y-91011428D01*
X200524200Y-91011428D02*
X200562295Y-90935238D01*
X200562295Y-90935238D02*
X200562295Y-90782857D01*
X200562295Y-90782857D02*
X200524200Y-90706666D01*
X200524200Y-90706666D02*
X200486104Y-90668571D01*
X200486104Y-90668571D02*
X200409914Y-90630476D01*
X200409914Y-90630476D02*
X200257533Y-90630476D01*
X200257533Y-90630476D02*
X200181342Y-90668571D01*
X200181342Y-90668571D02*
X200143247Y-90706666D01*
X200143247Y-90706666D02*
X200105152Y-90782857D01*
X175364819Y-109741904D02*
X176174342Y-109741904D01*
X176174342Y-109741904D02*
X176269580Y-109694285D01*
X176269580Y-109694285D02*
X176317200Y-109646666D01*
X176317200Y-109646666D02*
X176364819Y-109551428D01*
X176364819Y-109551428D02*
X176364819Y-109360952D01*
X176364819Y-109360952D02*
X176317200Y-109265714D01*
X176317200Y-109265714D02*
X176269580Y-109218095D01*
X176269580Y-109218095D02*
X176174342Y-109170476D01*
X176174342Y-109170476D02*
X175364819Y-109170476D01*
X175364819Y-108789523D02*
X175364819Y-108170476D01*
X175364819Y-108170476D02*
X175745771Y-108503809D01*
X175745771Y-108503809D02*
X175745771Y-108360952D01*
X175745771Y-108360952D02*
X175793390Y-108265714D01*
X175793390Y-108265714D02*
X175841009Y-108218095D01*
X175841009Y-108218095D02*
X175936247Y-108170476D01*
X175936247Y-108170476D02*
X176174342Y-108170476D01*
X176174342Y-108170476D02*
X176269580Y-108218095D01*
X176269580Y-108218095D02*
X176317200Y-108265714D01*
X176317200Y-108265714D02*
X176364819Y-108360952D01*
X176364819Y-108360952D02*
X176364819Y-108646666D01*
X176364819Y-108646666D02*
X176317200Y-108741904D01*
X176317200Y-108741904D02*
X176269580Y-108789523D01*
X167437142Y-105929580D02*
X167389523Y-105977200D01*
X167389523Y-105977200D02*
X167246666Y-106024819D01*
X167246666Y-106024819D02*
X167151428Y-106024819D01*
X167151428Y-106024819D02*
X167008571Y-105977200D01*
X167008571Y-105977200D02*
X166913333Y-105881961D01*
X166913333Y-105881961D02*
X166865714Y-105786723D01*
X166865714Y-105786723D02*
X166818095Y-105596247D01*
X166818095Y-105596247D02*
X166818095Y-105453390D01*
X166818095Y-105453390D02*
X166865714Y-105262914D01*
X166865714Y-105262914D02*
X166913333Y-105167676D01*
X166913333Y-105167676D02*
X167008571Y-105072438D01*
X167008571Y-105072438D02*
X167151428Y-105024819D01*
X167151428Y-105024819D02*
X167246666Y-105024819D01*
X167246666Y-105024819D02*
X167389523Y-105072438D01*
X167389523Y-105072438D02*
X167437142Y-105120057D01*
X168294285Y-105358152D02*
X168294285Y-106024819D01*
X168056190Y-104977200D02*
X167818095Y-105691485D01*
X167818095Y-105691485D02*
X168437142Y-105691485D01*
X169008571Y-105024819D02*
X169103809Y-105024819D01*
X169103809Y-105024819D02*
X169199047Y-105072438D01*
X169199047Y-105072438D02*
X169246666Y-105120057D01*
X169246666Y-105120057D02*
X169294285Y-105215295D01*
X169294285Y-105215295D02*
X169341904Y-105405771D01*
X169341904Y-105405771D02*
X169341904Y-105643866D01*
X169341904Y-105643866D02*
X169294285Y-105834342D01*
X169294285Y-105834342D02*
X169246666Y-105929580D01*
X169246666Y-105929580D02*
X169199047Y-105977200D01*
X169199047Y-105977200D02*
X169103809Y-106024819D01*
X169103809Y-106024819D02*
X169008571Y-106024819D01*
X169008571Y-106024819D02*
X168913333Y-105977200D01*
X168913333Y-105977200D02*
X168865714Y-105929580D01*
X168865714Y-105929580D02*
X168818095Y-105834342D01*
X168818095Y-105834342D02*
X168770476Y-105643866D01*
X168770476Y-105643866D02*
X168770476Y-105405771D01*
X168770476Y-105405771D02*
X168818095Y-105215295D01*
X168818095Y-105215295D02*
X168865714Y-105120057D01*
X168865714Y-105120057D02*
X168913333Y-105072438D01*
X168913333Y-105072438D02*
X169008571Y-105024819D01*
X179929580Y-102282857D02*
X179977200Y-102330476D01*
X179977200Y-102330476D02*
X180024819Y-102473333D01*
X180024819Y-102473333D02*
X180024819Y-102568571D01*
X180024819Y-102568571D02*
X179977200Y-102711428D01*
X179977200Y-102711428D02*
X179881961Y-102806666D01*
X179881961Y-102806666D02*
X179786723Y-102854285D01*
X179786723Y-102854285D02*
X179596247Y-102901904D01*
X179596247Y-102901904D02*
X179453390Y-102901904D01*
X179453390Y-102901904D02*
X179262914Y-102854285D01*
X179262914Y-102854285D02*
X179167676Y-102806666D01*
X179167676Y-102806666D02*
X179072438Y-102711428D01*
X179072438Y-102711428D02*
X179024819Y-102568571D01*
X179024819Y-102568571D02*
X179024819Y-102473333D01*
X179024819Y-102473333D02*
X179072438Y-102330476D01*
X179072438Y-102330476D02*
X179120057Y-102282857D01*
X179024819Y-101949523D02*
X179024819Y-101330476D01*
X179024819Y-101330476D02*
X179405771Y-101663809D01*
X179405771Y-101663809D02*
X179405771Y-101520952D01*
X179405771Y-101520952D02*
X179453390Y-101425714D01*
X179453390Y-101425714D02*
X179501009Y-101378095D01*
X179501009Y-101378095D02*
X179596247Y-101330476D01*
X179596247Y-101330476D02*
X179834342Y-101330476D01*
X179834342Y-101330476D02*
X179929580Y-101378095D01*
X179929580Y-101378095D02*
X179977200Y-101425714D01*
X179977200Y-101425714D02*
X180024819Y-101520952D01*
X180024819Y-101520952D02*
X180024819Y-101806666D01*
X180024819Y-101806666D02*
X179977200Y-101901904D01*
X179977200Y-101901904D02*
X179929580Y-101949523D01*
X179024819Y-100711428D02*
X179024819Y-100616190D01*
X179024819Y-100616190D02*
X179072438Y-100520952D01*
X179072438Y-100520952D02*
X179120057Y-100473333D01*
X179120057Y-100473333D02*
X179215295Y-100425714D01*
X179215295Y-100425714D02*
X179405771Y-100378095D01*
X179405771Y-100378095D02*
X179643866Y-100378095D01*
X179643866Y-100378095D02*
X179834342Y-100425714D01*
X179834342Y-100425714D02*
X179929580Y-100473333D01*
X179929580Y-100473333D02*
X179977200Y-100520952D01*
X179977200Y-100520952D02*
X180024819Y-100616190D01*
X180024819Y-100616190D02*
X180024819Y-100711428D01*
X180024819Y-100711428D02*
X179977200Y-100806666D01*
X179977200Y-100806666D02*
X179929580Y-100854285D01*
X179929580Y-100854285D02*
X179834342Y-100901904D01*
X179834342Y-100901904D02*
X179643866Y-100949523D01*
X179643866Y-100949523D02*
X179405771Y-100949523D01*
X179405771Y-100949523D02*
X179215295Y-100901904D01*
X179215295Y-100901904D02*
X179120057Y-100854285D01*
X179120057Y-100854285D02*
X179072438Y-100806666D01*
X179072438Y-100806666D02*
X179024819Y-100711428D01*
X186709580Y-101452857D02*
X186757200Y-101500476D01*
X186757200Y-101500476D02*
X186804819Y-101643333D01*
X186804819Y-101643333D02*
X186804819Y-101738571D01*
X186804819Y-101738571D02*
X186757200Y-101881428D01*
X186757200Y-101881428D02*
X186661961Y-101976666D01*
X186661961Y-101976666D02*
X186566723Y-102024285D01*
X186566723Y-102024285D02*
X186376247Y-102071904D01*
X186376247Y-102071904D02*
X186233390Y-102071904D01*
X186233390Y-102071904D02*
X186042914Y-102024285D01*
X186042914Y-102024285D02*
X185947676Y-101976666D01*
X185947676Y-101976666D02*
X185852438Y-101881428D01*
X185852438Y-101881428D02*
X185804819Y-101738571D01*
X185804819Y-101738571D02*
X185804819Y-101643333D01*
X185804819Y-101643333D02*
X185852438Y-101500476D01*
X185852438Y-101500476D02*
X185900057Y-101452857D01*
X186804819Y-100500476D02*
X186804819Y-101071904D01*
X186804819Y-100786190D02*
X185804819Y-100786190D01*
X185804819Y-100786190D02*
X185947676Y-100881428D01*
X185947676Y-100881428D02*
X186042914Y-100976666D01*
X186042914Y-100976666D02*
X186090533Y-101071904D01*
X186233390Y-99929047D02*
X186185771Y-100024285D01*
X186185771Y-100024285D02*
X186138152Y-100071904D01*
X186138152Y-100071904D02*
X186042914Y-100119523D01*
X186042914Y-100119523D02*
X185995295Y-100119523D01*
X185995295Y-100119523D02*
X185900057Y-100071904D01*
X185900057Y-100071904D02*
X185852438Y-100024285D01*
X185852438Y-100024285D02*
X185804819Y-99929047D01*
X185804819Y-99929047D02*
X185804819Y-99738571D01*
X185804819Y-99738571D02*
X185852438Y-99643333D01*
X185852438Y-99643333D02*
X185900057Y-99595714D01*
X185900057Y-99595714D02*
X185995295Y-99548095D01*
X185995295Y-99548095D02*
X186042914Y-99548095D01*
X186042914Y-99548095D02*
X186138152Y-99595714D01*
X186138152Y-99595714D02*
X186185771Y-99643333D01*
X186185771Y-99643333D02*
X186233390Y-99738571D01*
X186233390Y-99738571D02*
X186233390Y-99929047D01*
X186233390Y-99929047D02*
X186281009Y-100024285D01*
X186281009Y-100024285D02*
X186328628Y-100071904D01*
X186328628Y-100071904D02*
X186423866Y-100119523D01*
X186423866Y-100119523D02*
X186614342Y-100119523D01*
X186614342Y-100119523D02*
X186709580Y-100071904D01*
X186709580Y-100071904D02*
X186757200Y-100024285D01*
X186757200Y-100024285D02*
X186804819Y-99929047D01*
X186804819Y-99929047D02*
X186804819Y-99738571D01*
X186804819Y-99738571D02*
X186757200Y-99643333D01*
X186757200Y-99643333D02*
X186709580Y-99595714D01*
X186709580Y-99595714D02*
X186614342Y-99548095D01*
X186614342Y-99548095D02*
X186423866Y-99548095D01*
X186423866Y-99548095D02*
X186328628Y-99595714D01*
X186328628Y-99595714D02*
X186281009Y-99643333D01*
X186281009Y-99643333D02*
X186233390Y-99738571D01*
X174475714Y-125406104D02*
X174437618Y-125444200D01*
X174437618Y-125444200D02*
X174323333Y-125482295D01*
X174323333Y-125482295D02*
X174247142Y-125482295D01*
X174247142Y-125482295D02*
X174132856Y-125444200D01*
X174132856Y-125444200D02*
X174056666Y-125368009D01*
X174056666Y-125368009D02*
X174018571Y-125291819D01*
X174018571Y-125291819D02*
X173980475Y-125139438D01*
X173980475Y-125139438D02*
X173980475Y-125025152D01*
X173980475Y-125025152D02*
X174018571Y-124872771D01*
X174018571Y-124872771D02*
X174056666Y-124796580D01*
X174056666Y-124796580D02*
X174132856Y-124720390D01*
X174132856Y-124720390D02*
X174247142Y-124682295D01*
X174247142Y-124682295D02*
X174323333Y-124682295D01*
X174323333Y-124682295D02*
X174437618Y-124720390D01*
X174437618Y-124720390D02*
X174475714Y-124758485D01*
X175237618Y-125482295D02*
X174780475Y-125482295D01*
X175009047Y-125482295D02*
X175009047Y-124682295D01*
X175009047Y-124682295D02*
X174932856Y-124796580D01*
X174932856Y-124796580D02*
X174856666Y-124872771D01*
X174856666Y-124872771D02*
X174780475Y-124910866D01*
X175923333Y-124948961D02*
X175923333Y-125482295D01*
X175732857Y-124644200D02*
X175542380Y-125215628D01*
X175542380Y-125215628D02*
X176037619Y-125215628D01*
X191674819Y-94811904D02*
X192484342Y-94811904D01*
X192484342Y-94811904D02*
X192579580Y-94764285D01*
X192579580Y-94764285D02*
X192627200Y-94716666D01*
X192627200Y-94716666D02*
X192674819Y-94621428D01*
X192674819Y-94621428D02*
X192674819Y-94430952D01*
X192674819Y-94430952D02*
X192627200Y-94335714D01*
X192627200Y-94335714D02*
X192579580Y-94288095D01*
X192579580Y-94288095D02*
X192484342Y-94240476D01*
X192484342Y-94240476D02*
X191674819Y-94240476D01*
X192674819Y-93716666D02*
X192674819Y-93526190D01*
X192674819Y-93526190D02*
X192627200Y-93430952D01*
X192627200Y-93430952D02*
X192579580Y-93383333D01*
X192579580Y-93383333D02*
X192436723Y-93288095D01*
X192436723Y-93288095D02*
X192246247Y-93240476D01*
X192246247Y-93240476D02*
X191865295Y-93240476D01*
X191865295Y-93240476D02*
X191770057Y-93288095D01*
X191770057Y-93288095D02*
X191722438Y-93335714D01*
X191722438Y-93335714D02*
X191674819Y-93430952D01*
X191674819Y-93430952D02*
X191674819Y-93621428D01*
X191674819Y-93621428D02*
X191722438Y-93716666D01*
X191722438Y-93716666D02*
X191770057Y-93764285D01*
X191770057Y-93764285D02*
X191865295Y-93811904D01*
X191865295Y-93811904D02*
X192103390Y-93811904D01*
X192103390Y-93811904D02*
X192198628Y-93764285D01*
X192198628Y-93764285D02*
X192246247Y-93716666D01*
X192246247Y-93716666D02*
X192293866Y-93621428D01*
X192293866Y-93621428D02*
X192293866Y-93430952D01*
X192293866Y-93430952D02*
X192246247Y-93335714D01*
X192246247Y-93335714D02*
X192198628Y-93288095D01*
X192198628Y-93288095D02*
X192103390Y-93240476D01*
X182819580Y-102522857D02*
X182867200Y-102570476D01*
X182867200Y-102570476D02*
X182914819Y-102713333D01*
X182914819Y-102713333D02*
X182914819Y-102808571D01*
X182914819Y-102808571D02*
X182867200Y-102951428D01*
X182867200Y-102951428D02*
X182771961Y-103046666D01*
X182771961Y-103046666D02*
X182676723Y-103094285D01*
X182676723Y-103094285D02*
X182486247Y-103141904D01*
X182486247Y-103141904D02*
X182343390Y-103141904D01*
X182343390Y-103141904D02*
X182152914Y-103094285D01*
X182152914Y-103094285D02*
X182057676Y-103046666D01*
X182057676Y-103046666D02*
X181962438Y-102951428D01*
X181962438Y-102951428D02*
X181914819Y-102808571D01*
X181914819Y-102808571D02*
X181914819Y-102713333D01*
X181914819Y-102713333D02*
X181962438Y-102570476D01*
X181962438Y-102570476D02*
X182010057Y-102522857D01*
X182010057Y-102141904D02*
X181962438Y-102094285D01*
X181962438Y-102094285D02*
X181914819Y-101999047D01*
X181914819Y-101999047D02*
X181914819Y-101760952D01*
X181914819Y-101760952D02*
X181962438Y-101665714D01*
X181962438Y-101665714D02*
X182010057Y-101618095D01*
X182010057Y-101618095D02*
X182105295Y-101570476D01*
X182105295Y-101570476D02*
X182200533Y-101570476D01*
X182200533Y-101570476D02*
X182343390Y-101618095D01*
X182343390Y-101618095D02*
X182914819Y-102189523D01*
X182914819Y-102189523D02*
X182914819Y-101570476D01*
X182914819Y-101094285D02*
X182914819Y-100903809D01*
X182914819Y-100903809D02*
X182867200Y-100808571D01*
X182867200Y-100808571D02*
X182819580Y-100760952D01*
X182819580Y-100760952D02*
X182676723Y-100665714D01*
X182676723Y-100665714D02*
X182486247Y-100618095D01*
X182486247Y-100618095D02*
X182105295Y-100618095D01*
X182105295Y-100618095D02*
X182010057Y-100665714D01*
X182010057Y-100665714D02*
X181962438Y-100713333D01*
X181962438Y-100713333D02*
X181914819Y-100808571D01*
X181914819Y-100808571D02*
X181914819Y-100999047D01*
X181914819Y-100999047D02*
X181962438Y-101094285D01*
X181962438Y-101094285D02*
X182010057Y-101141904D01*
X182010057Y-101141904D02*
X182105295Y-101189523D01*
X182105295Y-101189523D02*
X182343390Y-101189523D01*
X182343390Y-101189523D02*
X182438628Y-101141904D01*
X182438628Y-101141904D02*
X182486247Y-101094285D01*
X182486247Y-101094285D02*
X182533866Y-100999047D01*
X182533866Y-100999047D02*
X182533866Y-100808571D01*
X182533866Y-100808571D02*
X182486247Y-100713333D01*
X182486247Y-100713333D02*
X182438628Y-100665714D01*
X182438628Y-100665714D02*
X182343390Y-100618095D01*
X172947142Y-121749580D02*
X172899523Y-121797200D01*
X172899523Y-121797200D02*
X172756666Y-121844819D01*
X172756666Y-121844819D02*
X172661428Y-121844819D01*
X172661428Y-121844819D02*
X172518571Y-121797200D01*
X172518571Y-121797200D02*
X172423333Y-121701961D01*
X172423333Y-121701961D02*
X172375714Y-121606723D01*
X172375714Y-121606723D02*
X172328095Y-121416247D01*
X172328095Y-121416247D02*
X172328095Y-121273390D01*
X172328095Y-121273390D02*
X172375714Y-121082914D01*
X172375714Y-121082914D02*
X172423333Y-120987676D01*
X172423333Y-120987676D02*
X172518571Y-120892438D01*
X172518571Y-120892438D02*
X172661428Y-120844819D01*
X172661428Y-120844819D02*
X172756666Y-120844819D01*
X172756666Y-120844819D02*
X172899523Y-120892438D01*
X172899523Y-120892438D02*
X172947142Y-120940057D01*
X173280476Y-120844819D02*
X173899523Y-120844819D01*
X173899523Y-120844819D02*
X173566190Y-121225771D01*
X173566190Y-121225771D02*
X173709047Y-121225771D01*
X173709047Y-121225771D02*
X173804285Y-121273390D01*
X173804285Y-121273390D02*
X173851904Y-121321009D01*
X173851904Y-121321009D02*
X173899523Y-121416247D01*
X173899523Y-121416247D02*
X173899523Y-121654342D01*
X173899523Y-121654342D02*
X173851904Y-121749580D01*
X173851904Y-121749580D02*
X173804285Y-121797200D01*
X173804285Y-121797200D02*
X173709047Y-121844819D01*
X173709047Y-121844819D02*
X173423333Y-121844819D01*
X173423333Y-121844819D02*
X173328095Y-121797200D01*
X173328095Y-121797200D02*
X173280476Y-121749580D01*
X174280476Y-120940057D02*
X174328095Y-120892438D01*
X174328095Y-120892438D02*
X174423333Y-120844819D01*
X174423333Y-120844819D02*
X174661428Y-120844819D01*
X174661428Y-120844819D02*
X174756666Y-120892438D01*
X174756666Y-120892438D02*
X174804285Y-120940057D01*
X174804285Y-120940057D02*
X174851904Y-121035295D01*
X174851904Y-121035295D02*
X174851904Y-121130533D01*
X174851904Y-121130533D02*
X174804285Y-121273390D01*
X174804285Y-121273390D02*
X174232857Y-121844819D01*
X174232857Y-121844819D02*
X174851904Y-121844819D01*
X195469580Y-104042857D02*
X195517200Y-104090476D01*
X195517200Y-104090476D02*
X195564819Y-104233333D01*
X195564819Y-104233333D02*
X195564819Y-104328571D01*
X195564819Y-104328571D02*
X195517200Y-104471428D01*
X195517200Y-104471428D02*
X195421961Y-104566666D01*
X195421961Y-104566666D02*
X195326723Y-104614285D01*
X195326723Y-104614285D02*
X195136247Y-104661904D01*
X195136247Y-104661904D02*
X194993390Y-104661904D01*
X194993390Y-104661904D02*
X194802914Y-104614285D01*
X194802914Y-104614285D02*
X194707676Y-104566666D01*
X194707676Y-104566666D02*
X194612438Y-104471428D01*
X194612438Y-104471428D02*
X194564819Y-104328571D01*
X194564819Y-104328571D02*
X194564819Y-104233333D01*
X194564819Y-104233333D02*
X194612438Y-104090476D01*
X194612438Y-104090476D02*
X194660057Y-104042857D01*
X194564819Y-103709523D02*
X194564819Y-103090476D01*
X194564819Y-103090476D02*
X194945771Y-103423809D01*
X194945771Y-103423809D02*
X194945771Y-103280952D01*
X194945771Y-103280952D02*
X194993390Y-103185714D01*
X194993390Y-103185714D02*
X195041009Y-103138095D01*
X195041009Y-103138095D02*
X195136247Y-103090476D01*
X195136247Y-103090476D02*
X195374342Y-103090476D01*
X195374342Y-103090476D02*
X195469580Y-103138095D01*
X195469580Y-103138095D02*
X195517200Y-103185714D01*
X195517200Y-103185714D02*
X195564819Y-103280952D01*
X195564819Y-103280952D02*
X195564819Y-103566666D01*
X195564819Y-103566666D02*
X195517200Y-103661904D01*
X195517200Y-103661904D02*
X195469580Y-103709523D01*
X194898152Y-102233333D02*
X195564819Y-102233333D01*
X194517200Y-102471428D02*
X195231485Y-102709523D01*
X195231485Y-102709523D02*
X195231485Y-102090476D01*
X208898740Y-92519696D02*
X208565407Y-92519696D01*
X208565407Y-93043506D02*
X208565407Y-92043506D01*
X208565407Y-92043506D02*
X209041597Y-92043506D01*
X209946359Y-93043506D02*
X209374931Y-93043506D01*
X209660645Y-93043506D02*
X209660645Y-92043506D01*
X209660645Y-92043506D02*
X209565407Y-92186363D01*
X209565407Y-92186363D02*
X209470169Y-92281601D01*
X209470169Y-92281601D02*
X209374931Y-92329220D01*
X172239580Y-97732857D02*
X172287200Y-97780476D01*
X172287200Y-97780476D02*
X172334819Y-97923333D01*
X172334819Y-97923333D02*
X172334819Y-98018571D01*
X172334819Y-98018571D02*
X172287200Y-98161428D01*
X172287200Y-98161428D02*
X172191961Y-98256666D01*
X172191961Y-98256666D02*
X172096723Y-98304285D01*
X172096723Y-98304285D02*
X171906247Y-98351904D01*
X171906247Y-98351904D02*
X171763390Y-98351904D01*
X171763390Y-98351904D02*
X171572914Y-98304285D01*
X171572914Y-98304285D02*
X171477676Y-98256666D01*
X171477676Y-98256666D02*
X171382438Y-98161428D01*
X171382438Y-98161428D02*
X171334819Y-98018571D01*
X171334819Y-98018571D02*
X171334819Y-97923333D01*
X171334819Y-97923333D02*
X171382438Y-97780476D01*
X171382438Y-97780476D02*
X171430057Y-97732857D01*
X171668152Y-96875714D02*
X172334819Y-96875714D01*
X171287200Y-97113809D02*
X172001485Y-97351904D01*
X172001485Y-97351904D02*
X172001485Y-96732857D01*
X172334819Y-95828095D02*
X172334819Y-96399523D01*
X172334819Y-96113809D02*
X171334819Y-96113809D01*
X171334819Y-96113809D02*
X171477676Y-96209047D01*
X171477676Y-96209047D02*
X171572914Y-96304285D01*
X171572914Y-96304285D02*
X171620533Y-96399523D01*
X184954819Y-101982857D02*
X184478628Y-102316190D01*
X184954819Y-102554285D02*
X183954819Y-102554285D01*
X183954819Y-102554285D02*
X183954819Y-102173333D01*
X183954819Y-102173333D02*
X184002438Y-102078095D01*
X184002438Y-102078095D02*
X184050057Y-102030476D01*
X184050057Y-102030476D02*
X184145295Y-101982857D01*
X184145295Y-101982857D02*
X184288152Y-101982857D01*
X184288152Y-101982857D02*
X184383390Y-102030476D01*
X184383390Y-102030476D02*
X184431009Y-102078095D01*
X184431009Y-102078095D02*
X184478628Y-102173333D01*
X184478628Y-102173333D02*
X184478628Y-102554285D01*
X184954819Y-101030476D02*
X184954819Y-101601904D01*
X184954819Y-101316190D02*
X183954819Y-101316190D01*
X183954819Y-101316190D02*
X184097676Y-101411428D01*
X184097676Y-101411428D02*
X184192914Y-101506666D01*
X184192914Y-101506666D02*
X184240533Y-101601904D01*
X184050057Y-100649523D02*
X184002438Y-100601904D01*
X184002438Y-100601904D02*
X183954819Y-100506666D01*
X183954819Y-100506666D02*
X183954819Y-100268571D01*
X183954819Y-100268571D02*
X184002438Y-100173333D01*
X184002438Y-100173333D02*
X184050057Y-100125714D01*
X184050057Y-100125714D02*
X184145295Y-100078095D01*
X184145295Y-100078095D02*
X184240533Y-100078095D01*
X184240533Y-100078095D02*
X184383390Y-100125714D01*
X184383390Y-100125714D02*
X184954819Y-100697142D01*
X184954819Y-100697142D02*
X184954819Y-100078095D01*
X173327142Y-104599580D02*
X173279523Y-104647200D01*
X173279523Y-104647200D02*
X173136666Y-104694819D01*
X173136666Y-104694819D02*
X173041428Y-104694819D01*
X173041428Y-104694819D02*
X172898571Y-104647200D01*
X172898571Y-104647200D02*
X172803333Y-104551961D01*
X172803333Y-104551961D02*
X172755714Y-104456723D01*
X172755714Y-104456723D02*
X172708095Y-104266247D01*
X172708095Y-104266247D02*
X172708095Y-104123390D01*
X172708095Y-104123390D02*
X172755714Y-103932914D01*
X172755714Y-103932914D02*
X172803333Y-103837676D01*
X172803333Y-103837676D02*
X172898571Y-103742438D01*
X172898571Y-103742438D02*
X173041428Y-103694819D01*
X173041428Y-103694819D02*
X173136666Y-103694819D01*
X173136666Y-103694819D02*
X173279523Y-103742438D01*
X173279523Y-103742438D02*
X173327142Y-103790057D01*
X174184285Y-104028152D02*
X174184285Y-104694819D01*
X173946190Y-103647200D02*
X173708095Y-104361485D01*
X173708095Y-104361485D02*
X174327142Y-104361485D01*
X174660476Y-103790057D02*
X174708095Y-103742438D01*
X174708095Y-103742438D02*
X174803333Y-103694819D01*
X174803333Y-103694819D02*
X175041428Y-103694819D01*
X175041428Y-103694819D02*
X175136666Y-103742438D01*
X175136666Y-103742438D02*
X175184285Y-103790057D01*
X175184285Y-103790057D02*
X175231904Y-103885295D01*
X175231904Y-103885295D02*
X175231904Y-103980533D01*
X175231904Y-103980533D02*
X175184285Y-104123390D01*
X175184285Y-104123390D02*
X174612857Y-104694819D01*
X174612857Y-104694819D02*
X175231904Y-104694819D01*
X173998095Y-97032319D02*
X173998095Y-97841842D01*
X173998095Y-97841842D02*
X174045714Y-97937080D01*
X174045714Y-97937080D02*
X174093333Y-97984700D01*
X174093333Y-97984700D02*
X174188571Y-98032319D01*
X174188571Y-98032319D02*
X174379047Y-98032319D01*
X174379047Y-98032319D02*
X174474285Y-97984700D01*
X174474285Y-97984700D02*
X174521904Y-97937080D01*
X174521904Y-97937080D02*
X174569523Y-97841842D01*
X174569523Y-97841842D02*
X174569523Y-97032319D01*
X175188571Y-97460890D02*
X175093333Y-97413271D01*
X175093333Y-97413271D02*
X175045714Y-97365652D01*
X175045714Y-97365652D02*
X174998095Y-97270414D01*
X174998095Y-97270414D02*
X174998095Y-97222795D01*
X174998095Y-97222795D02*
X175045714Y-97127557D01*
X175045714Y-97127557D02*
X175093333Y-97079938D01*
X175093333Y-97079938D02*
X175188571Y-97032319D01*
X175188571Y-97032319D02*
X175379047Y-97032319D01*
X175379047Y-97032319D02*
X175474285Y-97079938D01*
X175474285Y-97079938D02*
X175521904Y-97127557D01*
X175521904Y-97127557D02*
X175569523Y-97222795D01*
X175569523Y-97222795D02*
X175569523Y-97270414D01*
X175569523Y-97270414D02*
X175521904Y-97365652D01*
X175521904Y-97365652D02*
X175474285Y-97413271D01*
X175474285Y-97413271D02*
X175379047Y-97460890D01*
X175379047Y-97460890D02*
X175188571Y-97460890D01*
X175188571Y-97460890D02*
X175093333Y-97508509D01*
X175093333Y-97508509D02*
X175045714Y-97556128D01*
X175045714Y-97556128D02*
X174998095Y-97651366D01*
X174998095Y-97651366D02*
X174998095Y-97841842D01*
X174998095Y-97841842D02*
X175045714Y-97937080D01*
X175045714Y-97937080D02*
X175093333Y-97984700D01*
X175093333Y-97984700D02*
X175188571Y-98032319D01*
X175188571Y-98032319D02*
X175379047Y-98032319D01*
X175379047Y-98032319D02*
X175474285Y-97984700D01*
X175474285Y-97984700D02*
X175521904Y-97937080D01*
X175521904Y-97937080D02*
X175569523Y-97841842D01*
X175569523Y-97841842D02*
X175569523Y-97651366D01*
X175569523Y-97651366D02*
X175521904Y-97556128D01*
X175521904Y-97556128D02*
X175474285Y-97508509D01*
X175474285Y-97508509D02*
X175379047Y-97460890D01*
X190821905Y-101604819D02*
X190821905Y-100604819D01*
X190821905Y-100604819D02*
X191060000Y-100604819D01*
X191060000Y-100604819D02*
X191202857Y-100652438D01*
X191202857Y-100652438D02*
X191298095Y-100747676D01*
X191298095Y-100747676D02*
X191345714Y-100842914D01*
X191345714Y-100842914D02*
X191393333Y-101033390D01*
X191393333Y-101033390D02*
X191393333Y-101176247D01*
X191393333Y-101176247D02*
X191345714Y-101366723D01*
X191345714Y-101366723D02*
X191298095Y-101461961D01*
X191298095Y-101461961D02*
X191202857Y-101557200D01*
X191202857Y-101557200D02*
X191060000Y-101604819D01*
X191060000Y-101604819D02*
X190821905Y-101604819D01*
X192345714Y-101604819D02*
X191774286Y-101604819D01*
X192060000Y-101604819D02*
X192060000Y-100604819D01*
X192060000Y-100604819D02*
X191964762Y-100747676D01*
X191964762Y-100747676D02*
X191869524Y-100842914D01*
X191869524Y-100842914D02*
X191774286Y-100890533D01*
X215194819Y-124811904D02*
X216004342Y-124811904D01*
X216004342Y-124811904D02*
X216099580Y-124764285D01*
X216099580Y-124764285D02*
X216147200Y-124716666D01*
X216147200Y-124716666D02*
X216194819Y-124621428D01*
X216194819Y-124621428D02*
X216194819Y-124430952D01*
X216194819Y-124430952D02*
X216147200Y-124335714D01*
X216147200Y-124335714D02*
X216099580Y-124288095D01*
X216099580Y-124288095D02*
X216004342Y-124240476D01*
X216004342Y-124240476D02*
X215194819Y-124240476D01*
X216194819Y-123240476D02*
X216194819Y-123811904D01*
X216194819Y-123526190D02*
X215194819Y-123526190D01*
X215194819Y-123526190D02*
X215337676Y-123621428D01*
X215337676Y-123621428D02*
X215432914Y-123716666D01*
X215432914Y-123716666D02*
X215480533Y-123811904D01*
X178584819Y-93422857D02*
X178108628Y-93756190D01*
X178584819Y-93994285D02*
X177584819Y-93994285D01*
X177584819Y-93994285D02*
X177584819Y-93613333D01*
X177584819Y-93613333D02*
X177632438Y-93518095D01*
X177632438Y-93518095D02*
X177680057Y-93470476D01*
X177680057Y-93470476D02*
X177775295Y-93422857D01*
X177775295Y-93422857D02*
X177918152Y-93422857D01*
X177918152Y-93422857D02*
X178013390Y-93470476D01*
X178013390Y-93470476D02*
X178061009Y-93518095D01*
X178061009Y-93518095D02*
X178108628Y-93613333D01*
X178108628Y-93613333D02*
X178108628Y-93994285D01*
X178584819Y-92470476D02*
X178584819Y-93041904D01*
X178584819Y-92756190D02*
X177584819Y-92756190D01*
X177584819Y-92756190D02*
X177727676Y-92851428D01*
X177727676Y-92851428D02*
X177822914Y-92946666D01*
X177822914Y-92946666D02*
X177870533Y-93041904D01*
X177584819Y-91613333D02*
X177584819Y-91803809D01*
X177584819Y-91803809D02*
X177632438Y-91899047D01*
X177632438Y-91899047D02*
X177680057Y-91946666D01*
X177680057Y-91946666D02*
X177822914Y-92041904D01*
X177822914Y-92041904D02*
X178013390Y-92089523D01*
X178013390Y-92089523D02*
X178394342Y-92089523D01*
X178394342Y-92089523D02*
X178489580Y-92041904D01*
X178489580Y-92041904D02*
X178537200Y-91994285D01*
X178537200Y-91994285D02*
X178584819Y-91899047D01*
X178584819Y-91899047D02*
X178584819Y-91708571D01*
X178584819Y-91708571D02*
X178537200Y-91613333D01*
X178537200Y-91613333D02*
X178489580Y-91565714D01*
X178489580Y-91565714D02*
X178394342Y-91518095D01*
X178394342Y-91518095D02*
X178156247Y-91518095D01*
X178156247Y-91518095D02*
X178061009Y-91565714D01*
X178061009Y-91565714D02*
X178013390Y-91613333D01*
X178013390Y-91613333D02*
X177965771Y-91708571D01*
X177965771Y-91708571D02*
X177965771Y-91899047D01*
X177965771Y-91899047D02*
X178013390Y-91994285D01*
X178013390Y-91994285D02*
X178061009Y-92041904D01*
X178061009Y-92041904D02*
X178156247Y-92089523D01*
X182159580Y-122772857D02*
X182207200Y-122820476D01*
X182207200Y-122820476D02*
X182254819Y-122963333D01*
X182254819Y-122963333D02*
X182254819Y-123058571D01*
X182254819Y-123058571D02*
X182207200Y-123201428D01*
X182207200Y-123201428D02*
X182111961Y-123296666D01*
X182111961Y-123296666D02*
X182016723Y-123344285D01*
X182016723Y-123344285D02*
X181826247Y-123391904D01*
X181826247Y-123391904D02*
X181683390Y-123391904D01*
X181683390Y-123391904D02*
X181492914Y-123344285D01*
X181492914Y-123344285D02*
X181397676Y-123296666D01*
X181397676Y-123296666D02*
X181302438Y-123201428D01*
X181302438Y-123201428D02*
X181254819Y-123058571D01*
X181254819Y-123058571D02*
X181254819Y-122963333D01*
X181254819Y-122963333D02*
X181302438Y-122820476D01*
X181302438Y-122820476D02*
X181350057Y-122772857D01*
X181254819Y-122439523D02*
X181254819Y-121820476D01*
X181254819Y-121820476D02*
X181635771Y-122153809D01*
X181635771Y-122153809D02*
X181635771Y-122010952D01*
X181635771Y-122010952D02*
X181683390Y-121915714D01*
X181683390Y-121915714D02*
X181731009Y-121868095D01*
X181731009Y-121868095D02*
X181826247Y-121820476D01*
X181826247Y-121820476D02*
X182064342Y-121820476D01*
X182064342Y-121820476D02*
X182159580Y-121868095D01*
X182159580Y-121868095D02*
X182207200Y-121915714D01*
X182207200Y-121915714D02*
X182254819Y-122010952D01*
X182254819Y-122010952D02*
X182254819Y-122296666D01*
X182254819Y-122296666D02*
X182207200Y-122391904D01*
X182207200Y-122391904D02*
X182159580Y-122439523D01*
X182254819Y-120868095D02*
X182254819Y-121439523D01*
X182254819Y-121153809D02*
X181254819Y-121153809D01*
X181254819Y-121153809D02*
X181397676Y-121249047D01*
X181397676Y-121249047D02*
X181492914Y-121344285D01*
X181492914Y-121344285D02*
X181540533Y-121439523D01*
X188579580Y-123172857D02*
X188627200Y-123220476D01*
X188627200Y-123220476D02*
X188674819Y-123363333D01*
X188674819Y-123363333D02*
X188674819Y-123458571D01*
X188674819Y-123458571D02*
X188627200Y-123601428D01*
X188627200Y-123601428D02*
X188531961Y-123696666D01*
X188531961Y-123696666D02*
X188436723Y-123744285D01*
X188436723Y-123744285D02*
X188246247Y-123791904D01*
X188246247Y-123791904D02*
X188103390Y-123791904D01*
X188103390Y-123791904D02*
X187912914Y-123744285D01*
X187912914Y-123744285D02*
X187817676Y-123696666D01*
X187817676Y-123696666D02*
X187722438Y-123601428D01*
X187722438Y-123601428D02*
X187674819Y-123458571D01*
X187674819Y-123458571D02*
X187674819Y-123363333D01*
X187674819Y-123363333D02*
X187722438Y-123220476D01*
X187722438Y-123220476D02*
X187770057Y-123172857D01*
X188674819Y-122220476D02*
X188674819Y-122791904D01*
X188674819Y-122506190D02*
X187674819Y-122506190D01*
X187674819Y-122506190D02*
X187817676Y-122601428D01*
X187817676Y-122601428D02*
X187912914Y-122696666D01*
X187912914Y-122696666D02*
X187960533Y-122791904D01*
X188674819Y-121268095D02*
X188674819Y-121839523D01*
X188674819Y-121553809D02*
X187674819Y-121553809D01*
X187674819Y-121553809D02*
X187817676Y-121649047D01*
X187817676Y-121649047D02*
X187912914Y-121744285D01*
X187912914Y-121744285D02*
X187960533Y-121839523D01*
X189709580Y-111005357D02*
X189757200Y-111052976D01*
X189757200Y-111052976D02*
X189804819Y-111195833D01*
X189804819Y-111195833D02*
X189804819Y-111291071D01*
X189804819Y-111291071D02*
X189757200Y-111433928D01*
X189757200Y-111433928D02*
X189661961Y-111529166D01*
X189661961Y-111529166D02*
X189566723Y-111576785D01*
X189566723Y-111576785D02*
X189376247Y-111624404D01*
X189376247Y-111624404D02*
X189233390Y-111624404D01*
X189233390Y-111624404D02*
X189042914Y-111576785D01*
X189042914Y-111576785D02*
X188947676Y-111529166D01*
X188947676Y-111529166D02*
X188852438Y-111433928D01*
X188852438Y-111433928D02*
X188804819Y-111291071D01*
X188804819Y-111291071D02*
X188804819Y-111195833D01*
X188804819Y-111195833D02*
X188852438Y-111052976D01*
X188852438Y-111052976D02*
X188900057Y-111005357D01*
X189804819Y-110052976D02*
X189804819Y-110624404D01*
X189804819Y-110338690D02*
X188804819Y-110338690D01*
X188804819Y-110338690D02*
X188947676Y-110433928D01*
X188947676Y-110433928D02*
X189042914Y-110529166D01*
X189042914Y-110529166D02*
X189090533Y-110624404D01*
X189804819Y-109576785D02*
X189804819Y-109386309D01*
X189804819Y-109386309D02*
X189757200Y-109291071D01*
X189757200Y-109291071D02*
X189709580Y-109243452D01*
X189709580Y-109243452D02*
X189566723Y-109148214D01*
X189566723Y-109148214D02*
X189376247Y-109100595D01*
X189376247Y-109100595D02*
X188995295Y-109100595D01*
X188995295Y-109100595D02*
X188900057Y-109148214D01*
X188900057Y-109148214D02*
X188852438Y-109195833D01*
X188852438Y-109195833D02*
X188804819Y-109291071D01*
X188804819Y-109291071D02*
X188804819Y-109481547D01*
X188804819Y-109481547D02*
X188852438Y-109576785D01*
X188852438Y-109576785D02*
X188900057Y-109624404D01*
X188900057Y-109624404D02*
X188995295Y-109672023D01*
X188995295Y-109672023D02*
X189233390Y-109672023D01*
X189233390Y-109672023D02*
X189328628Y-109624404D01*
X189328628Y-109624404D02*
X189376247Y-109576785D01*
X189376247Y-109576785D02*
X189423866Y-109481547D01*
X189423866Y-109481547D02*
X189423866Y-109291071D01*
X189423866Y-109291071D02*
X189376247Y-109195833D01*
X189376247Y-109195833D02*
X189328628Y-109148214D01*
X189328628Y-109148214D02*
X189233390Y-109100595D01*
X188163333Y-104624819D02*
X187830000Y-104148628D01*
X187591905Y-104624819D02*
X187591905Y-103624819D01*
X187591905Y-103624819D02*
X187972857Y-103624819D01*
X187972857Y-103624819D02*
X188068095Y-103672438D01*
X188068095Y-103672438D02*
X188115714Y-103720057D01*
X188115714Y-103720057D02*
X188163333Y-103815295D01*
X188163333Y-103815295D02*
X188163333Y-103958152D01*
X188163333Y-103958152D02*
X188115714Y-104053390D01*
X188115714Y-104053390D02*
X188068095Y-104101009D01*
X188068095Y-104101009D02*
X187972857Y-104148628D01*
X187972857Y-104148628D02*
X187591905Y-104148628D01*
X188496667Y-103624819D02*
X189163333Y-103624819D01*
X189163333Y-103624819D02*
X188734762Y-104624819D01*
X174413333Y-106464819D02*
X174080000Y-105988628D01*
X173841905Y-106464819D02*
X173841905Y-105464819D01*
X173841905Y-105464819D02*
X174222857Y-105464819D01*
X174222857Y-105464819D02*
X174318095Y-105512438D01*
X174318095Y-105512438D02*
X174365714Y-105560057D01*
X174365714Y-105560057D02*
X174413333Y-105655295D01*
X174413333Y-105655295D02*
X174413333Y-105798152D01*
X174413333Y-105798152D02*
X174365714Y-105893390D01*
X174365714Y-105893390D02*
X174318095Y-105941009D01*
X174318095Y-105941009D02*
X174222857Y-105988628D01*
X174222857Y-105988628D02*
X173841905Y-105988628D01*
X174794286Y-105560057D02*
X174841905Y-105512438D01*
X174841905Y-105512438D02*
X174937143Y-105464819D01*
X174937143Y-105464819D02*
X175175238Y-105464819D01*
X175175238Y-105464819D02*
X175270476Y-105512438D01*
X175270476Y-105512438D02*
X175318095Y-105560057D01*
X175318095Y-105560057D02*
X175365714Y-105655295D01*
X175365714Y-105655295D02*
X175365714Y-105750533D01*
X175365714Y-105750533D02*
X175318095Y-105893390D01*
X175318095Y-105893390D02*
X174746667Y-106464819D01*
X174746667Y-106464819D02*
X175365714Y-106464819D01*
X194406666Y-87234819D02*
X194406666Y-87949104D01*
X194406666Y-87949104D02*
X194359047Y-88091961D01*
X194359047Y-88091961D02*
X194263809Y-88187200D01*
X194263809Y-88187200D02*
X194120952Y-88234819D01*
X194120952Y-88234819D02*
X194025714Y-88234819D01*
X194835238Y-87330057D02*
X194882857Y-87282438D01*
X194882857Y-87282438D02*
X194978095Y-87234819D01*
X194978095Y-87234819D02*
X195216190Y-87234819D01*
X195216190Y-87234819D02*
X195311428Y-87282438D01*
X195311428Y-87282438D02*
X195359047Y-87330057D01*
X195359047Y-87330057D02*
X195406666Y-87425295D01*
X195406666Y-87425295D02*
X195406666Y-87520533D01*
X195406666Y-87520533D02*
X195359047Y-87663390D01*
X195359047Y-87663390D02*
X194787619Y-88234819D01*
X194787619Y-88234819D02*
X195406666Y-88234819D01*
X216124819Y-97407857D02*
X215648628Y-97741190D01*
X216124819Y-97979285D02*
X215124819Y-97979285D01*
X215124819Y-97979285D02*
X215124819Y-97598333D01*
X215124819Y-97598333D02*
X215172438Y-97503095D01*
X215172438Y-97503095D02*
X215220057Y-97455476D01*
X215220057Y-97455476D02*
X215315295Y-97407857D01*
X215315295Y-97407857D02*
X215458152Y-97407857D01*
X215458152Y-97407857D02*
X215553390Y-97455476D01*
X215553390Y-97455476D02*
X215601009Y-97503095D01*
X215601009Y-97503095D02*
X215648628Y-97598333D01*
X215648628Y-97598333D02*
X215648628Y-97979285D01*
X216124819Y-96455476D02*
X216124819Y-97026904D01*
X216124819Y-96741190D02*
X215124819Y-96741190D01*
X215124819Y-96741190D02*
X215267676Y-96836428D01*
X215267676Y-96836428D02*
X215362914Y-96931666D01*
X215362914Y-96931666D02*
X215410533Y-97026904D01*
X215458152Y-95598333D02*
X216124819Y-95598333D01*
X215077200Y-95836428D02*
X215791485Y-96074523D01*
X215791485Y-96074523D02*
X215791485Y-95455476D01*
X182935714Y-122016104D02*
X182897618Y-122054200D01*
X182897618Y-122054200D02*
X182783333Y-122092295D01*
X182783333Y-122092295D02*
X182707142Y-122092295D01*
X182707142Y-122092295D02*
X182592856Y-122054200D01*
X182592856Y-122054200D02*
X182516666Y-121978009D01*
X182516666Y-121978009D02*
X182478571Y-121901819D01*
X182478571Y-121901819D02*
X182440475Y-121749438D01*
X182440475Y-121749438D02*
X182440475Y-121635152D01*
X182440475Y-121635152D02*
X182478571Y-121482771D01*
X182478571Y-121482771D02*
X182516666Y-121406580D01*
X182516666Y-121406580D02*
X182592856Y-121330390D01*
X182592856Y-121330390D02*
X182707142Y-121292295D01*
X182707142Y-121292295D02*
X182783333Y-121292295D01*
X182783333Y-121292295D02*
X182897618Y-121330390D01*
X182897618Y-121330390D02*
X182935714Y-121368485D01*
X183697618Y-122092295D02*
X183240475Y-122092295D01*
X183469047Y-122092295D02*
X183469047Y-121292295D01*
X183469047Y-121292295D02*
X183392856Y-121406580D01*
X183392856Y-121406580D02*
X183316666Y-121482771D01*
X183316666Y-121482771D02*
X183240475Y-121520866D01*
X183964285Y-121292295D02*
X184459523Y-121292295D01*
X184459523Y-121292295D02*
X184192857Y-121597057D01*
X184192857Y-121597057D02*
X184307142Y-121597057D01*
X184307142Y-121597057D02*
X184383333Y-121635152D01*
X184383333Y-121635152D02*
X184421428Y-121673247D01*
X184421428Y-121673247D02*
X184459523Y-121749438D01*
X184459523Y-121749438D02*
X184459523Y-121939914D01*
X184459523Y-121939914D02*
X184421428Y-122016104D01*
X184421428Y-122016104D02*
X184383333Y-122054200D01*
X184383333Y-122054200D02*
X184307142Y-122092295D01*
X184307142Y-122092295D02*
X184078571Y-122092295D01*
X184078571Y-122092295D02*
X184002380Y-122054200D01*
X184002380Y-122054200D02*
X183964285Y-122016104D01*
X197038095Y-102174819D02*
X197038095Y-102984342D01*
X197038095Y-102984342D02*
X197085714Y-103079580D01*
X197085714Y-103079580D02*
X197133333Y-103127200D01*
X197133333Y-103127200D02*
X197228571Y-103174819D01*
X197228571Y-103174819D02*
X197419047Y-103174819D01*
X197419047Y-103174819D02*
X197514285Y-103127200D01*
X197514285Y-103127200D02*
X197561904Y-103079580D01*
X197561904Y-103079580D02*
X197609523Y-102984342D01*
X197609523Y-102984342D02*
X197609523Y-102174819D01*
X198514285Y-102174819D02*
X198323809Y-102174819D01*
X198323809Y-102174819D02*
X198228571Y-102222438D01*
X198228571Y-102222438D02*
X198180952Y-102270057D01*
X198180952Y-102270057D02*
X198085714Y-102412914D01*
X198085714Y-102412914D02*
X198038095Y-102603390D01*
X198038095Y-102603390D02*
X198038095Y-102984342D01*
X198038095Y-102984342D02*
X198085714Y-103079580D01*
X198085714Y-103079580D02*
X198133333Y-103127200D01*
X198133333Y-103127200D02*
X198228571Y-103174819D01*
X198228571Y-103174819D02*
X198419047Y-103174819D01*
X198419047Y-103174819D02*
X198514285Y-103127200D01*
X198514285Y-103127200D02*
X198561904Y-103079580D01*
X198561904Y-103079580D02*
X198609523Y-102984342D01*
X198609523Y-102984342D02*
X198609523Y-102746247D01*
X198609523Y-102746247D02*
X198561904Y-102651009D01*
X198561904Y-102651009D02*
X198514285Y-102603390D01*
X198514285Y-102603390D02*
X198419047Y-102555771D01*
X198419047Y-102555771D02*
X198228571Y-102555771D01*
X198228571Y-102555771D02*
X198133333Y-102603390D01*
X198133333Y-102603390D02*
X198085714Y-102651009D01*
X198085714Y-102651009D02*
X198038095Y-102746247D01*
X185608095Y-88804819D02*
X186179523Y-88804819D01*
X185893809Y-89804819D02*
X185893809Y-88804819D01*
X186512857Y-89804819D02*
X186512857Y-88804819D01*
X186512857Y-88804819D02*
X186893809Y-88804819D01*
X186893809Y-88804819D02*
X186989047Y-88852438D01*
X186989047Y-88852438D02*
X187036666Y-88900057D01*
X187036666Y-88900057D02*
X187084285Y-88995295D01*
X187084285Y-88995295D02*
X187084285Y-89138152D01*
X187084285Y-89138152D02*
X187036666Y-89233390D01*
X187036666Y-89233390D02*
X186989047Y-89281009D01*
X186989047Y-89281009D02*
X186893809Y-89328628D01*
X186893809Y-89328628D02*
X186512857Y-89328628D01*
X187941428Y-88804819D02*
X187750952Y-88804819D01*
X187750952Y-88804819D02*
X187655714Y-88852438D01*
X187655714Y-88852438D02*
X187608095Y-88900057D01*
X187608095Y-88900057D02*
X187512857Y-89042914D01*
X187512857Y-89042914D02*
X187465238Y-89233390D01*
X187465238Y-89233390D02*
X187465238Y-89614342D01*
X187465238Y-89614342D02*
X187512857Y-89709580D01*
X187512857Y-89709580D02*
X187560476Y-89757200D01*
X187560476Y-89757200D02*
X187655714Y-89804819D01*
X187655714Y-89804819D02*
X187846190Y-89804819D01*
X187846190Y-89804819D02*
X187941428Y-89757200D01*
X187941428Y-89757200D02*
X187989047Y-89709580D01*
X187989047Y-89709580D02*
X188036666Y-89614342D01*
X188036666Y-89614342D02*
X188036666Y-89376247D01*
X188036666Y-89376247D02*
X187989047Y-89281009D01*
X187989047Y-89281009D02*
X187941428Y-89233390D01*
X187941428Y-89233390D02*
X187846190Y-89185771D01*
X187846190Y-89185771D02*
X187655714Y-89185771D01*
X187655714Y-89185771D02*
X187560476Y-89233390D01*
X187560476Y-89233390D02*
X187512857Y-89281009D01*
X187512857Y-89281009D02*
X187465238Y-89376247D01*
X179891905Y-88864819D02*
X180463333Y-88864819D01*
X180177619Y-89864819D02*
X180177619Y-88864819D01*
X180796667Y-89864819D02*
X180796667Y-88864819D01*
X180796667Y-88864819D02*
X181177619Y-88864819D01*
X181177619Y-88864819D02*
X181272857Y-88912438D01*
X181272857Y-88912438D02*
X181320476Y-88960057D01*
X181320476Y-88960057D02*
X181368095Y-89055295D01*
X181368095Y-89055295D02*
X181368095Y-89198152D01*
X181368095Y-89198152D02*
X181320476Y-89293390D01*
X181320476Y-89293390D02*
X181272857Y-89341009D01*
X181272857Y-89341009D02*
X181177619Y-89388628D01*
X181177619Y-89388628D02*
X180796667Y-89388628D01*
X182320476Y-89864819D02*
X181749048Y-89864819D01*
X182034762Y-89864819D02*
X182034762Y-88864819D01*
X182034762Y-88864819D02*
X181939524Y-89007676D01*
X181939524Y-89007676D02*
X181844286Y-89102914D01*
X181844286Y-89102914D02*
X181749048Y-89150533D01*
X182939524Y-88864819D02*
X183034762Y-88864819D01*
X183034762Y-88864819D02*
X183130000Y-88912438D01*
X183130000Y-88912438D02*
X183177619Y-88960057D01*
X183177619Y-88960057D02*
X183225238Y-89055295D01*
X183225238Y-89055295D02*
X183272857Y-89245771D01*
X183272857Y-89245771D02*
X183272857Y-89483866D01*
X183272857Y-89483866D02*
X183225238Y-89674342D01*
X183225238Y-89674342D02*
X183177619Y-89769580D01*
X183177619Y-89769580D02*
X183130000Y-89817200D01*
X183130000Y-89817200D02*
X183034762Y-89864819D01*
X183034762Y-89864819D02*
X182939524Y-89864819D01*
X182939524Y-89864819D02*
X182844286Y-89817200D01*
X182844286Y-89817200D02*
X182796667Y-89769580D01*
X182796667Y-89769580D02*
X182749048Y-89674342D01*
X182749048Y-89674342D02*
X182701429Y-89483866D01*
X182701429Y-89483866D02*
X182701429Y-89245771D01*
X182701429Y-89245771D02*
X182749048Y-89055295D01*
X182749048Y-89055295D02*
X182796667Y-88960057D01*
X182796667Y-88960057D02*
X182844286Y-88912438D01*
X182844286Y-88912438D02*
X182939524Y-88864819D01*
X181454819Y-97466666D02*
X180978628Y-97799999D01*
X181454819Y-98038094D02*
X180454819Y-98038094D01*
X180454819Y-98038094D02*
X180454819Y-97657142D01*
X180454819Y-97657142D02*
X180502438Y-97561904D01*
X180502438Y-97561904D02*
X180550057Y-97514285D01*
X180550057Y-97514285D02*
X180645295Y-97466666D01*
X180645295Y-97466666D02*
X180788152Y-97466666D01*
X180788152Y-97466666D02*
X180883390Y-97514285D01*
X180883390Y-97514285D02*
X180931009Y-97561904D01*
X180931009Y-97561904D02*
X180978628Y-97657142D01*
X180978628Y-97657142D02*
X180978628Y-98038094D01*
X180454819Y-96561904D02*
X180454819Y-97038094D01*
X180454819Y-97038094D02*
X180931009Y-97085713D01*
X180931009Y-97085713D02*
X180883390Y-97038094D01*
X180883390Y-97038094D02*
X180835771Y-96942856D01*
X180835771Y-96942856D02*
X180835771Y-96704761D01*
X180835771Y-96704761D02*
X180883390Y-96609523D01*
X180883390Y-96609523D02*
X180931009Y-96561904D01*
X180931009Y-96561904D02*
X181026247Y-96514285D01*
X181026247Y-96514285D02*
X181264342Y-96514285D01*
X181264342Y-96514285D02*
X181359580Y-96561904D01*
X181359580Y-96561904D02*
X181407200Y-96609523D01*
X181407200Y-96609523D02*
X181454819Y-96704761D01*
X181454819Y-96704761D02*
X181454819Y-96942856D01*
X181454819Y-96942856D02*
X181407200Y-97038094D01*
X181407200Y-97038094D02*
X181359580Y-97085713D01*
X201599580Y-104062857D02*
X201647200Y-104110476D01*
X201647200Y-104110476D02*
X201694819Y-104253333D01*
X201694819Y-104253333D02*
X201694819Y-104348571D01*
X201694819Y-104348571D02*
X201647200Y-104491428D01*
X201647200Y-104491428D02*
X201551961Y-104586666D01*
X201551961Y-104586666D02*
X201456723Y-104634285D01*
X201456723Y-104634285D02*
X201266247Y-104681904D01*
X201266247Y-104681904D02*
X201123390Y-104681904D01*
X201123390Y-104681904D02*
X200932914Y-104634285D01*
X200932914Y-104634285D02*
X200837676Y-104586666D01*
X200837676Y-104586666D02*
X200742438Y-104491428D01*
X200742438Y-104491428D02*
X200694819Y-104348571D01*
X200694819Y-104348571D02*
X200694819Y-104253333D01*
X200694819Y-104253333D02*
X200742438Y-104110476D01*
X200742438Y-104110476D02*
X200790057Y-104062857D01*
X200694819Y-103729523D02*
X200694819Y-103110476D01*
X200694819Y-103110476D02*
X201075771Y-103443809D01*
X201075771Y-103443809D02*
X201075771Y-103300952D01*
X201075771Y-103300952D02*
X201123390Y-103205714D01*
X201123390Y-103205714D02*
X201171009Y-103158095D01*
X201171009Y-103158095D02*
X201266247Y-103110476D01*
X201266247Y-103110476D02*
X201504342Y-103110476D01*
X201504342Y-103110476D02*
X201599580Y-103158095D01*
X201599580Y-103158095D02*
X201647200Y-103205714D01*
X201647200Y-103205714D02*
X201694819Y-103300952D01*
X201694819Y-103300952D02*
X201694819Y-103586666D01*
X201694819Y-103586666D02*
X201647200Y-103681904D01*
X201647200Y-103681904D02*
X201599580Y-103729523D01*
X200694819Y-102253333D02*
X200694819Y-102443809D01*
X200694819Y-102443809D02*
X200742438Y-102539047D01*
X200742438Y-102539047D02*
X200790057Y-102586666D01*
X200790057Y-102586666D02*
X200932914Y-102681904D01*
X200932914Y-102681904D02*
X201123390Y-102729523D01*
X201123390Y-102729523D02*
X201504342Y-102729523D01*
X201504342Y-102729523D02*
X201599580Y-102681904D01*
X201599580Y-102681904D02*
X201647200Y-102634285D01*
X201647200Y-102634285D02*
X201694819Y-102539047D01*
X201694819Y-102539047D02*
X201694819Y-102348571D01*
X201694819Y-102348571D02*
X201647200Y-102253333D01*
X201647200Y-102253333D02*
X201599580Y-102205714D01*
X201599580Y-102205714D02*
X201504342Y-102158095D01*
X201504342Y-102158095D02*
X201266247Y-102158095D01*
X201266247Y-102158095D02*
X201171009Y-102205714D01*
X201171009Y-102205714D02*
X201123390Y-102253333D01*
X201123390Y-102253333D02*
X201075771Y-102348571D01*
X201075771Y-102348571D02*
X201075771Y-102539047D01*
X201075771Y-102539047D02*
X201123390Y-102634285D01*
X201123390Y-102634285D02*
X201171009Y-102681904D01*
X201171009Y-102681904D02*
X201266247Y-102729523D01*
X202226666Y-95004819D02*
X202226666Y-95719104D01*
X202226666Y-95719104D02*
X202179047Y-95861961D01*
X202179047Y-95861961D02*
X202083809Y-95957200D01*
X202083809Y-95957200D02*
X201940952Y-96004819D01*
X201940952Y-96004819D02*
X201845714Y-96004819D01*
X202607619Y-95004819D02*
X203226666Y-95004819D01*
X203226666Y-95004819D02*
X202893333Y-95385771D01*
X202893333Y-95385771D02*
X203036190Y-95385771D01*
X203036190Y-95385771D02*
X203131428Y-95433390D01*
X203131428Y-95433390D02*
X203179047Y-95481009D01*
X203179047Y-95481009D02*
X203226666Y-95576247D01*
X203226666Y-95576247D02*
X203226666Y-95814342D01*
X203226666Y-95814342D02*
X203179047Y-95909580D01*
X203179047Y-95909580D02*
X203131428Y-95957200D01*
X203131428Y-95957200D02*
X203036190Y-96004819D01*
X203036190Y-96004819D02*
X202750476Y-96004819D01*
X202750476Y-96004819D02*
X202655238Y-95957200D01*
X202655238Y-95957200D02*
X202607619Y-95909580D01*
X200689580Y-96912857D02*
X200737200Y-96960476D01*
X200737200Y-96960476D02*
X200784819Y-97103333D01*
X200784819Y-97103333D02*
X200784819Y-97198571D01*
X200784819Y-97198571D02*
X200737200Y-97341428D01*
X200737200Y-97341428D02*
X200641961Y-97436666D01*
X200641961Y-97436666D02*
X200546723Y-97484285D01*
X200546723Y-97484285D02*
X200356247Y-97531904D01*
X200356247Y-97531904D02*
X200213390Y-97531904D01*
X200213390Y-97531904D02*
X200022914Y-97484285D01*
X200022914Y-97484285D02*
X199927676Y-97436666D01*
X199927676Y-97436666D02*
X199832438Y-97341428D01*
X199832438Y-97341428D02*
X199784819Y-97198571D01*
X199784819Y-97198571D02*
X199784819Y-97103333D01*
X199784819Y-97103333D02*
X199832438Y-96960476D01*
X199832438Y-96960476D02*
X199880057Y-96912857D01*
X200118152Y-96055714D02*
X200784819Y-96055714D01*
X199737200Y-96293809D02*
X200451485Y-96531904D01*
X200451485Y-96531904D02*
X200451485Y-95912857D01*
X200213390Y-95389047D02*
X200165771Y-95484285D01*
X200165771Y-95484285D02*
X200118152Y-95531904D01*
X200118152Y-95531904D02*
X200022914Y-95579523D01*
X200022914Y-95579523D02*
X199975295Y-95579523D01*
X199975295Y-95579523D02*
X199880057Y-95531904D01*
X199880057Y-95531904D02*
X199832438Y-95484285D01*
X199832438Y-95484285D02*
X199784819Y-95389047D01*
X199784819Y-95389047D02*
X199784819Y-95198571D01*
X199784819Y-95198571D02*
X199832438Y-95103333D01*
X199832438Y-95103333D02*
X199880057Y-95055714D01*
X199880057Y-95055714D02*
X199975295Y-95008095D01*
X199975295Y-95008095D02*
X200022914Y-95008095D01*
X200022914Y-95008095D02*
X200118152Y-95055714D01*
X200118152Y-95055714D02*
X200165771Y-95103333D01*
X200165771Y-95103333D02*
X200213390Y-95198571D01*
X200213390Y-95198571D02*
X200213390Y-95389047D01*
X200213390Y-95389047D02*
X200261009Y-95484285D01*
X200261009Y-95484285D02*
X200308628Y-95531904D01*
X200308628Y-95531904D02*
X200403866Y-95579523D01*
X200403866Y-95579523D02*
X200594342Y-95579523D01*
X200594342Y-95579523D02*
X200689580Y-95531904D01*
X200689580Y-95531904D02*
X200737200Y-95484285D01*
X200737200Y-95484285D02*
X200784819Y-95389047D01*
X200784819Y-95389047D02*
X200784819Y-95198571D01*
X200784819Y-95198571D02*
X200737200Y-95103333D01*
X200737200Y-95103333D02*
X200689580Y-95055714D01*
X200689580Y-95055714D02*
X200594342Y-95008095D01*
X200594342Y-95008095D02*
X200403866Y-95008095D01*
X200403866Y-95008095D02*
X200308628Y-95055714D01*
X200308628Y-95055714D02*
X200261009Y-95103333D01*
X200261009Y-95103333D02*
X200213390Y-95198571D01*
X168877142Y-103014819D02*
X168543809Y-102538628D01*
X168305714Y-103014819D02*
X168305714Y-102014819D01*
X168305714Y-102014819D02*
X168686666Y-102014819D01*
X168686666Y-102014819D02*
X168781904Y-102062438D01*
X168781904Y-102062438D02*
X168829523Y-102110057D01*
X168829523Y-102110057D02*
X168877142Y-102205295D01*
X168877142Y-102205295D02*
X168877142Y-102348152D01*
X168877142Y-102348152D02*
X168829523Y-102443390D01*
X168829523Y-102443390D02*
X168781904Y-102491009D01*
X168781904Y-102491009D02*
X168686666Y-102538628D01*
X168686666Y-102538628D02*
X168305714Y-102538628D01*
X169829523Y-103014819D02*
X169258095Y-103014819D01*
X169543809Y-103014819D02*
X169543809Y-102014819D01*
X169543809Y-102014819D02*
X169448571Y-102157676D01*
X169448571Y-102157676D02*
X169353333Y-102252914D01*
X169353333Y-102252914D02*
X169258095Y-102300533D01*
X170734285Y-102014819D02*
X170258095Y-102014819D01*
X170258095Y-102014819D02*
X170210476Y-102491009D01*
X170210476Y-102491009D02*
X170258095Y-102443390D01*
X170258095Y-102443390D02*
X170353333Y-102395771D01*
X170353333Y-102395771D02*
X170591428Y-102395771D01*
X170591428Y-102395771D02*
X170686666Y-102443390D01*
X170686666Y-102443390D02*
X170734285Y-102491009D01*
X170734285Y-102491009D02*
X170781904Y-102586247D01*
X170781904Y-102586247D02*
X170781904Y-102824342D01*
X170781904Y-102824342D02*
X170734285Y-102919580D01*
X170734285Y-102919580D02*
X170686666Y-102967200D01*
X170686666Y-102967200D02*
X170591428Y-103014819D01*
X170591428Y-103014819D02*
X170353333Y-103014819D01*
X170353333Y-103014819D02*
X170258095Y-102967200D01*
X170258095Y-102967200D02*
X170210476Y-102919580D01*
D12*
%TO.C,R6*%
X172924724Y-112487500D02*
X172415276Y-112487500D01*
X172924724Y-113532500D02*
X172415276Y-113532500D01*
%TO.C,C39*%
X172930000Y-110323733D02*
X172930000Y-110616267D01*
X173950000Y-110323733D02*
X173950000Y-110616267D01*
%TO.C,U11*%
X167632500Y-109530000D02*
X167682500Y-109530000D01*
X167632500Y-111350000D02*
X167632500Y-109530000D01*
X167682500Y-111350000D02*
X167632500Y-111350000D01*
X170702500Y-109530000D02*
X170752500Y-109530000D01*
X170752500Y-109530000D02*
X170752500Y-111350000D01*
X170752500Y-111350000D02*
X170702500Y-111350000D01*
X171032500Y-109230000D02*
X170702500Y-108990000D01*
X171032500Y-108750000D01*
X171032500Y-109230000D01*
G36*
X171032500Y-109230000D02*
G01*
X170702500Y-108990000D01*
X171032500Y-108750000D01*
X171032500Y-109230000D01*
G37*
%TO.C,R1*%
X172924724Y-107337500D02*
X172415276Y-107337500D01*
X172924724Y-108382500D02*
X172415276Y-108382500D01*
D13*
%TO.C,J1*%
X205050000Y-94480000D02*
X205050000Y-95080000D01*
X205050000Y-95080000D02*
X205550000Y-94780000D01*
X205550000Y-94780000D02*
X205050000Y-94480000D01*
X206100000Y-99880000D02*
X206100000Y-93880000D01*
X206100000Y-99880000D02*
X206700000Y-99880000D01*
X206700000Y-93880000D02*
X206100000Y-93880000D01*
X213400000Y-93880000D02*
X212800000Y-93880000D01*
X213400000Y-99880000D02*
X212800000Y-99880000D01*
X213400000Y-99880000D02*
X213400000Y-93880000D01*
%TO.C,U3*%
X176775000Y-108975000D02*
X176775000Y-109765000D01*
X176775000Y-108975000D02*
X177565000Y-108975000D01*
X176775000Y-118975000D02*
X176775000Y-118185000D01*
X176775000Y-118975000D02*
X177565000Y-118975000D01*
X186775000Y-108975000D02*
X185985000Y-108975000D01*
X186775000Y-108975000D02*
X186775000Y-109765000D01*
X186775000Y-118975000D02*
X185985000Y-118975000D01*
X186775000Y-118975000D02*
X186775000Y-118185000D01*
D14*
X174435000Y-110225000D02*
G75*
G02*
X174235000Y-110225000I-100000J0D01*
G01*
X174235000Y-110225000D02*
G75*
G02*
X174435000Y-110225000I100000J0D01*
G01*
D12*
%TO.C,C40*%
X167993733Y-106550000D02*
X168286267Y-106550000D01*
X167993733Y-107570000D02*
X168286267Y-107570000D01*
%TO.C,C30*%
X179710000Y-105136267D02*
X179710000Y-104843733D01*
X180730000Y-105136267D02*
X180730000Y-104843733D01*
%TO.C,C18*%
X185800000Y-105336267D02*
X185800000Y-105043733D01*
X186820000Y-105336267D02*
X186820000Y-105043733D01*
%TO.C,C14*%
X180771267Y-124615000D02*
X180478733Y-124615000D01*
X180771267Y-125635000D02*
X180478733Y-125635000D01*
%TO.C,U9*%
X194348379Y-93011132D02*
X196168379Y-93011132D01*
X194348379Y-93061132D02*
X194348379Y-93011132D01*
X194348379Y-96131132D02*
X194348379Y-96081132D01*
X196168379Y-93011132D02*
X196168379Y-93061132D01*
X196168379Y-96081132D02*
X196168379Y-96131132D01*
X196168379Y-96131132D02*
X194348379Y-96131132D01*
X193808379Y-93061132D02*
X193568379Y-92731132D01*
X194048379Y-92731132D01*
X193808379Y-93061132D01*
G36*
X193808379Y-93061132D02*
G01*
X193568379Y-92731132D01*
X194048379Y-92731132D01*
X193808379Y-93061132D01*
G37*
%TO.C,C29*%
X181690000Y-105146267D02*
X181690000Y-104853733D01*
X182710000Y-105146267D02*
X182710000Y-104853733D01*
%TO.C,R13*%
X215147500Y-89774724D02*
X215147500Y-89265276D01*
X216192500Y-89774724D02*
X216192500Y-89265276D01*
%TO.C,C32*%
X176776267Y-120930000D02*
X176483733Y-120930000D01*
X176776267Y-121950000D02*
X176483733Y-121950000D01*
%TO.C,C34*%
X194640000Y-100326267D02*
X194640000Y-100033733D01*
X195660000Y-100326267D02*
X195660000Y-100033733D01*
%TO.C,F1*%
X211201252Y-90350000D02*
X210678748Y-90350000D01*
X211201252Y-91770000D02*
X210678748Y-91770000D01*
%TO.C,C41*%
X171400000Y-100946267D02*
X171400000Y-100653733D01*
X172420000Y-100946267D02*
X172420000Y-100653733D01*
D10*
%TO.C,SW1*%
X205160000Y-84780000D02*
X214160000Y-84780000D01*
X205160000Y-85280000D02*
X205160000Y-84780000D01*
X205160000Y-88780000D02*
X205160000Y-85280000D01*
X214160000Y-85280000D02*
X214160000Y-84780000D01*
X214160000Y-85280000D02*
X214160000Y-88780000D01*
X214160000Y-88780000D02*
X205160000Y-88780000D01*
D12*
%TO.C,R12*%
X183677500Y-104745276D02*
X183677500Y-105254724D01*
X184722500Y-104745276D02*
X184722500Y-105254724D01*
%TO.C,C42*%
X177396267Y-103740000D02*
X177103733Y-103740000D01*
X177396267Y-104760000D02*
X177103733Y-104760000D01*
%TO.C,U8*%
X173850000Y-98417500D02*
X175670000Y-98417500D01*
X173850000Y-98467500D02*
X173850000Y-98417500D01*
X173850000Y-101537500D02*
X173850000Y-101487500D01*
X175670000Y-98417500D02*
X175670000Y-98467500D01*
X175670000Y-101487500D02*
X175670000Y-101537500D01*
X175670000Y-101537500D02*
X173850000Y-101537500D01*
X173310000Y-98467500D02*
X173070000Y-98137500D01*
X173550000Y-98137500D01*
X173310000Y-98467500D01*
G36*
X173310000Y-98467500D02*
G01*
X173070000Y-98137500D01*
X173550000Y-98137500D01*
X173310000Y-98467500D01*
G37*
%TO.C,D1*%
X190165000Y-101865000D02*
X190165000Y-103335000D01*
X190165000Y-103335000D02*
X192625000Y-103335000D01*
X192625000Y-101865000D02*
X190165000Y-101865000D01*
D13*
%TO.C,U1*%
X193500000Y-110817500D02*
X195545000Y-110817500D01*
X193500000Y-119757500D02*
X193500000Y-110817500D01*
X195545000Y-110817500D02*
X195545000Y-108303800D01*
X195545000Y-119757500D02*
X193500000Y-119757500D01*
X195545000Y-122271200D02*
X195545000Y-119757500D01*
X216500000Y-108303800D02*
X216500000Y-122271200D01*
D14*
X198502500Y-126287500D02*
G75*
G02*
X198302500Y-126287500I-100000J0D01*
G01*
X198302500Y-126287500D02*
G75*
G02*
X198502500Y-126287500I100000J0D01*
G01*
D12*
%TO.C,R16*%
X177627500Y-99795276D02*
X177627500Y-100304724D01*
X178672500Y-99795276D02*
X178672500Y-100304724D01*
%TO.C,C31*%
X179990000Y-122353733D02*
X179990000Y-122646267D01*
X181010000Y-122353733D02*
X181010000Y-122646267D01*
%TO.C,C11*%
X184715000Y-124486252D02*
X184715000Y-123063748D01*
X187435000Y-124486252D02*
X187435000Y-123063748D01*
%TO.C,C19*%
X188740000Y-107396267D02*
X188740000Y-107103733D01*
X189760000Y-107396267D02*
X189760000Y-107103733D01*
%TO.C,R7*%
X188070276Y-102077500D02*
X188579724Y-102077500D01*
X188070276Y-103122500D02*
X188579724Y-103122500D01*
%TO.C,R2*%
X177504724Y-105477500D02*
X176995276Y-105477500D01*
X177504724Y-106522500D02*
X176995276Y-106522500D01*
%TO.C,J2*%
X190160000Y-86340000D02*
X190160000Y-84830000D01*
X190160000Y-90240000D02*
X190160000Y-88240000D01*
X199320000Y-84830000D02*
X190160000Y-84830000D01*
X199320000Y-86340000D02*
X199320000Y-84830000D01*
X199320000Y-90240000D02*
X199320000Y-88240000D01*
%TO.C,R14*%
X215147500Y-93144724D02*
X215147500Y-92635276D01*
X216192500Y-93144724D02*
X216192500Y-92635276D01*
%TO.C,C13*%
X182590000Y-123738748D02*
X182590000Y-124261252D01*
X184060000Y-123738748D02*
X184060000Y-124261252D01*
%TO.C,U6*%
X197090000Y-98690000D02*
X198910000Y-98690000D01*
X197090000Y-98740000D02*
X197090000Y-98690000D01*
X197090000Y-100640000D02*
X197090000Y-99860000D01*
X197090000Y-101810000D02*
X197090000Y-101760000D01*
X198910000Y-98690000D02*
X198910000Y-98740000D01*
X198910000Y-101760000D02*
X198910000Y-101810000D01*
X198910000Y-101810000D02*
X197090000Y-101810000D01*
X199690000Y-102090000D02*
X199210000Y-102090000D01*
X199450000Y-101760000D01*
X199690000Y-102090000D01*
G36*
X199690000Y-102090000D02*
G01*
X199210000Y-102090000D01*
X199450000Y-101760000D01*
X199690000Y-102090000D01*
G37*
%TO.C,TP6*%
X189020000Y-92440000D02*
G75*
G02*
X184520000Y-92440000I-2250000J0D01*
G01*
X184520000Y-92440000D02*
G75*
G02*
X189020000Y-92440000I2250000J0D01*
G01*
%TO.C,TP10*%
X183850000Y-92470000D02*
G75*
G02*
X179350000Y-92470000I-2250000J0D01*
G01*
X179350000Y-92470000D02*
G75*
G02*
X183850000Y-92470000I2250000J0D01*
G01*
%TO.C,R5*%
X180477500Y-100354724D02*
X180477500Y-99845276D01*
X181522500Y-100354724D02*
X181522500Y-99845276D01*
%TO.C,C36*%
X200730000Y-100456267D02*
X200730000Y-100163733D01*
X201750000Y-100456267D02*
X201750000Y-100163733D01*
%TO.C,J3*%
X201180000Y-91900000D02*
X201180000Y-86710000D01*
X203940000Y-86710000D02*
X201180000Y-86710000D01*
X203940000Y-91900000D02*
X201180000Y-91900000D01*
X203940000Y-91900000D02*
X203940000Y-86710000D01*
X203940000Y-93170000D02*
X203940000Y-94550000D01*
X203940000Y-94550000D02*
X202560000Y-94550000D01*
%TO.C,C48*%
X197620000Y-95156267D02*
X197620000Y-94863733D01*
X198640000Y-95156267D02*
X198640000Y-94863733D01*
%TO.C,R15*%
X175245276Y-101977500D02*
X175754724Y-101977500D01*
X175245276Y-103022500D02*
X175754724Y-103022500D01*
%TD*%
M02*
