%TF.GenerationSoftware,KiCad,Pcbnew,9.0.6*%
%TF.CreationDate,2026-05-16T16:18:30-04:00*%
%TF.ProjectId,EMG_PCB,454d475f-5043-4422-9e6b-696361645f70,rev?*%
%TF.SameCoordinates,Original*%
%TF.FileFunction,Soldermask,Top*%
%TF.FilePolarity,Negative*%
%FSLAX46Y46*%
G04 Gerber Fmt 4.6, Leading zero omitted, Abs format (unit mm)*
G04 Created by KiCad (PCBNEW 9.0.6) date 2026-05-16 16:18:30*
%MOMM*%
%LPD*%
G01*
G04 APERTURE LIST*
G04 Aperture macros list*
%AMRoundRect*
0 Rectangle with rounded corners*
0 $1 Rounding radius*
0 $2 $3 $4 $5 $6 $7 $8 $9 X,Y pos of 4 corners*
0 Add a 4 corners polygon primitive as box body*
4,1,4,$2,$3,$4,$5,$6,$7,$8,$9,$2,$3,0*
0 Add four circle primitives for the rounded corners*
1,1,$1+$1,$2,$3*
1,1,$1+$1,$4,$5*
1,1,$1+$1,$6,$7*
1,1,$1+$1,$8,$9*
0 Add four rect primitives between the rounded corners*
20,1,$1+$1,$2,$3,$4,$5,0*
20,1,$1+$1,$4,$5,$6,$7,0*
20,1,$1+$1,$6,$7,$8,$9,0*
20,1,$1+$1,$8,$9,$2,$3,0*%
%AMHorizOval*
0 Thick line with rounded ends*
0 $1 width*
0 $2 $3 position (X,Y) of the first rounded end (center of the circle)*
0 $4 $5 position (X,Y) of the second rounded end (center of the circle)*
0 Add line between two ends*
20,1,$1,$2,$3,$4,$5,0*
0 Add two circle primitives to create the rounded ends*
1,1,$1,$2,$3*
1,1,$1,$4,$5*%
G04 Aperture macros list end*
%ADD10C,0.010000*%
%ADD11RoundRect,0.237500X0.250000X0.237500X-0.250000X0.237500X-0.250000X-0.237500X0.250000X-0.237500X0*%
%ADD12RoundRect,0.237500X-0.237500X0.300000X-0.237500X-0.300000X0.237500X-0.300000X0.237500X0.300000X0*%
%ADD13RoundRect,0.150000X-0.150000X0.512500X-0.150000X-0.512500X0.150000X-0.512500X0.150000X0.512500X0*%
%ADD14RoundRect,0.100000X0.217500X0.100000X-0.217500X0.100000X-0.217500X-0.100000X0.217500X-0.100000X0*%
%ADD15RoundRect,0.100000X-0.217500X-0.100000X0.217500X-0.100000X0.217500X0.100000X-0.217500X0.100000X0*%
%ADD16RoundRect,0.060500X-0.821500X-0.181500X0.821500X-0.181500X0.821500X0.181500X-0.821500X0.181500X0*%
%ADD17RoundRect,0.060500X-0.181500X-0.821500X0.181500X-0.821500X0.181500X0.821500X-0.181500X0.821500X0*%
%ADD18RoundRect,0.237500X-0.300000X-0.237500X0.300000X-0.237500X0.300000X0.237500X-0.300000X0.237500X0*%
%ADD19RoundRect,0.237500X0.237500X-0.300000X0.237500X0.300000X-0.237500X0.300000X-0.237500X-0.300000X0*%
%ADD20RoundRect,0.237500X0.300000X0.237500X-0.300000X0.237500X-0.300000X-0.237500X0.300000X-0.237500X0*%
%ADD21RoundRect,0.150000X-0.512500X-0.150000X0.512500X-0.150000X0.512500X0.150000X-0.512500X0.150000X0*%
%ADD22RoundRect,0.237500X0.237500X-0.250000X0.237500X0.250000X-0.237500X0.250000X-0.237500X-0.250000X0*%
%ADD23RoundRect,0.250000X0.325000X0.450000X-0.325000X0.450000X-0.325000X-0.450000X0.325000X-0.450000X0*%
%ADD24C,1.300000*%
%ADD25RoundRect,0.237500X-0.237500X0.250000X-0.237500X-0.250000X0.237500X-0.250000X0.237500X0.250000X0*%
%ADD26RoundRect,0.237500X-0.287500X-0.237500X0.287500X-0.237500X0.287500X0.237500X-0.287500X0.237500X0*%
%ADD27RoundRect,0.033060X1.068940X-1.568940X1.068940X1.568940X-1.068940X1.568940X-1.068940X-1.568940X0*%
%ADD28RoundRect,0.250000X1.100000X-0.412500X1.100000X0.412500X-1.100000X0.412500X-1.100000X-0.412500X0*%
%ADD29RoundRect,0.237500X-0.250000X-0.237500X0.250000X-0.237500X0.250000X0.237500X-0.250000X0.237500X0*%
%ADD30RoundRect,0.175000X0.175000X0.625000X-0.175000X0.625000X-0.175000X-0.625000X0.175000X-0.625000X0*%
%ADD31RoundRect,0.200000X0.200000X0.600000X-0.200000X0.600000X-0.200000X-0.600000X0.200000X-0.600000X0*%
%ADD32RoundRect,0.225000X0.225000X0.575000X-0.225000X0.575000X-0.225000X-0.575000X0.225000X-0.575000X0*%
%ADD33O,1.000000X1.700000*%
%ADD34RoundRect,0.250000X-0.475000X0.337500X-0.475000X-0.337500X0.475000X-0.337500X0.475000X0.337500X0*%
%ADD35RoundRect,0.150000X0.512500X0.150000X-0.512500X0.150000X-0.512500X-0.150000X0.512500X-0.150000X0*%
%ADD36C,4.000000*%
%ADD37R,1.700000X1.700000*%
%ADD38C,1.700000*%
%ADD39HorizOval,2.300000X0.350000X-0.606218X-0.350000X0.606218X0*%
%ADD40HorizOval,2.300000X0.350000X0.606218X-0.350000X-0.606218X0*%
%ADD41O,3.700000X2.300000*%
%ADD42C,2.000000*%
G04 APERTURE END LIST*
D10*
%TO.C,J1*%
X208001200Y-96106200D02*
X206998800Y-96106200D01*
X206998800Y-93303800D01*
X208001200Y-93303800D01*
X208001200Y-96106200D01*
G36*
X208001200Y-96106200D02*
G01*
X206998800Y-96106200D01*
X206998800Y-93303800D01*
X208001200Y-93303800D01*
X208001200Y-96106200D01*
G37*
X208001200Y-100456200D02*
X206998800Y-100456200D01*
X206998800Y-96753800D01*
X208001200Y-96753800D01*
X208001200Y-100456200D01*
G36*
X208001200Y-100456200D02*
G01*
X206998800Y-100456200D01*
X206998800Y-96753800D01*
X208001200Y-96753800D01*
X208001200Y-100456200D01*
G37*
X209501200Y-96106200D02*
X208498800Y-96106200D01*
X208498800Y-93303800D01*
X209501200Y-93303800D01*
X209501200Y-96106200D01*
G36*
X209501200Y-96106200D02*
G01*
X208498800Y-96106200D01*
X208498800Y-93303800D01*
X209501200Y-93303800D01*
X209501200Y-96106200D01*
G37*
X209501200Y-100456200D02*
X208498800Y-100456200D01*
X208498800Y-96753800D01*
X209501200Y-96753800D01*
X209501200Y-100456200D01*
G36*
X209501200Y-100456200D02*
G01*
X208498800Y-100456200D01*
X208498800Y-96753800D01*
X209501200Y-96753800D01*
X209501200Y-100456200D01*
G37*
X211001200Y-96106200D02*
X209998800Y-96106200D01*
X209998800Y-93303800D01*
X211001200Y-93303800D01*
X211001200Y-96106200D01*
G36*
X211001200Y-96106200D02*
G01*
X209998800Y-96106200D01*
X209998800Y-93303800D01*
X211001200Y-93303800D01*
X211001200Y-96106200D01*
G37*
X211001200Y-100456200D02*
X209998800Y-100456200D01*
X209998800Y-96753800D01*
X211001200Y-96753800D01*
X211001200Y-100456200D01*
G36*
X211001200Y-100456200D02*
G01*
X209998800Y-100456200D01*
X209998800Y-96753800D01*
X211001200Y-96753800D01*
X211001200Y-100456200D01*
G37*
X212501200Y-96106200D02*
X211498800Y-96106200D01*
X211498800Y-93303800D01*
X212501200Y-93303800D01*
X212501200Y-96106200D01*
G36*
X212501200Y-96106200D02*
G01*
X211498800Y-96106200D01*
X211498800Y-93303800D01*
X212501200Y-93303800D01*
X212501200Y-96106200D01*
G37*
X212501200Y-100456200D02*
X211498800Y-100456200D01*
X211498800Y-96753800D01*
X212501200Y-96753800D01*
X212501200Y-100456200D01*
G36*
X212501200Y-100456200D02*
G01*
X211498800Y-100456200D01*
X211498800Y-96753800D01*
X212501200Y-96753800D01*
X212501200Y-100456200D01*
G37*
%TD*%
D11*
%TO.C,R6*%
X173582500Y-113010000D03*
X171757500Y-113010000D03*
%TD*%
D12*
%TO.C,C39*%
X173440000Y-109607500D03*
X173440000Y-111332500D03*
%TD*%
D13*
%TO.C,U11*%
X170142500Y-109302500D03*
X169192500Y-109302500D03*
X168242500Y-109302500D03*
X168242500Y-111577500D03*
X169192500Y-111577500D03*
X170142500Y-111577500D03*
%TD*%
D11*
%TO.C,R1*%
X173582500Y-107860000D03*
X171757500Y-107860000D03*
%TD*%
D14*
%TO.C,R17*%
X196047500Y-96820000D03*
X195232500Y-96820000D03*
%TD*%
D15*
%TO.C,R18*%
X199402500Y-93230000D03*
X200217500Y-93230000D03*
%TD*%
D16*
%TO.C,U3*%
X176095000Y-110225000D03*
X176095000Y-110725000D03*
X176095000Y-111225000D03*
X176095000Y-111725000D03*
X176095000Y-112225000D03*
X176095000Y-112725000D03*
X176095000Y-113225000D03*
X176095000Y-113725000D03*
X176095000Y-114225000D03*
X176095000Y-114725000D03*
X176095000Y-115225000D03*
X176095000Y-115725000D03*
X176095000Y-116225000D03*
X176095000Y-116725000D03*
X176095000Y-117225000D03*
X176095000Y-117725000D03*
D17*
X178025000Y-119655000D03*
X178525000Y-119655000D03*
X179025000Y-119655000D03*
X179525000Y-119655000D03*
X180025000Y-119655000D03*
X180525000Y-119655000D03*
X181025000Y-119655000D03*
X181525000Y-119655000D03*
X182025000Y-119655000D03*
X182525000Y-119655000D03*
X183025000Y-119655000D03*
X183525000Y-119655000D03*
X184025000Y-119655000D03*
X184525000Y-119655000D03*
X185025000Y-119655000D03*
X185525000Y-119655000D03*
D16*
X187455000Y-117725000D03*
X187455000Y-117225000D03*
X187455000Y-116725000D03*
X187455000Y-116225000D03*
X187455000Y-115725000D03*
X187455000Y-115225000D03*
X187455000Y-114725000D03*
X187455000Y-114225000D03*
X187455000Y-113725000D03*
X187455000Y-113225000D03*
X187455000Y-112725000D03*
X187455000Y-112225000D03*
X187455000Y-111725000D03*
X187455000Y-111225000D03*
X187455000Y-110725000D03*
X187455000Y-110225000D03*
D17*
X185525000Y-108295000D03*
X185025000Y-108295000D03*
X184525000Y-108295000D03*
X184025000Y-108295000D03*
X183525000Y-108295000D03*
X183025000Y-108295000D03*
X182525000Y-108295000D03*
X182025000Y-108295000D03*
X181525000Y-108295000D03*
X181025000Y-108295000D03*
X180525000Y-108295000D03*
X180025000Y-108295000D03*
X179525000Y-108295000D03*
X179025000Y-108295000D03*
X178525000Y-108295000D03*
X178025000Y-108295000D03*
%TD*%
D18*
%TO.C,C40*%
X169002500Y-107060000D03*
X167277500Y-107060000D03*
%TD*%
D19*
%TO.C,C30*%
X180220000Y-105852500D03*
X180220000Y-104127500D03*
%TD*%
%TO.C,C18*%
X186310000Y-106052500D03*
X186310000Y-104327500D03*
%TD*%
D20*
%TO.C,C14*%
X181487500Y-125125000D03*
X179762500Y-125125000D03*
%TD*%
D21*
%TO.C,U9*%
X194120879Y-93621132D03*
X194120879Y-94571132D03*
X194120879Y-95521132D03*
X196395879Y-95521132D03*
X196395879Y-94571132D03*
X196395879Y-93621132D03*
%TD*%
D19*
%TO.C,C29*%
X182200000Y-105862500D03*
X182200000Y-104137500D03*
%TD*%
D22*
%TO.C,R13*%
X215670000Y-90432500D03*
X215670000Y-88607500D03*
%TD*%
D20*
%TO.C,C32*%
X177492500Y-121440000D03*
X175767500Y-121440000D03*
%TD*%
D19*
%TO.C,C34*%
X195150000Y-101042500D03*
X195150000Y-99317500D03*
%TD*%
D23*
%TO.C,F1*%
X211965000Y-91060000D03*
X209915000Y-91060000D03*
%TD*%
D19*
%TO.C,C41*%
X171910000Y-101662500D03*
X171910000Y-99937500D03*
%TD*%
D24*
%TO.C,SW1*%
X212160000Y-87780000D03*
X209660000Y-87780000D03*
X207160000Y-87780000D03*
%TD*%
D25*
%TO.C,R12*%
X184200000Y-104087500D03*
X184200000Y-105912500D03*
%TD*%
D20*
%TO.C,C42*%
X178112500Y-104250000D03*
X176387500Y-104250000D03*
%TD*%
D21*
%TO.C,U8*%
X173622500Y-99027500D03*
X173622500Y-99977500D03*
X173622500Y-100927500D03*
X175897500Y-100927500D03*
X175897500Y-99977500D03*
X175897500Y-99027500D03*
%TD*%
D26*
%TO.C,D1*%
X190950000Y-102600000D03*
X192700000Y-102600000D03*
%TD*%
D27*
%TO.C,U1*%
X198402500Y-123787500D03*
X200942500Y-123787500D03*
X203482500Y-123787500D03*
X206022500Y-123787500D03*
X203482500Y-106787500D03*
X208562500Y-123787500D03*
X211102500Y-123787500D03*
X213642500Y-123787500D03*
X213642500Y-106787500D03*
X211102500Y-106787500D03*
X208562500Y-106787500D03*
X206022500Y-106787500D03*
X200942500Y-106787500D03*
X198402500Y-106787500D03*
%TD*%
D25*
%TO.C,R16*%
X178150000Y-99137500D03*
X178150000Y-100962500D03*
%TD*%
D12*
%TO.C,C31*%
X180500000Y-121637500D03*
X180500000Y-123362500D03*
%TD*%
D28*
%TO.C,C11*%
X186075000Y-125337500D03*
X186075000Y-122212500D03*
%TD*%
D19*
%TO.C,C19*%
X189250000Y-108112500D03*
X189250000Y-106387500D03*
%TD*%
D29*
%TO.C,R7*%
X187412500Y-102600000D03*
X189237500Y-102600000D03*
%TD*%
D11*
%TO.C,R2*%
X178162500Y-106000000D03*
X176337500Y-106000000D03*
%TD*%
D30*
%TO.C,J2*%
X195240000Y-91520000D03*
D31*
X193220000Y-91520000D03*
D32*
X191990000Y-91520000D03*
D30*
X194240000Y-91520000D03*
D31*
X196260000Y-91520000D03*
D32*
X197490000Y-91520000D03*
D33*
X199060000Y-91340000D03*
X199060000Y-87540000D03*
X190420000Y-91340000D03*
X190420000Y-87540000D03*
%TD*%
D22*
%TO.C,R14*%
X215670000Y-93802500D03*
X215670000Y-91977500D03*
%TD*%
D34*
%TO.C,C13*%
X183325000Y-122962500D03*
X183325000Y-125037500D03*
%TD*%
D35*
%TO.C,U6*%
X199137500Y-101200000D03*
X199137500Y-100250000D03*
X199137500Y-99300000D03*
X196862500Y-99300000D03*
X196862500Y-101200000D03*
%TD*%
D36*
%TO.C,TP6*%
X186770000Y-92440000D03*
%TD*%
%TO.C,TP10*%
X181600000Y-92470000D03*
%TD*%
D22*
%TO.C,R5*%
X181000000Y-101012500D03*
X181000000Y-99187500D03*
%TD*%
D19*
%TO.C,C36*%
X201240000Y-101172500D03*
X201240000Y-99447500D03*
%TD*%
D37*
%TO.C,J3*%
X202560000Y-93170000D03*
D38*
X202560000Y-90630000D03*
X202560000Y-88090000D03*
%TD*%
D19*
%TO.C,C48*%
X198130000Y-95872500D03*
X198130000Y-94147500D03*
%TD*%
D29*
%TO.C,R15*%
X174587500Y-102500000D03*
X176412500Y-102500000D03*
%TD*%
D39*
%TO.C,H4*%
X167580000Y-96370000D03*
D40*
X177972304Y-96370000D03*
D41*
X172776152Y-87370000D03*
%TD*%
D39*
%TO.C,H5*%
X167503848Y-124025000D03*
D40*
X177896152Y-124025000D03*
D41*
X172700000Y-115025000D03*
%TD*%
D42*
%TO.C,H1*%
X203750000Y-119250000D03*
%TD*%
%TO.C,H3*%
X200160000Y-114010000D03*
%TD*%
%TO.C,H2*%
X205790000Y-120380000D03*
%TD*%
M02*
