%TF.GenerationSoftware,KiCad,Pcbnew,9.0.6*%
%TF.CreationDate,2026-05-16T16:18:29-04:00*%
%TF.ProjectId,EMG_PCB,454d475f-5043-4422-9e6b-696361645f70,rev?*%
%TF.SameCoordinates,Original*%
%TF.FileFunction,Paste,Bot*%
%TF.FilePolarity,Positive*%
%FSLAX46Y46*%
G04 Gerber Fmt 4.6, Leading zero omitted, Abs format (unit mm)*
G04 Created by KiCad (PCBNEW 9.0.6) date 2026-05-16 16:18:29*
%MOMM*%
%LPD*%
G01*
G04 APERTURE LIST*
G04 Aperture macros list*
%AMRoundRect*
0 Rectangle with rounded corners*
0 $1 Rounding radius*
0 $2 $3 $4 $5 $6 $7 $8 $9 X,Y pos of 4 corners*
0 Add a 4 corners polygon primitive as box body*
4,1,4,$2,$3,$4,$5,$6,$7,$8,$9,$2,$3,0*
0 Add four circle primitives for the rounded corners*
1,1,$1+$1,$2,$3*
1,1,$1+$1,$4,$5*
1,1,$1+$1,$6,$7*
1,1,$1+$1,$8,$9*
0 Add four rect primitives between the rounded corners*
20,1,$1+$1,$2,$3,$4,$5,0*
20,1,$1+$1,$4,$5,$6,$7,0*
20,1,$1+$1,$6,$7,$8,$9,0*
20,1,$1+$1,$8,$9,$2,$3,0*%
G04 Aperture macros list end*
%ADD10RoundRect,0.237500X-0.237500X0.300000X-0.237500X-0.300000X0.237500X-0.300000X0.237500X0.300000X0*%
%ADD11RoundRect,0.237500X0.237500X-0.300000X0.237500X0.300000X-0.237500X0.300000X-0.237500X-0.300000X0*%
%ADD12RoundRect,0.250000X0.275000X0.350000X-0.275000X0.350000X-0.275000X-0.350000X0.275000X-0.350000X0*%
%ADD13RoundRect,0.250000X-0.475000X0.337500X-0.475000X-0.337500X0.475000X-0.337500X0.475000X0.337500X0*%
%ADD14RoundRect,0.250000X-0.337500X-0.475000X0.337500X-0.475000X0.337500X0.475000X-0.337500X0.475000X0*%
%ADD15RoundRect,0.250000X-0.350000X0.275000X-0.350000X-0.275000X0.350000X-0.275000X0.350000X0.275000X0*%
%ADD16RoundRect,0.250000X0.475000X-0.337500X0.475000X0.337500X-0.475000X0.337500X-0.475000X-0.337500X0*%
%ADD17RoundRect,0.237500X0.300000X0.237500X-0.300000X0.237500X-0.300000X-0.237500X0.300000X-0.237500X0*%
%ADD18RoundRect,0.237500X-0.300000X-0.237500X0.300000X-0.237500X0.300000X0.237500X-0.300000X0.237500X0*%
%ADD19RoundRect,0.250000X-0.275000X-0.350000X0.275000X-0.350000X0.275000X0.350000X-0.275000X0.350000X0*%
%ADD20RoundRect,0.150000X-0.150000X0.512500X-0.150000X-0.512500X0.150000X-0.512500X0.150000X0.512500X0*%
%ADD21RoundRect,0.237500X-0.250000X-0.237500X0.250000X-0.237500X0.250000X0.237500X-0.250000X0.237500X0*%
%ADD22RoundRect,0.150000X-0.512500X-0.150000X0.512500X-0.150000X0.512500X0.150000X-0.512500X0.150000X0*%
%ADD23RoundRect,0.237500X0.250000X0.237500X-0.250000X0.237500X-0.250000X-0.237500X0.250000X-0.237500X0*%
%ADD24RoundRect,0.250000X-0.575000X0.725000X-0.575000X-0.725000X0.575000X-0.725000X0.575000X0.725000X0*%
%ADD25RoundRect,0.250000X0.337500X0.475000X-0.337500X0.475000X-0.337500X-0.475000X0.337500X-0.475000X0*%
G04 APERTURE END LIST*
D10*
%TO.C,C15*%
X189840000Y-113377500D03*
X189840000Y-115102500D03*
%TD*%
D11*
%TO.C,C33*%
X215587500Y-106825000D03*
X215587500Y-105100000D03*
%TD*%
D12*
%TO.C,L4*%
X210237500Y-108462500D03*
X207937500Y-108462500D03*
%TD*%
D13*
%TO.C,C2*%
X198850000Y-97437500D03*
X198850000Y-99512500D03*
%TD*%
D14*
%TO.C,C24*%
X202802500Y-112640000D03*
X204877500Y-112640000D03*
%TD*%
D10*
%TO.C,C38*%
X180950000Y-110837500D03*
X180950000Y-112562500D03*
%TD*%
D15*
%TO.C,L3*%
X202820000Y-114570000D03*
X202820000Y-116870000D03*
%TD*%
D16*
%TO.C,C22*%
X204730000Y-116707500D03*
X204730000Y-114632500D03*
%TD*%
D17*
%TO.C,C47*%
X192802500Y-118580000D03*
X191077500Y-118580000D03*
%TD*%
%TO.C,C4*%
X205322500Y-98630000D03*
X203597500Y-98630000D03*
%TD*%
D18*
%TO.C,C28*%
X212225000Y-108712500D03*
X213950000Y-108712500D03*
%TD*%
D10*
%TO.C,C37*%
X181030000Y-119397500D03*
X181030000Y-121122500D03*
%TD*%
D11*
%TO.C,C16*%
X180500000Y-117050000D03*
X180500000Y-115325000D03*
%TD*%
D16*
%TO.C,C27*%
X210087500Y-106500000D03*
X210087500Y-104425000D03*
%TD*%
D19*
%TO.C,L1*%
X198325000Y-95650000D03*
X200625000Y-95650000D03*
%TD*%
D11*
%TO.C,C17*%
X178950000Y-117050000D03*
X178950000Y-115325000D03*
%TD*%
D18*
%TO.C,C35*%
X213925000Y-102650000D03*
X215650000Y-102650000D03*
%TD*%
%TO.C,C23*%
X199187500Y-111625000D03*
X200912500Y-111625000D03*
%TD*%
%TO.C,C45*%
X179747500Y-108360000D03*
X181472500Y-108360000D03*
%TD*%
D20*
%TO.C,U4*%
X211937500Y-104462500D03*
X212887500Y-104462500D03*
X213837500Y-104462500D03*
X213837500Y-106737500D03*
X211937500Y-106737500D03*
%TD*%
D19*
%TO.C,L2*%
X207287500Y-100112500D03*
X209587500Y-100112500D03*
%TD*%
D16*
%TO.C,C3*%
X204160000Y-97037500D03*
X204160000Y-94962500D03*
%TD*%
D21*
%TO.C,R9*%
X189337500Y-108000000D03*
X191162500Y-108000000D03*
%TD*%
D10*
%TO.C,C26*%
X196400000Y-120937500D03*
X196400000Y-122662500D03*
%TD*%
D22*
%TO.C,U2*%
X206087500Y-96812500D03*
X206087500Y-95862500D03*
X206087500Y-94912500D03*
X208362500Y-94912500D03*
X208362500Y-96812500D03*
%TD*%
D23*
%TO.C,R3*%
X186312500Y-113387170D03*
X184487500Y-113387170D03*
%TD*%
D10*
%TO.C,C43*%
X179450000Y-110837500D03*
X179450000Y-112562500D03*
%TD*%
D21*
%TO.C,R10*%
X189337500Y-109500000D03*
X191162500Y-109500000D03*
%TD*%
D16*
%TO.C,C25*%
X208087500Y-106500000D03*
X208087500Y-104425000D03*
%TD*%
D10*
%TO.C,C8*%
X182550000Y-117967500D03*
X182550000Y-119692500D03*
%TD*%
D23*
%TO.C,R11*%
X186312500Y-114887170D03*
X184487500Y-114887170D03*
%TD*%
D11*
%TO.C,C9*%
X184010000Y-119702500D03*
X184010000Y-117977500D03*
%TD*%
%TO.C,C12*%
X182440000Y-113922500D03*
X182440000Y-112197500D03*
%TD*%
%TO.C,C10*%
X184000000Y-111725000D03*
X184000000Y-110000000D03*
%TD*%
%TO.C,C6*%
X202600000Y-109862500D03*
X202600000Y-108137500D03*
%TD*%
D23*
%TO.C,R4*%
X186312500Y-116387170D03*
X184487500Y-116387170D03*
%TD*%
D20*
%TO.C,U5*%
X199100000Y-107687500D03*
X200050000Y-107687500D03*
X201000000Y-107687500D03*
X201000000Y-109962500D03*
X199100000Y-109962500D03*
%TD*%
D10*
%TO.C,C44*%
X184010000Y-106637500D03*
X184010000Y-108362500D03*
%TD*%
%TO.C,C46*%
X179530000Y-119397500D03*
X179530000Y-121122500D03*
%TD*%
D24*
%TO.C,OSC2*%
X193900000Y-113735000D03*
X193900000Y-116485000D03*
X191700000Y-116485000D03*
X191700000Y-113735000D03*
%TD*%
D17*
%TO.C,C5*%
X207837500Y-93362500D03*
X206112500Y-93362500D03*
%TD*%
D18*
%TO.C,C21*%
X201187500Y-105950000D03*
X202912500Y-105950000D03*
%TD*%
D14*
%TO.C,C20*%
X211400000Y-100112500D03*
X213475000Y-100112500D03*
%TD*%
D11*
%TO.C,C1*%
X202300000Y-96662500D03*
X202300000Y-94937500D03*
%TD*%
D23*
%TO.C,R8*%
X191122500Y-111290000D03*
X189297500Y-111290000D03*
%TD*%
D25*
%TO.C,C7*%
X205537500Y-100440000D03*
X203462500Y-100440000D03*
%TD*%
M02*
