M48
; DRILL file {KiCad 9.0.6} date 2026-05-16T16:18:33-0400
; FORMAT={-:-/ absolute / metric / decimal}
; #@! TF.CreationDate,2026-05-16T16:18:33-04:00
; #@! TF.GenerationSoftware,Kicad,Pcbnew,9.0.6
; #@! TF.FileFunction,Plated,1,4,PTH
FMAT,2
METRIC
; #@! TA.AperFunction,Plated,PTH,ViaDrill
T1C0.300
; #@! TA.AperFunction,Plated,PTH,ComponentDrill
T2C0.500
; #@! TA.AperFunction,Plated,PTH,ComponentDrill
T3C0.800
; #@! TA.AperFunction,Plated,PTH,ComponentDrill
T4C1.000
%
G90
G05
T1
X166.14Y-88.54
X166.14Y-90.54
X166.14Y-92.54
X166.14Y-94.54
X166.14Y-98.54
X166.14Y-100.54
X166.14Y-102.54
X166.14Y-104.54
X166.14Y-106.54
X166.14Y-108.69
X166.14Y-110.565
X166.14Y-112.54
X166.14Y-114.54
X166.14Y-116.54
X166.14Y-118.54
X166.14Y-120.54
X166.16Y-97.15
X166.16Y-122.09
X166.16Y-125.14
X166.63Y-86.9
X166.7Y-126.12
X167.287Y-108.05
X167.83Y-86.418
X167.85Y-126.49
X168.75Y-110.51
X169.192Y-108.06
X169.625Y-126.475
X169.7Y-86.378
X171.5Y-126.5
X171.9Y-98.9
X171.91Y-102.74
X173.5Y-126.5
X175.5Y-86.378
X175.5Y-126.5
X175.767Y-120.402
X177.05Y-100.0
X177.4Y-111.5
X177.4Y-112.5
X177.4Y-113.5
X177.4Y-115.5
X177.4Y-116.5
X177.4Y-117.45
X177.43Y-110.48
X177.5Y-86.378
X177.5Y-126.5
X178.15Y-102.15
X178.67Y-120.99
X178.7Y-121.828
X178.9Y-118.25
X178.95Y-114.25
X179.45Y-113.6
X179.5Y-86.378
X179.5Y-126.5
X179.57Y-122.28
X179.73Y-124.19
X179.8Y-118.33
X180.25Y-103.06
X180.5Y-114.25
X180.53Y-107.01
X180.55Y-109.65
X180.6Y-118.3
X180.65Y-124.4
X180.95Y-113.55
X181.0Y-102.0
X181.5Y-86.378
X181.5Y-109.65
X181.5Y-126.5
X182.0Y-107.0
X182.094Y-116.831
X182.2Y-123.9
X182.45Y-115.15
X182.5Y-111.08
X182.77Y-109.74
X182.78Y-120.92
X183.02Y-106.94
X183.2Y-104.2
X183.4Y-114.9
X183.4Y-116.4
X183.5Y-86.378
X183.5Y-126.5
X183.57Y-112.76
X184.2Y-103.15
X184.5Y-121.025
X184.8Y-110.85
X184.85Y-117.303
X185.334Y-105.304
X185.375Y-114.1
X185.5Y-86.378
X185.5Y-126.5
X185.975Y-121.025
X186.0Y-111.5
X186.0Y-112.3
X186.099Y-110.249
X186.125Y-123.925
X186.225Y-120.175
X186.35Y-102.65
X186.57Y-95.47
X187.26Y-106.06
X187.5Y-86.378
X187.5Y-126.5
X187.515Y-106.965
X187.725Y-108.595
X188.25Y-118.83
X188.71Y-113.269
X188.747Y-116.598
X188.773Y-115.776
X188.9Y-118.025
X189.0Y-124.4
X189.429Y-112.519
X189.5Y-86.378
X189.5Y-126.5
X190.03Y-118.6
X190.234Y-110.201
X190.38Y-116.025
X191.045Y-94.46
X191.5Y-86.378
X191.5Y-126.5
X191.99Y-90.23
X192.3Y-108.0
X192.3Y-109.5
X192.959Y-123.575
X193.13Y-112.18
X193.2Y-90.23
X193.5Y-86.378
X193.5Y-126.5
X193.85Y-121.986
X193.94Y-118.58
X194.382Y-96.795
X194.56Y-111.24
X194.72Y-117.95
X195.29Y-95.09
X195.296Y-94.004
X195.33Y-120.91
X195.5Y-86.378
X195.5Y-126.5
X195.99Y-100.09
X196.0Y-102.95
X196.26Y-92.81
X196.4Y-90.25
X196.4Y-123.9
X196.49Y-114.57
X196.85Y-100.19
X196.85Y-107.05
X197.16Y-96.31
X197.46Y-90.25
X197.5Y-86.378
X197.5Y-126.5
X197.59Y-98.09
X198.587Y-108.85
X199.052Y-93.927
X199.375Y-95.625
X199.477Y-98.458
X199.5Y-86.378
X199.5Y-126.5
X200.22Y-93.795
X200.36Y-100.08
X201.5Y-86.378
X201.5Y-126.5
X202.13Y-98.74
X202.412Y-100.112
X202.471Y-111.279
X202.54Y-125.89
X202.75Y-97.75
X202.77Y-115.825
X202.9Y-104.65
X203.1Y-95.81
X203.5Y-86.378
X203.5Y-126.5
X203.692Y-115.821
X203.7Y-108.737
X204.41Y-93.86
X205.075Y-125.787
X205.5Y-86.378
X205.5Y-126.5
X206.01Y-114.68
X206.05Y-108.875
X206.05Y-111.55
X206.55Y-112.607
X206.85Y-104.575
X207.5Y-86.378
X207.5Y-126.5
X208.001Y-109.626
X208.9Y-91.16
X209.092Y-108.737
X209.5Y-86.353
X209.5Y-126.5
X209.6Y-101.3
X210.0Y-103.325
X210.5Y-92.78
X211.4Y-101.4
X211.5Y-86.378
X211.9Y-103.25
X212.775Y-103.3
X213.075Y-94.9
X213.5Y-86.378
X214.8Y-100.1
X214.992Y-101.55
X215.025Y-104.125
X215.1Y-108.325
X215.24Y-98.93
X215.5Y-86.378
X215.65Y-103.575
X215.78Y-95.07
X216.65Y-86.95
X216.775Y-108.4
X216.8Y-88.45
X216.8Y-90.45
X216.8Y-92.45
X216.8Y-94.45
X216.8Y-96.45
X216.8Y-98.45
X216.8Y-100.45
X216.8Y-102.425
X216.8Y-104.45
X216.8Y-106.45
T3
X207.16Y-87.78
X209.66Y-87.78
X212.16Y-87.78
T4
X200.16Y-114.01
X202.56Y-88.09
X202.56Y-90.63
X202.56Y-93.17
X203.75Y-119.25
X205.79Y-120.38
T2
G00X190.42Y-87.89
M15
G01X190.42Y-87.19
M16
G05
G00X190.42Y-91.69
M15
G01X190.42Y-90.99
M16
G05
G00X199.06Y-87.89
M15
G01X199.06Y-87.19
M16
G05
G00X199.06Y-91.69
M15
G01X199.06Y-90.99
M16
G05
T3
G00X167.129Y-123.375
M15
G01X167.879Y-124.675
M16
G05
G00X167.205Y-95.72
M15
G01X167.955Y-97.02
M16
G05
G00X173.45Y-115.025
M15
G01X171.95Y-115.025
M16
G05
G00X173.526Y-87.37
M15
G01X172.026Y-87.37
M16
G05
G00X177.521Y-124.675
M15
G01X178.271Y-123.375
M16
G05
G00X177.597Y-97.02
M15
G01X178.347Y-95.72
M16
G05
M30
